<svg id="コンポーネント_29_35" data-name="コンポーネント 29 – 35" xmlns="http://www.w3.org/2000/svg" width="346" height="91.458" viewBox="0 0 346 91.458">
  <path id="長方形_348" data-name="長方形 348" d="M13,0H84a0,0,0,0,1,0,0V91a0,0,0,0,1,0,0H13A13,13,0,0,1,0,78V13A13,13,0,0,1,13,0Z" transform="translate(224.996 0.458)" fill="#7fc11b"/>
  <g id="グループ_6124" data-name="グループ 6124" transform="translate(330.693 29.685)">
    <g id="グループ_6124-2" data-name="グループ 6124" transform="translate(-330.693 -29.685)">
      <path id="パス_11415" data-name="パス 11415" d="M15.411,0h122.1c8.511,0,15.411,5.008,15.411,11.186V80.023c0,6.178-6.9,11.186-15.411,11.186H15.411C6.9,91.209,0,86.2,0,80.023V11.186C0,5.008,6.9,0,15.411,0Z" fill="#7fc11b"/>
      <rect id="長方形_349" data-name="長方形 349" width="271" height="91" transform="translate(75 0.209)" fill="#7fc11b"/>
    </g>
    <path id="パス_81866" data-name="パス 81866" d="M-87.852-4.56l4.476-4.476-.36-.36L-88.212-4.92-92.688-9.4l-.36.36,4.476,4.476-4.5,4.512.36.36,4.5-4.512L-83.688.312l.36-.36Zm-.36-4.188a.953.953,0,0,0-.948.96.942.942,0,0,0,.948.948.953.953,0,0,0,.96-.948A.963.963,0,0,0-88.212-8.748Zm-3.24,3.228a.953.953,0,0,0-.948.96.942.942,0,0,0,.948.948.953.953,0,0,0,.96-.948A.963.963,0,0,0-91.452-5.52Zm6.468,0a.953.953,0,0,0-.948.96.942.942,0,0,0,.948.948.953.953,0,0,0,.96-.948A.963.963,0,0,0-84.984-5.52Zm-3.228,3.252a.953.953,0,0,0-.948.96.942.942,0,0,0,.948.948.953.953,0,0,0,.96-.948A.963.963,0,0,0-88.212-2.268ZM-77.76-3.552a3.283,3.283,0,0,1-.684,2.1,4.519,4.519,0,0,1-2.592,1.26,3,3,0,0,1,.588.8c.108.216.156.288.264.288a.921.921,0,0,0,.276-.072A4.761,4.761,0,0,0-77.256-.9a4.614,4.614,0,0,0,.768-2.652h1.38V-.768A1.584,1.584,0,0,0-74.82.4c.24.24.684.348,1.932.348s1.752-.12,2.16-.48a2.021,2.021,0,0,0,.5-1.512c.012-.312.012-.312-.3-.372a2.915,2.915,0,0,1-.828-.348c-.024.828-.084,1.152-.288,1.332a1.693,1.693,0,0,1-1.008.18c-.66,0-1-.036-1.1-.144-.084-.108-.1-.24-.1-.54V-3.552h1.716c1.092,0,1.476.024,1.548.024.12,0,.132-.012.132-.144v-.876c0-.12-.012-.132-.132-.132-.072,0-.456.024-1.548.024h-6.9c-1.1,0-1.476-.024-1.548-.024-.132,0-.144.012-.144.132v.876c0,.132.012.144.144.144.072,0,.444-.024,1.548-.024Zm2.7-5.244v-.12a2.456,2.456,0,0,1,.048-.72.613.613,0,0,0,.072-.24c0-.048-.072-.1-.18-.108-.408-.036-.84-.06-1.284-.072a4.89,4.89,0,0,1,.084,1.14v.12h-2.544c-1.116,0-1.524-.024-1.6-.024-.12,0-.132.012-.132.132,0,.072.024.288.024.744v.432c0,1.1-.024,1.284-.024,1.356,0,.132.012.144.132.144h1c.12,0,.132-.012.132-.144V-7.68h7.464v1.524c0,.12.012.132.132.132h1c.12,0,.132-.012.132-.132,0-.072-.024-.264-.024-1.356V-8.04c0-.36.024-.576.024-.648,0-.12-.012-.132-.132-.132-.072,0-.48.024-1.6.024Zm.78,3.192c1.068,0,1.44.024,1.512.024.12,0,.12-.012.12-.132v-.9c0-.132,0-.144-.12-.144-.072,0-.444.024-1.512.024h-2.628c-1.08,0-1.44-.024-1.512-.024-.12,0-.132.012-.132.144v.9c0,.12.012.132.132.132.072,0,.432-.024,1.512-.024Zm12.036-3.984c.084-.06.12-.108.12-.18s-.06-.144-.216-.18A8.344,8.344,0,0,0-63.6-10.2a3.778,3.778,0,0,1-.456.864A10.364,10.364,0,0,1-68.7-5.712a2.507,2.507,0,0,1,.552.792c.1.216.144.3.228.3a1.018,1.018,0,0,0,.3-.108,14.427,14.427,0,0,0,1.464-.828v.78c0,.12.012.132.132.132.072,0,.444-.024,1.548-.024h.768v1.344H-64.92c-1.164,0-1.56-.024-1.632-.024-.12,0-.132.012-.132.132V-2.3c0,.12.012.132.132.132.072,0,.468-.024,1.632-.024h1.212V-.732H-66.42c-1.1,0-1.488-.024-1.56-.024-.12,0-.132.012-.132.132V.312c0,.12.012.132.132.132.072,0,.456-.024,1.56-.024h6.852c1.092,0,1.476.024,1.548.024.12,0,.132-.012.132-.132V-.624c0-.12-.012-.132-.132-.132-.072,0-.456.024-1.548.024h-2.856V-2.2h1.368c1.164,0,1.56.024,1.632.024.132,0,.144-.012.144-.132v-.912c0-.12-.012-.132-.144-.132-.072,0-.468.024-1.632.024h-1.368V-4.668h.852c1.1,0,1.488.024,1.56.024.108,0,.12-.012.12-.132v-.876a14.144,14.144,0,0,0,1.644.852,1.118,1.118,0,0,0,.288.108c.1,0,.132-.1.216-.312a3.133,3.133,0,0,1,.516-.912,10.587,10.587,0,0,1-5.136-3.576ZM-64.476-5.8c-.7,0-1.092,0-1.308-.012a11.341,11.341,0,0,0,2.76-2.7,10.5,10.5,0,0,0,2.88,2.7c-.192,0-.6.012-1.428.012Zm11.784-1.5c-.06.048-.084.084-.084.12s.024.06.084.1a16.564,16.564,0,0,1,2.268,1.512H-53.88c-1.068,0-1.44-.024-1.512-.024-.12,0-.132.012-.132.132v.936c0,.12.012.132.132.132.072,0,.444-.024,1.512-.024h2.928V-.864c0,.336-.108.432-.456.432q-.558,0-1.476-.072a3.856,3.856,0,0,1,.408.96c.1.384.1.384.468.384,1.212,0,1.656-.072,2-.312.252-.18.384-.492.384-1.08,0-.444-.012-1-.012-1.872V-4.416h2.616A8.212,8.212,0,0,1-48.624-3a4.171,4.171,0,0,1,.828.528c.156.132.228.192.288.192s.144-.06.276-.18a10.9,10.9,0,0,0,1.644-1.7,1.836,1.836,0,0,1,.444-.444c.12-.084.168-.132.168-.228,0-.132-.024-.2-.4-.5-.384-.324-.5-.348-.6-.348a.4.4,0,0,0-.18.06.465.465,0,0,1-.276.06H-49.14l.192-.168c.132-.108.132-.12.036-.2l-.42-.348a17.532,17.532,0,0,0,2.484-1.8A1.42,1.42,0,0,1-46.4-8.4c.144-.06.216-.12.216-.228,0-.132-.072-.24-.432-.588-.3-.3-.468-.384-.564-.384a.357.357,0,0,0-.168.06.9.9,0,0,1-.312.036h-5.028c-1.176,0-1.584-.024-1.656-.024-.108,0-.12.012-.12.132v.9c0,.12.012.132.12.132.072,0,.48-.024,1.656-.024h4.284a11.927,11.927,0,0,1-1.932,1.38c-.492-.324-1-.612-1.512-.888-.108-.048-.144-.048-.24.048Zm12.9,1.284c-.156.06-.18.084-.12.2.12.24.228.492.336.756-.468.036-.96.06-1.428.084.552-.708,1.212-1.632,1.824-2.6a1.428,1.428,0,0,1,.4-.492c.1-.048.132-.1.132-.18s-.036-.12-.144-.18A11.147,11.147,0,0,0-39.8-8.94a6.279,6.279,0,0,1-.372.828c-.264.456-.528.9-.8,1.332-.168-.2-.348-.4-.528-.6a19.071,19.071,0,0,0,1.056-1.656.732.732,0,0,1,.228-.288c.06-.048.108-.1.108-.156s-.048-.132-.156-.192a10.1,10.1,0,0,0-1.044-.444,3.668,3.668,0,0,1-.276.744A11.586,11.586,0,0,1-42.24-8.16l-.3-.312c-.048-.048-.072-.072-.108-.072s-.072.036-.12.108l-.444.588c-.048.072-.084.12-.084.156s.024.06.072.108A17.085,17.085,0,0,1-41.6-5.832l-.672.912a9.492,9.492,0,0,1-1-.024c.06.444.108.72.168,1.008.024.12.06.2.144.2a.323.323,0,0,0,.18-.06,1.294,1.294,0,0,1,.444-.1l1.128-.072v3.2c0,1.1-.024,1.5-.024,1.572,0,.12.012.132.132.132h.912c.12,0,.132-.012.132-.132,0-.06-.024-.468-.024-1.572v-3.3c.276-.024.552-.048.828-.084l.144.54c.024.108.072.12.2.084l.636-.2c.156-.048.18-.108.144-.24a11.042,11.042,0,0,0-.888-2.172c-.06-.108-.084-.12-.228-.072Zm5.82-.972a34.79,34.79,0,0,1-.3,5.58c-.12.636-.324,1.032-.768,1.032A9.308,9.308,0,0,1-36.564-.48a3.525,3.525,0,0,1,.336.912c.084.384.084.384.444.408.312.024.648.012.9.012,1.128-.024,1.632-.6,1.824-1.824a38.544,38.544,0,0,0,.348-6.012c0-.336,0-.66.024-1,0-.12-.024-.144-.144-.144-.072,0-.348.024-1.212.024h-2.268c.108-.24.192-.492.276-.732a1.541,1.541,0,0,1,.336-.612c.108-.108.12-.144.12-.24s-.1-.144-.252-.192c-.24-.06-.708-.168-1.164-.252a6.08,6.08,0,0,1-.228,1.02A7.283,7.283,0,0,1-38.94-6.2a2.27,2.27,0,0,1,.648.564c.12.144.192.216.252.216s.132-.072.264-.216a7.345,7.345,0,0,0,.936-1.344Zm-3.552,2c-.156.084-.156.12-.072.24a12.572,12.572,0,0,1,1.26,2.316c.048.132.1.156.228.072l.756-.456c.144-.072.168-.108.108-.228a11.58,11.58,0,0,0-1.368-2.292c-.072-.084-.108-.108-.24-.036ZM-43.26-.288A2.487,2.487,0,0,1-42.624,0a.592.592,0,0,0,.276.144c.072,0,.12-.084.168-.264a13.973,13.973,0,0,0,.456-2.3,1.241,1.241,0,0,1,.072-.384.434.434,0,0,0,.072-.18c0-.06-.06-.12-.2-.144-.24-.048-.564-.084-.924-.132a4.046,4.046,0,0,1-.024.672A9.111,9.111,0,0,1-43.26-.288ZM-39.528-3.1c-.144.048-.156.072-.108.2a18.731,18.731,0,0,1,.54,2.3c.024.12.036.156.216.1l.636-.216c.156-.048.168-.084.144-.216a18.435,18.435,0,0,0-.612-2.268c-.048-.132-.072-.156-.216-.108ZM-28-8.388h-.768l.072-.252a.991.991,0,0,1,.12-.348.373.373,0,0,0,.084-.2c0-.072-.036-.108-.18-.144a9.8,9.8,0,0,0-1.044-.228,2.987,2.987,0,0,1-.06.564A6.506,6.506,0,0,1-30.7-6.876a2.9,2.9,0,0,1,.732.348.672.672,0,0,0,.288.144c.084,0,.132-.084.216-.264q.162-.306.324-.684H-28V-6.24H-29c-1.116,0-1.5-.024-1.572-.024-.12,0-.132.012-.132.132v.852c0,.132.012.144.132.144.072,0,.456-.024,1.572-.024H-28v1.032h-.576c-1.044,0-1.4-.024-1.488-.024-.12,0-.132.012-.132.132,0,.084.024.372.024,1.092v1.572c0,.78-.024,1.1-.024,1.188,0,.12.012.132.132.132h.96c.12,0,.132-.012.132-.132,0-.072-.024-.408-.024-1.128V-3.072h1v1.6C-28,0-28.02.732-28.02.816c0,.108.012.12.132.12h.972c.12,0,.132-.012.132-.12,0-.072-.024-.828-.024-2.3V-3.072h1.056v1.656c0,.228-.084.3-.276.3a4.852,4.852,0,0,1-.528-.036,2.264,2.264,0,0,1,.264.756c.06.348.06.36.432.36a1.606,1.606,0,0,0,1.008-.228.858.858,0,0,0,.276-.768c0-.324-.024-.684-.024-1.356v-.42c0-.768.024-1.14.024-1.212,0-.12-.012-.132-.132-.132-.084,0-.432.024-1.476.024h-.624V-5.16h.8c1.116,0,1.488.024,1.56.024.12,0,.132-.012.132-.144v-.852c0-.12-.012-.132-.132-.132-.072,0-.444.024-1.56.024h-.8V-7.332h.576c.948,0,1.26.024,1.332.024.12,0,.132-.012.132-.132v-.84c0-.12-.012-.132-.132-.132-.072,0-.384.024-1.332.024h-.576V-8.8a1.58,1.58,0,0,1,.072-.66.752.752,0,0,0,.084-.264c0-.072-.072-.12-.18-.12-.384-.048-.792-.072-1.248-.084A6.147,6.147,0,0,1-28-8.784Zm7.728.216A4.116,4.116,0,0,1-20.2-9.384a.571.571,0,0,0,.084-.252c0-.06-.072-.12-.2-.132A11.044,11.044,0,0,0-21.6-9.84a9.814,9.814,0,0,1,.1,1.692v7.26c0,.384-.12.468-.516.468a9.279,9.279,0,0,1-1.152-.072,3.448,3.448,0,0,1,.348.936c.084.384.084.384.444.384,1.056,0,1.38-.084,1.716-.312s.432-.636.432-1.224-.036-1.56-.036-2.4Zm-3.5,4.284c0,1.02-.024,1.512-.024,1.584,0,.12.012.132.132.132h.96c.132,0,.144-.012.144-.132,0-.072-.024-.564-.024-1.584V-7.2a8.189,8.189,0,0,1,.036-1.284.97.97,0,0,0,.084-.264c0-.072-.06-.12-.18-.132-.408-.048-.792-.072-1.212-.084a12.645,12.645,0,0,1,.084,1.776ZM-.6-2.472v.564H-2.568c-1.176,0-1.572-.024-1.644-.024-.12,0-.132.012-.132.144v.648c0,.132.012.144.132.144.072,0,.468-.024,1.644-.024H-.6v.276c0,.348-.108.432-.624.444A8.191,8.191,0,0,1-2.436-.348a3.868,3.868,0,0,1,.468.912c.12.336.12.348.48.348A3.884,3.884,0,0,0,.2.648C.528.456.636.132.636-.42c0-.18,0-.384-.012-.6H3.156v.264c0,.12.012.132.132.132h.924c.12,0,.132-.012.132-.132,0-.072-.024-.384-.024-1.1v-.612c.708.012.984.024,1.044.024.108,0,.12-.012.12-.132V-3.3c0-.12-.012-.132-.12-.132-.06,0-.336.024-1.044.024v-.276c0-.684.024-.972.024-1.044,0-.12-.012-.132-.132-.132-.06,0-.48.024-1.656.024H.612v-.528h1.6c1.176,0,1.6.024,1.68.024.12,0,.132-.012.132-.144C4.02-5.556,4-5.712,4-6.108v-.648c0-.4.024-.552.024-.624,0-.132-.012-.144-.132-.144-.084,0-.5.024-1.68.024H.612v-.528H3.66C4.74-8.028,5.112-8,5.184-8c.12,0,.132-.012.132-.132v-.756c0-.12-.012-.132-.132-.132C5.112-9.024,4.74-9,3.66-9H.612a1.86,1.86,0,0,1,.072-.672A.466.466,0,0,0,.756-9.9c0-.072-.084-.12-.192-.132-.42-.048-.8-.06-1.248-.072A5.738,5.738,0,0,1-.6-9H-3.624c-1.08,0-1.452-.024-1.524-.024-.12,0-.132.012-.132.132v.756c0,.12.012.132.132.132.072,0,.444-.024,1.524-.024H-.6V-7.5H-2.148c-1.176,0-1.6-.024-1.668-.024-.132,0-.144.012-.144.144,0,.072.024.228.024.624v.648c0,.4-.024.552-.024.624,0,.132.012.144.144.144.072,0,.492-.024,1.668-.024H-.6v.528H-2.58c-1.164,0-1.56-.024-1.632-.024-.12,0-.132.012-.132.132v.66c0,.108.012.12.132.12.072,0,.468-.024,1.632-.024H-.6v.564H-3.816c-1.044,0-1.4-.024-1.476-.024-.108,0-.12.012-.12.132v.72c0,.12.012.132.12.132.072,0,.432-.024,1.476-.024Zm3.756-1.5v.564H.612v-.564ZM.612-1.908v-.564H3.156v.564Zm2.22-4.224H.612v-.6h2.22Zm-5.6,0v-.6H-.6v.6ZM12.384-4.6c0-1.068.024-1.62.024-1.692,0-.108-.012-.12-.132-.12-.072,0-.36.024-1.248.024H9.516c-.888,0-1.176-.024-1.26-.024-.12,0-.132.012-.132.12,0,.084.024.564.024,1.6v3.96C8.148.3,8.124.756,8.124.828c0,.12.012.132.132.132h.96c.12,0,.132-.012.132-.132,0-.06-.024-.54-.024-1.524v-.84h1.92v1c0,.24-.072.312-.4.312s-.48-.012-.8-.036A2.226,2.226,0,0,1,10.32.5c.06.372.06.36.444.36C11.64.852,11.94.768,12.12.612c.252-.216.288-.54.288-1,0-.36-.024-1-.024-1.608ZM9.324-2.5V-3.42h1.92V-2.5Zm1.92-2.82v.924H9.324v-.924Zm5.064-1.9c1.068,0,1.44.024,1.512.024.12,0,.132-.012.132-.144v-.912c0-.12-.012-.132-.132-.132-.072,0-.444.024-1.512.024H14.724c.192-.252.36-.492.492-.7a1.328,1.328,0,0,1,.324-.42c.06-.048.108-.1.108-.156,0-.084-.06-.12-.168-.168a11.413,11.413,0,0,0-1.2-.324,2.656,2.656,0,0,1-.228.6,12.414,12.414,0,0,1-.732,1.164h-2.7l.756-.3c.18-.072.18-.084.132-.192a6.126,6.126,0,0,0-.7-1.152c-.072-.108-.084-.108-.252-.048l-.816.312c-.132.06-.156.084-.084.192a8,8,0,0,1,.672,1.188H8.916c-1.056,0-1.428-.024-1.5-.024-.12,0-.132.012-.132.132v.912c0,.132.012.144.132.144.072,0,.444-.024,1.5-.024Zm.756,2.28a3.849,3.849,0,0,1,.072-1.152.627.627,0,0,0,.084-.252c0-.06-.072-.12-.192-.132-.408-.048-.792-.072-1.236-.084a9.907,9.907,0,0,1,.1,1.62v4.14c0,.384-.144.468-.516.468a9.877,9.877,0,0,1-1.212-.06,2.408,2.408,0,0,1,.324.84c.084.384.084.372.456.372,1.08,0,1.4-.06,1.728-.264s.42-.5.42-1.092-.024-1.236-.024-2.088Zm-3.54,1.944c0,.8-.024,1.176-.024,1.26,0,.12.012.12.132.12h.948c.12,0,.132,0,.132-.12,0-.072-.024-.456-.024-1.26V-4.4a5.544,5.544,0,0,1,.048-1.188,1.038,1.038,0,0,0,.072-.276c0-.072-.048-.12-.168-.132-.408-.048-.768-.084-1.2-.1a12.349,12.349,0,0,1,.084,1.7ZM26.016-7.356A2.726,2.726,0,0,1,28.7-4.572c0,2.268-1.6,3.108-3.624,3.588a2.545,2.545,0,0,1,.84.756c.156.24.264.288.516.216,2.436-.732,3.7-2.136,3.7-4.368,0-2.388-1.692-4.164-4.572-4.164a5.251,5.251,0,0,0-3.9,1.536A4.421,4.421,0,0,0,20.3-3.888C20.3-1.932,21.372-.8,22.428-.8a2.279,2.279,0,0,0,2.04-1.38,15.026,15.026,0,0,0,1.5-5.172Zm-1.44.072a13.711,13.711,0,0,1-1.272,4.3c-.324.576-.588.732-.9.732-.372,0-.816-.612-.816-1.716a3.455,3.455,0,0,1,.936-2.22A3.614,3.614,0,0,1,24.576-7.284Zm9.732,3.408a3.167,3.167,0,0,0-.636,1.716C33.672-.6,35.028.264,37.8.264a19.046,19.046,0,0,0,3.516-.288c.144-.024.216-.072.2-.18a10.034,10.034,0,0,0-.192-1.176c-.024-.108-.084-.144-.252-.108a15.267,15.267,0,0,1-3.252.348c-2.064,0-2.844-.372-2.844-1.128a1.972,1.972,0,0,1,.312-.912c.06-.1.048-.156-.06-.216C34.92-3.564,34.62-3.72,34.308-3.876Zm.264-4.536c-.024.432-.048.78-.048,1.068,0,.144.048.192.156.216a14.359,14.359,0,0,0,2.208.2,7.327,7.327,0,0,0,.876-.036c-.42.252-.948.588-1.572,1a2.867,2.867,0,0,1,.84.384.452.452,0,0,0,.552-.036A6.991,6.991,0,0,1,40.524-6.8c.144-.012.2-.084.2-.252a7,7,0,0,0-.108-1.02c-.012-.1-.06-.144-.18-.132-.768.06-1.62.108-2.5.108A15.138,15.138,0,0,1,34.572-8.412Zm6-.576A5.954,5.954,0,0,1,41.784-7.6a.125.125,0,0,0,.2.036l.5-.372a.121.121,0,0,0,.036-.192,5.523,5.523,0,0,0-1.14-1.284c-.072-.06-.12-.072-.18-.024Zm1.1-.792a5.677,5.677,0,0,1,1.2,1.38.123.123,0,0,0,.2.036l.48-.372a.139.139,0,0,0,.036-.216,5.011,5.011,0,0,0-1.14-1.236c-.072-.06-.108-.072-.18-.024ZM48.108-7.3c-.06.048-.084.084-.084.12s.024.06.084.1a16.564,16.564,0,0,1,2.268,1.512H46.92c-1.068,0-1.44-.024-1.512-.024-.12,0-.132.012-.132.132v.936c0,.12.012.132.132.132.072,0,.444-.024,1.512-.024h2.928V-.864c0,.336-.108.432-.456.432q-.558,0-1.476-.072a3.856,3.856,0,0,1,.408.96c.1.384.1.384.468.384,1.212,0,1.656-.072,2-.312.252-.18.384-.492.384-1.08,0-.444-.012-1-.012-1.872V-4.416h2.616A8.212,8.212,0,0,1,52.176-3,4.171,4.171,0,0,1,53-2.472c.156.132.228.192.288.192s.144-.06.276-.18a10.9,10.9,0,0,0,1.644-1.7,1.836,1.836,0,0,1,.444-.444c.12-.084.168-.132.168-.228,0-.132-.024-.2-.4-.5-.384-.324-.5-.348-.6-.348a.4.4,0,0,0-.18.06.465.465,0,0,1-.276.06H51.66l.192-.168c.132-.108.132-.12.036-.2l-.42-.348a17.533,17.533,0,0,0,2.484-1.8A1.419,1.419,0,0,1,54.4-8.4c.144-.06.216-.12.216-.228,0-.132-.072-.24-.432-.588-.3-.3-.468-.384-.564-.384a.357.357,0,0,0-.168.06.9.9,0,0,1-.312.036H48.108c-1.176,0-1.584-.024-1.656-.024-.108,0-.12.012-.12.132v.9c0,.12.012.132.12.132.072,0,.48-.024,1.656-.024h4.284a11.927,11.927,0,0,1-1.932,1.38c-.492-.324-1-.612-1.512-.888-.108-.048-.144-.048-.24.048Zm12.9,1.284c-.156.06-.18.084-.12.2.12.24.228.492.336.756-.468.036-.96.06-1.428.084.552-.708,1.212-1.632,1.824-2.6a1.428,1.428,0,0,1,.4-.492c.1-.048.132-.1.132-.18s-.036-.12-.144-.18A11.147,11.147,0,0,0,61-8.94a6.279,6.279,0,0,1-.372.828c-.264.456-.528.9-.8,1.332-.168-.2-.348-.4-.528-.6a19.071,19.071,0,0,0,1.056-1.656.732.732,0,0,1,.228-.288c.06-.048.108-.1.108-.156s-.048-.132-.156-.192a10.1,10.1,0,0,0-1.044-.444,3.668,3.668,0,0,1-.276.744A11.586,11.586,0,0,1,58.56-8.16l-.3-.312c-.048-.048-.072-.072-.108-.072s-.072.036-.12.108l-.444.588c-.048.072-.084.12-.084.156s.024.06.072.108A17.085,17.085,0,0,1,59.2-5.832l-.672.912a9.492,9.492,0,0,1-1-.024c.06.444.108.72.168,1.008.024.12.06.2.144.2a.323.323,0,0,0,.18-.06,1.294,1.294,0,0,1,.444-.1l1.128-.072v3.2c0,1.1-.024,1.5-.024,1.572,0,.12.012.132.132.132h.912c.12,0,.132-.012.132-.132,0-.06-.024-.468-.024-1.572v-3.3c.276-.024.552-.048.828-.084l.144.54c.024.108.072.12.2.084l.636-.2c.156-.048.18-.108.144-.24a11.042,11.042,0,0,0-.888-2.172c-.06-.108-.084-.12-.228-.072Zm5.82-.972a34.79,34.79,0,0,1-.3,5.58c-.12.636-.324,1.032-.768,1.032A9.308,9.308,0,0,1,64.236-.48a3.526,3.526,0,0,1,.336.912c.084.384.084.384.444.408.312.024.648.012.9.012,1.128-.024,1.632-.6,1.824-1.824a38.543,38.543,0,0,0,.348-6.012c0-.336,0-.66.024-1,0-.12-.024-.144-.144-.144-.072,0-.348.024-1.212.024H64.488c.108-.24.192-.492.276-.732a1.541,1.541,0,0,1,.336-.612c.108-.108.12-.144.12-.24s-.1-.144-.252-.192c-.24-.06-.708-.168-1.164-.252a6.08,6.08,0,0,1-.228,1.02A7.283,7.283,0,0,1,61.86-6.2a2.27,2.27,0,0,1,.648.564c.12.144.192.216.252.216s.132-.072.264-.216a7.345,7.345,0,0,0,.936-1.344Zm-3.552,2c-.156.084-.156.12-.072.24a12.572,12.572,0,0,1,1.26,2.316c.048.132.1.156.228.072l.756-.456c.144-.072.168-.108.108-.228a11.58,11.58,0,0,0-1.368-2.292c-.072-.084-.108-.108-.24-.036ZM57.54-.288A2.487,2.487,0,0,1,58.176,0a.592.592,0,0,0,.276.144c.072,0,.12-.084.168-.264a13.973,13.973,0,0,0,.456-2.3,1.241,1.241,0,0,1,.072-.384.434.434,0,0,0,.072-.18c0-.06-.06-.12-.2-.144-.24-.048-.564-.084-.924-.132a4.046,4.046,0,0,1-.024.672A9.111,9.111,0,0,1,57.54-.288ZM61.272-3.1c-.144.048-.156.072-.108.2a18.731,18.731,0,0,1,.54,2.3c.024.12.036.156.216.1l.636-.216c.156-.048.168-.084.144-.216a18.435,18.435,0,0,0-.612-2.268c-.048-.132-.072-.156-.216-.108Zm15.06-4.08a4.341,4.341,0,0,0-2.3,3.8c0,2.5,2.316,3.708,4.428,3.708.144,0,.192-.072.228-.252a4.269,4.269,0,0,0,.132-1.032c0-.132-.072-.18-.264-.18C76.464-1.26,75.36-2.1,75.36-3.648c0-1.44,1.02-2.844,3.06-3.54a5.354,5.354,0,0,1,1.464-.264c.156,0,.228-.036.228-.18a6.855,6.855,0,0,0-.132-1.056c-.012-.084-.072-.156-.252-.132-3.1.408-5.736.8-7.212,1.02a16.554,16.554,0,0,1-1.908.2,8.361,8.361,0,0,0,.444,1.3.281.281,0,0,0,.228.18.7.7,0,0,0,.264-.1c.18-.06.3-.084.756-.192,1.284-.264,2.568-.516,4.032-.792Zm1.74,1.716a5.954,5.954,0,0,1,1.212,1.392.125.125,0,0,0,.2.036l.5-.372a.121.121,0,0,0,.036-.192,5.523,5.523,0,0,0-1.14-1.284c-.072-.06-.12-.072-.18-.024Zm1.1-.792a5.677,5.677,0,0,1,1.2,1.38.123.123,0,0,0,.2.036l.48-.372a.139.139,0,0,0,.036-.216,5.011,5.011,0,0,0-1.14-1.236c-.072-.06-.108-.072-.18-.024Zm3.552,4.764c-.06.072-.084.108-.084.144s.036.072.108.12A8.96,8.96,0,0,1,85.02,1.068c.06.1.108.12.168.12.036,0,.084-.036.168-.108l.732-.624c.1-.084.12-.132.12-.192S86.2.18,86.124.084a8.934,8.934,0,0,0-2.388-2.2.242.242,0,0,0-.156-.072.256.256,0,0,0-.18.1ZM-93.054,9.16c0-1.764.024-2.352.024-2.424,0-.12-.012-.132-.132-.132-.084,0-.312.024-1.032.024h-1.032c-.72,0-.948-.024-1.032-.024-.12,0-.132.012-.132.132,0,.072.024.708.024,2.88v2.616c0,3.012-.024,3.624-.024,3.7,0,.12.012.132.132.132h.888c.108,0,.12-.012.12-.132V14.98h1.1v.528c0,.12.012.132.12.132h.864c.12,0,.132-.012.132-.132,0-.072-.024-.612-.024-3.6Zm-2.2,4.728V11.3h1.1v2.592Zm1.1-6.168V10.2h-1.1V7.72Zm6.54,2.976c1.14,0,1.536.024,1.608.024.132,0,.144-.012.144-.144V9.748c0-.12-.012-.132-.144-.132-.072,0-.468.024-1.608.024h-1.272V8.4h.8c1.092,0,1.452.024,1.524.024.12,0,.132-.012.132-.132v-.84c0-.132-.012-.144-.132-.144-.072,0-.432.024-1.524.024h-.8a2.787,2.787,0,0,1,.06-.9.667.667,0,0,0,.072-.252c0-.06-.072-.108-.192-.12-.444-.048-.768-.072-1.236-.084a10.052,10.052,0,0,1,.084,1.356h-.564c-1.068,0-1.44-.024-1.512-.024-.132,0-.144.012-.144.144V8.3c0,.12.012.132.144.132.072,0,.444-.024,1.512-.024h.564V9.64h-.864c-1.14,0-1.536-.024-1.608-.024-.132,0-.144.012-.144.132v.828c0,.132.012.144.144.144.072,0,.468-.024,1.608-.024Zm-.936,2.256V15.34c0,.276-.108.372-.4.372-.4,0-.756-.012-1.176-.048a2.674,2.674,0,0,1,.36.876c.084.36.1.36.456.36a2.769,2.769,0,0,0,1.56-.264,1.116,1.116,0,0,0,.42-1.02c0-.408-.012-.924-.012-1.476V12.952c.816.012,1.14.024,1.2.024.132,0,.144-.012.144-.132V12c0-.12-.012-.132-.144-.132-.06,0-.384.024-1.2.024a1.522,1.522,0,0,1,.06-.612.4.4,0,0,0,.06-.2c0-.06-.072-.108-.2-.132-.324-.048-.756-.084-1.212-.108a8.913,8.913,0,0,1,.084,1.056h-2.364c-1.14,0-1.524-.024-1.6-.024-.132,0-.144.012-.144.132v.84c0,.12.012.132.144.132.072,0,.456-.024,1.6-.024Zm-3.24.756c-.144.084-.144.12-.06.216A10.047,10.047,0,0,1-90.786,15.4c.036.06.06.084.1.084s.072-.024.144-.072l.732-.5c.12-.084.132-.12.06-.228a9.6,9.6,0,0,0-1.1-1.38c-.1-.084-.132-.084-.252-.012Zm18-5.676c0-1.02.024-1.512.024-1.584,0-.132-.012-.144-.132-.144-.072,0-.4.024-1.332.024h-1.764c-.936,0-1.248-.024-1.32-.024-.12,0-.132.012-.132.144,0,.072.024.36.024,1.056V9.16c0,.708-.024.984-.024,1.056,0,.132.012.144.132.144.072,0,.384-.024,1.32-.024h1.968v4.788c0,.36-.1.468-.492.468a8.272,8.272,0,0,1-1.008-.06,3.75,3.75,0,0,1,.288.876c.072.384.072.372.432.372,1.128,0,1.464-.1,1.716-.324a1.3,1.3,0,0,0,.348-1.1c0-.588-.048-1.548-.048-2.388Zm-3.456,1.44v-.72h2.22v.72Zm2.22-2.244v.708h-2.22V7.228Zm-7.236-.9c-.876,0-1.332-.024-1.416-.024-.12,0-.132.012-.132.144,0,.072.024.912.024,2.58v5.2c0,1.656-.024,2.472-.024,2.556,0,.12.012.132.132.132h1.02c.12,0,.132-.012.132-.132,0-.084-.024-.9-.024-2.556V10.336H-80.6c.78,0,1.14.024,1.212.024.108,0,.12-.012.12-.144,0-.072-.024-.408-.024-1.14V7.588c0-.72.024-1.068.024-1.14,0-.132-.012-.144-.12-.144-.072,0-.432.024-1.212.024Zm1.788,3.144h-2.076v-.72h2.076Zm0-2.244v.708h-2.076V7.228Zm.4,8.856c.132,0,.144-.012.144-.144v-.492h2.2v.372c0,.12.012.132.132.132h.864c.12,0,.132-.012.132-.132,0-.06-.024-.384-.024-2.124V12.508c0-.864.024-1.224.024-1.3,0-.12-.012-.132-.132-.132-.084,0-.372.024-1.284.024h-1.62c-.912,0-1.2-.024-1.284-.024-.12,0-.132.012-.132.132,0,.084.024.444.024,1.5v1.056c0,1.776-.024,2.1-.024,2.172,0,.132.012.144.132.144Zm.144-1.548V13.7h2.2v.84Zm0-2.508h2.2v.8h-2.2Zm10.392-.816a.264.264,0,0,0-.072.144c0,.036.024.06.072.108a12.964,12.964,0,0,1,1.188,1.224,9.463,9.463,0,0,1-3.276,3.144,2.932,2.932,0,0,1,.7.636c.132.156.192.24.264.24s.144-.06.288-.168a10.707,10.707,0,0,0,4.356-6.312A9.941,9.941,0,0,0-64.518,12v2.724c0,1.344-.024,2.016-.024,2.088,0,.12.012.132.132.132h1.044c.12,0,.132-.012.132-.132,0-.06-.024-.744-.024-2.088V13a13.508,13.508,0,0,0,1.8,1.008.825.825,0,0,0,.276.1c.1,0,.132-.084.216-.3a3.7,3.7,0,0,1,.528-.948,13.806,13.806,0,0,1-2.82-1.44V7.78a4.761,4.761,0,0,1,.084-1.332.784.784,0,0,0,.06-.24c0-.072-.072-.108-.18-.12a11.571,11.571,0,0,0-1.32-.1,11.015,11.015,0,0,1,.1,1.824V10.36a8.732,8.732,0,0,1-1.2-1.536l.072-.12c.072-.084.12-.132.12-.2s-.06-.168-.348-.42c-.312-.288-.444-.324-.528-.324a.3.3,0,0,0-.168.048.647.647,0,0,1-.36.072h-1.236c.072-.192.132-.4.2-.612a1.647,1.647,0,0,1,.24-.612.269.269,0,0,0,.084-.2c0-.072-.06-.132-.18-.168a9.413,9.413,0,0,0-1.224-.264,3.624,3.624,0,0,1-.156.948,9.5,9.5,0,0,1-2.52,4.248,2.548,2.548,0,0,1,.6.732c.084.168.144.24.2.24s.132-.06.24-.18a11.705,11.705,0,0,0,2.04-3.012h1.7a11.622,11.622,0,0,1-.828,2.6,10.655,10.655,0,0,0-1.056-1.032c-.048-.048-.084-.072-.12-.072s-.06.024-.108.084ZM-53.6,10.24a1.2,1.2,0,0,0-1.2,1.2,1.2,1.2,0,0,0,1.2,1.2,1.2,1.2,0,0,0,1.2-1.2A1.2,1.2,0,0,0-53.6,10.24Zm16.356,6.108c1.068,0,1.428.024,1.5.024.108,0,.12-.012.12-.132v-1c0-.12-.012-.132-.12-.132-.072,0-.432.024-1.5.024H-40.4V11.044h2.112c1.164,0,1.56.024,1.632.024.132,0,.144-.012.144-.132v-1c0-.12-.012-.132-.144-.132-.072,0-.468.024-1.632.024H-40.4V7.948a4.912,4.912,0,0,1,.072-1.368.666.666,0,0,0,.072-.264c0-.084-.084-.132-.192-.144-.42-.048-.96-.072-1.4-.084a11.99,11.99,0,0,1,.1,1.884v1.86h-1.908c-1.176,0-1.572-.024-1.644-.024-.12,0-.132.012-.132.132v1c0,.12.012.132.132.132.072,0,.468-.024,1.644-.024h1.908v4.092h-2.964c-1.068,0-1.428-.024-1.5-.024-.108,0-.12.012-.12.132v1c0,.12.012.132.12.132.072,0,.432-.024,1.5-.024Zm6.216.408c.12,0,.132-.012.132-.132v-.648h5.028v.588c0,.12.012.132.132.132h1.068c.12,0,.132-.012.132-.132,0-.072-.024-.78-.024-4.224V9.676c0-1.968.024-2.7.024-2.772,0-.132-.012-.144-.132-.144-.072,0-.492.024-1.656.024h-4.116c-1.164,0-1.572-.024-1.656-.024-.12,0-.132.012-.132.144,0,.072.024.8.024,3.132v2.316c0,3.48-.024,4.188-.024,4.272,0,.12.012.132.132.132Zm.132-1.968v-2.9h5.028v2.9Zm0-6.816h5.028v2.736h-5.028Zm17.412,3.468v4.092c0,.6.132.816.336.96a2.212,2.212,0,0,0,1.26.2,2.039,2.039,0,0,0,1.272-.276c.264-.228.42-.588.468-1.74.012-.3.012-.312-.3-.4a2.723,2.723,0,0,1-.768-.348c-.012,1.056-.048,1.284-.144,1.44a.416.416,0,0,1-.4.168.754.754,0,0,1-.432-.084c-.084-.06-.1-.144-.1-.4V11.44c.852.012,1.188.024,1.26.024.132,0,.144-.012.144-.132,0-.072-.024-.432-.024-1.212v-2.2c0-.768.024-1.128.024-1.2,0-.12-.012-.132-.144-.132-.072,0-.444.024-1.476.024h-2.424c-1.032,0-1.4-.024-1.476-.024-.12,0-.132.012-.132.132,0,.084.024.432.024,1.2v2.2c0,.78-.024,1.128-.024,1.212,0,.12.012.132.132.132.06,0,.312-.012.948-.024.048,2.676-.648,3.732-2.58,4.524a3.114,3.114,0,0,1,.672.648c.132.18.18.24.264.24a.755.755,0,0,0,.276-.108c1.8-.96,2.544-2.448,2.568-5.3Zm1.344-1.116h-3.168V7.744h3.168Zm-6.24-2.412v-.54a2.082,2.082,0,0,1,.108-.936.563.563,0,0,0,.072-.252c0-.06-.072-.108-.192-.12a11.322,11.322,0,0,0-1.3-.108,5.964,5.964,0,0,1,.12,1.464v.492h-.168c-.876,0-1.164-.024-1.236-.024-.12,0-.132.012-.132.132v.888c0,.12.012.132.132.132.072,0,.36-.024,1.236-.024h1.308A8.5,8.5,0,0,1-21.45,12.64a3.1,3.1,0,0,1,.42.972c.036.12.072.192.132.192s.144-.06.264-.168c.36-.336.72-.684,1.068-1.044v2.46c0,.888-.024,1.7-.024,1.776,0,.12.012.132.144.132h.948c.132,0,.144-.012.144-.132,0-.06-.024-.888-.024-1.776V12.136a7.588,7.588,0,0,0,.912,1.092c.1.084.156.132.216.132s.1-.048.156-.144a3.163,3.163,0,0,1,.624-.876,5.844,5.844,0,0,1-1.668-1.5,9.8,9.8,0,0,0,.876-1.6,1.151,1.151,0,0,1,.288-.444c.108-.084.168-.144.168-.264,0-.084-.012-.156-.276-.408-.288-.264-.372-.312-.468-.312a.391.391,0,0,0-.156.048.656.656,0,0,1-.288.048Zm12.552,8.844c.12,0,.132-.012.132-.132v-.648H-.666v.588c0,.12.012.132.132.132H.534c.12,0,.132-.012.132-.132,0-.072-.024-.78-.024-4.224V9.676c0-1.968.024-2.7.024-2.772,0-.132-.012-.144-.132-.144-.072,0-.492.024-1.656.024H-5.238c-1.164,0-1.572-.024-1.656-.024-.12,0-.132.012-.132.144,0,.072.024.8.024,3.132v2.316c0,3.48-.024,4.188-.024,4.272,0,.12.012.132.132.132Zm.132-1.968v-2.9H-.666v2.9Zm0-6.816H-.666v2.736H-5.694ZM9.4,10.24a1.2,1.2,0,1,0,1.2,1.2A1.2,1.2,0,0,0,9.4,10.24Zm11.94-.024H19.23c-1.176,0-1.56-.024-1.632-.024-.12,0-.132.012-.132.144v.936c0,.12.012.132.132.132.072,0,.456-.024,1.632-.024h5.88v1.356H19.77c-1.176,0-1.572-.024-1.644-.024-.132,0-.144.012-.144.132v.888c0,.12.012.132.144.132.072,0,.468-.024,1.644-.024h5.34v1.38H19.158c-1.176,0-1.584-.024-1.656-.024-.12,0-.132.012-.132.144v.936c0,.12.012.132.132.132.072,0,.48-.024,1.656-.024H25.11v.444c0,.108.012.12.132.12h1.02c.132,0,.144-.012.144-.12,0-.072-.024-.564-.024-1.644V11.8c0-.972.024-1.392.024-1.464,0-.132-.012-.144-.144-.144-.072,0-.48.024-1.644.024h-2V7.5a2.81,2.81,0,0,1,.072-.96.524.524,0,0,0,.084-.252c0-.084-.06-.144-.18-.156a11.776,11.776,0,0,0-1.32-.1A10.442,10.442,0,0,1,21.342,7.5Zm2.244-.924a5.211,5.211,0,0,1,.792.42.672.672,0,0,0,.288.144c.072,0,.12-.072.24-.228a11.957,11.957,0,0,0,1.128-1.836.654.654,0,0,1,.2-.288c.1-.084.12-.12.12-.168,0-.072-.024-.108-.132-.168a7.63,7.63,0,0,0-1.14-.54,2.486,2.486,0,0,1-.168.5A10.648,10.648,0,0,1,23.586,9.292ZM17.922,7.168c-.144.072-.156.108-.084.2A9.834,9.834,0,0,1,19.11,9.7c.048.108.084.12.24.036l.8-.42c.156-.1.168-.108.12-.228a11.114,11.114,0,0,0-1.332-2.3c-.06-.1-.1-.1-.228-.024Zm14.052,9.588c.12,0,.132-.012.132-.132v-.648h5.028v.588c0,.12.012.132.132.132h1.068c.12,0,.132-.012.132-.132,0-.072-.024-.78-.024-4.224V9.676c0-1.968.024-2.7.024-2.772,0-.132-.012-.144-.132-.144-.072,0-.492.024-1.656.024H32.562c-1.164,0-1.572-.024-1.656-.024-.12,0-.132.012-.132.144,0,.072.024.8.024,3.132v2.316c0,3.48-.024,4.188-.024,4.272,0,.12.012.132.132.132Zm.132-1.968v-2.9h5.028v2.9Zm0-6.816h5.028v2.736H32.106Zm15.66,8.916c.132,0,.144-.012.144-.12V16.18h3.024v.552c0,.108.012.12.12.12h.984c.12,0,.132-.012.132-.12,0-.072-.024-.864-.024-4.512V9.472c0-1.98.024-2.784.024-2.856,0-.12-.012-.132-.132-.132-.072,0-.432.024-1.464.024h-2.3c-1.032,0-1.392-.024-1.476-.024-.12,0-.132.012-.132.132,0,.084.024.876.024,3.252v2.364c0,3.672-.024,4.464-.024,4.536,0,.108.012.12.132.12Zm.144-1.86v-1.74h3.024v1.74Zm0-7.368h3.024v1.7H47.91Zm0,4.5V10.492h3.024V12.16Zm-3.264,4.788c.12,0,.132-.012.132-.132,0-.216-.072-2.748-.084-5.928a7.464,7.464,0,0,0,.936,1.788c.072.108.12.168.168.168s.072-.06.132-.192a4.733,4.733,0,0,1,.456-.924A8.708,8.708,0,0,1,44.8,9.436c.828,0,1.1.024,1.176.024.12,0,.132-.012.132-.132V8.452c0-.12-.012-.132-.132-.132-.072,0-.36.024-1.248.024V7.588a3.4,3.4,0,0,1,.084-1.164.563.563,0,0,0,.072-.252c0-.06-.072-.108-.192-.12-.384-.048-.768-.072-1.2-.084a9.009,9.009,0,0,1,.1,1.632v.744h-.384c-.876,0-1.164-.024-1.236-.024-.12,0-.132.012-.132.132v.876c0,.12.012.132.132.132.072,0,.36-.024,1.236-.024h.276a10.294,10.294,0,0,1-1.956,3.648,4.013,4.013,0,0,1,.432,1.02c.036.132.072.192.12.192s.108-.06.192-.18a10.847,10.847,0,0,0,1.356-2.748c-.024,2.856-.084,5.232-.084,5.448,0,.12.012.132.132.132Zm13.536-2.892c0-.564.024-.852.024-.924,0-.12-.012-.132-.12-.132-.084,0-.336.024-1.1.024H56.07c-.768,0-1.02-.024-1.092-.024-.12,0-.132.012-.132.132,0,.084.024.372.024,1.128v.768c0,1.452-.024,1.728-.024,1.812,0,.108.012.12.132.12h.864c.12,0,.132-.012.132-.12v-.552H57.09v.324c0,.12.012.132.132.132h.864c.108,0,.12-.012.12-.132,0-.048-.012-.2-.024-.72a2.827,2.827,0,0,1,.54.732c.108.216.156.3.252.3a.947.947,0,0,0,.276-.084,4.632,4.632,0,0,0,2.628-2.808,5.382,5.382,0,0,0,2.556,2.784.755.755,0,0,0,.276.108c.1,0,.132-.1.228-.3a4.3,4.3,0,0,1,.492-.84A4.641,4.641,0,0,1,62.274,12.1c.048-.516.072-.636.132-.72a.313.313,0,0,0,.072-.216c0-.084-.084-.132-.228-.156a8.1,8.1,0,0,0-1.152-.12,5.157,5.157,0,0,1,.012,1.14c-.132,1.932-.852,3.252-2.928,3.852ZM57.09,14.02V15.3H55.974V14.02Zm8.292-3.6a3.967,3.967,0,0,1-3.108-3.3c.036-.432.06-.54.12-.612a.329.329,0,0,0,.084-.216c0-.084-.1-.12-.24-.144-.324-.048-.7-.1-1.116-.12a6.68,6.68,0,0,1,.012,1.1,3.468,3.468,0,0,1-2.832,3.42,2.953,2.953,0,0,1,.492.66c.12.216.168.3.264.3a1.021,1.021,0,0,0,.264-.084,4.231,4.231,0,0,0,2.544-2.46,4.442,4.442,0,0,0,2.556,2.448.968.968,0,0,0,.264.072c.108,0,.132-.084.24-.312A3.508,3.508,0,0,1,65.382,10.42ZM55.794,8.068c-.9,0-1.2-.024-1.26-.024-.12,0-.132.012-.132.132v.852c0,.132.012.144.132.144.06,0,.36-.024,1.26-.024h1.332c.912,0,1.2.024,1.272.024.12,0,.132-.012.132-.144V8.176c0-.12-.012-.132-.132-.132-.072,0-.36.024-1.272.024Zm.276-1.644c-.78,0-1.02-.024-1.092-.024-.108,0-.12.012-.12.132v.8c0,.108.012.12.12.12.072,0,.312-.024,1.092-.024h.972c.768,0,1.008.024,1.08.024.12,0,.132-.012.132-.12v-.8c0-.12-.012-.132-.132-.132-.072,0-.312.024-1.08.024Zm.072,3.348c-.732,0-.948-.024-1.02-.024-.12,0-.132.012-.132.132v.78c0,.12.012.132.132.132.072,0,.288-.024,1.02-.024h.768c.708,0,.924.024,1,.024.132,0,.144-.012.144-.132V9.88c0-.12-.012-.132-.144-.132-.072,0-.288.024-1,.024Zm0,1.62c-.732,0-.948-.024-1.02-.024-.12,0-.132.012-.132.132v.768c0,.12.012.132.132.132.072,0,.288-.024,1.02-.024h.768c.708,0,.924.024,1,.024.132,0,.144-.012.144-.132V11.5c0-.12-.012-.132-.144-.132-.072,0-.288.024-1,.024Zm2.94,2.82a.264.264,0,0,0,.144.072c.048,0,.072-.024.12-.084a6.473,6.473,0,0,0,1.044-1.68c.048-.12.036-.144-.12-.228l-.6-.312c-.156-.084-.18-.072-.24.048a6.044,6.044,0,0,1-1,1.5c-.084.1-.1.12.048.228Zm3.7-.792a3.553,3.553,0,0,1,.624.42c.156.12.228.192.312.192s.144-.072.264-.192a9.091,9.091,0,0,0,.8-.984.951.951,0,0,1,.2-.228c.084-.048.132-.084.132-.18,0-.06-.048-.12-.216-.2a5.284,5.284,0,0,0-.924-.36,1.8,1.8,0,0,1-.228.456A5.5,5.5,0,0,1,62.778,13.42Zm.048-4.932a2.211,2.211,0,0,1,.612.384c.132.108.2.168.276.168s.144-.072.288-.216a6.487,6.487,0,0,0,.756-.948,1.1,1.1,0,0,1,.2-.24c.072-.06.12-.1.12-.18s-.036-.1-.192-.18a7,7,0,0,0-.9-.384,1.44,1.44,0,0,1-.216.456A5.727,5.727,0,0,1,62.826,8.488Zm-3.5.672a.264.264,0,0,0,.144.072c.036,0,.06-.024.108-.084A6.017,6.017,0,0,0,60.51,7.48c.036-.12.024-.144-.12-.2l-.624-.24c-.168-.06-.18-.084-.228.048a5.125,5.125,0,0,1-.864,1.464c-.084.1-.084.12.06.216Zm11.688-2.6c-2.376,0-4,1.752-4,4.836S68.61,16.2,71,16.2s4-1.764,4-4.836S73.4,6.556,71.01,6.556Zm0,1.248c1.368,0,2.268,1.188,2.268,3.576s-.9,3.576-2.268,3.576-2.28-1.2-2.28-3.576S69.642,7.8,71.01,7.8ZM84.27,6.712H82.422L78.906,10.96V6.712h-1.6v9.312h1.6V12.772L80,11.548l2.712,4.476h1.836l-3.5-5.6ZM92.31,6.5H90.438l.336,7.14h1.212Zm-1.8,8.3v1.62h1.7V14.8Z" transform="translate(-116.697 32.539)" fill="#fff"/>
    <g id="グループ_6115" data-name="グループ 6115" transform="translate(-218.229 -8.56)">
      <rect id="長方形_106" data-name="長方形 106" width="195.924" height="31.147" rx="5" transform="translate(-0.468 -7.014)" fill="#fff"/>
      <path id="パス_81865" data-name="パス 81865" d="M-67.44-8.592c.1-1.456.72-2.208,1.728-2.208a1.524,1.524,0,0,1,1.6,1.7c0,1.008-.352,1.648-1.952,3.184a15.451,15.451,0,0,0-3.488,4.528V.032h7.568v-1.6h-5.488A11.939,11.939,0,0,1-64.5-4.96c1.872-1.744,2.464-2.768,2.464-4.128,0-2.112-1.456-3.3-3.648-3.3a3.576,3.576,0,0,0-3.76,3.376Zm14.656-3.664h-2.528L-59.28-4.144v1.408h4.656V.032h1.84V-2.736h1.52v-1.5h-1.52Zm-1.84,8.016h-2.992l1.5-3.232c.5-1.072.96-2.144,1.36-3.2h.224c-.048,1.232-.1,2.448-.1,3.744Zm11.008-4.88c0-2.352.032-3.136.032-3.232,0-.16-.016-.176-.176-.176-.112,0-.416.032-1.376.032h-1.376c-.96,0-1.264-.032-1.376-.032-.16,0-.176.016-.176.176,0,.1.032.944.032,3.84v3.488c0,4.016-.032,4.832-.032,4.928,0,.16.016.176.176.176H-46.7c.144,0,.16-.016.16-.176V-1.36h1.472v.7c0,.16.016.176.16.176h1.152c.16,0,.176-.016.176-.176,0-.1-.032-.816-.032-4.8Zm-2.928,6.3V-6.272h1.472v3.456Zm1.472-8.224v3.312h-1.472V-11.04Zm8.72,3.968c1.52,0,2.048.032,2.144.032.176,0,.192-.016.192-.192v-1.1c0-.16-.016-.176-.192-.176-.1,0-.624.032-2.144.032h-1.7v-1.648h1.072c1.456,0,1.936.032,2.032.032.16,0,.176-.016.176-.176v-1.12c0-.176-.016-.192-.176-.192-.1,0-.576.032-2.032.032h-1.072a3.716,3.716,0,0,1,.08-1.2.89.89,0,0,0,.1-.336c0-.08-.1-.144-.256-.16-.592-.064-1.024-.1-1.648-.112a13.4,13.4,0,0,1,.112,1.808h-.752c-1.424,0-1.92-.032-2.016-.032-.176,0-.192.016-.192.192v1.12c0,.16.016.176.192.176.1,0,.592-.032,2.016-.032h.752V-8.48h-1.152c-1.52,0-2.048-.032-2.144-.032-.176,0-.192.016-.192.176v1.1c0,.176.016.192.192.192.1,0,.624-.032,2.144-.032ZM-37.6-4.064V-.88c0,.368-.144.5-.528.5-.528,0-1.008-.016-1.568-.064A3.565,3.565,0,0,1-39.216.72c.112.48.128.48.608.48a3.692,3.692,0,0,0,2.08-.352,1.488,1.488,0,0,0,.56-1.36c0-.544-.016-1.232-.016-1.968V-4.064c1.088.016,1.52.032,1.6.032.176,0,.192-.016.192-.176v-1.12c0-.16-.016-.176-.192-.176-.08,0-.512.032-1.6.032a2.029,2.029,0,0,1,.08-.816.539.539,0,0,0,.08-.272c0-.08-.1-.144-.272-.176-.432-.064-1.008-.112-1.616-.144A11.882,11.882,0,0,1-37.6-5.472h-3.152c-1.52,0-2.032-.032-2.128-.032-.176,0-.192.016-.192.176v1.12c0,.16.016.176.192.176.1,0,.608-.032,2.128-.032Zm-4.32,1.008c-.192.112-.192.16-.08.288A13.4,13.4,0,0,1-40.592-.8c.048.08.08.112.128.112s.1-.032.192-.1l.976-.672c.16-.112.176-.16.08-.3A12.8,12.8,0,0,0-40.688-3.6c-.128-.112-.176-.112-.336-.016Zm24.48-7.568c0-1.36.032-2.016.032-2.112,0-.176-.016-.192-.176-.192-.1,0-.528.032-1.776.032h-2.352c-1.248,0-1.664-.032-1.76-.032-.16,0-.176.016-.176.192,0,.1.032.48.032,1.408V-9.12c0,.944-.032,1.312-.032,1.408,0,.176.016.192.176.192.1,0,.512-.032,1.76-.032h2.624v6.384c0,.48-.128.624-.656.624a11.03,11.03,0,0,1-1.344-.08A5,5,0,0,1-20.7.544c.1.512.1.5.576.5,1.5,0,1.952-.128,2.288-.432a1.739,1.739,0,0,0,.464-1.472c0-.784-.064-2.064-.064-3.184ZM-22.048-8.7v-.96h2.96v.96Zm2.96-2.992v.944h-2.96V-11.7Zm-9.648-1.2c-1.168,0-1.776-.032-1.888-.032-.16,0-.176.016-.176.192,0,.1.032,1.216.032,3.44v6.928c0,2.208-.032,3.3-.032,3.408,0,.16.016.176.176.176h1.36c.16,0,.176-.016.176-.176,0-.112-.032-1.2-.032-3.408V-7.552h2.592c1.04,0,1.52.032,1.616.032.144,0,.16-.016.16-.192,0-.1-.032-.544-.032-1.52v-1.984c0-.96.032-1.424.032-1.52,0-.176-.016-.192-.16-.192-.1,0-.576.032-1.616.032ZM-26.352-8.7H-29.12v-.96h2.768Zm0-2.992v.944H-29.12V-11.7ZM-25.824.112c.176,0,.192-.016.192-.192V-.736H-22.7v.5c0,.16.016.176.176.176h1.152c.16,0,.176-.016.176-.176,0-.08-.032-.512-.032-2.832V-4.656c0-1.152.032-1.632.032-1.728,0-.16-.016-.176-.176-.176-.112,0-.5.032-1.712.032h-2.16c-1.216,0-1.6-.032-1.712-.032-.16,0-.176.016-.176.176,0,.112.032.592.032,2v1.408c0,2.368-.032,2.8-.032,2.9,0,.176.016.192.176.192Zm.192-2.064v-1.12H-22.7v1.12Zm0-3.344H-22.7v1.072h-2.928Zm14.144.128a4.222,4.222,0,0,0-.848,2.288c0,2.08,1.808,3.232,5.5,3.232A25.4,25.4,0,0,0-2.144-.032c.192-.032.288-.1.272-.24A13.378,13.378,0,0,0-2.128-1.84c-.032-.144-.112-.192-.336-.144A20.355,20.355,0,0,1-6.8-1.52c-2.752,0-3.792-.5-3.792-1.5a2.629,2.629,0,0,1,.416-1.216c.08-.128.064-.208-.08-.288C-10.672-4.752-11.072-4.96-11.488-5.168Zm.352-6.048c-.032.576-.064,1.04-.064,1.424,0,.192.064.256.208.288a19.145,19.145,0,0,0,2.944.272A9.77,9.77,0,0,0-6.88-9.28c-.56.336-1.264.784-2.1,1.328a3.823,3.823,0,0,1,1.12.512.6.6,0,0,0,.736-.048A9.322,9.322,0,0,1-3.2-9.072c.192-.016.272-.112.272-.336a9.339,9.339,0,0,0-.144-1.36c-.016-.128-.08-.192-.24-.176-1.024.08-2.16.144-3.328.144A20.185,20.185,0,0,1-11.136-11.216Zm8-.768A7.939,7.939,0,0,1-1.52-10.128a.167.167,0,0,0,.272.048l.672-.5a.161.161,0,0,0,.048-.256,7.364,7.364,0,0,0-1.52-1.712c-.1-.08-.16-.1-.24-.032Zm1.472-1.056a7.569,7.569,0,0,1,1.6,1.84.164.164,0,0,0,.272.048l.64-.5A.185.185,0,0,0,.9-11.936a6.682,6.682,0,0,0-1.52-1.648c-.1-.08-.144-.1-.24-.032ZM11.184,1.184c.176,0,.192-.016.192-.16V.24h4.032V.976c0,.144.016.16.16.16H16.88c.16,0,.176-.016.176-.16,0-.1-.032-1.152-.032-6.016V-8.7c0-2.64.032-3.712.032-3.808,0-.16-.016-.176-.176-.176-.1,0-.576.032-1.952.032H11.856c-1.376,0-1.856-.032-1.968-.032-.16,0-.176.016-.176.176,0,.112.032,1.168.032,4.336v3.152c0,4.9-.032,5.952-.032,6.048,0,.144.016.16.176.16Zm.192-2.48v-2.32h4.032V-1.3Zm0-9.824h4.032v2.272H11.376Zm0,6V-7.344h4.032V-5.12ZM7.024,1.264c.16,0,.176-.016.176-.176,0-.288-.1-3.664-.112-7.9A9.952,9.952,0,0,0,8.336-4.432c.1.144.16.224.224.224.048,0,.1-.08.176-.256A6.31,6.31,0,0,1,9.344-5.7,11.61,11.61,0,0,1,7.232-8.752c1.1,0,1.472.032,1.568.032.16,0,.176-.016.176-.176v-1.168c0-.16-.016-.176-.176-.176-.1,0-.48.032-1.664.032v-1.008a4.536,4.536,0,0,1,.112-1.552.75.75,0,0,0,.1-.336c0-.08-.1-.144-.256-.16-.512-.064-1.024-.1-1.6-.112A12.012,12.012,0,0,1,5.616-11.2v.992H5.1c-1.168,0-1.552-.032-1.648-.032-.16,0-.176.016-.176.176V-8.9c0,.16.016.176.176.176.1,0,.48-.032,1.648-.032h.368A13.725,13.725,0,0,1,2.864-3.888a5.351,5.351,0,0,1,.576,1.36c.048.176.1.256.16.256s.144-.08.256-.24A14.463,14.463,0,0,0,5.664-6.176C5.632-2.368,5.552.8,5.552,1.088c0,.16.016.176.176.176ZM25.552-2.592c0-.752.032-1.136.032-1.232,0-.16-.016-.176-.16-.176-.112,0-.448.032-1.472.032H22.736C21.712-3.968,21.376-4,21.28-4c-.16,0-.176.016-.176.176,0,.112.032.5.032,1.5V-1.3c0,1.936-.032,2.3-.032,2.416,0,.144.016.16.176.16h1.152c.16,0,.176-.016.176-.16V.384H24.1V.816c0,.16.016.176.176.176h1.152c.144,0,.16-.016.16-.176,0-.064-.016-.272-.032-.96a3.769,3.769,0,0,1,.72.976c.144.288.208.4.336.4a1.263,1.263,0,0,0,.368-.112,6.177,6.177,0,0,0,3.5-3.744,7.176,7.176,0,0,0,3.408,3.712,1.007,1.007,0,0,0,.368.144c.128,0,.176-.128.3-.4a5.737,5.737,0,0,1,.656-1.12A6.188,6.188,0,0,1,31.008-5.2c.064-.688.1-.848.176-.96a.418.418,0,0,0,.1-.288c0-.112-.112-.176-.3-.208a10.8,10.8,0,0,0-1.536-.16,6.876,6.876,0,0,1,.016,1.52C29.28-2.72,28.32-.96,25.552-.16ZM24.1-2.64V-.928H22.608V-2.64Zm11.056-4.8c-2.016-.64-3.728-1.776-4.144-4.4.048-.576.08-.72.16-.816a.439.439,0,0,0,.112-.288c0-.112-.128-.16-.32-.192-.432-.064-.928-.128-1.488-.16a8.908,8.908,0,0,1,.016,1.472c-.128,2.288-1.216,3.808-3.776,4.56a3.937,3.937,0,0,1,.656.88c.16.288.224.4.352.4a1.361,1.361,0,0,0,.352-.112,5.642,5.642,0,0,0,3.392-3.28,5.923,5.923,0,0,0,3.408,3.264,1.291,1.291,0,0,0,.352.1c.144,0,.176-.112.32-.416A4.677,4.677,0,0,1,35.152-7.44ZM22.368-10.576c-1.2,0-1.6-.032-1.68-.032-.16,0-.176.016-.176.176V-9.3c0,.176.016.192.176.192.08,0,.48-.032,1.68-.032h1.776c1.216,0,1.6.032,1.7.032.16,0,.176-.016.176-.192v-1.136c0-.16-.016-.176-.176-.176-.1,0-.48.032-1.7.032Zm.368-2.192c-1.04,0-1.36-.032-1.456-.032-.144,0-.16.016-.16.176v1.072c0,.144.016.16.16.16.1,0,.416-.032,1.456-.032h1.3c1.024,0,1.344.032,1.44.032.16,0,.176-.016.176-.16v-1.072c0-.16-.016-.176-.176-.176-.1,0-.416.032-1.44.032Zm.1,4.464c-.976,0-1.264-.032-1.36-.032-.16,0-.176.016-.176.176v1.04c0,.16.016.176.176.176.1,0,.384-.032,1.36-.032h1.024c.944,0,1.232.032,1.328.032.176,0,.192-.016.192-.176V-8.16c0-.16-.016-.176-.192-.176-.1,0-.384.032-1.328.032Zm0,2.16c-.976,0-1.264-.032-1.36-.032-.16,0-.176.016-.176.176v1.024c0,.16.016.176.176.176.1,0,.384-.032,1.36-.032h1.024c.944,0,1.232.032,1.328.032.176,0,.192-.016.192-.176V-6c0-.16-.016-.176-.192-.176-.1,0-.384.032-1.328.032Zm3.92,3.76a.352.352,0,0,0,.192.1c.064,0,.1-.032.16-.112A8.63,8.63,0,0,0,28.5-4.64c.064-.16.048-.192-.16-.3l-.8-.416c-.208-.112-.24-.1-.32.064a8.058,8.058,0,0,1-1.328,2c-.112.128-.128.16.064.3ZM31.68-3.44a4.738,4.738,0,0,1,.832.56c.208.16.3.256.416.256.1,0,.192-.1.352-.256a12.12,12.12,0,0,0,1.072-1.312,1.268,1.268,0,0,1,.272-.3c.112-.064.176-.112.176-.24,0-.08-.064-.16-.288-.272a7.045,7.045,0,0,0-1.232-.48,2.4,2.4,0,0,1-.3.608A7.337,7.337,0,0,1,31.68-3.44Zm.064-6.576a2.948,2.948,0,0,1,.816.512c.176.144.272.224.368.224s.192-.1.384-.288a8.649,8.649,0,0,0,1.008-1.264,1.468,1.468,0,0,1,.272-.32c.1-.08.16-.128.16-.24,0-.1-.048-.128-.256-.24a9.327,9.327,0,0,0-1.2-.512,1.92,1.92,0,0,1-.288.608A7.636,7.636,0,0,1,31.744-10.016Zm-4.672.9a.352.352,0,0,0,.192.1c.048,0,.08-.032.144-.112a8.023,8.023,0,0,0,1.248-2.224c.048-.16.032-.192-.16-.272l-.832-.32c-.224-.08-.24-.112-.3.064a6.834,6.834,0,0,1-1.152,1.952c-.112.128-.112.16.08.288ZM47.856-7.664a4.54,4.54,0,0,0,2.032-.256,1.3,1.3,0,0,0,.608-.992h1.12c.16,0,.176-.016.176-.192,0-.1-.032-.3-.032-1.552v-.576c0-.352.032-.592.032-.688,0-.16-.016-.176-.176-.176-.112,0-.624.032-2.1.032H45.7v-.208a1.512,1.512,0,0,1,.08-.576.9.9,0,0,0,.1-.32c0-.1-.08-.144-.256-.16-.544-.048-1.152-.08-1.712-.08a5.116,5.116,0,0,1,.112,1.12v.224H40.5c-1.472,0-1.984-.032-2.1-.032-.16,0-.176.016-.176.176,0,.1.032.336.032.8v.464c0,1.248-.032,1.456-.032,1.552,0,.176.016.192.176.192h1.3c.16,0,.176-.016.176-.192v-1.632h5.536V-8.9c0,.624.176.912.5,1.072a5.01,5.01,0,0,0,1.776.16h.112l-.144.08-.816.512c-.144.08-.192.16-.064.256.3.256.592.5.864.752-1.2.112-2.5.208-3.84.288.288-.464.528-.96.8-1.456a1.345,1.345,0,0,1,.368-.448c.112-.08.192-.16.192-.272s-.1-.176-.224-.224a14.06,14.06,0,0,0-1.584-.416,4.8,4.8,0,0,1-.32.912A16.468,16.468,0,0,1,41.968-5.7L40.4-5.648c-.5,0-.96-.016-1.664-.064a11.585,11.585,0,0,0,.256,1.52c.048.16.144.256.256.256a.5.5,0,0,0,.256-.1,3.515,3.515,0,0,1,.944-.128c2.848-.144,5.632-.4,8.32-.72.288.336.576.688.864,1.072.1.128.128.128.336-.016l.9-.688c.176-.128.192-.176.08-.3A19.4,19.4,0,0,0,47.984-7.6Zm-.928-3.072H50.16V-9.68a4.167,4.167,0,0,1-1.04-.352c0,.528-.016.816-.192.96a1.849,1.849,0,0,1-.96.16,3.355,3.355,0,0,1-.8-.048c-.192-.048-.24-.16-.24-.432Zm-3.408,8.4a1.817,1.817,0,0,1,.1-.72.563.563,0,0,0,.08-.288c0-.064-.08-.112-.288-.144a13.025,13.025,0,0,0-1.6-.1,9.11,9.11,0,0,1,.08,1.328V-.688c0,.848.224,1.168.592,1.376a6.221,6.221,0,0,0,2.656.336,6.338,6.338,0,0,0,3.04-.416c.464-.272.72-.72.88-1.792.048-.416.048-.448-.336-.528a3.911,3.911,0,0,1-1.2-.448c-.032.88-.192,1.344-.448,1.5a3.41,3.41,0,0,1-1.792.272,4.279,4.279,0,0,1-1.5-.176c-.192-.1-.256-.3-.256-.624Zm-.9-8.368a2.658,2.658,0,0,1-.416.752c-.64.976-1.68,1.456-3.456,1.888a2.956,2.956,0,0,1,.656,1.008c.144.336.144.32.56.208A6.207,6.207,0,0,0,43.6-9.3a1.381,1.381,0,0,1,.448-.464.278.278,0,0,0,.176-.24c0-.112-.112-.176-.272-.24A13.048,13.048,0,0,0,42.624-10.7ZM39.04.512c.1.064.144.1.192.1s.08-.032.144-.112a8.439,8.439,0,0,0,1.648-3.248c.032-.176.016-.208-.192-.272L39.808-3.36c-.208-.064-.256-.08-.3.08A6.4,6.4,0,0,1,37.968-.512c-.112.128-.112.176.064.32Zm9.9-3.616c-.192.1-.224.144-.112.288A13.455,13.455,0,0,1,50.624.208c.048.08.08.128.128.128a.718.718,0,0,0,.208-.1l1.024-.576c.176-.112.192-.176.144-.32A15.293,15.293,0,0,0,50.192-3.52c-.1-.112-.144-.128-.32-.048ZM44.32-3.76c-.1.064-.144.1-.144.144s.032.08.08.144A10.458,10.458,0,0,1,45.6-1.76c.08.144.128.16.3.048l.9-.544c.224-.144.256-.192.144-.336a9.86,9.86,0,0,0-1.424-1.6c-.128-.112-.16-.128-.336-.032ZM57.888.608c.176,0,.192-.016.192-.176V-.816H66.5v1.2c0,.16.016.176.176.176h1.44c.176,0,.192-.016.192-.176,0-.1-.032-.944-.032-5.216V-8.208c0-2.56.032-3.424.032-3.52,0-.176-.016-.192-.192-.192-.1,0-.64.032-2.192.032H58.656c-1.552,0-2.1-.032-2.208-.032-.16,0-.176.016-.176.192,0,.1.032.976.032,3.936v2.96c0,4.32-.032,5.152-.032,5.264,0,.16.016.176.176.176Zm.192-10.864H66.5v7.808H58.08Z" transform="translate(97.532 15.986)" fill="#7fc11b"/>
    </g>
  </g>
  <g id="グループ_6125" data-name="グループ 6125" transform="translate(25.693 28.685)">
    <g id="グループ_6111" data-name="グループ 6111" transform="translate(0 0)">
      <g id="グループ_6110" data-name="グループ 6110">
        <path id="パス_11413" data-name="パス 11413" d="M-490.932-832.461q-9.565,0-19.13,0c-3.844,0-6.248-2.376-6.254-6.2q-.019-13.065,0-26.131c.006-3.835,2.4-6.2,6.257-6.2q19.192-.008,38.382,0c3.853,0,6.247,2.365,6.253,6.2q.02,13.065,0,26.13c-.006,3.835-2.4,6.2-6.255,6.2Q-481.3-832.452-490.932-832.461Zm-20.3-34.6-.076.323,20.445,17.636,20.542-17.665-.157-.294Zm1.693,30.7h37.258L-485-849.054c-1.335,1.143-2.735,2.335-4.13,3.534s-2.113,1.18-3.525-.039c-1.387-1.2-2.783-2.383-4.164-3.565Zm-2.882-3.115,12.437-12.4-12.437-10.72Zm30.763-12.454,12.3,12.423V-862.5Z" transform="translate(516.325 870.998)" fill="#fafafa"/>
      </g>
    </g>
  </g>
</svg>
