<svg xmlns="http://www.w3.org/2000/svg" width="610.5" height="48.09" viewBox="0 0 610.5 48.09">
  <g id="グループ_10753" data-name="グループ 10753" transform="translate(-385.732 -525.484)">
    <g id="r1zto7" transform="translate(362.732 525.484)">
      <g id="グループ_6109" data-name="グループ 6109" transform="translate(23)">
        <path id="パス_11412" data-name="パス 11412" d="M112.9-529.086a39.118,39.118,0,0,1,3.092-3.169c2.511-2.046,5.08-1.945,7.358.336a14.427,14.427,0,0,1,4.372,7.946,4.563,4.563,0,0,1-2.292,4.844,11.725,11.725,0,0,1-8.141,1.53,24.045,24.045,0,0,1-14.07-7.372,42.912,42.912,0,0,1-11.426-19.8,23.74,23.74,0,0,1,.408-13.394,12.029,12.029,0,0,1,4.251-6.086c2.428-1.814,4.864-1.732,7.051.373a14.793,14.793,0,0,1,4.471,7.806A4.6,4.6,0,0,1,106-551.158a9.84,9.84,0,0,1-4.662,1.739c-.532.069-.762.255-.7.774a31.7,31.7,0,0,0,.578,4.717,23.727,23.727,0,0,0,8.48,12.848A33.824,33.824,0,0,0,112.9-529.086Z" transform="translate(-91.018 565.537)" fill="#1d9612"/>
      </g>
    </g>
    <text id="お電話での受付時間_平日_10:00_19:00_" data-name="お電話での受付時間
平日 10:00〜19:00　" transform="translate(805.232 543.574)" fill="#1d9612" font-size="18" font-family="YuGothicStd-B, Yu Gothic Std" letter-spacing="0.08em"><tspan x="0" y="0">お電話での受付時間</tspan><tspan x="0" y="28">平日 10:00〜19:00　</tspan></text>
    <g id="_076-256-3844" data-name=" 076-256-3844" transform="translate(-1578.735 9874.526)" style="isolation: isolate">
      <g id="グループ_13321" data-name="グループ 13321" style="isolation: isolate">
        <path id="パス_22232" data-name="パス 22232" d="M2030.3-9304.714c-6.5,0-12.158-4.258-12.158-11.878v-16.81c0-7.621,5.658-11.879,12.158-11.879s12.1,4.258,12.1,11.879v16.81C2042.405-9308.972,2036.8-9304.714,2030.3-9304.714Zm4.818-28.575c0-3.362-1.961-5.435-4.818-5.435s-4.875,2.072-4.875,5.435v16.64c0,3.362,2.017,5.38,4.875,5.38s4.818-2.018,4.818-5.38Z" transform="translate(2)" fill="#1d9612"/>
        <path id="パス_22233" data-name="パス 22233" d="M2059.608-9305.05h-7.9l12.943-33.338h-10.534v6.274h-6.947v-12.831h25.382v6.557Z" transform="translate(2)" fill="#1d9612"/>
        <path id="パス_22234" data-name="パス 22234" d="M2088.8-9304.714c-7.06,0-12.439-4.426-12.439-12.327,0-3.642,1.569-7,3.362-10.645l8.4-17.259h7.956l-8.293,16.474a7.89,7.89,0,0,1,2.97-.5c5.379,0,10.477,4.426,10.477,11.821C2101.24-9309.308,2095.861-9304.714,2088.8-9304.714Zm0-18.21c-2.97,0-5.155,2.129-5.155,5.827s2.185,5.827,5.155,5.827,5.155-2.13,5.155-5.827C2093.957-9320.627,2091.884-9322.924,2088.8-9322.924Z" transform="translate(-0.447 -0.168)" fill="#1d9612"/>
        <path id="パス_22235" data-name="パス 22235" d="M2106.285-9321.657v-6.779h17.258v6.779Z" fill="#1d9612"/>
        <path id="パス_22236" data-name="パス 22236" d="M2129.035-9305.05v-6.557l14.9-17.312c1.457-1.737,2.074-2.97,2.074-4.819,0-2.969-1.738-4.985-4.82-4.985-2.409,0-4.874,1.231-4.874,5.1h-7.284c0-7.284,5.323-11.654,12.158-11.654,7.061,0,12.1,4.427,12.1,11.6,0,3.865-1.514,5.939-4.259,9.133l-11.15,12.942H2153.3v6.557Z" fill="#1d9612"/>
        <path id="パス_22237" data-name="パス 22237" d="M2179.185-9307.964a12.035,12.035,0,0,1-8.8,3.25,12.452,12.452,0,0,1-8.909-3.194c-2.465-2.465-3.026-5.379-3.25-8.292h7.284c.392,3.137,1.848,4.931,4.875,4.931a4.693,4.693,0,0,0,3.473-1.288c1.289-1.289,1.569-3.418,1.569-5.939,0-4.595-1.344-7.172-4.874-7.172a4.63,4.63,0,0,0-4.819,3.249h-6.668v-22.524h22.748v6.557h-16.136v8.571a9.149,9.149,0,0,1,6-2.017,10.273,10.273,0,0,1,7.452,2.69c3.138,3.138,3.586,6.891,3.586,10.646C2182.714-9314.015,2182.1-9310.877,2179.185-9307.964Z" fill="#1d9612"/>
        <path id="パス_22238" data-name="パス 22238" d="M2199.469-9304.714c-7.06,0-12.439-4.426-12.439-12.327,0-3.642,1.57-7,3.363-10.645l8.4-17.259h7.956l-8.292,16.474a7.882,7.882,0,0,1,2.969-.5c5.379,0,10.478,4.426,10.478,11.821C2211.908-9309.308,2206.529-9304.714,2199.469-9304.714Zm0-18.21c-2.97,0-5.155,2.129-5.155,5.827s2.185,5.827,5.155,5.827,5.155-2.13,5.155-5.827C2204.624-9320.627,2202.551-9322.924,2199.469-9322.924Z" fill="#1d9612"/>
        <path id="パス_22239" data-name="パス 22239" d="M2216.952-9321.657v-6.779h17.258v6.779Z" fill="#1d9612"/>
        <path id="パス_22240" data-name="パス 22240" d="M2251.468-9304.714c-6.5,0-12.607-3.418-12.719-11.767h7.284c.112,3.587,2.577,5.211,5.435,5.211,3.137,0,5.379-1.962,5.379-5.548,0-3.3-2.018-5.489-5.6-5.489h-1.064v-6.332h1.064c3.53,0,5.043-2.186,5.043-4.987a4.7,4.7,0,0,0-4.874-5.1,4.738,4.738,0,0,0-4.932,4.817H2239.2c.168-7.116,5.491-11.374,12.215-11.374,7.06,0,12.158,4.707,12.158,11.431,0,4.314-1.961,6.779-4.594,8.181,2.857,1.513,5.155,4.258,5.155,9.077C2264.131-9308.636,2258.3-9304.714,2251.468-9304.714Z" fill="#1d9612"/>
        <path id="パス_22241" data-name="パス 22241" d="M2280.941-9304.714c-7.059,0-12.775-4.2-12.775-11.936a10.323,10.323,0,0,1,4.987-8.964,9.914,9.914,0,0,1-4.482-8.293c0-7.059,5.6-11.374,12.27-11.374s12.215,4.315,12.215,11.374a9.917,9.917,0,0,1-4.482,8.293,10.358,10.358,0,0,1,5.043,8.964C2293.717-9308.916,2288-9304.714,2280.941-9304.714Zm0-17.593a5.476,5.476,0,0,0-5.491,5.547,5.429,5.429,0,0,0,5.491,5.49,5.43,5.43,0,0,0,5.492-5.49A5.477,5.477,0,0,0,2280.941-9322.307Zm0-16.417a4.906,4.906,0,0,0-4.986,5.042,4.873,4.873,0,0,0,4.986,5.043,4.828,4.828,0,0,0,4.931-5.043A4.86,4.86,0,0,0,2280.941-9338.724Z" fill="#1d9612"/>
        <path id="パス_22242" data-name="パス 22242" d="M2320.053-9310.709v5.659h-7v-5.659h-16.305v-6.892l13.671-27.344h7.956L2304.7-9317.6h8.349v-7.452h7v7.452h3.641v6.892Z" fill="#1d9612"/>
        <path id="パス_22243" data-name="パス 22243" d="M2349.358-9310.709v5.659h-7v-5.659h-16.3v-6.892l13.671-27.344h7.956l-13.671,27.344h8.348v-7.452h7v7.452H2353v6.892Z" fill="#1d9612"/>
      </g>
    </g>
  </g>
</svg>
