<svg xmlns="http://www.w3.org/2000/svg" width="313.592" height="59.778" viewBox="0 0 313.592 59.778">
  <g id="グループ_22698" data-name="グループ 22698" transform="translate(-301.078 -553.671)">
    <g id="グループ_22051" data-name="グループ 22051" transform="translate(-160 49.671)">
      <path id="パス_81862" data-name="パス 81862" d="M5.446-7.644c-1.274,0-1.722-.028-1.806-.028-.126,0-.14.014-.14.168,0,.07.028.308.028.952V-5.32c0,.644-.028.868-.028.966,0,.14.014.154.14.154.084,0,.532-.028,1.806-.028H6.02a9.41,9.41,0,0,1-.392.938H4.27C2.9-3.29,2.408-3.3,2.31-3.3c-.14,0-.154.014-.154.154,0,.084.028.42.028,1.246v.756C2.184.532,2.156.84,2.156.924c0,.14.014.154.154.154H3.5c.126,0,.14-.014.14-.154V.448h6.748v.42c0,.126.014.14.154.14h1.176c.14,0,.14-.014.14-.14,0-.084-.014-.392-.014-2.044v-.9c0-.658.014-.994.014-1.078,0-.14,0-.154-.14-.154-.1,0-.588.014-1.96.014H7.1c.126-.28.266-.588.392-.938H8.554c1.26,0,1.708.028,1.806.028.126,0,.14-.014.14-.154,0-.084-.028-.322-.028-.966V-6.552c0-.644.028-.882.028-.952,0-.154-.014-.168-.14-.168-.1,0-.546.028-1.806.028ZM3.64-2.058h6.748V-.77H3.64ZM4.928-6.552H9.086v1.218H4.928Zm-2.212-4.76c-.168.056-.182.084-.1.21a6.75,6.75,0,0,1,.714,1.288A.255.255,0,0,0,3.4-9.7H3.08c-1.288,0-1.75-.028-1.848-.028-.14,0-.154.014-.154.154,0,.1.028.35.028.84v.5c0,1.232-.028,1.456-.028,1.54,0,.154.014.168.154.168h1.12c.14,0,.154-.014.154-.168V-8.5h9v1.82c0,.14.014.154.154.154h1.12c.14,0,.154-.014.154-.154,0-.084-.028-.308-.028-1.54v-.616c0-.392.028-.658.028-.742,0-.14-.014-.154-.154-.154-.1,0-.56.028-1.848.028h-.28c.182-.28.336-.56.532-.882a1.013,1.013,0,0,1,.294-.336.275.275,0,0,0,.126-.238c0-.084-.056-.126-.182-.182a9.962,9.962,0,0,0-1.33-.406,5.219,5.219,0,0,1-.224.7A11.424,11.424,0,0,1,9.156-9.7H3.57l.98-.322c.2-.07.2-.084.126-.21a7.634,7.634,0,0,0-.812-1.316c-.084-.1-.126-.126-.308-.056Zm3.262-.168c-.168.056-.21.07-.126.21A12.34,12.34,0,0,1,6.51-9.9c.056.154.07.168.28.112l.938-.28c.2-.056.21-.084.154-.2a9.319,9.319,0,0,0-.7-1.4c-.07-.126-.112-.154-.28-.1Zm14,9.142A11.627,11.627,0,0,1,15.512-.392a3.342,3.342,0,0,1,.56.84c.126.266.182.364.308.364A1.074,1.074,0,0,0,16.7.728,11.34,11.34,0,0,0,21.2-1.778C21.182-.112,21.14.7,21.14.938c0,.14.014.154.14.154h1.19c.14,0,.154-.014.154-.154,0-.238-.07-1.106-.07-2.772a12.224,12.224,0,0,0,4.7,2.506,1.5,1.5,0,0,0,.322.07c.14,0,.2-.1.308-.364a3.971,3.971,0,0,1,.546-.9,12.7,12.7,0,0,1-4.662-1.82h2.492c1.26,0,1.68.028,1.764.028.14,0,.154-.014.154-.154V-3.29c0-.154-.014-.168-.154-.168-.084,0-.5.028-1.764.028H22.582v-.756h2.226c1.372,0,1.848.028,1.932.028.14,0,.154-.014.154-.154v-.8c0-.154-.014-.168-.154-.168-.084,0-.56.028-1.932.028H22.582v-.742H25.41c1.344,0,1.792.028,1.876.028.14,0,.154-.014.154-.14V-6.93c0-.14-.014-.154-.154-.154-.084,0-.532.028-1.876.028H24.5l.252-.448a.976.976,0,0,1,.2-.294.243.243,0,0,0,.154-.21c0-.084-.07-.14-.182-.168-.42-.112-.742-.182-1.106-.252h2.45c1.26,0,1.68.028,1.764.028.14,0,.154-.014.154-.154v-.868c0-.154-.014-.168-.154-.168-.084,0-.5.028-1.764.028h-.2c.2-.28.392-.56.574-.854a1.411,1.411,0,0,1,.238-.266.289.289,0,0,0,.14-.238c0-.07-.056-.14-.182-.182a11.733,11.733,0,0,0-1.358-.364,2.675,2.675,0,0,1-.238.756A10.381,10.381,0,0,1,24.6-9.562H23.73v-.924a2.187,2.187,0,0,1,.084-.77.659.659,0,0,0,.056-.224c0-.07-.056-.112-.182-.126a13.471,13.471,0,0,0-1.344-.1,5.554,5.554,0,0,1,.084,1.232v.91H21.294v-.924a2.187,2.187,0,0,1,.084-.77.736.736,0,0,0,.056-.238q0-.1-.168-.126c-.378-.042-.924-.07-1.358-.084a5.487,5.487,0,0,1,.084,1.218v.924h-1.3l.336-.168c.182-.1.182-.112.112-.238a8.358,8.358,0,0,0-.938-1.358c-.084-.112-.126-.126-.266-.056L17.122-11c-.168.084-.2.14-.112.238a6.65,6.65,0,0,1,.8,1.2h-.1c-1.26,0-1.68-.028-1.764-.028-.154,0-.168.014-.168.168v.868c0,.14.014.154.168.154.084,0,.5-.028,1.764-.028h2.24l-.91.252c-.182.056-.168.112-.1.238.154.266.294.546.448.882h-.854c-1.344,0-1.792-.028-1.876-.028-.154,0-.168.014-.168.154V-6.1c0,.126.014.14.168.14.084,0,.532-.028,1.876-.028h2.632v.742H19.194c-1.358,0-1.848-.028-1.932-.028-.14,0-.14.014-.14.168v.8c0,.14,0,.154.14.154.084,0,.574-.028,1.932-.028h1.974v.756H17.71c-1.26,0-1.68-.028-1.764-.028-.154,0-.168.014-.168.168v.826c0,.14.014.154.168.154.084,0,.5-.028,1.764-.028Zm.84-4.718a8.783,8.783,0,0,0-.63-1.26c-.042-.056-.07-.1-.112-.112h3.57a2.564,2.564,0,0,1-.154.56c-.14.336-.252.574-.378.812Zm14.2-.924c0-2.058.028-2.744.028-2.828,0-.14-.014-.154-.154-.154-.1,0-.364.028-1.2.028h-1.2c-.84,0-1.106-.028-1.2-.028-.14,0-.154.014-.154.154,0,.084.028.826.028,3.36V-4.4c0,3.514-.028,4.228-.028,4.312,0,.14.014.154.154.154h1.036c.126,0,.14-.014.14-.154V-1.19H33.74v.616c0,.14.014.154.14.154h1.008c.14,0,.154-.014.154-.154,0-.084-.028-.714-.028-4.2ZM32.452-2.464V-5.488H33.74v3.024Zm1.288-7.2v2.9H32.452v-2.9Zm7.63,3.472c1.33,0,1.792.028,1.876.028.154,0,.168-.014.168-.168v-.966c0-.14-.014-.154-.168-.154-.084,0-.546.028-1.876.028H39.886V-8.862h.938c1.274,0,1.694.028,1.778.028.14,0,.154-.014.154-.154v-.98c0-.154-.014-.168-.154-.168-.084,0-.5.028-1.778.028h-.938a3.252,3.252,0,0,1,.07-1.05.779.779,0,0,0,.084-.294c0-.07-.084-.126-.224-.14-.518-.056-.9-.084-1.442-.1a11.729,11.729,0,0,1,.1,1.582h-.658c-1.246,0-1.68-.028-1.764-.028-.154,0-.168.014-.168.168v.98c0,.14.014.154.168.154.084,0,.518-.028,1.764-.028h.658V-7.42H37.464c-1.33,0-1.792-.028-1.876-.028-.154,0-.168.014-.168.154v.966c0,.154.014.168.168.168.084,0,.546-.028,1.876-.028ZM40.278-3.556V-.77c0,.322-.126.434-.462.434-.462,0-.882-.014-1.372-.056A3.12,3.12,0,0,1,38.864.63c.1.42.112.42.532.42a3.23,3.23,0,0,0,1.82-.308,1.3,1.3,0,0,0,.49-1.19c0-.476-.014-1.078-.014-1.722V-3.556c.952.014,1.33.028,1.4.028.154,0,.168-.014.168-.154v-.98c0-.14-.014-.154-.168-.154-.07,0-.448.028-1.4.028a1.775,1.775,0,0,1,.07-.714.472.472,0,0,0,.07-.238c0-.07-.084-.126-.238-.154-.378-.056-.882-.1-1.414-.126a10.4,10.4,0,0,1,.1,1.232H37.52c-1.33,0-1.778-.028-1.862-.028-.154,0-.168.014-.168.154v.98c0,.14.014.154.168.154.084,0,.532-.028,1.862-.028Zm-3.78.882c-.168.1-.168.14-.07.252A11.722,11.722,0,0,1,37.66-.7c.042.07.07.1.112.1s.084-.028.168-.084l.854-.588c.14-.1.154-.14.07-.266a11.2,11.2,0,0,0-1.288-1.61c-.112-.1-.154-.1-.294-.014ZM57.778-9.3c0-1.19.028-1.764.028-1.848,0-.154-.014-.168-.154-.168-.084,0-.462.028-1.554.028H54.04c-1.092,0-1.456-.028-1.54-.028-.14,0-.154.014-.154.168,0,.084.028.42.028,1.232V-7.98c0,.826-.028,1.148-.028,1.232,0,.154.014.168.154.168.084,0,.448-.028,1.54-.028h2.3v5.586c0,.42-.112.546-.574.546a9.651,9.651,0,0,1-1.176-.07A4.375,4.375,0,0,1,54.922.476c.084.448.084.434.5.434,1.316,0,1.708-.112,2-.378a1.522,1.522,0,0,0,.406-1.288c0-.686-.056-1.806-.056-2.786Zm-4.032,1.68v-.84h2.59v.84Zm2.59-2.618v.826h-2.59v-.826Zm-8.442-1.05c-1.022,0-1.554-.028-1.652-.028-.14,0-.154.014-.154.168,0,.084.028,1.064.028,3.01v6.062c0,1.932-.028,2.884-.028,2.982,0,.14.014.154.154.154h1.19c.14,0,.154-.014.154-.154,0-.1-.028-1.05-.028-2.982V-6.608h2.268c.91,0,1.33.028,1.414.028.126,0,.14-.014.14-.168,0-.084-.028-.476-.028-1.33V-9.814c0-.84.028-1.246.028-1.33,0-.154-.014-.168-.14-.168-.084,0-.5.028-1.414.028ZM49.98-7.616H47.558v-.84H49.98Zm0-2.618v.826H47.558v-.826ZM50.442.1c.154,0,.168-.014.168-.168V-.644h2.562V-.21c0,.14.014.154.154.154h1.008c.14,0,.154-.014.154-.154,0-.07-.028-.448-.028-2.478V-4.074c0-1.008.028-1.428.028-1.512,0-.14-.014-.154-.154-.154-.1,0-.434.028-1.5.028h-1.89c-1.064,0-1.4-.028-1.5-.028-.14,0-.154.014-.154.154,0,.1.028.518.028,1.75V-2.6c0,2.072-.028,2.45-.028,2.534,0,.154.014.168.154.168Zm.168-1.806v-.98h2.562v.98Zm0-2.926h2.562V-3.7H50.61Zm16.3-4.816a1.18,1.18,0,0,0-1.19,1.19,1.167,1.167,0,0,0,1.19,1.2,1.186,1.186,0,0,0,1.2-1.2A1.2,1.2,0,0,0,66.906-9.45Zm0,5.922a1.18,1.18,0,0,0-1.19,1.19,1.167,1.167,0,0,0,1.19,1.2,1.186,1.186,0,0,0,1.2-1.2A1.2,1.2,0,0,0,66.906-3.528ZM75.768-1.5A2.675,2.675,0,0,0,78.582.224c2.3,0,3.64-1.666,3.64-5.936,0-3.6-1.358-5.124-3.472-5.124-1.96,0-3.22,1.428-3.22,3.738,0,2.114,1.218,3.444,2.842,3.444a2.3,2.3,0,0,0,2.184-1.274c-.07,2.8-.756,3.808-1.946,3.808-.588,0-.924-.308-1.12-1.022Zm4.7-4.844A1.852,1.852,0,0,1,78.778-5c-.9,0-1.47-.784-1.47-2.142,0-1.456.476-2.352,1.512-2.352C79.968-9.492,80.458-8.428,80.472-6.342Zm6.566-1.316h-2v1.932h2Zm0,5.754h-2V.028h2Zm6.132-8.932c-2.156,0-3.374,1.554-3.374,5.516S90.944.224,93.142.224s3.388-1.61,3.388-5.572S95.326-10.836,93.17-10.836Zm0,1.386c1.12,0,1.554.966,1.554,4.116s-.448,4.172-1.582,4.172c-1.106,0-1.54-1.022-1.54-4.172S92.078-9.45,93.17-9.45Zm9-1.386c-2.156,0-3.374,1.554-3.374,5.516S99.946.224,102.144.224s3.388-1.61,3.388-5.572S104.328-10.836,102.172-10.836Zm0,1.386c1.12,0,1.554.966,1.554,4.116s-.448,4.172-1.582,4.172c-1.106,0-1.54-1.022-1.54-4.172S101.08-9.45,102.172-9.45ZM108.6-4.326a3.343,3.343,0,0,1,2.562-1.3,6.173,6.173,0,0,1,2.954,1.064,5.7,5.7,0,0,0,2.842.91,4.245,4.245,0,0,0,3.332-1.988l-.56-.588a3.274,3.274,0,0,1-2.6,1.344A6.468,6.468,0,0,1,114.17-5.95a5.811,5.811,0,0,0-2.842-.882c-1.162,0-2.17.63-3.3,1.932Zm18.564-6.4h-1.428a7.891,7.891,0,0,1-2.492,1.26l.28,1.47a7.851,7.851,0,0,0,1.974-.952V-1.33h-2.1V.028h5.768V-1.33h-2ZM136.486-5.7a2.53,2.53,0,0,0,1.876-2.436c0-1.582-1.33-2.7-3.22-2.7a2.9,2.9,0,0,0-3.192,2.758,2.837,2.837,0,0,0,1.82,2.73c-1.428.7-2.072,1.428-2.072,2.66,0,1.806,1.344,2.912,3.458,2.912,2.086,0,3.444-1.19,3.444-2.968C138.6-4.13,138.026-4.97,136.486-5.7Zm-1.428-.686c-1.106-.518-1.456-.98-1.456-1.708a1.4,1.4,0,0,1,1.54-1.456,1.456,1.456,0,0,1,1.568,1.484A1.917,1.917,0,0,1,135.45-6.2Zm.182,1.764c1.288.616,1.694,1.092,1.694,1.932a1.586,1.586,0,0,1-1.792,1.624A1.65,1.65,0,0,1,133.364-2.8c0-.9.476-1.47,1.47-2.016Zm8.036-3.038h-2v1.932h2Zm0,5.754h-2V.028h2Zm6.132-8.932c-2.156,0-3.374,1.554-3.374,5.516S147.182.224,149.38.224s3.388-1.61,3.388-5.572S151.564-10.836,149.408-10.836Zm0,1.386c1.12,0,1.554.966,1.554,4.116s-.448,4.172-1.582,4.172c-1.106,0-1.54-1.022-1.54-4.172S148.316-9.45,149.408-9.45Zm9-1.386c-2.156,0-3.374,1.554-3.374,5.516S156.184.224,158.382.224s3.388-1.61,3.388-5.572S160.566-10.836,158.41-10.836Zm0,1.386c1.12,0,1.554.966,1.554,4.116s-.448,4.172-1.582,4.172c-1.106,0-1.54-1.022-1.54-4.172S157.318-9.45,158.41-9.45ZM184.73-6.3v5.194a3.492,3.492,0,0,1-2.1-2c.1-.35.182-.714.252-1.106a1.173,1.173,0,0,1,.182-.434.433.433,0,0,0,.126-.266c0-.1-.07-.154-.266-.2-.406-.1-.868-.2-1.33-.266a6.671,6.671,0,0,1-.084.9,6.628,6.628,0,0,1-2.52,4.424,3.044,3.044,0,0,1,.812.728c.14.182.21.266.28.266s.168-.084.308-.238A7.976,7.976,0,0,0,182.1-1.694C183.2-.028,184.184.728,189.2.742c.56,0,1.12-.014,1.652-.042.434-.042.448-.042.5-.476a3.84,3.84,0,0,1,.266-1.008c-.924.07-1.918.126-2.716.126a23.615,23.615,0,0,1-2.7-.126V-3.178h1.708c1.148,0,1.526.028,1.61.028.154,0,.168-.014.168-.14V-4.312c0-.14-.014-.154-.168-.154-.084,0-.462.028-1.61.028H186.2V-6.3h1.19c1.344,0,1.806.028,1.89.028.14,0,.154-.014.154-.154V-7.448c0-.14-.014-.154-.154-.154-.084,0-.546.028-1.89.028h-3.948c-1.358,0-1.806-.028-1.89-.028-.154,0-.168.014-.168.154v1.022c0,.14.014.154.168.154.084,0,.532-.028,1.89-.028ZM186-10.276v-.14a2.506,2.506,0,0,1,.056-.84.655.655,0,0,0,.084-.266c0-.084-.084-.126-.21-.14-.476-.042-.98-.07-1.5-.07a5.636,5.636,0,0,1,.1,1.33v.126h-3c-1.316,0-1.764-.028-1.862-.028-.14,0-.154.014-.154.14,0,.1.028.336.028.854v.476c0,1.246-.028,1.442-.028,1.54,0,.14.014.154.154.154h1.134c.154,0,.168-.014.168-.154V-8.988h8.862v1.694c0,.14.014.154.154.154h1.148c.14,0,.154-.014.154-.154,0-.084-.028-.294-.028-1.54v-.6c0-.392.028-.63.028-.728,0-.126-.014-.14-.154-.14-.084,0-.546.028-1.848.028Zm14.714,3.094a12.491,12.491,0,0,1-3.71,5.054,3.254,3.254,0,0,1,.686.938c.1.2.154.294.224.294s.154-.084.28-.21a12.174,12.174,0,0,0,3.01-4.48c-.014,3.4-.07,6.23-.07,6.51,0,.154.014.168.154.168h1.218c.14,0,.154-.014.154-.168,0-.28-.084-3.122-.1-6.664a13.617,13.617,0,0,0,3.192,4.564c.14.126.21.2.28.2s.14-.084.252-.294a4.037,4.037,0,0,1,.7-.98,12.991,12.991,0,0,1-3.948-4.928h1.512c1.358,0,1.834.028,1.932.028.126,0,.14-.014.14-.154V-8.4c0-.14-.014-.154-.14-.154-.1,0-.574.028-1.932.028h-1.946v-1.12a4.3,4.3,0,0,1,.084-1.414.656.656,0,0,0,.084-.294c0-.07-.084-.14-.224-.154-.462-.042-.966-.07-1.484-.084a12.484,12.484,0,0,1,.112,1.974v1.092h-1.414c-1.372,0-1.834-.028-1.918-.028-.14,0-.154.014-.154.154v1.092c0,.14.014.154.154.154.084,0,.546-.028,1.918-.028Zm-5.292,6.006C195.426.2,195.4.868,195.4.952c0,.14.014.154.14.154h1.2c.14,0,.154-.014.154-.154,0-.07-.028-.756-.028-2.128V-8.2a21.094,21.094,0,0,0,.91-2.072c.126-.364.182-.49.28-.574s.154-.14.154-.238-.07-.14-.224-.21a12.129,12.129,0,0,0-1.372-.434,5.079,5.079,0,0,1-.224.994,12.432,12.432,0,0,1-2.66,4.564A4.37,4.37,0,0,1,194.264-5c.042.168.1.238.168.238s.14-.056.252-.182c.266-.308.518-.63.756-.952-.014.546-.014,1.106-.014,1.554ZM212.254.882c.14,0,.154-.014.154-.154V-.028h5.866V.658c0,.14.014.154.154.154h1.246c.14,0,.154-.014.154-.154,0-.084-.028-.91-.028-4.928V-7.378c0-2.3.028-3.15.028-3.234,0-.154-.014-.168-.154-.168-.084,0-.574.028-1.932.028h-4.8c-1.358,0-1.834-.028-1.932-.028-.14,0-.154.014-.154.168,0,.084.028.938.028,3.654v2.7c0,4.06-.028,4.886-.028,4.984,0,.14.014.154.154.154Zm.154-2.3V-4.8h5.866v3.388Zm0-7.952h5.866v3.192h-5.866ZM230.3-9.45a1.18,1.18,0,0,0-1.19,1.19,1.167,1.167,0,0,0,1.19,1.2,1.186,1.186,0,0,0,1.2-1.2A1.2,1.2,0,0,0,230.3-9.45Zm0,5.922a1.18,1.18,0,0,0-1.19,1.19,1.167,1.167,0,0,0,1.19,1.2,1.186,1.186,0,0,0,1.2-1.2A1.2,1.2,0,0,0,230.3-3.528ZM242.214.882c.14,0,.154-.014.154-.154V-.028h5.866V.658c0,.14.014.154.154.154h1.246c.14,0,.154-.014.154-.154,0-.084-.028-.91-.028-4.928V-7.378c0-2.3.028-3.15.028-3.234,0-.154-.014-.168-.154-.168-.084,0-.574.028-1.932.028h-4.8c-1.358,0-1.834-.028-1.932-.028-.14,0-.154.014-.154.168,0,.084.028.938.028,3.654v2.7c0,4.06-.028,4.886-.028,4.984,0,.14.014.154.154.154Zm.154-2.3V-4.8h5.866v3.388Zm0-7.952h5.866v3.192h-5.866Zm16.688,5.782c-.028.6-.042,1.246-.042,1.54V-.266c0,.882-.028,1.148-.028,1.232,0,.14.014.154.168.154h1.022c.14,0,.154-.014.154-.154V.49h4.382c1.218,0,1.638.028,1.722.028.14,0,.154-.014.154-.154V-.392c0-.14-.014-.154-.154-.154-.084,0-.5.028-1.722.028h-1.2V-1.3h.224c1.47,0,1.974.028,2.058.028.14,0,.154-.014.154-.154v-.714c0-.14-.014-.154-.154-.154-.084,0-.588.028-2.058.028h-.224v-.756h.252c1.456,0,1.974.028,2.058.028.14,0,.154-.014.154-.154v-.728c0-.14-.014-.154-.154-.154-.084,0-.6.028-2.058.028h-.252V-4.76h1.05c1.176,0,1.554.028,1.638.028.154,0,.168-.014.168-.168v-.728c0-.14-.014-.154-.168-.154-.084,0-.462.028-1.638.028h-.966a1.6,1.6,0,0,0,.14-.266.648.648,0,0,1,.182-.252.262.262,0,0,0,.112-.21c0-.07-.084-.126-.21-.168-.294-.084-.8-.21-1.106-.28.154,0,.266-.028.826-.028h1.288c.826,0,1.19.028,1.274.028.154,0,.168-.014.168-.168,0-.07-.028-.434-.028-1.246V-9.828c0-.8.028-1.176.028-1.26,0-.14-.014-.154-.168-.154-.084,0-.448.028-1.274.028h-.91c-.826,0-1.05-.028-1.134-.028-.154,0-.168.014-.168.154v.77c0,.14.014.154.168.154.084,0,.308-.028,1.134-.028h1.092v.658H263.9c-.686,0-.854-.028-.938-.028-.14,0-.154.014-.154.168v.658c0,.154.014.168.154.168.084,0,.252-.028.938-.028h1.106v.658h-1.47c-.56,0-.672-.028-.756-.028-.154,0-.168.014-.168.154V-7.1c0,.112,0,.154.07.168a3.744,3.744,0,0,1-.182.756,2.723,2.723,0,0,1-.2.42H260.47a1.442,1.442,0,0,1,.378-.532c.07-.056.126-.1.126-.182s-.07-.126-.224-.182a9.135,9.135,0,0,0-1.064-.308h1.036c.826,0,1.19.028,1.274.028.14,0,.154-.014.154-.168,0-.07-.028-.406-.028-1.218V-9.828c0-.8.028-1.176.028-1.26,0-.14-.014-.154-.154-.154-.084,0-.448.028-1.274.028h-.952c-.8,0-1.036-.028-1.12-.028-.154,0-.168.014-.168.154v.77c0,.14.014.154.168.154.084,0,.322-.028,1.12-.028H260.9v.658H259.77c-.686,0-.854-.028-.938-.028-.14,0-.154.014-.154.168v.658c0,.154.014.168.154.168.084,0,.252-.028.938-.028H260.9v.658h-1.5c-.56,0-.672-.028-.756-.028-.154,0-.168.014-.168.154V-7.1c0,.154.014.168.168.168.084,0,.2-.028.756-.028h.266a4.275,4.275,0,0,1-.336.938,6.079,6.079,0,0,1-1.428,1.876V-7.98c0-2.17.028-2.9.028-2.982,0-.14-.014-.154-.154-.154-.1,0-.336.028-1.12.028h-1.05c-.8,0-1.036-.028-1.134-.028-.14,0-.154.014-.154.154,0,.1.028.882.028,3.486v2.59c0,3.766-.028,4.522-.028,4.62,0,.126.014.14.154.14h.938c.154,0,.168-.014.168-.14v-1.12h1.134V-.77c0,.14.014.154.154.154h.91c.14,0,.154-.014.154-.154,0-.07-.028-.63-.028-2.9.126.1.252.224.392.35s.182.21.252.21.14-.07.266-.21Zm-3.472.938V-5.7h1.134v3.052Zm1.134-7.168v2.87h-1.134v-2.87Zm3.612,9.3V-1.3h1.876v.784Zm0-4.242h1.876V-4H260.33Zm0,2.492v-.756h1.876v.756ZM275.24-6.72a1.4,1.4,0,0,0-1.4,1.4,1.4,1.4,0,0,0,1.4,1.4,1.4,1.4,0,0,0,1.4-1.4A1.4,1.4,0,0,0,275.24-6.72Zm17.682,1.4V-.546c0,.7.154.952.392,1.12a2.581,2.581,0,0,0,1.47.238A2.378,2.378,0,0,0,296.268.49c.308-.266.49-.686.546-2.03.014-.35.014-.364-.35-.462a3.177,3.177,0,0,1-.9-.406c-.014,1.232-.056,1.5-.168,1.68a.486.486,0,0,1-.462.2.879.879,0,0,1-.5-.1c-.1-.07-.112-.168-.112-.462V-5.32c.994.014,1.386.028,1.47.028.154,0,.168-.014.168-.154,0-.084-.028-.5-.028-1.414V-9.422c0-.9.028-1.316.028-1.4,0-.14-.014-.154-.168-.154-.084,0-.518.028-1.722.028h-2.828c-1.2,0-1.638-.028-1.722-.028-.14,0-.154.014-.154.154,0,.1.028.5.028,1.4V-6.86c0,.91-.028,1.316-.028,1.414,0,.14.014.154.154.154.07,0,.364-.014,1.106-.028.056,3.122-.756,4.354-3.01,5.278a3.632,3.632,0,0,1,.784.756c.154.21.21.28.308.28a.881.881,0,0,0,.322-.126c2.1-1.12,2.968-2.856,3-6.188Zm1.568-1.3h-3.7v-3.01h3.7Zm-7.28-2.814v-.63a2.43,2.43,0,0,1,.126-1.092.656.656,0,0,0,.084-.294c0-.07-.084-.126-.224-.14a13.21,13.21,0,0,0-1.512-.126,6.959,6.959,0,0,1,.14,1.708v.574h-.2c-1.022,0-1.358-.028-1.442-.028-.14,0-.154.014-.154.154v1.036c0,.14.014.154.154.154.084,0,.42-.028,1.442-.028h1.526a9.916,9.916,0,0,1-3.528,4.228,3.613,3.613,0,0,1,.49,1.134c.042.14.084.224.154.224s.168-.07.308-.2c.42-.392.84-.8,1.246-1.218v2.87c0,1.036-.028,1.988-.028,2.072,0,.14.014.154.168.154h1.106c.154,0,.168-.014.168-.154,0-.07-.028-1.036-.028-2.072v-3.4a8.851,8.851,0,0,0,1.064,1.274c.112.1.182.154.252.154s.112-.056.182-.168a3.69,3.69,0,0,1,.728-1.022,6.818,6.818,0,0,1-1.946-1.75,11.431,11.431,0,0,0,1.022-1.862,1.342,1.342,0,0,1,.336-.518c.126-.1.2-.168.2-.308,0-.1-.014-.182-.322-.476-.336-.308-.434-.364-.546-.364a.456.456,0,0,0-.182.056.765.765,0,0,1-.336.056ZM302.134.882c.14,0,.154-.014.154-.154V-.028h5.866V.658c0,.14.014.154.154.154h1.246c.14,0,.154-.014.154-.154,0-.084-.028-.91-.028-4.928V-7.378c0-2.3.028-3.15.028-3.234,0-.154-.014-.168-.154-.168-.084,0-.574.028-1.932.028h-4.8c-1.358,0-1.834-.028-1.932-.028-.14,0-.154.014-.154.168,0,.084.028.938.028,3.654v2.7c0,4.06-.028,4.886-.028,4.984,0,.14.014.154.154.154Zm.154-2.3V-4.8h5.866v3.388Zm0-7.952h5.866v3.192h-5.866Z" transform="translate(460 562.658)" fill="#1d9612"/>
      <g id="r1zto7" transform="translate(464.288 504)">
        <g id="グループ_6109" data-name="グループ 6109" transform="translate(0)">
          <path id="パス_11412" data-name="パス 11412" d="M107.089-538.759a28.729,28.729,0,0,1,2.271-2.328,3.663,3.663,0,0,1,5.405.247A10.6,10.6,0,0,1,117.978-535a3.352,3.352,0,0,1-1.684,3.558,8.613,8.613,0,0,1-5.981,1.124,17.664,17.664,0,0,1-10.336-5.415,31.524,31.524,0,0,1-8.394-14.545,17.439,17.439,0,0,1,.3-9.839,8.836,8.836,0,0,1,3.123-4.471,3.65,3.65,0,0,1,5.18.274,10.867,10.867,0,0,1,3.285,5.734,3.382,3.382,0,0,1-1.446,3.608A7.228,7.228,0,0,1,98.6-553.7c-.391.05-.56.187-.517.568a23.289,23.289,0,0,0,.425,3.466,17.431,17.431,0,0,0,6.229,9.438A24.853,24.853,0,0,0,107.089-538.759Z" transform="translate(-91.018 565.537)" fill="#1d9612"/>
        </g>
      </g>
      <g id="グループ_17615" data-name="グループ 17615" transform="translate(503.974 505.168)">
        <g id="_076-256-3844" data-name=" 076-256-3844" style="isolation: isolate">
          <g id="グループ_13321" data-name="グループ 13321" style="isolation: isolate">
            <path id="パス_22232" data-name="パス 22232" d="M2028.032-9312.29c-5.286,0-9.888-3.463-9.888-9.659v-13.67c0-6.2,4.6-9.661,9.888-9.661s9.842,3.463,9.842,9.661v13.67C2037.875-9315.753,2033.318-9312.29,2028.032-9312.29Zm3.918-23.237c0-2.735-1.595-4.421-3.918-4.421s-3.965,1.686-3.965,4.421V-9322c0,2.735,1.641,4.376,3.965,4.376s3.918-1.641,3.918-4.376Z" transform="translate(-2018.145 9345.28)" fill="#1d9612"/>
            <path id="パス_22233" data-name="パス 22233" d="M2057.285-9312.5h-6.425l10.526-27.112h-8.567v5.1h-5.649v-10.435h20.642v5.332Z" transform="translate(-2023.565 9345.216)" fill="#1d9612"/>
            <path id="パス_22234" data-name="パス 22234" d="M2086.479-9312.227c-5.742,0-10.116-3.6-10.116-10.023,0-2.963,1.276-5.7,2.734-8.658l6.835-14.035h6.47l-6.744,13.4a6.432,6.432,0,0,1,2.415-.408c4.375,0,8.521,3.6,8.521,9.613C2096.594-9315.961,2092.22-9312.227,2086.479-9312.227Zm0-14.809c-2.416,0-4.192,1.73-4.192,4.738s1.777,4.74,4.192,4.74,4.192-1.733,4.192-4.74C2090.671-9325.168,2088.986-9327.035,2086.479-9327.035Z" transform="translate(-2031.007 9345.08)" fill="#1d9612"/>
            <path id="パス_22235" data-name="パス 22235" d="M2106.285-9322.922v-5.514h14.035v5.514Z" transform="translate(-2036.231 9342.134)" fill="#1d9612"/>
            <path id="パス_22236" data-name="パス 22236" d="M2129.035-9312.562v-5.332l12.121-14.08a5.583,5.583,0,0,0,1.687-3.919,3.7,3.7,0,0,0-3.92-4.055c-1.959,0-3.964,1-3.964,4.146h-5.924c0-5.924,4.329-9.479,9.888-9.479,5.742,0,9.844,3.6,9.844,9.434,0,3.144-1.231,4.83-3.464,7.426l-9.068,10.526h12.532v5.332Z" transform="translate(-2040.479 9345.28)" fill="#1d9612"/>
            <path id="パス_22237" data-name="パス 22237" d="M2175.271-9314.869a9.788,9.788,0,0,1-7.154,2.643,10.129,10.129,0,0,1-7.245-2.6c-2-2.006-2.461-4.376-2.643-6.744h5.924c.319,2.552,1.5,4.011,3.965,4.011a3.817,3.817,0,0,0,2.825-1.049c1.048-1.048,1.276-2.779,1.276-4.83,0-3.736-1.093-5.832-3.964-5.832a3.765,3.765,0,0,0-3.919,2.642h-5.423v-18.317h18.5v5.332h-13.123v6.971a7.436,7.436,0,0,1,4.875-1.641,8.352,8.352,0,0,1,6.06,2.189c2.552,2.551,2.917,5.6,2.917,8.656C2178.142-9319.79,2177.641-9317.238,2175.271-9314.869Z" transform="translate(-2045.931 9345.216)" fill="#1d9612"/>
            <path id="パス_22238" data-name="パス 22238" d="M2197.146-9312.227c-5.741,0-10.116-3.6-10.116-10.023,0-2.963,1.277-5.7,2.735-8.658l6.834-14.035h6.47l-6.743,13.4a6.425,6.425,0,0,1,2.414-.408c4.375,0,8.521,3.6,8.521,9.613C2207.262-9315.961,2202.888-9312.227,2197.146-9312.227Zm0-14.809c-2.415,0-4.192,1.73-4.192,4.738s1.777,4.74,4.192,4.74,4.192-1.733,4.192-4.74C2201.338-9325.168,2199.653-9327.035,2197.146-9327.035Z" transform="translate(-2051.31 9345.216)" fill="#1d9612"/>
            <path id="パス_22239" data-name="パス 22239" d="M2216.952-9322.922v-5.514h14.035v5.514Z" transform="translate(-2056.897 9342.134)" fill="#1d9612"/>
            <path id="パス_22240" data-name="パス 22240" d="M2249.093-9312.29c-5.286,0-10.253-2.778-10.344-9.568h5.924a4.1,4.1,0,0,0,4.42,4.238,4.13,4.13,0,0,0,4.374-4.513,4.166,4.166,0,0,0-4.557-4.464h-.866v-5.149h.866a3.724,3.724,0,0,0,4.1-4.056,3.827,3.827,0,0,0-3.964-4.146,3.853,3.853,0,0,0-4.011,3.918h-5.923c.136-5.787,4.466-9.25,9.934-9.25,5.741,0,9.887,3.828,9.887,9.3a6.929,6.929,0,0,1-3.736,6.654,7.735,7.735,0,0,1,4.192,7.381C2259.391-9315.479,2254.652-9312.29,2249.093-9312.29Z" transform="translate(-2060.968 9345.28)" fill="#1d9612"/>
            <path id="パス_22241" data-name="パス 22241" d="M2278.555-9312.29c-5.741,0-10.389-3.417-10.389-9.706a8.4,8.4,0,0,1,4.056-7.289,8.065,8.065,0,0,1-3.645-6.745c0-5.74,4.556-9.25,9.979-9.25s9.934,3.51,9.934,9.25a8.067,8.067,0,0,1-3.645,6.745,8.423,8.423,0,0,1,4.1,7.289C2288.945-9315.707,2284.3-9312.29,2278.555-9312.29Zm0-14.307a4.454,4.454,0,0,0-4.465,4.511,4.416,4.416,0,0,0,4.465,4.466,4.417,4.417,0,0,0,4.467-4.466A4.455,4.455,0,0,0,2278.555-9326.6Zm0-13.352a3.99,3.99,0,0,0-4.055,4.1,3.963,3.963,0,0,0,4.055,4.1,3.927,3.927,0,0,0,4.01-4.1A3.953,3.953,0,0,0,2278.555-9339.948Z" transform="translate(-2066.461 9345.28)" fill="#1d9612"/>
            <path id="パス_22242" data-name="パス 22242" d="M2315.7-9317.1v4.6H2310v-4.6h-13.26v-5.6l11.118-22.238h6.47l-11.118,22.238H2310v-6.062h5.7v6.063h2.961v5.6Z" transform="translate(-2071.798 9345.216)" fill="#1d9612"/>
            <path id="パス_22243" data-name="パス 22243" d="M2345-9317.1v4.6h-5.7v-4.6h-13.26v-5.6l11.118-22.238h6.47l-11.118,22.238h6.789v-6.062h5.7v6.063h2.962v5.6Z" transform="translate(-2077.271 9345.216)" fill="#1d9612"/>
          </g>
        </g>
      </g>
    </g>
  </g>
</svg>
