<svg xmlns="http://www.w3.org/2000/svg" width="270.215" height="23.167" viewBox="0 0 270.215 23.167">
  <g id="コンポーネント_118_1" data-name="コンポーネント 118 – 1" transform="translate(0.345 0.35)">
    <g id="グループ_22052" data-name="グループ 22052" transform="translate(2 1.752)">
      <path id="パス_81562" data-name="パス 81562" d="M1977.668,439.578q-6.121,0-12.244,0t-12.234,0c-2.293,0-3.664,1.275-3.667,3.408q-.012,7.818,0,15.643c0,2.136,1.374,3.411,3.666,3.411h12.2q6.139.005,12.279,0c2.292,0,3.663-1.277,3.667-3.409q.012-7.818,0-15.642C1981.329,440.853,1979.959,439.578,1977.668,439.578Zm-25.484,1.748h26.44l.314.55-13.509,10.9-13.4-10.849Zm-.827,2.313,8.729,7.063-8.729,8.171Zm1.383,16.672,8.876-8.355,1.082.868q.9.721,1.8,1.449c.789.638,1.062.642,1.825.023.578-.468,1.157-.932,1.726-1.387l1.136-.912,8.873,8.314Zm26.728-1.45-8.643-8.192,8.643-6.97Z" transform="translate(-1951.517 -441.328)" fill="#1d9612" stroke="#1d9612" stroke-width="0.7"/>
      <path id="パス_81857" data-name="パス 81857" d="M10.66-9.42a29.8,29.8,0,0,0-3.48-2.1.334.334,0,0,0-.44.02c-.26.28-.74.9-1.32,1.64a21.941,21.941,0,0,1,3.9,2.38A24.432,24.432,0,0,1,1.78-.92,5.825,5.825,0,0,1,3.58.18.639.639,0,0,0,4.42.16a26.251,26.251,0,0,0,6.84-6.24,20.448,20.448,0,0,1,2.62,2.64c.16.2.34.28.52.04.42-.46.82-.9,1.22-1.42a.38.38,0,0,0-.02-.54,23.243,23.243,0,0,0-2.94-2.72,39.279,39.279,0,0,0,2.28-3.96,4.37,4.37,0,0,1,.9-1.34c.26-.22.34-.58.02-.78a9.773,9.773,0,0,0-2.52-1.26,9.3,9.3,0,0,1-.76,2.46A23.684,23.684,0,0,1,10.66-9.42ZM34-6.18c1.48,0,2.96.02,4.46.04.28.02.36-.06.36-.3a14.741,14.741,0,0,0,0-1.88c0-.24-.06-.3-.36-.28-1.54.02-3.08.06-4.6.06H27.42a25.694,25.694,0,0,1-4.32-.24,21.707,21.707,0,0,0,.3,2.42c.06.3.22.42.46.42a15.993,15.993,0,0,1,2.94-.24ZM54.04-10.9a5.534,5.534,0,0,1,.18-2.22c.22-.46.28-.72-.2-.84a19.085,19.085,0,0,0-2.5-.42,15.97,15.97,0,0,1,.2,3.48v6.26c0,1.02.02,1.26-.12,1.52-.14.28-.12.42.1.72a5.775,5.775,0,0,0,1.2,1.22.591.591,0,0,0,.82,0,6.641,6.641,0,0,1,.58-.42A33.213,33.213,0,0,0,57.86-4a25.281,25.281,0,0,0,2.96-2.62c.38-.38.34-.52.18-.84a5.765,5.765,0,0,1-.62-2.02,19.193,19.193,0,0,1-3.5,3.4,20.332,20.332,0,0,1-2.84,1.86Zm-6.98-2.22a5.38,5.38,0,0,1,.2,1.68c-.02,3.2-.28,4.3-.84,5.66A9.929,9.929,0,0,1,43.1-1.8a7.087,7.087,0,0,1,1.7.84c.32.24.56.2.9-.1a10.3,10.3,0,0,0,2.84-3.76,14.968,14.968,0,0,0,1.08-5.88,2.885,2.885,0,0,1,.24-1.36c.12-.28.08-.52-.26-.62A16.169,16.169,0,0,0,47.06-13.12Zm27.16,1.16c-2.42,1.58-3.84,3.5-3.84,6.34,0,4.16,3.86,6.18,7.38,6.18.24,0,.32-.12.38-.42a7.114,7.114,0,0,0,.22-1.72c0-.22-.12-.3-.44-.3C74.44-2.1,72.6-3.5,72.6-6.08c0-2.4,1.7-4.74,5.1-5.9a8.924,8.924,0,0,1,2.44-.44c.26,0,.38-.06.38-.3a11.427,11.427,0,0,0-.22-1.76c-.02-.14-.12-.26-.42-.22-5.16.68-9.56,1.34-12.02,1.7a27.591,27.591,0,0,1-3.18.34,13.938,13.938,0,0,0,.74,2.16.468.468,0,0,0,.38.3,1.168,1.168,0,0,0,.44-.16c.3-.1.5-.14,1.26-.32,2.14-.44,4.28-.86,6.72-1.32Zm2.9,2.86a9.924,9.924,0,0,1,2.02,2.32.209.209,0,0,0,.34.06l.84-.62a.2.2,0,0,0,.06-.32,9.205,9.205,0,0,0-1.9-2.14c-.12-.1-.2-.12-.3-.04Zm1.84-1.32a9.461,9.461,0,0,1,2,2.3.205.205,0,0,0,.34.06l.8-.62a.231.231,0,0,0,.06-.36,8.352,8.352,0,0,0-1.9-2.06c-.12-.1-.18-.12-.3-.04Zm16.4-1.84a4.543,4.543,0,0,1,4.48,4.64c0,3.78-2.66,5.18-6.04,5.98A4.242,4.242,0,0,1,95.2-.38c.26.4.44.48.86.36,4.06-1.22,6.16-3.56,6.16-7.28,0-3.98-2.82-6.94-7.62-6.94a8.752,8.752,0,0,0-6.5,2.56,7.369,7.369,0,0,0-2.26,5.2c0,3.26,1.78,5.14,3.54,5.14a3.8,3.8,0,0,0,3.4-2.3,25.043,25.043,0,0,0,2.5-8.62Zm-2.4.12a22.851,22.851,0,0,1-2.12,7.16c-.54.96-.98,1.22-1.5,1.22-.62,0-1.36-1.02-1.36-2.86a5.759,5.759,0,0,1,1.56-3.7A6.023,6.023,0,0,1,92.96-12.14Zm18.46,5.86c-1.46.84-2.4,1.38-3.26,1.86a7.385,7.385,0,0,1-1.84.7c.3.66.7,1.5.92,1.86a.561.561,0,0,0,.44.32.5.5,0,0,0,.34-.14,3.625,3.625,0,0,1,.64-.44A12.3,12.3,0,0,1,111.5.44c.18.26.26.42.48.4A8.129,8.129,0,0,0,113.46.6c.34-.08.3-.38.3-.66,0-.46-.1-1.72-.16-2.6-.04-.88-.06-1.56-.08-2.4a9.891,9.891,0,0,1,4.58-1.36c1.4,0,2.2.72,2.2,2.02a1.985,1.985,0,0,1-2.16,2.06,7.46,7.46,0,0,1-2.5-.36,3.5,3.5,0,0,1,.6,1.7.536.536,0,0,0,.44.6,7.751,7.751,0,0,0,1.64.18c2.7,0,4.34-1.5,4.34-4.06a3.958,3.958,0,0,0-4.26-4,12.623,12.623,0,0,0-4.92,1.1c.02-.96.02-1.94.04-2.9a20.385,20.385,0,0,0,2.86-.76c.2-.06.26-.12.26-.32a10.052,10.052,0,0,0-.12-1.56c-.02-.2-.16-.24-.34-.18a19.612,19.612,0,0,1-2.56.74c.02-.64.04-1.14.1-1.66a2.448,2.448,0,0,1,.28-.78.709.709,0,0,0,.12-.32c0-.18-.16-.32-.4-.38a11.335,11.335,0,0,0-2.38-.36,7.394,7.394,0,0,1,.14,1.62c0,.86-.02,1.62-.02,2.28a16.549,16.549,0,0,1-4.1.06c.08.7.16,1.36.22,1.74.04.3.14.42.48.42,1.34,0,2.36-.08,3.36-.16Zm.1,2.1c.04.66.08,1.58.12,2.1.02.18-.04.2-.2.16a20.511,20.511,0,0,1-1.88-.9C110.28-3.34,110.96-3.8,111.52-4.18Zm6.68-7.58a9.232,9.232,0,0,1,4.06,2.46c.06.1.34.08.4,0,.3-.4.82-1.02,1.08-1.42a.269.269,0,0,0-.04-.4,9.507,9.507,0,0,0-4.24-2.44c-.14-.04-.2.02-.34.24A12.27,12.27,0,0,0,118.2-11.76Zm26.1-1.48c0-1.7.04-2.54.04-2.66,0-.2-.02-.22-.22-.22-.12,0-.66.04-2.2.04h-2.88c-1.56,0-2.08-.04-2.2-.04-.22,0-.24.02-.24.22,0,.14.04.62.04,1.82v2.92c0,1.2-.04,1.66-.04,1.8,0,.2.02.22.24.22.12,0,.64-.04,2.2-.04h3.2v7.72c0,.6-.16.78-.82.78a11.717,11.717,0,0,1-1.62-.1A5.607,5.607,0,0,1,140.26.7c.12.64.12.62.76.62,1.78,0,2.34-.14,2.78-.54.46-.42.58-.88.58-1.84,0-.98-.08-2.58-.08-3.98Zm-5.7,2.6V-12h3.64v1.36Zm3.64-3.92v1.18H138.6v-1.18ZM130.3-16.08c-1.46,0-2.2-.04-2.34-.04-.2,0-.22.02-.22.22,0,.14.04,1.54.04,4.3v8.66c0,2.76-.04,4.12-.04,4.26,0,.2.02.22.22.22h1.7c.2,0,.22-.02.22-.22,0-.14-.04-1.5-.04-4.26V-9.18h3.2c1.3,0,1.88.04,2,.04.18,0,.2-.02.2-.22,0-.12-.04-.72-.04-1.96v-2.6c0-1.26.04-1.86.04-1.98,0-.2-.02-.22-.2-.22-.12,0-.7.04-2,.04Zm2.94,5.44h-3.4V-12h3.4Zm0-3.92v1.18h-3.4v-1.18Zm.74,14.2c.22,0,.24,0,.24-.2V-1.64h3.46v.66c0,.22.02.24.24.24h1.46c.2,0,.22-.02.22-.24,0-.12-.04-.6-.04-3.12V-5.64c0-1.1.04-1.62.04-1.74,0-.2-.02-.22-.22-.22-.14,0-.62.04-2.12.04h-2.62c-1.5,0-1.98-.04-2.12-.04-.2,0-.22.02-.22.22,0,.14.04.66.04,2.12v1.44c0,2.64-.04,3.14-.04,3.26,0,.2.02.2.22.2Zm.24-5.5h3.46v2.52h-3.46Zm15.12-8.04a10.721,10.721,0,0,1,.24,2.62,36.26,36.26,0,0,0,.48,5.82c.54,3.38,2.18,5.22,3.74,5.22,1.4,0,2.64-1.08,3.4-3.12a.612.612,0,0,0-.14-.74,7.646,7.646,0,0,1-1.28-1.54c-.78,2.08-1.28,2.78-1.92,2.78-.84,0-1.36-1.36-1.64-2.94a25.187,25.187,0,0,1-.36-4.56,8.987,8.987,0,0,1,.18-1.96,1.741,1.741,0,0,0,.16-.56c0-.14-.14-.28-.32-.36A8.657,8.657,0,0,0,149.34-13.9Zm10.24,2.84a13.476,13.476,0,0,1,3.74,6.98c.04.24.18.3.42.22a6.788,6.788,0,0,0,1.56-.8c.16-.1.28-.18.22-.44a13.225,13.225,0,0,0-3.92-6.84c-.16-.16-.28-.12-.44-.04C160.84-11.82,160.34-11.54,159.58-11.06ZM173.8,1.5c.22,0,.24-.02.24-.22V.52h8.02v.66c0,.2.02.22.22.22h1.7c.22,0,.24-.02.24-.22,0-.1-.04-.64-.04-3.52V-4.3c0-1.42.04-2,.04-2.12,0-.2-.02-.22-.24-.22-.12,0-.82.04-2.74.04h-6.4c-1.92,0-2.62-.04-2.74-.04-.2,0-.22.02-.22.22,0,.12.04.7.04,2.42v1.72c0,2.9-.04,3.44-.04,3.56,0,.2.02.22.22.22Zm.24-6.28c2.005-.87,8.02,0,8.02,0V-1.3h-8.02S172.035-3.91,174.04-4.78ZM174-8.72c0,.2.02.22.22.22.14,0,.66-.04,2.26-.04h3.1c1.6,0,2.14.04,2.26.04.2,0,.22-.02.22-.22v-1.4a21.782,21.782,0,0,0,3.9,2.24,1.2,1.2,0,0,0,.48.18c.16,0,.24-.14.36-.52a5.317,5.317,0,0,1,.84-1.52,18.048,18.048,0,0,1-8.54-6.1.539.539,0,0,1,.16-.14.341.341,0,0,0,.2-.3c0-.18-.12-.24-.36-.32-.58-.14-1.32-.26-2.1-.38a6.257,6.257,0,0,1-.78,1.42,17.807,17.807,0,0,1-7.7,6.12,4.848,4.848,0,0,1,.94,1.34c.16.36.24.5.38.5a1.451,1.451,0,0,0,.46-.2,24.668,24.668,0,0,0,3.7-2.36Zm2.48-1.68c-1.36,0-1.92-.02-2.16-.04a19.772,19.772,0,0,0,3.64-3.78,17.886,17.886,0,0,0,3.68,3.8c-.28,0-.88.02-2.06.02Zm20.24.78c.48-.7.78-1.08,1.06-1.44.3-.34.34-.42.34-.56s-.08-.3-.32-.62c-.18-.26-.4-.46-.54-.46a.371.371,0,0,0-.14.04c-.06.02-.1.04-.16.06.04-.86.08-1.32.1-1.8a3.4,3.4,0,0,1,.2-.86c.14-.36.06-.58-.36-.7a15.205,15.205,0,0,0-2.32-.34,7.253,7.253,0,0,1,.2,1.74c0,.86,0,1.74-.04,2.6-1.54.42-2.32.6-2.84.72a9.727,9.727,0,0,1-1.36.2,17.013,17.013,0,0,0,.8,1.76c.12.24.26.36.4.36.12,0,.32-.2.66-.34.76-.28,1.7-.56,2.28-.74-.02.38-.02.92-.02,1.42-1.5,2.06-2.64,3.48-4.4,5.62-.16.16-.18.32,0,.46a13.884,13.884,0,0,0,1.22,1.2c.2.2.34.14.5-.08.74-1.06,1.74-2.52,2.7-3.96-.04,2.04-.08,4.14-.1,6.18-.02.2.04.28.22.28.66,0,1.56-.06,1.78-.08.16,0,.26-.08.26-.24-.04-2.7-.1-5.12-.12-7.68,1.96-1.68,3.52-2.56,5.36-2.56a2.8,2.8,0,0,1,2.98,3.1,3.862,3.862,0,0,1-1.36,3.02,9.213,9.213,0,0,1-4.02,1.98,5.889,5.889,0,0,1,1.58,1.32.65.65,0,0,0,.86.2c3.44-1.24,5.32-3.36,5.32-6.44a4.751,4.751,0,0,0-4.98-5.08A8.9,8.9,0,0,0,196.72-9Zm18.56-.62c-.74.12-1.7.3-2.26.38a19.141,19.141,0,0,1-2.14.2,7.857,7.857,0,0,0,.56,2c.12.26.26.34.52.22a5.839,5.839,0,0,1,.9-.3c.76-.16,1.4-.28,2.42-.42,0,2.12.04,3.8.14,4.88.24,2.62,1.42,3.46,5.46,3.46a45.987,45.987,0,0,0,5.02-.3c.18-.02.26-.12.26-.36a12.3,12.3,0,0,0-.12-1.68c-.04-.24-.1-.28-.4-.26a37.1,37.1,0,0,1-5.18.4c-2.44,0-2.88-.32-3-1.96-.08-1.14-.06-2.34-.04-4.52,1.54-.24,3.28-.44,4.88-.56-.02.78-.06,1.5-.14,2.12-.1.7-.4.86-.94.86a6.293,6.293,0,0,1-1.7-.24,4.855,4.855,0,0,1,.44,1.8c0,.36.08.5.4.52a9.006,9.006,0,0,0,1.24.06,2.327,2.327,0,0,0,2.62-2.22,30.76,30.76,0,0,0,.24-3.08c1.32-.1,2.66-.16,3.98-.16.22,0,.26-.02.26-.28a14.95,14.95,0,0,0,0-1.64c0-.18-.08-.2-.24-.2-1.08.04-2.28.1-3.9.22.02-.94.04-1.72.08-2.8a3.453,3.453,0,0,1,.2-.9.947.947,0,0,0,.12-.4c0-.2-.1-.3-.38-.38a13.967,13.967,0,0,0-2.42-.4,8.87,8.87,0,0,1,.26,2.28c0,.74,0,1.82-.02,2.82-1.44.16-3.56.38-4.94.56.02-.68.02-1.44.04-1.92a2.682,2.682,0,0,1,.2-.88,1.112,1.112,0,0,0,.12-.42.508.508,0,0,0-.42-.42,17.46,17.46,0,0,0-2.4-.34,8.01,8.01,0,0,1,.28,2.12Z" transform="translate(39 16.982)" fill="#1d9612" stroke="#1d9612" stroke-width="0.3"/>
    </g>
  </g>
</svg>
