<svg xmlns="http://www.w3.org/2000/svg" width="215.746" height="29.603" viewBox="0 0 215.746 29.603">
  <g id="グループ_22639" data-name="グループ 22639" transform="translate(9063.814 -1709.397)">
    <path id="パス_81856" data-name="パス 81856" d="M-80.136-5.768v-8.4A5.728,5.728,0,0,0-86.184-20.1a5.75,5.75,0,0,0-6.076,5.936v8.4A5.75,5.75,0,0,0-86.184.168,5.728,5.728,0,0,0-80.136-5.768Zm-3.64-.028a2.378,2.378,0,0,1-2.408,2.688A2.4,2.4,0,0,1-88.62-5.8v-8.316a2.421,2.421,0,0,1,2.436-2.716c1.456,0,2.408,1.036,2.408,2.716ZM-63.448-16.66v-3.276H-76.132v6.412h3.472V-16.66H-67.4L-73.864,0h3.948Zm15.96,10.612c0-3.7-2.548-5.908-5.236-5.908a3.944,3.944,0,0,0-1.484.252l4.144-8.232H-54.04l-4.2,8.624a12.287,12.287,0,0,0-1.68,5.32c0,3.948,2.688,6.16,6.216,6.16A5.877,5.877,0,0,0-47.488-6.048Zm-3.64.028c0,1.848-1.092,2.912-2.576,2.912S-56.28-4.172-56.28-6.02s1.092-2.912,2.576-2.912A2.6,2.6,0,0,1-51.128-6.02ZM-34.72-6.3V-9.688h-8.624V-6.3ZM-18.228,0V-3.276h-7.7l5.572-6.468c1.372-1.6,2.128-2.632,2.128-4.564,0-3.584-2.52-5.8-6.048-5.8-3.416,0-6.076,2.184-6.076,5.824h3.64a2.274,2.274,0,0,1,2.436-2.548,2.273,2.273,0,0,1,2.408,2.492A3.431,3.431,0,0,1-22.9-11.928l-7.448,8.652V0ZM-1.9-6.72A6.923,6.923,0,0,0-3.7-12.04,5.134,5.134,0,0,0-7.42-13.384a4.571,4.571,0,0,0-3,1.008V-16.66h8.064v-3.276H-13.72V-8.68h3.332A2.314,2.314,0,0,1-7.98-10.3c1.764,0,2.436,1.288,2.436,3.584a4.132,4.132,0,0,1-.784,2.968,2.344,2.344,0,0,1-1.736.644c-1.512,0-2.24-.9-2.436-2.464h-3.64a6.077,6.077,0,0,0,1.624,4.144A6.224,6.224,0,0,0-8.064.168a6.013,6.013,0,0,0,4.4-1.624C-2.212-2.912-1.9-4.48-1.9-6.72Zm16.212.672c0-3.7-2.548-5.908-5.236-5.908a3.944,3.944,0,0,0-1.484.252l4.144-8.232H7.756l-4.2,8.624a12.287,12.287,0,0,0-1.68,5.32c0,3.948,2.688,6.16,6.216,6.16A5.877,5.877,0,0,0,14.308-6.048Zm-3.64.028c0,1.848-1.092,2.912-2.576,2.912S5.516-4.172,5.516-6.02,6.608-8.932,8.092-8.932A2.6,2.6,0,0,1,10.668-6.02ZM27.076-6.3V-9.688H18.452V-6.3Zm16.576.532A4.753,4.753,0,0,0,41.076-10.3a4.255,4.255,0,0,0,2.3-4.088c0-3.36-2.548-5.712-6.076-5.712-3.36,0-6.02,2.128-6.1,5.684h3.64A2.367,2.367,0,0,1,37.3-16.828a2.352,2.352,0,0,1,2.436,2.548,2.288,2.288,0,0,1-2.52,2.492H36.68v3.164h.532a2.56,2.56,0,0,1,2.8,2.744,2.537,2.537,0,0,1-2.688,2.772,2.521,2.521,0,0,1-2.716-2.6h-3.64c.056,4.172,3.108,5.88,6.356,5.88C40.74.168,43.652-1.792,43.652-5.768ZM60.06-5.8a5.175,5.175,0,0,0-2.52-4.48,4.954,4.954,0,0,0,2.24-4.144c0-3.528-2.772-5.684-6.1-5.684s-6.132,2.156-6.132,5.684a4.954,4.954,0,0,0,2.24,4.144A5.159,5.159,0,0,0,47.292-5.8c0,3.864,2.856,5.964,6.384,5.964S60.06-1.932,60.06-5.8Zm-3.64-.056a2.713,2.713,0,0,1-2.744,2.744,2.713,2.713,0,0,1-2.744-2.744,2.737,2.737,0,0,1,2.744-2.772A2.737,2.737,0,0,1,56.42-5.852Zm-.28-8.456a2.413,2.413,0,0,1-2.464,2.52,2.435,2.435,0,0,1-2.492-2.52,2.452,2.452,0,0,1,2.492-2.52A2.429,2.429,0,0,1,56.14-14.308ZM76.664-2.828V-6.272h-1.82V-10h-3.5v3.724H67.172L74-19.936H70.028L63.2-6.272v3.444h8.148V0h3.5V-2.828Zm16.268,0V-6.272h-1.82V-10h-3.5v3.724H83.44l6.832-13.664H86.3L79.464-6.272v3.444h8.148V0h3.5V-2.828Z" transform="translate(-8941 1733)" fill="#1d9612"/>
    <g id="グループ_22638" data-name="グループ 22638" transform="matrix(0.995, 0.105, -0.105, 0.995, -9058.949, 1709.397)">
      <path id="パス_11412" data-name="パス 11412" d="M104.382-544.764a23.117,23.117,0,0,1,1.889-1.806,3.2,3.2,0,0,1,4.495.191,8.085,8.085,0,0,1,2.67,4.528,2.546,2.546,0,0,1-1.4,2.76,7.6,7.6,0,0,1-4.973.872,15.056,15.056,0,0,1-8.595-4.2,24.127,24.127,0,0,1-6.98-11.283,12.661,12.661,0,0,1,.249-7.632,6.876,6.876,0,0,1,2.6-3.469,3.19,3.19,0,0,1,4.307.213,8.315,8.315,0,0,1,2.731,4.448,2.546,2.546,0,0,1-1.2,2.8,6.278,6.278,0,0,1-2.848.991c-.325.039-.465.146-.43.441a16.911,16.911,0,0,0,.353,2.688,13.5,13.5,0,0,0,5.18,7.321A20.929,20.929,0,0,0,104.382-544.764Z" transform="translate(-93.007 565.746)" fill="#1d9612"/>
    </g>
  </g>
</svg>
