<svg xmlns="http://www.w3.org/2000/svg" width="68" height="61.83" viewBox="0 0 68 61.83">
  <g id="グループ_22709" data-name="グループ 22709" transform="translate(-153.5 -1992.5)">
    <g id="グループ_30" data-name="グループ 30" transform="translate(155 1994)">
      <g id="パス_1" data-name="パス 1" transform="translate(-484.651 -1044.564)">
        <path d="M 517.2110595703125 1104.143432617188 C 507.7515563964844 1104.143432617188 500.5828857421875 1102.72021484375 495.2954406738281 1099.792358398438 C 492.6289367675781 1098.315795898438 490.4126586914062 1096.417602539062 488.7081909179688 1094.150756835938 C 487.01708984375 1091.901611328125 485.7679443359375 1089.20654296875 484.9953918457031 1086.140258789062 C 483.1751403808594 1078.914428710938 485.2523803710938 1070.55126953125 485.4952392578125 1069.621337890625 C 486.1016235351562 1067.295654296875 486.9098815917969 1065.062255859375 487.9007568359375 1062.97314453125 C 485.3852233886719 1060.935302734375 483.9010009765625 1057.84814453125 483.9010009765625 1054.593017578125 C 483.9010009765625 1048.6494140625 488.736328125 1043.81396484375 494.6797485351562 1043.81396484375 C 497.9797058105469 1043.81396484375 501.0942993164062 1045.332275390625 503.1318054199219 1047.905029296875 C 507.3607482910156 1046.037353515625 512.0737915039062 1045.0908203125 517.1508178710938 1045.0908203125 L 517.2114868164062 1045.0908203125 C 522.271484375 1045.0908203125 526.9693603515625 1046.030151367188 531.1860961914062 1047.884033203125 C 533.223876953125 1045.324584960938 536.3326416015625 1043.81396484375 539.6219482421875 1043.81396484375 C 545.5655517578125 1043.81396484375 550.4010620117188 1048.6494140625 550.4010620117188 1054.593017578125 C 550.4010620117188 1057.824096679688 548.9327392578125 1060.897705078125 546.4443359375 1062.936767578125 C 547.4431762695312 1065.036010742188 548.2573852539062 1067.28173828125 548.8674926757812 1069.621704101562 C 549.7408447265625 1072.970336914062 550.8294067382812 1080.216064453125 549.3692016601562 1086.13134765625 C 548.6657104492188 1088.980712890625 547.3923950195312 1091.568359375 545.584716796875 1093.822387695312 C 543.8034057617188 1096.043334960938 541.4963989257812 1097.948486328125 538.727783203125 1099.484985351562 C 535.9805908203125 1101.009521484375 532.7643432617188 1102.178588867188 529.16845703125 1102.959838867188 C 525.5531005859375 1103.745239257812 521.530029296875 1104.143432617188 517.2110595703125 1104.143432617188 Z" stroke="none"/>
        <path d="M 494.6797485351562 1044.56396484375 C 489.1497192382812 1044.56396484375 484.6510009765625 1049.062866210938 484.6510009765625 1054.593017578125 C 484.6510009765625 1057.835693359375 486.2128295898438 1060.864501953125 488.8431396484375 1062.748779296875 C 487.7510375976562 1064.9501953125 486.8692626953125 1067.32421875 486.2208862304688 1069.810913085938 C 485.98291015625 1070.722045898438 483.9493408203125 1078.91748046875 485.72265625 1085.95703125 C 488.7198486328125 1097.852905273438 498.7256469726562 1103.393432617188 517.2110595703125 1103.393432617188 C 534.4485473632812 1103.393432617188 545.9044189453125 1097.036010742188 548.6410522460938 1085.951538085938 C 550.0652465820312 1080.182250976562 548.997314453125 1073.09130859375 548.1417236328125 1069.810913085938 C 547.4898681640625 1067.310791015625 546.6023559570312 1064.925659179688 545.5028686523438 1062.716064453125 C 548.105224609375 1060.828979492188 549.6510620117188 1057.812622070312 549.6510620117188 1054.593017578125 C 549.6510620117188 1049.062866210938 545.15185546875 1044.56396484375 539.6219482421875 1044.56396484375 C 536.3516235351562 1044.56396484375 533.3074340820312 1046.147705078125 531.4251098632812 1048.814819335938 C 527.166259765625 1046.841186523438 522.3859252929688 1045.8408203125 517.2114868164062 1045.8408203125 L 517.1508178710938 1045.8408203125 C 511.9591064453125 1045.8408203125 507.1633911132812 1046.8486328125 502.8919067382812 1048.837280273438 C 501.0109252929688 1046.156372070312 497.9608764648438 1044.56396484375 494.6797485351562 1044.56396484375 M 494.6797485351562 1043.06396484375 C 498.0146484375 1043.06396484375 501.1727294921875 1044.513916015625 503.3490600585938 1046.99462890625 C 507.5387573242188 1045.233032226562 512.1753540039062 1044.3408203125 517.1508178710938 1044.3408203125 L 517.2114868164062 1044.3408203125 C 522.1702270507812 1044.3408203125 526.7921142578125 1045.226440429688 530.9696044921875 1046.97509765625 C 533.1455078125 1044.506469726562 536.29736328125 1043.06396484375 539.6219482421875 1043.06396484375 C 545.9791259765625 1043.06396484375 551.1510620117188 1048.23583984375 551.1510620117188 1054.593017578125 C 551.1510620117188 1057.85205078125 549.754638671875 1060.961303710938 547.3635864257812 1063.133666992188 C 548.2728271484375 1065.125122070312 549.0211791992188 1067.238525390625 549.5932006835938 1069.432495117188 C 550.4844360351562 1072.849487304688 551.5936279296875 1080.249877929688 550.0972900390625 1086.31103515625 C 549.3675537109375 1089.26708984375 548.046142578125 1091.952026367188 546.1697998046875 1094.291625976562 C 544.3272705078125 1096.5888671875 541.9458618164062 1098.556884765625 539.0917358398438 1100.140747070312 C 536.2803955078125 1101.700927734375 532.9952392578125 1102.89599609375 529.32763671875 1103.692749023438 C 525.6600952148438 1104.489501953125 521.58349609375 1104.893432617188 517.2110595703125 1104.893432617188 C 507.6211547851562 1104.893432617188 500.3336791992188 1103.439453125 494.93212890625 1100.448486328125 C 492.1727294921875 1098.92041015625 489.8770141601562 1096.953247070312 488.1087646484375 1094.601440429688 C 486.3573608398438 1092.272216796875 485.065185546875 1089.487060546875 484.2681274414062 1086.323486328125 C 482.402099609375 1078.916015625 484.521728515625 1070.380737304688 484.7695922851562 1069.431884765625 C 485.3375244140625 1067.253540039062 486.0797119140625 1065.153564453125 486.9806518554688 1063.173461914062 C 484.5628662109375 1061.000366210938 483.1510009765625 1057.876831054688 483.1510009765625 1054.593017578125 C 483.1510009765625 1048.23583984375 488.32275390625 1043.06396484375 494.6797485351562 1043.06396484375 Z" stroke="none" fill="#000"/>
      </g>
      <path id="パス_2" data-name="パス 2" d="M600.055,1050.157c-.339-.012-.68-.02-1.025-.02h-.046Q599.524,1050.137,600.055,1050.157Z" transform="translate(-566.323 -1048.915)" fill="none"/>
      <path id="パス_3" data-name="パス 3" d="M527.444,1049.044l.034-.017a7.491,7.491,0,0,0-5.877-3.331A7.492,7.492,0,0,1,527.444,1049.044Z" transform="translate(-510.783 -1045.448)" fill="none"/>
      <path id="パス_4" data-name="パス 4" d="M614.092,1052.556a25.263,25.263,0,0,0-9.927-2.319,25.236,25.236,0,0,1,9.917,2.335Z" transform="translate(-568.285 -1048.994)" fill="none"/>
      <path id="パス_5" data-name="パス 5" d="M519.859,1045.644h-.023c.067,0,.134,0,.2.005C519.977,1045.648,519.919,1045.644,519.859,1045.644Z" transform="translate(-512.124 -1045.407)" fill="none"/>
      <path id="パス_6" data-name="パス 6" d="M620.689,1063.433a10.785,10.785,0,0,0,3.266-8.044c0-5.382-3.357-9.745-7.5-9.745h-.021c4.13.018,7.473,4.373,7.473,9.744a10.786,10.786,0,0,1-3.266,8.044,43.629,43.629,0,0,1,2.109,7.288c.654,3.26,1.472,10.3.384,16.028-2.081,10.955-10.822,17.24-23.983,17.25h.017c13.178,0,21.93-6.287,24.013-17.25,1.087-5.723.27-12.767-.384-16.028A43.656,43.656,0,0,0,620.689,1063.433Z" transform="translate(-559.192 -1045.407)" fill="none"/>
      <path id="パス_7" data-name="パス 7" d="M553.679,1094.823c1.348-5.487.319-12.3-.5-15.464a31.236,31.236,0,0,0-9.875-16.307c-5.233-4.394-11.815-6.621-19.562-6.621h-.062c-7.748,0-14.329,2.228-19.562,6.621a31.235,31.235,0,0,0-9.875,16.307c-.827,3.187-1.864,10.03-.5,15.46,2.775,11.069,12.308,16.224,30,16.224C540.235,1111.043,551.147,1105.131,553.679,1094.823Zm-49.049-8.685c-3.161-1.828-4.016-5.686-1.67-9.889,2.693-4.824,9.436-9.294,13.5-6.281,2.829,2.1,1.762,6.922-1.582,11.615C511.67,1086.082,507.34,1087.706,504.63,1086.139Zm33.4,9.687a5.178,5.178,0,0,1-2.917,3.473,9.006,9.006,0,0,1-3.555.7,10.711,10.711,0,0,1-2.327-.26,8.558,8.558,0,0,1-5.49-3.436,8.56,8.56,0,0,1-5.491,3.436,10.714,10.714,0,0,1-2.327.26,9.008,9.008,0,0,1-3.556-.7,5.178,5.178,0,0,1-2.917-3.473c-.238-.93-.183-1.794.128-1.874.538-.138.926.6,1.363,1.219a5.355,5.355,0,0,0,2.371,1.911,7.289,7.289,0,0,0,4.419.3c2.193-.488,4.808-1.8,4.808-5.272v-1.179a4.884,4.884,0,0,1-3.091-4.147c0-1.85,1.894-2.634,4.231-2.634s4.231.784,4.231,2.634a4.9,4.9,0,0,1-2.97,4.107v1.206s0,.008,0,.013c0,3.473,2.615,4.784,4.808,5.272a7.289,7.289,0,0,0,4.419-.3,5.356,5.356,0,0,0,2.371-1.911c.438-.616.825-1.357,1.363-1.219C538.215,1094.031,538.27,1094.895,538.032,1095.825Zm4.679-9.669c-2.715,1.558-7.04-.081-10.23-4.589-3.329-4.7-4.38-9.531-1.544-11.621,4.071-3,10.8,1.493,13.477,6.326C546.746,1080.484,545.878,1084.339,542.711,1086.156Z" transform="translate(-491.232 -1053.83)" fill="#fff"/>
      <path id="パス_8" data-name="パス 8" d="M532.633,1109.108c2.533-3.537,3.341-7.172,1.2-8.754-3.076-2.271-8.183,1.1-10.222,4.734-1.776,3.167-1.129,6.075,1.265,7.453C526.927,1113.721,530.206,1112.5,532.633,1109.108Z" transform="translate(-510.997 -1082.478)"/>
      <path id="パス_9" data-name="パス 9" d="M619.458,1100.3c-2.148,1.575-1.352,5.213,1.169,8.758,2.416,3.4,5.691,4.633,7.747,3.458,2.4-1.369,3.056-4.275,1.29-7.448C627.637,1101.43,622.541,1098.044,619.458,1100.3Z" transform="translate(-577.392 -1082.447)"/>
    </g>
  </g>
</svg>
