<svg xmlns="http://www.w3.org/2000/svg" width="569.044" height="357.253" viewBox="0 0 569.044 357.253">
  <g id="グループ_22868" data-name="グループ 22868" transform="translate(14509 -4793)">
    <g id="グループ_22866" data-name="グループ 22866" transform="translate(-14509 4793)">
      <g id="グループ_22812" data-name="グループ 22812" transform="translate(0 267.252)">
        <rect id="長方形_10322" data-name="長方形 10322" width="10.235" height="3.157" transform="translate(315.427 8.622)" fill="none"/>
        <rect id="長方形_10323" data-name="長方形 10323" width="10.82" height="3.829" transform="translate(433.879 35.17)" fill="none"/>
        <rect id="長方形_10324" data-name="長方形 10324" width="10.176" height="4.448" transform="translate(420.051 14.712)" fill="none"/>
        <path id="パス_81961" data-name="パス 81961" d="M124.568,980.3c0,3.344,1.582,6.718,5.117,6.718,2.408,0,3.529-1.384,3.529-4.354v-13.3C128.984,970.817,124.568,975.092,124.568,980.3Z" transform="translate(-120.827 -942.33)" fill="none"/>
        <rect id="長方形_10325" data-name="長方形 10325" width="23.955" height="3.044" transform="translate(302.119 37.726)" fill="none"/>
        <path id="パス_81962" data-name="パス 81962" d="M882.612,933.647c-.145.341-.3.694-.453,1.045s-.317.722-.464,1.072c.839,4.472,2.974,12.348,5.506,16.185a47.522,47.522,0,0,0,4.664-18.3Z" transform="translate(-624.636 -918.566)" fill="none"/>
        <rect id="長方形_10326" data-name="長方形 10326" width="23.955" height="3.046" transform="translate(302.119 43.557)" fill="none"/>
        <rect id="長方形_10327" data-name="長方形 10327" width="10.235" height="2.847" transform="translate(315.427 14.628)" fill="none"/>
        <rect id="長方形_10328" data-name="長方形 10328" width="10.374" height="4.448" transform="translate(433.879 14.712)" fill="none"/>
        <rect id="長方形_10329" data-name="長方形 10329" width="10.82" height="3.829" transform="translate(433.879 28.145)" fill="none"/>
        <rect id="長方形_10330" data-name="長方形 10330" width="8.392" height="10.798" transform="translate(533.063 17.185)" fill="none"/>
        <path id="パス_81963" data-name="パス 81963" d="M1593.942,918.937l-.036.107a22.493,22.493,0,0,0,5.392,7.645,20.641,20.641,0,0,0,3.515-7.752Z" transform="translate(-1098.558 -908.778)" fill="none"/>
        <path id="パス_81964" data-name="パス 81964" d="M145.99,921.5a15.863,15.863,0,0,0-9.4-3.516,36.411,36.411,0,0,0-7.226.325V911q1.069-.056,2.146-.108c2.344-.114,4.768-.232,7.132-.447l.142-.013v-3.583l-.172.019c-.642.069-1.283.144-1.924.217a66.36,66.36,0,0,1-7.271.574v-7.945h-4v.435c0,2.5,0,5.084.05,7.629-2.216.107-4.486.16-6.753.16-1.551,0-3.017,0-4.55-.055l-.161,0v3.754l.16,0c1.93-.056,3.9-.143,5.813-.226,1.838-.08,3.737-.163,5.6-.219l.049,7.872a21.914,21.914,0,0,0-8.147,5.522,14.2,14.2,0,0,0-4.085,9.428c0,5.991,3.621,10.017,9.01,10.017,4.59,0,7.016-2.606,7.016-7.538V921.9a18.176,18.176,0,0,1,6.128-.47c5.33.312,10.708,3.5,10.708,9.921,0,7.465-5.908,9.366-11.446,10.562l-.286.062.211.2a22.879,22.879,0,0,1,2.136,2.406l.057.072.091-.015c8.815-1.5,13.284-5.953,13.284-13.235A12.559,12.559,0,0,0,145.99,921.5ZM125.773,936.32c0,2.971-1.121,4.354-3.529,4.354-3.535,0-5.117-3.374-5.117-6.718,0-5.2,4.416-9.479,8.646-10.937Z" transform="translate(-113.386 -895.99)" fill="#fff"/>
        <path id="パス_81965" data-name="パス 81965" d="M209.669,909.247l-.107-.089-2.824,2.735.127.111a58.575,58.575,0,0,1,7.826,7.891l.1.135,2.97-2.8-.1-.113A67.761,67.761,0,0,0,209.669,909.247Z" transform="translate(-175.505 -902.271)" fill="#fff"/>
        <path id="パス_81966" data-name="パス 81966" d="M322.057,906.658l.152.033.888-4.082-.153-.032a114.766,114.766,0,0,0-18.044-2.2l-.134-.006-.777,4.088.186,0A86.572,86.572,0,0,1,322.057,906.658Z" transform="translate(-240.218 -896.424)" fill="#fff"/>
        <path id="パス_81967" data-name="パス 81967" d="M305.926,936.683c-6.4-.429-12.185,1.042-18.906,3.386l-.134.047.978,3.966.16-.053c4.594-1.531,11.249-3.356,16.873-3.356a7.5,7.5,0,0,1,5.547,2.072,7.375,7.375,0,0,1,1.931,5.43c-.307,11.056-10.348,15.166-20.129,17.727l-.136.035.557,3.578.151-.02a33.717,33.717,0,0,0,15.156-5.793,20.051,20.051,0,0,0,8.435-15.01,11.055,11.055,0,0,0-2.378-8.341A11.356,11.356,0,0,0,305.926,936.683Z" transform="translate(-228.837 -920.537)" fill="#fff"/>
        <path id="パス_81968" data-name="パス 81968" d="M543.987,894.147l-.074-.12-2.487,1.207.091.147a41.21,41.21,0,0,1,3.06,5.892l.067.16,2.426-1.335-.056-.13A47.027,47.027,0,0,0,543.987,894.147Z" transform="translate(-398.214 -892.202)" fill="#fff"/>
        <path id="パス_81969" data-name="パス 81969" d="M474.628,911.84l-.054-.156-.152.063a60.008,60.008,0,0,1-10.57,3.026,68.756,68.756,0,0,1-2.241-6.853c.975-.261,2.031-.519,3.147-.791,1.435-.352,2.918-.715,4.209-1.082l.152-.043-.045-.151c-.143-.475-.258-.9-.374-1.322-.146-.532-.3-1.082-.5-1.742l-.046-.147-.147.044c-1.489.444-5.279,1.348-7.26,1.735-.479-2.055-.871-3.822-1.178-6.009h0c-.03-.212-.113-.754-.113-.754l-.023-.147-.148.016c-1.369.15-2.648.355-3.827.554l-.16.027.034.159c.506,2.331,1,4.217,1.572,6.4l.158.6-.526.1c-3.651.67-7.79,1.428-11.772,1.956l-.182.024.054.175c.111.366.221.766.332,1.172.2.718.4,1.459.631,2.077l.044.119.124-.019c3.6-.553,8.063-1.24,12.273-2.086.727,2.345,1.431,4.452,2.269,6.787-5.124.841-10.706,1.58-16.159,2.137l-.908.086.751,3.691.142-.016c4.261-.494,10.731-1.35,17.413-2.634.663,1.5,3.127,6.741,3.919,8.314-.312-.09-.515-.158-.774-.244l-.271-.09a28.491,28.491,0,0,0-5.044-.968,29.627,29.627,0,0,0-4.166-.128c-4.8.244-10.4,2.6-10.4,8.429,0,3.689,2.159,6.321,6.416,7.824a31.915,31.915,0,0,0,10.4,1.431,36.469,36.469,0,0,0,6.066-.394l.135-.023-.005-.136c0-.019-.08-1.974-.1-3.229l0-.2-.19.047a21.813,21.813,0,0,1-5.847.527l-.825,0c-7.97,0-12.182-2.147-12.182-6.209,0-2.66,2.853-4.1,4.533-4.524a14.153,14.153,0,0,1,3.039-.335,30.632,30.632,0,0,1,12.634,2.917l.108.047.075-.093c.854-1.066,1.654-1.984,2.445-2.807l.1-.1-.094-.107a42.871,42.871,0,0,1-6.446-10.549,106.352,106.352,0,0,0,10.783-2.888l.163-.054-.069-.157C475.424,913.937,475.041,913.016,474.628,911.84Z" transform="translate(-332.878 -894.519)" fill="#fff"/>
        <path id="パス_81970" data-name="パス 81970" d="M529.092,899.683l-.079-.13-2.43,1.4.1.138a28.424,28.424,0,0,1,2.85,5.716l.062.161,2.484-1.275-.057-.134A47.672,47.672,0,0,0,529.092,899.683Z" transform="translate(-388.337 -895.879)" fill="#fff"/>
        <path id="パス_81971" data-name="パス 81971" d="M662.436,951.893H676.87v16.634c0,4.308-.991,4.811-4.428,5.89l-.108.034-.016,4.3.191-.045c6.964-1.62,8.2-4.076,8.2-10.179V951.893h8.7v-3.354H662.436Z" transform="translate(-478.736 -928.476)" fill="#fff"/>
        <rect id="長方形_10331" data-name="長方形 10331" width="22.731" height="3.579" transform="translate(185.388 5.529)" fill="#fff"/>
        <path id="パス_81972" data-name="パス 81972" d="M614.928,908.4c3.678-2.32,8.295-7.7,11.237-12l.093-.135-.141-.085c-.432-.262-1.524-.961-2.4-1.522-.563-.36-1.041-.666-1.211-.77l-.146-.091-.075.155c-2.555,5.247-6.967,9.21-10.218,11.611l-.148.109,2.909,2.8Z" transform="translate(-445.119 -892.043)" fill="#fff"/>
        <path id="パス_81973" data-name="パス 81973" d="M620.512,927.8c-2.6,6.3-8.857,13.486-13.428,17.05l-.128.1,2.521,2.953.117-.094a37.656,37.656,0,0,0,5.788-5.931V964.8h3.691V937.718a60.117,60.117,0,0,0,4.742-7.08c.172-.328.43-.792.43-.792l.076-.136-3.742-2.071Z" transform="translate(-441.819 -914.569)" fill="#fff"/>
        <path id="パス_81974" data-name="パス 81974" d="M814.342,942.427l-1.288-2.892-.137.05c-2.315.849-3.866,1.379-6.041,2.06V929H812.2V925.59h-5.276V913.17h7.215v-3.188H793.815v3.188h9.524v29.36c-1.484.474-2.991.9-4.449,1.318V921.656h-.155s-2.05-.011-3.073-.011h-.155v23.065c-.863.293-1.778.561-2.588.8-.329.1-.644.19-.936.278l-.144.044,1.043,3.934.15-.039c.62-.162,1.092-.323,1.471-.451l.183-.062c1.8-.606,3.675-1.218,5.492-1.809,4.685-1.524,9.529-3.1,14.014-4.918Z" transform="translate(-564.845 -902.819)" fill="#fff"/>
        <path id="パス_81975" data-name="パス 81975" d="M866.962,927.573c3.261-4.686,5.448-11.95,6.5-21.591h4.468v-3.354H861.471a84.529,84.529,0,0,0,2.635-8.424c.033-.123.071-.252.11-.383a7.513,7.513,0,0,0,.194-.744l.025-.139-.134-.039c-.969-.284-1.454-.406-2.189-.589l-.834-.209-.15-.029-.04.147c-2.173,7.9-3.371,12.249-8.113,21.115l-.061.114,2.483,1.982.1-.131a27.1,27.1,0,0,0,1.592-2.552A52.15,52.15,0,0,0,862.6,927.51a29.2,29.2,0,0,1-14.255,10.9l-.216.081,2.633,2.839.1-.037a32.752,32.752,0,0,0,14.02-10.8,33.136,33.136,0,0,0,11.5,10.63l.11.059.081-.095c.37-.429.728-.883,1.074-1.322.519-.657,1.055-1.336,1.634-1.94l.157-.164-.21-.087A29.29,29.29,0,0,1,866.962,927.573Zm-2.1-3.289c-2.532-3.838-4.668-11.713-5.506-16.185.148-.349.306-.71.464-1.072s.308-.7.453-1.045h9.253A47.522,47.522,0,0,1,864.863,924.284Z" transform="translate(-602.298 -890.901)" fill="#fff"/>
        <path id="パス_81976" data-name="パス 81976" d="M1022.729,896.877h-13.971v-3l.036-1.393-.151-.008c-.789-.042-1.513-.03-2.28-.015-.387.008-.78.015-1.191.015h-.156v4.4H991.3v3.012h13.771v3.044H984.847V905.9h20.219v2.734H991.4v2.786h13.667v3.128H990.682v2.845h14.384v3.07H984.847V923.3h45.2v-2.845H1008.7v-3.07h15.155v-2.845H1008.7v-3.128h14.026V905.67h7.323v-2.962h-7.323Zm-3.791,11.752H1008.7v-2.847h10.235Zm0-5.7H1008.7v-3.157h10.235Z" transform="translate(-693.276 -891.154)" fill="#fff"/>
        <path id="パス_81977" data-name="パス 81977" d="M1005.813,1007.624h31.125V993h-31.125Zm3.533-11.835H1033.3v3.044h-23.955Zm0,5.831H1033.3v3.046h-23.955Z" transform="translate(-707.227 -958.063)" fill="#fff"/>
        <path id="パス_81978" data-name="パス 81978" d="M1190.835,896.354h-4.15v16.619h-19.144v3.69h19.194V937.7H1170.3v3.579h37.423V937.7h-16.943V916.663h19.4v-3.69h-19.348Z" transform="translate(-814.845 -893.751)" fill="#fff"/>
        <path id="パス_81979" data-name="パス 81979" d="M1378.064,913.746h-14.472v-3.266h14.125V900.425h-14.125v-3.379h18.288v-3.14h-18.239v-4.338l-3.751-1v5.334h-18.338v3.14h18.387v3.379h-13.828v10.054h13.828v3.266h-13.927v3.029h13.927v3.773h-19.775v3.2h19.775v3.717h-14.075v3.2h14.075c0,2.153-.1,3.62-1.039,4.319a17.687,17.687,0,0,1-3.855,1.794l-.152.052,1.029,3.26.158-.051c5.676-1.836,7.511-2.921,7.511-8.753v-.623h14.472v-6.913h5.947v-3.308h-5.947Zm-14.472-10.461h10.374v4.448h-10.374Zm-3.652,4.448h-10.177v-4.448h10.177Zm14.472,19.839h-10.82v-3.829h10.82Zm0-7.025h-10.82v-3.829h10.82Z" transform="translate(-929.713 -888.573)" fill="#fff"/>
        <path id="パス_81980" data-name="パス 81980" d="M1582.053,970.461l0-.126-3.216-1,.012.237a22.611,22.611,0,0,1-.384,5.109h-8.307v2.8h7.955c-.936,3.474-3.047,8.421-10.2,12.157l-.2.105,2.142,2.073.1-.054c6.52-3.339,10.008-7.817,11.3-14.506h6.147a33.5,33.5,0,0,1-.543,6.991c-.891,3.717-3.24,4.314-6.219,4.709l-.247.033,1.6,2.72.1-.009c3.544-.3,5.878-1.225,7.322-5.049,1.068-2.685,1.25-8.844,1.338-11.8l.005-.169h-9.071A29.631,29.631,0,0,0,1582.053,970.461Z" transform="translate(-1081.13 -942.314)" fill="#fff"/>
        <path id="パス_81981" data-name="パス 81981" d="M1587.632,910.592a32.373,32.373,0,0,0,4.736-9.638h4.025v-2.915h-14.735a44.437,44.437,0,0,0,2.233-4.262l.062-.133-3.043-1.9-.067.2a38.721,38.721,0,0,1-7.571,12.847l-.108.116,2.117,2.133.118-.119a24.748,24.748,0,0,0,2.606-3.061,39.052,39.052,0,0,0,5.108,7.272,22.462,22.462,0,0,1-8.806,5.691l-.219.085.155.177a20.147,20.147,0,0,1,1.77,2.286l.071.109.123-.043a28.2,28.2,0,0,0,9.327-6.28,28.33,28.33,0,0,0,10.324,5.943l.128.042,2-3.444-.2-.06A32.169,32.169,0,0,1,1587.632,910.592Zm-2.137-2a22.493,22.493,0,0,1-5.392-7.645l.036-.107h8.871A20.639,20.639,0,0,1,1585.5,908.595Z" transform="translate(-1084.755 -890.683)" fill="#fff"/>
        <path id="パス_81982" data-name="パス 81982" d="M1531.449,914.313h-7.021l1.262-1.282-.089-.115a18.11,18.11,0,0,0-2.217-2.434c2.23-2.184,6.2-6.15,7.254-11.653l.038-.2h-16.622v3.2h11.86a26.483,26.483,0,0,1-4.609,6.519c-1.168-1.1-2.381-2.2-3.555-3.266l-.129-.116-.111.134c-.675.82-1.335,1.627-1.986,2.479l-.1.132.131.1a68.015,68.015,0,0,1,7.2,6.561h-10.035v2.915h7.733c-1.458,5.478-5.542,12.692-9.178,16.183l-.128.123,2.268,2.051.111-.106a35.255,35.255,0,0,0,7.522-11.764v12.346c0,3.751-1.165,5.646-4.154,6.758l-.235.087,2.331,2.454.1-.041c4.372-1.746,5.11-4.285,5.11-9.315V917.116h3.856a23.413,23.413,0,0,1-2.054,7.221l-.073.147,2.683,1.34.077-.137c1.581-2.807,2.524-8.357,2.747-11.2Z" transform="translate(-1043.485 -895.266)" fill="#fff"/>
        <path id="パス_81983" data-name="パス 81983" d="M1700.832,931.559h-15.3l0,.169c.066,2.657.044,5.361.022,7.975-.011,1.33-.022,2.661-.022,3.993,0,7.175-.637,15.215-5.359,20.459l-.132.148,2.909,1.805.093-.1c3.861-4.046,5.709-11.889,5.841-17.935h11.948Zm-3.5,13.6h-8.392v-10.8h8.392Z" transform="translate(-1155.874 -917.177)" fill="#fff"/>
        <path id="パス_81984" data-name="パス 81984" d="M1743.293,913.9c0-3.434,0-6.425-.048-9.8,2.838-.39,11.725-2.706,13.815-3.269l.215-.058-.118-.189a29.226,29.226,0,0,1-1.681-3.1l-.053-.154-.155.051a112.672,112.672,0,0,1-15.536,3.591l-.141.022v.144q.025,2.336.061,4.658c.043,3.035.088,6.172.088,9.279,0,10.314,0,20.057-8.654,26.336l-.194.141.2.132c.922.605,1.875,1.232,2.766,1.906l.1.076.1-.078c7.984-6.225,9.122-16.428,9.134-26.55h6.211v27.2h3.652v-27.2h5.7V913.9Z" transform="translate(-1189.712 -894.399)" fill="#fff"/>
        <rect id="長方形_10332" data-name="長方形 10332" width="15.182" height="3.421" transform="translate(529.776 4.771)" fill="#fff"/>
      </g>
      <g id="グループ_22813" data-name="グループ 22813" transform="translate(161.248 0)">
        <path id="パス_81985" data-name="パス 81985" d="M767.618,313.832c12.455-17.392,16.429-35.268,5.892-43.048-15.125-11.168-40.241,5.4-50.269,23.277-8.735,15.576-5.551,29.876,6.221,36.65C739.555,336.519,755.682,330.5,767.618,313.832Z" transform="translate(-677.132 -207.816)" fill="#fff"/>
        <path id="パス_81986" data-name="パス 81986" d="M1032.421,270.613c-10.563,7.745-6.648,25.634,5.749,43.068,11.88,16.707,27.986,22.781,38.1,17.006,11.794-6.734,15.026-21.023,6.343-36.628C1072.645,276.145,1047.584,259.5,1032.421,270.613Z" transform="translate(-882.115 -207.728)" fill="#fff"/>
        <path id="パス_81987" data-name="パス 81987" d="M910.27,471.414c-2-.512-3.447,2.236-5.077,4.518a19.908,19.908,0,0,1-8.831,7.084,27.278,27.278,0,0,1-16.456,1.113c-8.17-1.808-17.908-6.665-17.908-19.538,0-.016,0-.03,0-.046v-4.471c6.409-2.495,11.06-9.655,11.06-15.222,0-6.856-7.054-9.761-15.756-9.761s-15.756,2.905-15.756,9.761c0,5.7,4.875,13.041,11.512,15.37v4.37c0,12.872-9.738,17.73-17.908,19.538a27.278,27.278,0,0,1-16.456-1.113,19.9,19.9,0,0,1-8.831-7.084c-1.63-2.282-3.074-5.03-5.077-4.518-1.16.3-1.364,3.5-.477,6.945a19.219,19.219,0,0,0,10.865,12.875,33.694,33.694,0,0,0,13.242,2.586,40.16,40.16,0,0,0,8.666-.961c9.324-2.063,16.283-6.5,20.449-12.736,4.166,6.238,11.125,10.673,20.449,12.736a40.165,40.165,0,0,0,8.666.961,33.693,33.693,0,0,0,13.242-2.586,19.218,19.218,0,0,0,10.865-12.875C911.634,474.91,911.43,471.711,910.27,471.414Z" transform="translate(-734.021 -319.564)" fill="#fff"/>
        <path id="パス_81988" data-name="パス 81988" d="M841.88,127.839a38.039,38.039,0,0,0-69.132-21.916c-16.154-7.486-34.286-11.28-53.913-11.28h-.23c-19.694,0-37.884,3.823-54.086,11.365a38.04,38.04,0,1,0-53.287,52.769,139.6,139.6,0,0,0-9.947,26.786c-.9,3.456-8.615,34.542-1.889,61.243,11.368,45.122,49.32,66.138,119.438,66.138,65.383,0,108.835-24.114,119.216-66.159,5.4-21.882,1.351-48.779-1.894-61.222a139.509,139.509,0,0,0-10.009-26.912A38.051,38.051,0,0,0,841.88,127.839Zm-13.414,59.728c3.056,11.717,6.889,36.975,1.868,57.312C820.9,283.084,780.261,305,718.834,305c-65.892,0-101.4-19.108-111.731-60.133-5.07-20.126-1.209-45.485,1.872-57.3,6.481-24.852,19.2-45.751,36.776-60.438,19.488-16.284,44-24.541,72.855-24.541h.23c28.854,0,53.365,8.257,72.854,24.541C809.267,141.816,821.984,162.715,828.466,187.567Z" transform="translate(-595.331 -89.798)" fill="#fff"/>
      </g>
      <g id="グループ_22865" data-name="グループ 22865" transform="translate(30.48 341.566)">
        <g id="グループ_22814" data-name="グループ 22814" transform="translate(0 0.383)">
          <path id="パス_81989" data-name="パス 81989" d="M204.612,1118.295v-.034a6.141,6.141,0,0,1,6.164-6.3,6.343,6.343,0,0,1,4.754,1.933l-.94,1.01a5.3,5.3,0,0,0-3.831-1.672,4.779,4.779,0,0,0-4.719,5v.035a4.81,4.81,0,0,0,4.719,5.033,5.292,5.292,0,0,0,3.936-1.76l.906.889a6.346,6.346,0,0,1-4.876,2.142A6.08,6.08,0,0,1,204.612,1118.295Z" transform="translate(-204.57 -1111.915)" fill="#fff"/>
          <path id="パス_81990" data-name="パス 81990" d="M210.64,1124.522a6.048,6.048,0,0,1-4.405-1.835,6.4,6.4,0,0,1-1.749-4.476v-.035a6.434,6.434,0,0,1,1.748-4.474,6.091,6.091,0,0,1,4.458-1.872,6.384,6.384,0,0,1,4.783,1.945l.03.029-1,1.072-.031-.029a5.177,5.177,0,0,0-3.8-1.66,4.716,4.716,0,0,0-4.677,4.956v.035a4.79,4.79,0,0,0,4.677,4.99,5.256,5.256,0,0,0,3.907-1.747l.029-.028.965.947-.029.03A6.432,6.432,0,0,1,210.64,1124.522Zm.052-12.608a6.007,6.007,0,0,0-4.4,1.846,6.349,6.349,0,0,0-1.725,4.416v.035a6.015,6.015,0,0,0,6.07,6.227,6.334,6.334,0,0,0,4.816-2.1l-.846-.83a5.306,5.306,0,0,1-3.935,1.743,4.873,4.873,0,0,1-4.761-5.075v-.035a4.8,4.8,0,0,1,4.761-5.04,5.373,5.373,0,0,1,3.829,1.655l.883-.949A6.293,6.293,0,0,0,210.692,1111.914Z" transform="translate(-204.486 -1111.83)" fill="#fff"/>
        </g>
        <g id="グループ_22815" data-name="グループ 22815" transform="translate(13.741 3.587)">
          <path id="パス_81991" data-name="パス 81991" d="M245.682,1126.252v-.035a4.441,4.441,0,0,1,4.319-4.684c2.664,0,4.2,2.125,4.2,4.754a3.5,3.5,0,0,1-.017.436h-7.14a3.144,3.144,0,0,0,3.17,3.047,3.722,3.722,0,0,0,2.838-1.271l.836.749a4.648,4.648,0,0,1-3.709,1.689A4.476,4.476,0,0,1,245.682,1126.252Zm7.157-.522c-.139-1.637-1.079-3.065-2.873-3.065a3.1,3.1,0,0,0-2.926,3.065Z" transform="translate(-245.64 -1121.491)" fill="#fff"/>
          <path id="パス_81992" data-name="パス 81992" d="M250.091,1130.9a4.532,4.532,0,0,1-4.535-4.727v-.035a4.944,4.944,0,0,1,1.237-3.344,4.171,4.171,0,0,1,3.124-1.383,3.933,3.933,0,0,1,3.13,1.406,5.281,5.281,0,0,1,1.109,3.39,3.518,3.518,0,0,1-.018.44l0,.037H247a3.107,3.107,0,0,0,3.123,2.963,3.683,3.683,0,0,0,2.807-1.258l.028-.03.9.8-.028.031A4.676,4.676,0,0,1,250.091,1130.9Zm-.174-9.4a4.087,4.087,0,0,0-3.062,1.355,4.859,4.859,0,0,0-1.215,3.287v.035a4.45,4.45,0,0,0,4.451,4.643,4.589,4.589,0,0,0,3.649-1.644l-.774-.694a3.752,3.752,0,0,1-2.84,1.255,3.193,3.193,0,0,1-3.212-3.085l0-.047h7.148a3.636,3.636,0,0,0,.013-.393C254.071,1123.385,252.4,1121.492,249.917,1121.492Zm2.884,4.2H246.91l0-.047a3.131,3.131,0,0,1,2.968-3.1c1.957,0,2.793,1.672,2.915,3.1Zm-5.8-.084h5.707c-.205-2.2-1.592-2.981-2.827-2.981A3.04,3.04,0,0,0,247,1125.6Z" transform="translate(-245.556 -1121.408)" fill="#fff"/>
        </g>
        <g id="グループ_22816" data-name="グループ 22816" transform="translate(25.916 3.619)">
          <path id="パス_81993" data-name="パス 81993" d="M282.07,1121.788h1.341v2.351a3.855,3.855,0,0,1,3.674-2.508v1.445h-.1c-1.968,0-3.57,1.411-3.57,4.128v3.587H282.07Z" transform="translate(-282.028 -1121.586)" fill="#fff"/>
          <path id="パス_81994" data-name="パス 81994" d="M283.37,1130.749h-1.426v-9.086h1.426v2.2a3.847,3.847,0,0,1,3.633-2.358l.041,0v1.527H286.9c-1.627,0-3.527,1.07-3.527,4.085Zm-1.342-.084h1.257v-3.545c0-2.533,1.418-4.17,3.611-4.17h.062v-1.362a3.814,3.814,0,0,0-3.593,2.484l-.081.183v-2.508h-1.257Z" transform="translate(-281.944 -1121.502)" fill="#fff"/>
        </g>
        <g id="グループ_22817" data-name="グループ 22817" transform="translate(33.493 1.062)">
          <path id="パス_81995" data-name="パス 81995" d="M305.97,1123.32v-5.433h-1.254V1116.7h1.254v-2.717h1.341v2.717h2.856v1.184H307.31v5.259a1.332,1.332,0,0,0,1.515,1.5,2.823,2.823,0,0,0,1.306-.314v1.15a3.373,3.373,0,0,1-1.619.383A2.292,2.292,0,0,1,305.97,1123.32Z" transform="translate(-304.674 -1113.944)" fill="#fff"/>
          <path id="パス_81996" data-name="パス 81996" d="M308.428,1125.821a2.331,2.331,0,0,1-2.585-2.585v-5.391H304.59v-1.268h1.254v-2.717h1.425v2.717h2.856v1.268h-2.856v5.216a1.287,1.287,0,0,0,1.473,1.456,2.77,2.77,0,0,0,1.288-.309l.061-.029v1.242l-.023.012A3.438,3.438,0,0,1,308.428,1125.821Zm-3.754-8.06h1.254v5.475a2.255,2.255,0,0,0,2.5,2.5,3.35,3.35,0,0,0,1.577-.366v-1.057a2.82,2.82,0,0,1-1.264.289,1.373,1.373,0,0,1-1.557-1.54v-5.3h2.856v-1.1h-2.856v-2.717h-1.256v2.717h-1.254Z" transform="translate(-304.59 -1113.861)" fill="#fff"/>
        </g>
        <g id="グループ_22818" data-name="グループ 22818" transform="translate(42.654 0.331)">
          <path id="パス_81997" data-name="パス 81997" d="M332.1,1111.8h1.533v1.48H332.1Zm.087,3.448h1.341v9h-1.341Z" transform="translate(-332.054 -1111.758)" fill="#fff"/>
          <path id="パス_81998" data-name="パス 81998" d="M333.483,1124.209h-1.426v-9.086h1.426Zm-1.341-.084H333.4v-8.918h-1.257Zm1.445-10.886h-1.616v-1.565h1.616Zm-1.532-.084H333.5v-1.4h-1.448Z" transform="translate(-331.971 -1111.674)" fill="#fff"/>
        </g>
        <g id="グループ_22819" data-name="グループ 22819" transform="translate(47.774)">
          <path id="パス_81999" data-name="パス 81999" d="M348.637,1115.775H347.4v-1.166h1.237v-.784a3.178,3.178,0,0,1,.783-2.316,2.65,2.65,0,0,1,1.933-.7,4.072,4.072,0,0,1,1.481.226v1.167a4.487,4.487,0,0,0-1.307-.227c-1.045,0-1.568.627-1.568,1.916v.731h2.856v1.15h-2.839v7.819h-1.341Z" transform="translate(-347.358 -1110.77)" fill="#fff"/>
          <path id="パス_82000" data-name="パス 82000" d="M349.936,1123.552h-1.425v-7.818h-1.237v-1.251h1.237v-.742a3.236,3.236,0,0,1,.8-2.346,2.7,2.7,0,0,1,1.962-.709,4.14,4.14,0,0,1,1.495.229l.028.01v1.253l-.054-.015a4.415,4.415,0,0,0-1.295-.225c-1.026,0-1.525.613-1.525,1.874v.689h2.856v1.234h-2.839Zm-1.341-.084h1.256v-7.818h2.839v-1.065h-2.856v-.773c0-1.3.542-1.958,1.61-1.958a4.351,4.351,0,0,1,1.264.213v-1.081a4.035,4.035,0,0,0-1.439-.214,2.618,2.618,0,0,0-1.9.684,3.157,3.157,0,0,0-.771,2.286v.826h-1.237v1.082H348.6Z" transform="translate(-347.274 -1110.686)" fill="#fff"/>
        </g>
        <g id="グループ_22861" data-name="グループ 22861" transform="translate(60.592 0.069)">
          <g id="グループ_22820" data-name="グループ 22820" transform="translate(0 3.518)">
            <path id="パス_82001" data-name="パス 82001" d="M385.713,1126.252v-.035a4.441,4.441,0,0,1,4.318-4.684c2.665,0,4.2,2.125,4.2,4.754a3.437,3.437,0,0,1-.018.436h-7.139a3.143,3.143,0,0,0,3.169,3.047,3.722,3.722,0,0,0,2.838-1.271l.836.749a4.648,4.648,0,0,1-3.709,1.689A4.475,4.475,0,0,1,385.713,1126.252Zm7.157-.522c-.139-1.637-1.08-3.065-2.874-3.065a3.1,3.1,0,0,0-2.925,3.065Z" transform="translate(-385.671 -1121.491)" fill="#fff"/>
            <path id="パス_82002" data-name="パス 82002" d="M390.122,1130.9a4.532,4.532,0,0,1-4.535-4.727v-.035a4.944,4.944,0,0,1,1.236-3.344,4.172,4.172,0,0,1,3.124-1.383,3.933,3.933,0,0,1,3.13,1.406,5.283,5.283,0,0,1,1.109,3.39,3.447,3.447,0,0,1-.018.44l0,.037h-7.13a3.105,3.105,0,0,0,3.122,2.963,3.684,3.684,0,0,0,2.807-1.258l.028-.03.9.8-.028.031A4.675,4.675,0,0,1,390.122,1130.9Zm-.174-9.4a4.086,4.086,0,0,0-3.062,1.355,4.859,4.859,0,0,0-1.215,3.287v.035a4.45,4.45,0,0,0,4.451,4.643,4.588,4.588,0,0,0,3.649-1.644l-.774-.694a3.751,3.751,0,0,1-2.84,1.255,3.192,3.192,0,0,1-3.211-3.085l0-.047h7.147a3.636,3.636,0,0,0,.013-.393C394.1,1123.385,392.432,1121.492,389.948,1121.492Zm2.885,4.2h-5.891l0-.047a3.129,3.129,0,0,1,2.967-3.1,2.651,2.651,0,0,1,2.089.933,3.819,3.819,0,0,1,.826,2.17Zm-5.8-.084h5.706c-.205-2.2-1.592-2.981-2.828-2.981A3.038,3.038,0,0,0,387.035,1125.6Z" transform="translate(-385.587 -1121.408)" fill="#fff"/>
          </g>
          <g id="グループ_22821" data-name="グループ 22821" transform="translate(11.652)">
            <path id="パス_82003" data-name="パス 82003" d="M420.54,1119.256v-.035a4.418,4.418,0,0,1,4.3-4.684,4.06,4.06,0,0,1,3.448,1.916v-5.433h1.341v12.712h-1.341v-1.811a4.047,4.047,0,0,1-3.448,2A4.392,4.392,0,0,1,420.54,1119.256Zm7.8-.017v-.034a3.346,3.346,0,0,0-3.257-3.466,3.177,3.177,0,0,0-3.169,3.466v.034a3.252,3.252,0,0,0,3.169,3.483A3.362,3.362,0,0,0,428.341,1119.238Z" transform="translate(-420.498 -1110.977)" fill="#fff"/>
            <path id="パス_82004" data-name="パス 82004" d="M424.758,1123.881a4.433,4.433,0,0,1-4.344-4.709v-.035a4.441,4.441,0,0,1,4.344-4.726,4.046,4.046,0,0,1,3.405,1.825v-5.343h1.426v12.8h-1.426v-1.718A4,4,0,0,1,424.758,1123.881Zm0-9.386a4.359,4.359,0,0,0-4.259,4.642v.035a4.35,4.35,0,0,0,4.259,4.625,3.967,3.967,0,0,0,3.412-1.984l.077-.114v1.906H429.5v-12.627h-1.257v5.526l-.077-.111A4,4,0,0,0,424.758,1114.5Zm.244,8.184a3.3,3.3,0,0,1-3.212-3.525v-.034a3.223,3.223,0,0,1,3.212-3.508,3.37,3.37,0,0,1,3.3,3.508v.034a3.586,3.586,0,0,1-1.014,2.548A3.248,3.248,0,0,1,425,1122.679Zm0-6.983a3.143,3.143,0,0,0-3.127,3.424v.034A3.223,3.223,0,0,0,425,1122.6a3.347,3.347,0,0,0,3.214-3.441v-.034A3.287,3.287,0,0,0,425,1115.7Z" transform="translate(-420.414 -1110.893)" fill="#fff"/>
          </g>
          <g id="グループ_22822" data-name="グループ 22822" transform="translate(30.736 0.436)">
            <path id="パス_82005" data-name="パス 82005" d="M483.2,1112.321h1.289l5.555,12.277h-1.48l-1.428-3.222H480.5l-1.446,3.222h-1.411Zm3.4,7.8-2.769-6.2-2.786,6.2Z" transform="translate(-477.582 -1112.279)" fill="#fff"/>
            <path id="パス_82006" data-name="パス 82006" d="M489.981,1124.556h-1.573l-.011-.025-1.417-3.2H480.4l-1.446,3.221h-1.5l.027-.06,5.566-12.3h1.343l.011.025Zm-1.518-.084h1.387l-5.516-12.192H483.1l-5.517,12.192H478.9l1.446-3.221h6.689l.011.025Zm-1.93-4.391h-5.685l.027-.06,2.825-6.284.038.086Zm-5.555-.084H486.4l-2.7-6.054Z" transform="translate(-477.452 -1112.195)" fill="#fff"/>
          </g>
          <g id="グループ_22823" data-name="グループ 22823" transform="translate(45.338)">
            <path id="パス_82007" data-name="パス 82007" d="M521.22,1119.256v-.035a4.418,4.418,0,0,1,4.3-4.684,4.06,4.06,0,0,1,3.447,1.916v-5.433h1.341v12.712h-1.341v-1.811a4.047,4.047,0,0,1-3.447,2A4.392,4.392,0,0,1,521.22,1119.256Zm7.8-.017v-.034a3.346,3.346,0,0,0-3.256-3.466,3.177,3.177,0,0,0-3.169,3.466v.034a3.252,3.252,0,0,0,3.169,3.483A3.362,3.362,0,0,0,529.021,1119.238Z" transform="translate(-521.178 -1110.977)" fill="#fff"/>
            <path id="パス_82008" data-name="パス 82008" d="M525.438,1123.881a4.432,4.432,0,0,1-4.343-4.709v-.035a4.441,4.441,0,0,1,4.343-4.726,4.046,4.046,0,0,1,3.405,1.825v-5.343h1.426v12.8h-1.426v-1.718A4,4,0,0,1,525.438,1123.881Zm0-9.386a4.358,4.358,0,0,0-4.259,4.642v.035a4.35,4.35,0,0,0,4.259,4.625,3.967,3.967,0,0,0,3.412-1.984l.077-.114v1.906h1.257v-12.627h-1.257v5.526l-.077-.111A4,4,0,0,0,525.438,1114.5Zm.244,8.184a3.3,3.3,0,0,1-3.211-3.525v-.034a3.223,3.223,0,0,1,3.211-3.508,3.37,3.37,0,0,1,3.3,3.508v.034a3.586,3.586,0,0,1-1.014,2.548A3.247,3.247,0,0,1,525.682,1122.679Zm0-6.983a3.143,3.143,0,0,0-3.127,3.424v.034a3.223,3.223,0,0,0,3.127,3.441,3.347,3.347,0,0,0,3.214-3.441v-.034A3.287,3.287,0,0,0,525.682,1115.7Z" transform="translate(-521.095 -1110.893)" fill="#fff"/>
          </g>
          <g id="グループ_22824" data-name="グループ 22824" transform="translate(58.731 3.518)">
            <path id="パス_82009" data-name="パス 82009" d="M561.251,1121.725h1.341v1.515a3.288,3.288,0,0,1,2.908-1.707,3.059,3.059,0,0,1,2.89,1.794,3.588,3.588,0,0,1,3.169-1.794c2.072,0,3.343,1.393,3.343,3.622v5.573h-1.34v-5.259c0-1.742-.871-2.717-2.333-2.717a2.509,2.509,0,0,0-2.473,2.786v5.19h-1.341v-5.294c0-1.689-.888-2.682-2.316-2.682a2.609,2.609,0,0,0-2.508,2.839v5.137h-1.341Z" transform="translate(-561.209 -1121.491)" fill="#fff"/>
            <path id="パス_82010" data-name="パス 82010" d="M574.861,1130.686h-1.425v-5.3c0-1.7-.835-2.674-2.291-2.674a2.462,2.462,0,0,0-2.431,2.744v5.231H567.29v-5.335c0-1.653-.85-2.64-2.273-2.64a2.559,2.559,0,0,0-2.465,2.8v5.178h-1.426V1121.6h1.426v1.42a3.262,3.262,0,0,1,2.866-1.611,3.1,3.1,0,0,1,2.9,1.751,3.6,3.6,0,0,1,3.164-1.751c2.089,0,3.386,1.4,3.386,3.664Zm-1.34-.084h1.256v-5.53c0-2.208-1.265-3.58-3.3-3.58a3.534,3.534,0,0,0-3.134,1.774l-.04.063-.032-.067a3.02,3.02,0,0,0-2.853-1.769,3.24,3.24,0,0,0-2.873,1.687l-.077.116v-1.612h-1.257v8.918h1.257v-5.094a2.64,2.64,0,0,1,2.55-2.881c1.476,0,2.358,1.019,2.358,2.724v5.251h1.256v-5.147a2.542,2.542,0,0,1,2.515-2.828c1.51,0,2.375,1.006,2.375,2.759Z" transform="translate(-561.125 -1121.408)" fill="#fff"/>
          </g>
          <g id="グループ_22825" data-name="グループ 22825" transform="translate(76.636 0.261)">
            <path id="パス_82011" data-name="パス 82011" d="M614.765,1111.8H616.3v1.48h-1.532Zm.087,3.448h1.341v9h-1.341Z" transform="translate(-614.723 -1111.758)" fill="#fff"/>
            <path id="パス_82012" data-name="パス 82012" d="M616.152,1124.209h-1.426v-9.086h1.426Zm-1.341-.084h1.257v-8.918H614.81Zm1.445-10.886h-1.617v-1.565h1.617Zm-1.532-.084h1.448v-1.4h-1.448Z" transform="translate(-614.639 -1111.674)" fill="#fff"/>
          </g>
          <g id="グループ_22826" data-name="グループ 22826" transform="translate(82.487 3.518)">
            <path id="パス_82013" data-name="パス 82013" d="M632.255,1121.725H633.6v1.567a3.408,3.408,0,0,1,3.082-1.759,3.288,3.288,0,0,1,3.448,3.6v5.59h-1.341v-5.259a2.4,2.4,0,0,0-2.49-2.717,2.648,2.648,0,0,0-2.7,2.821v5.155h-1.341Z" transform="translate(-632.213 -1121.491)" fill="#fff"/>
            <path id="パス_82014" data-name="パス 82014" d="M640.085,1130.686h-1.426v-5.3a2.359,2.359,0,0,0-2.448-2.674,2.6,2.6,0,0,0-2.656,2.779v5.2h-1.426V1121.6h1.426v1.463a3.436,3.436,0,0,1,3.04-1.654,3.312,3.312,0,0,1,3.49,3.646Zm-1.341-.084H640v-5.548a3.234,3.234,0,0,0-3.405-3.562,3.375,3.375,0,0,0-3.046,1.738l-.078.129v-1.675h-1.257v8.918h1.257v-5.112a2.683,2.683,0,0,1,2.741-2.863,2.437,2.437,0,0,1,2.532,2.759Z" transform="translate(-632.129 -1121.408)" fill="#fff"/>
          </g>
          <g id="グループ_22827" data-name="グループ 22827" transform="translate(94.558 0.261)">
            <path id="パス_82015" data-name="パス 82015" d="M668.332,1111.8h1.532v1.48h-1.532Zm.087,3.448h1.341v9h-1.341Z" transform="translate(-668.29 -1111.758)" fill="#fff"/>
            <path id="パス_82016" data-name="パス 82016" d="M669.718,1124.209h-1.426v-9.086h1.426Zm-1.341-.084h1.257v-8.918h-1.257Zm1.446-10.886h-1.617v-1.565h1.617Zm-1.532-.084h1.448v-1.4H668.29Z" transform="translate(-668.206 -1111.674)" fill="#fff"/>
          </g>
          <g id="グループ_22828" data-name="グループ 22828" transform="translate(99.646 3.553)">
            <path id="パス_82017" data-name="パス 82017" d="M683.585,1129.648l.679-.958a5.262,5.262,0,0,0,3.116,1.149c1.08,0,1.864-.557,1.864-1.428v-.035c0-.9-1.062-1.254-2.246-1.584-1.411-.4-2.977-.889-2.977-2.543v-.035c0-1.55,1.288-2.577,3.065-2.577a6.147,6.147,0,0,1,3.238.993l-.609,1.009a5.091,5.091,0,0,0-2.664-.87c-1.063,0-1.742.557-1.742,1.305v.035c0,.853,1.114,1.184,2.317,1.55,1.393.418,2.89.958,2.89,2.577v.035c0,1.707-1.411,2.7-3.2,2.7A6.19,6.19,0,0,1,683.585,1129.648Z" transform="translate(-683.528 -1121.596)" fill="#fff"/>
            <path id="パス_82018" data-name="パス 82018" d="M687.2,1130.93a6.235,6.235,0,0,1-3.753-1.333l-.031-.025.727-1.025.034.026a5.21,5.21,0,0,0,3.091,1.141c1.09,0,1.821-.557,1.821-1.386v-.035c0-.856-1-1.206-2.216-1.544-1.34-.38-3.008-.853-3.008-2.583v-.036c0-1.542,1.277-2.619,3.107-2.619a6.167,6.167,0,0,1,3.262,1l.034.023-.652,1.081-.036-.024a5.01,5.01,0,0,0-2.641-.863c-1,0-1.7.52-1.7,1.263v.035c0,.813,1.092,1.146,2.249,1.5l.038.012c1.478.443,2.921,1.01,2.921,2.617v.035C690.444,1129.828,689.139,1130.93,687.2,1130.93Zm-3.669-1.374a6.153,6.153,0,0,0,3.669,1.29c1.891,0,3.162-1.068,3.162-2.658v-.035c0-1.55-1.353-2.084-2.86-2.536l-.039-.012c-1.187-.362-2.308-.7-2.308-1.579v-.035c0-.794.734-1.348,1.784-1.348a5.075,5.075,0,0,1,2.651.854l.566-.937a6.078,6.078,0,0,0-3.181-.964c-1.779,0-3.022,1.042-3.022,2.534v.036c0,1.666,1.634,2.129,2.946,2.5,1.246.347,2.277.709,2.277,1.625v.035c0,.88-.766,1.47-1.906,1.47a5.271,5.271,0,0,1-3.107-1.133Z" transform="translate(-683.414 -1121.512)" fill="#fff"/>
          </g>
          <g id="グループ_22829" data-name="グループ 22829" transform="translate(109.433 0.993)">
            <path id="パス_82019" data-name="パス 82019" d="M714.044,1123.32v-5.433H712.79V1116.7h1.254v-2.717h1.34v2.717h2.856v1.184h-2.856v5.259a1.333,1.333,0,0,0,1.515,1.5,2.823,2.823,0,0,0,1.306-.314v1.15a3.374,3.374,0,0,1-1.619.383A2.292,2.292,0,0,1,714.044,1123.32Z" transform="translate(-712.748 -1113.944)" fill="#fff"/>
            <path id="パス_82020" data-name="パス 82020" d="M716.5,1125.821a2.331,2.331,0,0,1-2.585-2.585v-5.391h-1.254v-1.268h1.254v-2.717h1.425v2.717H718.2v1.268h-2.856v5.216a1.287,1.287,0,0,0,1.473,1.456,2.771,2.771,0,0,0,1.288-.309l.061-.029v1.242l-.023.012A3.439,3.439,0,0,1,716.5,1125.821Zm-3.754-8.06H714v5.475a2.255,2.255,0,0,0,2.5,2.5,3.352,3.352,0,0,0,1.577-.366v-1.057a2.822,2.822,0,0,1-1.264.289,1.373,1.373,0,0,1-1.557-1.54v-5.3h2.856v-1.1h-2.856v-2.717H714v2.717h-1.254Z" transform="translate(-712.665 -1113.861)" fill="#fff"/>
          </g>
          <g id="グループ_22830" data-name="グループ 22830" transform="translate(118.558 3.55)">
            <path id="パス_82021" data-name="パス 82021" d="M740.066,1121.788h1.341v2.351a3.854,3.854,0,0,1,3.674-2.508v1.445h-.1c-1.968,0-3.57,1.411-3.57,4.128v3.587h-1.341Z" transform="translate(-740.024 -1121.586)" fill="#fff"/>
            <path id="パス_82022" data-name="パス 82022" d="M741.366,1130.749H739.94v-9.086h1.426v2.2a3.848,3.848,0,0,1,3.633-2.358l.04,0v1.527h-.146c-1.627,0-3.527,1.07-3.527,4.085Zm-1.341-.084h1.257v-3.545c0-2.533,1.418-4.17,3.612-4.17h.062v-1.362a3.816,3.816,0,0,0-3.593,2.484l-.081.183v-2.508h-1.257Z" transform="translate(-739.94 -1121.502)" fill="#fff"/>
          </g>
          <g id="グループ_22831" data-name="グループ 22831" transform="translate(125.804 3.587)">
            <path id="パス_82023" data-name="パス 82023" d="M761.722,1128.253v-.035c0-1.9,1.567-2.908,3.848-2.908a9.569,9.569,0,0,1,2.77.383v-.314c0-1.619-.993-2.455-2.682-2.455a6.268,6.268,0,0,0-2.733.661l-.4-1.1a7.434,7.434,0,0,1,3.274-.749,3.951,3.951,0,0,1,2.908.993,3.554,3.554,0,0,1,.922,2.629v5.5H768.34v-1.358a3.948,3.948,0,0,1-3.257,1.55C763.411,1131.057,761.722,1130.1,761.722,1128.253Zm6.634-.7v-.871a9.364,9.364,0,0,0-2.646-.383c-1.689,0-2.63.731-2.63,1.863v.035c0,1.132,1.045,1.794,2.264,1.794C767,1129.994,768.356,1128.984,768.356,1127.557Z" transform="translate(-761.68 -1121.698)" fill="#fff"/>
            <path id="パス_82024" data-name="パス 82024" d="M765,1131.016c-1.691,0-3.4-.978-3.4-2.846v-.035c0-1.847,1.454-2.95,3.89-2.95a9.538,9.538,0,0,1,2.728.369v-.258c0-1.556-.937-2.413-2.64-2.413a6.227,6.227,0,0,0-2.716.657l-.042.019-.43-1.177.035-.016a7.54,7.54,0,0,1,3.292-.753,4,4,0,0,1,2.938,1.005,3.612,3.612,0,0,1,.935,2.659v5.545h-1.372v-1.278A3.977,3.977,0,0,1,765,1131.016Zm.487-5.747c-2.383,0-3.806,1.072-3.806,2.866v.035c0,1.813,1.67,2.762,3.319,2.762a3.892,3.892,0,0,0,3.223-1.533l.076-.1v1.44h1.2v-5.461a3.533,3.533,0,0,0-.91-2.6,3.919,3.919,0,0,0-2.878-.98,7.3,7.3,0,0,0-3.221.729l.372,1.018a6.259,6.259,0,0,1,2.71-.646c1.756,0,2.724.886,2.724,2.5v.369l-.054-.015A9.471,9.471,0,0,0,765.486,1125.269Zm-.226,4.684c-1.358,0-2.306-.755-2.306-1.836v-.035c0-1.193,1-1.905,2.672-1.905a9.4,9.4,0,0,1,2.658.385l.03.009v.9C768.315,1128.887,767,1129.953,765.26,1129.953Zm.366-3.691c-1.621,0-2.588.681-2.588,1.821v.035c0,.844.7,1.751,2.222,1.751,1.693,0,2.97-1.03,2.97-2.4v-.839A9.307,9.307,0,0,0,765.626,1126.262Z" transform="translate(-761.596 -1121.615)" fill="#fff"/>
          </g>
          <g id="グループ_22832" data-name="グループ 22832" transform="translate(137.004 0.993)">
            <path id="パス_82025" data-name="パス 82025" d="M796.45,1123.32v-5.433H795.2V1116.7h1.254v-2.717h1.341v2.717h2.856v1.184H797.79v5.259a1.332,1.332,0,0,0,1.515,1.5,2.826,2.826,0,0,0,1.307-.314v1.15a3.376,3.376,0,0,1-1.619.383A2.292,2.292,0,0,1,796.45,1123.32Z" transform="translate(-795.154 -1113.944)" fill="#fff"/>
            <path id="パス_82026" data-name="パス 82026" d="M798.908,1125.821a2.331,2.331,0,0,1-2.585-2.585v-5.391H795.07v-1.268h1.254v-2.717h1.425v2.717H800.6v1.268h-2.856v5.216a1.287,1.287,0,0,0,1.472,1.456,2.77,2.77,0,0,0,1.288-.309l.06-.029v1.242l-.023.012A3.437,3.437,0,0,1,798.908,1125.821Zm-3.754-8.06h1.254v5.475a2.255,2.255,0,0,0,2.5,2.5,3.35,3.35,0,0,0,1.577-.366v-1.057a2.818,2.818,0,0,1-1.264.289,1.372,1.372,0,0,1-1.557-1.54v-5.3h2.856v-1.1h-2.856v-2.717h-1.256v2.717h-1.254Z" transform="translate(-795.07 -1113.861)" fill="#fff"/>
          </g>
          <g id="グループ_22833" data-name="グループ 22833" transform="translate(146.164 0.261)">
            <path id="パス_82027" data-name="パス 82027" d="M822.574,1111.8h1.532v1.48h-1.532Zm.087,3.448H824v9h-1.341Z" transform="translate(-822.532 -1111.758)" fill="#fff"/>
            <path id="パス_82028" data-name="パス 82028" d="M823.96,1124.209h-1.426v-9.086h1.426Zm-1.341-.084h1.257v-8.918h-1.257Zm1.446-10.886h-1.617v-1.565h1.617Zm-1.532-.084h1.448v-1.4h-1.448Z" transform="translate(-822.448 -1111.674)" fill="#fff"/>
          </g>
          <g id="グループ_22834" data-name="グループ 22834" transform="translate(151.106 3.71)">
            <path id="パス_82029" data-name="パス 82029" d="M837.411,1122.107h1.48l3.03,7.47,3.047-7.47h1.445l-3.918,9.072h-1.184Z" transform="translate(-837.347 -1122.065)" fill="#fff"/>
            <path id="パス_82030" data-name="パス 82030" d="M842.4,1131.137h-1.239l-3.937-9.156h1.572l.011.026,2.991,7.374,3.019-7.4h1.538l-.025.059Zm-1.184-.084h1.128l3.882-8.987h-1.353l-3.075,7.54-.039-.1-3.019-7.443h-1.388Z" transform="translate(-837.219 -1121.981)" fill="#fff"/>
          </g>
          <g id="グループ_22835" data-name="グループ 22835" transform="translate(162.465 3.518)">
            <path id="パス_82031" data-name="パス 82031" d="M871.3,1126.252v-.035a4.441,4.441,0,0,1,4.318-4.684c2.665,0,4.2,2.125,4.2,4.754a3.443,3.443,0,0,1-.018.436h-7.14a3.144,3.144,0,0,0,3.17,3.047,3.723,3.723,0,0,0,2.838-1.271l.836.749a4.648,4.648,0,0,1-3.709,1.689A4.475,4.475,0,0,1,871.3,1126.252Zm7.157-.522c-.139-1.637-1.08-3.065-2.873-3.065a3.1,3.1,0,0,0-2.926,3.065Z" transform="translate(-871.254 -1121.491)" fill="#fff"/>
            <path id="パス_82032" data-name="パス 82032" d="M875.7,1130.9a4.532,4.532,0,0,1-4.535-4.727v-.035a4.944,4.944,0,0,1,1.236-3.344,4.172,4.172,0,0,1,3.124-1.383,3.933,3.933,0,0,1,3.13,1.406,5.283,5.283,0,0,1,1.109,3.39,3.453,3.453,0,0,1-.018.44l0,.037h-7.13a3.106,3.106,0,0,0,3.123,2.963,3.684,3.684,0,0,0,2.807-1.258l.028-.03.9.8-.028.031A4.675,4.675,0,0,1,875.7,1130.9Zm-.174-9.4a4.086,4.086,0,0,0-3.062,1.355,4.859,4.859,0,0,0-1.215,3.287v.035a4.45,4.45,0,0,0,4.451,4.643,4.588,4.588,0,0,0,3.649-1.644l-.774-.694a3.751,3.751,0,0,1-2.84,1.255,3.194,3.194,0,0,1-3.212-3.085l0-.047h7.148a3.619,3.619,0,0,0,.013-.393C879.685,1123.385,878.016,1121.492,875.531,1121.492Zm2.885,4.2h-5.892l0-.047a3.131,3.131,0,0,1,2.968-3.1c1.957,0,2.793,1.672,2.915,3.1Zm-5.8-.084h5.706c-.205-2.2-1.591-2.981-2.827-2.981A3.04,3.04,0,0,0,872.617,1125.6Z" transform="translate(-871.17 -1121.408)" fill="#fff"/>
          </g>
          <g id="グループ_22836" data-name="グループ 22836" transform="translate(181.398 0.522)">
            <path id="パス_82033" data-name="パス 82033" d="M927.884,1112.58h4.562c2.751,0,4.562,1.463,4.562,3.866v.034c0,2.63-2.194,3.988-4.789,3.988h-2.96v4.3h-1.376Zm4.388,6.635c2.021,0,3.344-1.079,3.344-2.682v-.035c0-1.741-1.306-2.647-3.273-2.647H929.26v5.364Z" transform="translate(-927.842 -1112.538)" fill="#fff"/>
            <path id="パス_82034" data-name="パス 82034" d="M929.218,1124.728h-1.46v-12.274h4.6c2.8,0,4.6,1.534,4.6,3.909v.034c0,2.784-2.427,4.03-4.831,4.03h-2.918Zm-1.375-.084h1.291v-4.3h3c2.363,0,4.747-1.22,4.747-3.946v-.034c0-2.359-1.732-3.824-4.52-3.824h-4.52Zm4.346-5.47h-3.054v-5.448h3.125c2.076,0,3.315,1.005,3.315,2.689v.036C935.573,1118.079,934.213,1119.173,932.188,1119.173Zm-2.97-.084h2.97c1.975,0,3.3-1.061,3.3-2.64v-.036c0-1.631-1.208-2.6-3.231-2.6h-3.04Z" transform="translate(-927.758 -1112.454)" fill="#fff"/>
          </g>
          <g id="グループ_22837" data-name="グループ 22837" transform="translate(193.764 3.55)">
            <path id="パス_82035" data-name="パス 82035" d="M964.845,1121.788h1.341v2.351a3.855,3.855,0,0,1,3.674-2.508v1.445h-.1c-1.968,0-3.57,1.411-3.57,4.128v3.587h-1.341Z" transform="translate(-964.803 -1121.586)" fill="#fff"/>
            <path id="パス_82036" data-name="パス 82036" d="M966.145,1130.749h-1.426v-9.086h1.426v2.2a3.865,3.865,0,0,1,3.478-2.362c.052,0,.1,0,.156,0l.041,0v1.527h-.146c-1.627,0-3.528,1.07-3.528,4.085Zm-1.341-.084h1.257v-3.545c0-2.533,1.418-4.17,3.612-4.17h.062v-1.362l-.111,0a3.823,3.823,0,0,0-3.482,2.485l-.081.183v-2.508H964.8Z" transform="translate(-964.719 -1121.502)" fill="#fff"/>
          </g>
          <g id="グループ_22838" data-name="グループ 22838" transform="translate(201.184 3.518)">
            <path id="パス_82037" data-name="パス 82037" d="M987.022,1126.27v-.035a4.693,4.693,0,0,1,9.386-.034v.034a4.675,4.675,0,0,1-4.719,4.7A4.612,4.612,0,0,1,987.022,1126.27Zm8.011,0v-.035a3.407,3.407,0,0,0-3.344-3.518,3.324,3.324,0,0,0-3.292,3.484v.034a3.378,3.378,0,0,0,3.326,3.5A3.323,3.323,0,0,0,995.033,1126.27Z" transform="translate(-986.98 -1121.491)" fill="#fff"/>
            <path id="パス_82038" data-name="パス 82038" d="M991.605,1130.9a4.659,4.659,0,0,1-4.709-4.709v-.035a4.735,4.735,0,0,1,9.47-.034v.034A4.7,4.7,0,0,1,991.605,1130.9Zm.034-9.4a4.61,4.61,0,0,0-4.659,4.659v.035a4.651,4.651,0,0,0,9.3-.035v-.034A4.584,4.584,0,0,0,991.64,1121.492Zm0,8.2a3.421,3.421,0,0,1-3.368-3.542v-.034a3.358,3.358,0,0,1,3.334-3.525,3.439,3.439,0,0,1,3.386,3.56v.035A3.357,3.357,0,0,1,991.64,1129.693Zm-.034-7.017a3.276,3.276,0,0,0-3.249,3.441v.034a3.338,3.338,0,0,0,3.283,3.458,3.274,3.274,0,0,0,3.267-3.423v-.035A3.355,3.355,0,0,0,991.605,1122.676Z" transform="translate(-986.896 -1121.408)" fill="#fff"/>
          </g>
          <g id="グループ_22839" data-name="グループ 22839" transform="translate(213.742 3.518)">
            <path id="パス_82039" data-name="パス 82039" d="M1024.555,1126.27v-.035a4.689,4.689,0,0,1,8.219-3.1l-.888.94a3.635,3.635,0,0,0-2.734-1.359,3.323,3.323,0,0,0-3.222,3.484v.034a3.364,3.364,0,0,0,3.309,3.5,3.717,3.717,0,0,0,2.751-1.341l.853.8a4.657,4.657,0,0,1-8.289-2.925Z" transform="translate(-1024.513 -1121.491)" fill="#fff"/>
            <path id="パス_82040" data-name="パス 82040" d="M1029.086,1130.9a4.689,4.689,0,0,1-4.657-4.709v-.035a4.731,4.731,0,0,1,8.292-3.128l.027.029-.027.029-.918.972-.031-.032a3.593,3.593,0,0,0-2.7-1.345,3.282,3.282,0,0,0-3.179,3.441v.034a3.331,3.331,0,0,0,3.267,3.458,3.643,3.643,0,0,0,2.72-1.327l.028-.031.914.858-.027.031A4.71,4.71,0,0,1,1029.086,1130.9Zm0-9.4a4.621,4.621,0,0,0-4.573,4.659v.035a4.613,4.613,0,0,0,8.188,2.928l-.793-.744a3.705,3.705,0,0,1-2.753,1.323,3.414,3.414,0,0,1-3.352-3.542v-.034a3.366,3.366,0,0,1,3.264-3.525,3.637,3.637,0,0,1,2.734,1.34l.83-.879A4.585,4.585,0,0,0,1029.086,1121.492Z" transform="translate(-1024.429 -1121.408)" fill="#fff"/>
          </g>
          <g id="グループ_22840" data-name="グループ 22840" transform="translate(224.732 3.518)">
            <path id="パス_82041" data-name="パス 82041" d="M1057.4,1126.252v-.035a4.441,4.441,0,0,1,4.318-4.684c2.665,0,4.2,2.125,4.2,4.754a3.42,3.42,0,0,1-.018.436h-7.139a3.143,3.143,0,0,0,3.169,3.047,3.723,3.723,0,0,0,2.838-1.271l.836.749a4.648,4.648,0,0,1-3.709,1.689A4.475,4.475,0,0,1,1057.4,1126.252Zm7.157-.522c-.14-1.637-1.08-3.065-2.874-3.065a3.1,3.1,0,0,0-2.925,3.065Z" transform="translate(-1057.361 -1121.491)" fill="#fff"/>
            <path id="パス_82042" data-name="パス 82042" d="M1061.812,1130.9a4.532,4.532,0,0,1-4.535-4.727v-.035a4.944,4.944,0,0,1,1.237-3.344,4.171,4.171,0,0,1,3.124-1.383,3.932,3.932,0,0,1,3.13,1.406,5.281,5.281,0,0,1,1.109,3.39,3.573,3.573,0,0,1-.017.44l0,.037h-7.13a3.106,3.106,0,0,0,3.123,2.963,3.683,3.683,0,0,0,2.807-1.258l.028-.03.9.8-.028.031A4.675,4.675,0,0,1,1061.812,1130.9Zm-.174-9.4a4.086,4.086,0,0,0-3.062,1.355,4.858,4.858,0,0,0-1.215,3.287v.035a4.45,4.45,0,0,0,4.451,4.643,4.589,4.589,0,0,0,3.649-1.644l-.774-.694a3.752,3.752,0,0,1-2.84,1.255,3.192,3.192,0,0,1-3.211-3.085l0-.047h7.147a3.619,3.619,0,0,0,.013-.393C1065.792,1123.385,1064.123,1121.492,1061.638,1121.492Zm2.884,4.2h-5.891l0-.047a3.129,3.129,0,0,1,2.967-3.1,2.651,2.651,0,0,1,2.089.933,3.821,3.821,0,0,1,.827,2.17Zm-5.8-.084h5.706c-.205-2.2-1.592-2.981-2.828-2.981A3.039,3.039,0,0,0,1058.725,1125.6Z" transform="translate(-1057.277 -1121.408)" fill="#fff"/>
          </g>
          <g id="グループ_22841" data-name="グループ 22841" transform="translate(236.384)">
            <path id="パス_82043" data-name="パス 82043" d="M1092.23,1119.256v-.035a4.418,4.418,0,0,1,4.3-4.684,4.061,4.061,0,0,1,3.448,1.916v-5.433h1.341v12.712h-1.341v-1.811a4.048,4.048,0,0,1-3.448,2A4.392,4.392,0,0,1,1092.23,1119.256Zm7.8-.017v-.034a3.346,3.346,0,0,0-3.257-3.466,3.177,3.177,0,0,0-3.169,3.466v.034a3.252,3.252,0,0,0,3.169,3.483A3.362,3.362,0,0,0,1100.031,1119.238Z" transform="translate(-1092.188 -1110.977)" fill="#fff"/>
            <path id="パス_82044" data-name="パス 82044" d="M1096.447,1123.881a4.432,4.432,0,0,1-4.343-4.709v-.035a4.441,4.441,0,0,1,4.343-4.726,4.047,4.047,0,0,1,3.406,1.825v-5.343h1.426v12.8h-1.426v-1.718A4,4,0,0,1,1096.447,1123.881Zm0-9.386a4.358,4.358,0,0,0-4.259,4.642v.035a4.35,4.35,0,0,0,4.259,4.625,3.966,3.966,0,0,0,3.413-1.984l.077-.114v1.906h1.257v-12.627h-1.257v5.526l-.077-.111A4,4,0,0,0,1096.447,1114.5Zm.244,8.184a3.3,3.3,0,0,1-3.211-3.525v-.034a3.223,3.223,0,0,1,3.211-3.508,3.37,3.37,0,0,1,3.3,3.508v.034a3.587,3.587,0,0,1-1.013,2.548A3.25,3.25,0,0,1,1096.691,1122.679Zm0-6.983a3.143,3.143,0,0,0-3.127,3.424v.034a3.222,3.222,0,0,0,3.127,3.441,3.347,3.347,0,0,0,3.215-3.441v-.034A3.287,3.287,0,0,0,1096.691,1115.7Z" transform="translate(-1092.104 -1110.893)" fill="#fff"/>
          </g>
          <g id="グループ_22842" data-name="グループ 22842" transform="translate(249.639 3.71)">
            <path id="パス_82045" data-name="パス 82045" d="M1131.845,1127.7v-5.59h1.341v5.259a2.4,2.4,0,0,0,2.49,2.716,2.658,2.658,0,0,0,2.7-2.82v-5.154h1.323v9h-1.323v-1.568a3.43,3.43,0,0,1-3.083,1.759A3.289,3.289,0,0,1,1131.845,1127.7Z" transform="translate(-1131.803 -1122.065)" fill="#fff"/>
            <path id="パス_82046" data-name="パス 82046" d="M1135.209,1131.26a3.346,3.346,0,0,1-3.49-3.647v-5.632h1.425v5.3a2.359,2.359,0,0,0,2.448,2.674,2.63,2.63,0,0,0,2.656-2.778v-5.2h1.408v9.086h-1.408V1129.6A3.433,3.433,0,0,1,1135.209,1131.26Zm-3.405-9.194v5.547a3.235,3.235,0,0,0,3.405,3.562,3.38,3.38,0,0,0,3.047-1.74l.078-.125v1.672h1.24v-8.918h-1.24v5.112a2.712,2.712,0,0,1-2.74,2.863,2.436,2.436,0,0,1-2.532-2.758v-5.216Z" transform="translate(-1131.719 -1121.981)" fill="#fff"/>
          </g>
          <g id="グループ_22843" data-name="グループ 22843" transform="translate(261.813 3.55)">
            <path id="パス_82047" data-name="パス 82047" d="M1168.233,1121.788h1.342v2.351a3.855,3.855,0,0,1,3.674-2.508v1.445h-.1c-1.968,0-3.57,1.411-3.57,4.128v3.587h-1.342Z" transform="translate(-1168.191 -1121.586)" fill="#fff"/>
            <path id="パス_82048" data-name="パス 82048" d="M1169.533,1130.749h-1.426v-9.086h1.426v2.2a3.864,3.864,0,0,1,3.478-2.361c.051,0,.1,0,.155,0l.041,0v1.527h-.147c-1.627,0-3.527,1.07-3.527,4.085Zm-1.341-.084h1.257v-3.545c0-2.533,1.418-4.17,3.611-4.17h.063v-1.362l-.111,0a3.822,3.822,0,0,0-3.482,2.485l-.081.183v-2.508h-1.257Z" transform="translate(-1168.107 -1121.502)" fill="#fff"/>
          </g>
          <g id="グループ_22844" data-name="グループ 22844" transform="translate(269.233 3.518)">
            <path id="パス_82049" data-name="パス 82049" d="M1190.41,1126.252v-.035a4.441,4.441,0,0,1,4.318-4.684c2.665,0,4.2,2.125,4.2,4.754a3.467,3.467,0,0,1-.018.436h-7.14a3.144,3.144,0,0,0,3.17,3.047,3.723,3.723,0,0,0,2.838-1.271l.836.749a4.647,4.647,0,0,1-3.709,1.689A4.476,4.476,0,0,1,1190.41,1126.252Zm7.157-.522c-.139-1.637-1.079-3.065-2.873-3.065a3.1,3.1,0,0,0-2.926,3.065Z" transform="translate(-1190.368 -1121.491)" fill="#fff"/>
            <path id="パス_82050" data-name="パス 82050" d="M1194.819,1130.9a4.532,4.532,0,0,1-4.535-4.727v-.035a4.946,4.946,0,0,1,1.236-3.344,4.172,4.172,0,0,1,3.124-1.383,3.933,3.933,0,0,1,3.13,1.406,5.282,5.282,0,0,1,1.109,3.39,3.6,3.6,0,0,1-.017.44l0,.037h-7.131a3.107,3.107,0,0,0,3.123,2.963,3.683,3.683,0,0,0,2.807-1.258l.028-.03.9.8-.028.031A4.675,4.675,0,0,1,1194.819,1130.9Zm-.175-9.4a4.087,4.087,0,0,0-3.062,1.355,4.859,4.859,0,0,0-1.214,3.287v.035a4.45,4.45,0,0,0,4.451,4.643,4.59,4.59,0,0,0,3.649-1.644l-.774-.694a3.752,3.752,0,0,1-2.84,1.255,3.193,3.193,0,0,1-3.212-3.085l0-.047h7.148a3.755,3.755,0,0,0,.013-.393C1198.8,1123.385,1197.129,1121.492,1194.645,1121.492Zm2.885,4.2h-5.891l0-.047a3.131,3.131,0,0,1,2.968-3.1c1.957,0,2.793,1.672,2.915,3.1Zm-5.8-.084h5.707c-.2-2.2-1.591-2.981-2.827-2.981A3.041,3.041,0,0,0,1191.731,1125.6Z" transform="translate(-1190.284 -1121.408)" fill="#fff"/>
          </g>
          <g id="グループ_22845" data-name="グループ 22845" transform="translate(280.645 3.553)">
            <path id="パス_82051" data-name="パス 82051" d="M1224.562,1129.648l.679-.958a5.263,5.263,0,0,0,3.117,1.149c1.08,0,1.864-.557,1.864-1.428v-.035c0-.9-1.062-1.254-2.246-1.584-1.411-.4-2.978-.889-2.978-2.543v-.035c0-1.55,1.289-2.577,3.065-2.577a6.149,6.149,0,0,1,3.239.993l-.609,1.009a5.093,5.093,0,0,0-2.664-.87c-1.063,0-1.742.557-1.742,1.305v.035c0,.853,1.114,1.184,2.316,1.55,1.393.418,2.89.958,2.89,2.577v.035c0,1.707-1.411,2.7-3.2,2.7A6.19,6.19,0,0,1,1224.562,1129.648Z" transform="translate(-1224.505 -1121.596)" fill="#fff"/>
            <path id="パス_82052" data-name="パス 82052" d="M1228.174,1130.93a6.236,6.236,0,0,1-3.753-1.333l-.031-.025.727-1.025.035.026a5.211,5.211,0,0,0,3.091,1.141c1.089,0,1.821-.557,1.821-1.386v-.035c0-.856-1-1.206-2.216-1.544-1.341-.38-3.009-.854-3.009-2.583v-.036c0-1.542,1.278-2.619,3.107-2.619a6.167,6.167,0,0,1,3.262,1l.034.023-.652,1.081-.037-.024a5.008,5.008,0,0,0-2.641-.863c-1,0-1.7.52-1.7,1.263v.035c0,.813,1.092,1.146,2.248,1.5l.039.012c1.477.443,2.92,1.01,2.92,2.617v.035C1231.42,1129.828,1230.116,1130.93,1228.174,1130.93Zm-3.669-1.374a6.153,6.153,0,0,0,3.669,1.29c1.891,0,3.162-1.068,3.162-2.658v-.035c0-1.55-1.353-2.084-2.86-2.536l-.039-.012c-1.187-.362-2.308-.7-2.308-1.579v-.035c0-.794.734-1.348,1.784-1.348a5.075,5.075,0,0,1,2.65.854l.566-.937a6.077,6.077,0,0,0-3.182-.964c-1.78,0-3.023,1.042-3.023,2.534v.036c0,1.665,1.634,2.129,2.948,2.5,1.246.347,2.277.709,2.277,1.625v.035c0,.88-.766,1.47-1.906,1.47a5.272,5.272,0,0,1-3.107-1.133Z" transform="translate(-1224.391 -1121.512)" fill="#fff"/>
          </g>
          <g id="グループ_22846" data-name="グループ 22846" transform="translate(298.146 0.522)">
            <path id="パス_82053" data-name="パス 82053" d="M1276.827,1112.58h1.375V1123.5h6.861v1.271h-8.237Z" transform="translate(-1276.784 -1112.538)" fill="#fff"/>
            <path id="パス_82054" data-name="パス 82054" d="M1285.021,1124.728H1276.7v-12.274h1.46v10.919h6.861Zm-8.237-.084h8.152v-1.187h-6.861v-10.919h-1.292Z" transform="translate(-1276.7 -1112.454)" fill="#fff"/>
          </g>
          <g id="グループ_22847" data-name="グループ 22847" transform="translate(308.926 3.518)">
            <path id="パス_82055" data-name="パス 82055" d="M1309.046,1126.252v-.035a4.441,4.441,0,0,1,4.319-4.684c2.664,0,4.2,2.125,4.2,4.754a3.491,3.491,0,0,1-.017.436h-7.139a3.143,3.143,0,0,0,3.169,3.047,3.723,3.723,0,0,0,2.838-1.271l.836.749a4.648,4.648,0,0,1-3.709,1.689A4.476,4.476,0,0,1,1309.046,1126.252Zm7.157-.522c-.139-1.637-1.079-3.065-2.874-3.065a3.1,3.1,0,0,0-2.924,3.065Z" transform="translate(-1309.004 -1121.491)" fill="#fff"/>
            <path id="パス_82056" data-name="パス 82056" d="M1313.456,1130.9a4.532,4.532,0,0,1-4.535-4.727v-.035a4.944,4.944,0,0,1,1.236-3.344,4.172,4.172,0,0,1,3.124-1.383,3.933,3.933,0,0,1,3.13,1.406,5.282,5.282,0,0,1,1.109,3.39,3.5,3.5,0,0,1-.018.44l0,.037h-7.13a3.106,3.106,0,0,0,3.122,2.963,3.685,3.685,0,0,0,2.808-1.258l.028-.03.9.8-.028.031A4.674,4.674,0,0,1,1313.456,1130.9Zm-.174-9.4a4.086,4.086,0,0,0-3.062,1.355,4.859,4.859,0,0,0-1.214,3.287v.035a4.45,4.45,0,0,0,4.45,4.643,4.589,4.589,0,0,0,3.649-1.644l-.774-.694a3.752,3.752,0,0,1-2.84,1.255,3.192,3.192,0,0,1-3.211-3.085l0-.047h7.148a3.72,3.72,0,0,0,.013-.393C1317.436,1123.385,1315.766,1121.492,1313.281,1121.492Zm2.884,4.2h-5.891l0-.047a3.129,3.129,0,0,1,2.967-3.1,2.652,2.652,0,0,1,2.09.933,3.821,3.821,0,0,1,.826,2.17Zm-5.8-.084h5.706c-.205-2.2-1.592-2.981-2.828-2.981A3.038,3.038,0,0,0,1310.368,1125.6Z" transform="translate(-1308.921 -1121.408)" fill="#fff"/>
          </g>
          <g id="グループ_22848" data-name="グループ 22848" transform="translate(320.23 3.518)">
            <path id="パス_82057" data-name="パス 82057" d="M1343.25,1132.295l.61-1.045a5.748,5.748,0,0,0,3.465,1.15,2.959,2.959,0,0,0,3.273-3.2v-1.062a4.268,4.268,0,0,1-3.534,1.9,4.163,4.163,0,0,1-4.232-4.214v-.035a4.262,4.262,0,0,1,7.749-2.437v-1.619h1.341v7.435a4.336,4.336,0,0,1-1.149,3.187,4.731,4.731,0,0,1-3.43,1.2A7.058,7.058,0,0,1,1343.25,1132.295Zm7.383-6.5v-.034a3.155,3.155,0,0,0-3.308-3.048,2.978,2.978,0,0,0-3.117,3.031v.034a3.047,3.047,0,0,0,3.117,3.065A3.177,3.177,0,0,0,1350.633,1125.8Z" transform="translate(-1342.79 -1121.491)" fill="#fff"/>
            <path id="パス_82058" data-name="パス 82058" d="M1347.259,1133.508a7.067,7.067,0,0,1-4.117-1.261l-.032-.022.653-1.119.038.027a5.733,5.733,0,0,0,3.44,1.141,2.91,2.91,0,0,0,3.231-3.162v-.938a4.271,4.271,0,0,1-7.766-2.441v-.035a4.223,4.223,0,0,1,1.326-3.141,4.376,4.376,0,0,1,2.948-1.149,4.24,4.24,0,0,1,3.475,1.729V1121.6h1.426v7.477a4.363,4.363,0,0,1-1.162,3.217A4.76,4.76,0,0,1,1347.259,1133.508Zm-4.036-1.308a6.985,6.985,0,0,0,4.036,1.224,4.682,4.682,0,0,0,3.4-1.19,4.285,4.285,0,0,0,1.137-3.157v-7.392h-1.257v1.7l-.076-.1a4.22,4.22,0,0,0-7.673,2.412v.035a4.14,4.14,0,0,0,4.189,4.172,4.2,4.2,0,0,0,3.5-1.881l.076-.1v1.189a2.987,2.987,0,0,1-3.316,3.246,5.812,5.812,0,0,1-3.452-1.13Zm4.019-3.394a3.1,3.1,0,0,1-3.159-3.107v-.034a3.014,3.014,0,0,1,3.159-3.072,3.2,3.2,0,0,1,3.35,3.09v.034A3.242,3.242,0,0,1,1347.241,1128.805Zm0-6.129a2.933,2.933,0,0,0-3.075,2.988v.034a3.017,3.017,0,0,0,3.075,3.023,3.157,3.157,0,0,0,3.266-3v-.034A3.12,3.12,0,0,0,1347.241,1122.676Z" transform="translate(-1342.706 -1121.408)" fill="#fff"/>
          </g>
          <g id="グループ_22849" data-name="グループ 22849" transform="translate(332.944 3.587)">
            <path id="パス_82059" data-name="パス 82059" d="M1380.833,1128.253v-.035c0-1.9,1.567-2.908,3.849-2.908a9.568,9.568,0,0,1,2.769.383v-.314c0-1.619-.993-2.455-2.682-2.455a6.272,6.272,0,0,0-2.734.661l-.4-1.1a7.431,7.431,0,0,1,3.274-.749,3.951,3.951,0,0,1,2.908.993,3.554,3.554,0,0,1,.922,2.629v5.5h-1.288v-1.358a3.948,3.948,0,0,1-3.257,1.55C1382.522,1131.057,1380.833,1130.1,1380.833,1128.253Zm6.635-.7v-.871a9.373,9.373,0,0,0-2.647-.383c-1.689,0-2.63.731-2.63,1.863v.035c0,1.132,1.045,1.794,2.264,1.794C1386.109,1129.994,1387.468,1128.984,1387.468,1127.557Z" transform="translate(-1380.791 -1121.698)" fill="#fff"/>
            <path id="パス_82060" data-name="パス 82060" d="M1384.11,1131.016c-1.691,0-3.4-.978-3.4-2.846v-.035c0-1.847,1.455-2.95,3.891-2.95a9.529,9.529,0,0,1,2.726.369v-.258c0-1.556-.937-2.413-2.639-2.413a6.225,6.225,0,0,0-2.717.657l-.041.019-.43-1.177.035-.016a7.538,7.538,0,0,1,3.292-.753,4,4,0,0,1,2.938,1.005,3.613,3.613,0,0,1,.935,2.659v5.545h-1.372v-1.278A3.974,3.974,0,0,1,1384.11,1131.016Zm.488-5.747c-2.383,0-3.807,1.072-3.807,2.866v.035c0,1.813,1.67,2.762,3.319,2.762a3.892,3.892,0,0,0,3.223-1.533l.075-.1v1.44h1.2v-5.461a3.533,3.533,0,0,0-.91-2.6,3.919,3.919,0,0,0-2.878-.98,7.3,7.3,0,0,0-3.221.729l.371,1.018a6.258,6.258,0,0,1,2.71-.646c1.756,0,2.724.886,2.724,2.5v.369l-.054-.015A9.465,9.465,0,0,0,1384.6,1125.269Zm-.227,4.684c-1.358,0-2.306-.755-2.306-1.836v-.035c0-1.193,1-1.905,2.672-1.905a9.416,9.416,0,0,1,2.659.385l.031.009v.9C1387.426,1128.887,1386.113,1129.953,1384.371,1129.953Zm.366-3.691c-1.62,0-2.587.681-2.587,1.821v.035c0,.844.7,1.751,2.222,1.751,1.694,0,2.971-1.03,2.971-2.4v-.839A9.32,9.32,0,0,0,1384.737,1126.262Z" transform="translate(-1380.707 -1121.615)" fill="#fff"/>
          </g>
          <g id="グループ_22850" data-name="グループ 22850" transform="translate(345.136)">
            <path id="パス_82061" data-name="パス 82061" d="M1417.271,1111.019h1.341v12.712h-1.341Z" transform="translate(-1417.229 -1110.977)" fill="#fff"/>
            <path id="パス_82062" data-name="パス 82062" d="M1418.571,1123.689h-1.425v-12.8h1.425Zm-1.341-.084h1.257v-12.627h-1.257Z" transform="translate(-1417.146 -1110.893)" fill="#fff"/>
          </g>
          <g id="グループ_22851" data-name="グループ 22851" transform="translate(356.841 0.349)">
            <path id="パス_82063" data-name="パス 82063" d="M1452.306,1122.648l.853-1.01a5.8,5.8,0,0,0,4.179,1.724c1.637,0,2.717-.871,2.717-2.072v-.035c0-1.132-.61-1.777-3.17-2.317-2.8-.609-4.092-1.515-4.092-3.517v-.035c0-1.915,1.689-3.326,4-3.326a6.359,6.359,0,0,1,4.284,1.5l-.8,1.062a5.354,5.354,0,0,0-3.518-1.323c-1.584,0-2.594.871-2.594,1.968v.034c0,1.15.627,1.794,3.309,2.369,2.717.592,3.97,1.584,3.97,3.448v.034c0,2.09-1.741,3.448-4.161,3.448A7.137,7.137,0,0,1,1452.306,1122.648Z" transform="translate(-1452.247 -1112.019)" fill="#fff"/>
            <path id="パス_82064" data-name="パス 82064" d="M1457.169,1124.558a7.157,7.157,0,0,1-5.009-1.961l-.031-.027.908-1.075.032.029a5.719,5.719,0,0,0,4.151,1.713c1.575,0,2.675-.834,2.675-2.03v-.035c0-1.047-.5-1.719-3.137-2.275-2.968-.645-4.125-1.643-4.125-3.558v-.035c0-1.952,1.7-3.368,4.047-3.368a6.384,6.384,0,0,1,4.31,1.506l.032.026-.852,1.13-.034-.028a5.3,5.3,0,0,0-3.491-1.313c-1.5,0-2.552.792-2.552,1.926v.034c0,1.374,1.1,1.862,3.275,2.328,2.806.611,4,1.654,4,3.489v.035C1461.373,1123.155,1459.684,1124.558,1457.169,1124.558Zm-4.922-2a7.069,7.069,0,0,0,4.922,1.912c2.464,0,4.12-1.369,4.12-3.406v-.035c0-1.787-1.178-2.805-3.937-3.406-2.809-.6-3.342-1.312-3.342-2.41v-.034c0-1.165,1.109-2.01,2.637-2.01a5.366,5.366,0,0,1,3.51,1.305l.75-.995a6.3,6.3,0,0,0-4.225-1.462c-2.3,0-3.963,1.381-3.963,3.283v.035c0,1.891,1.1,2.833,4.058,3.476,2.395.5,3.2,1.1,3.2,2.357v.035c0,1.245-1.134,2.114-2.759,2.114a5.85,5.85,0,0,1-4.175-1.706Z" transform="translate(-1452.13 -1111.936)" fill="#fff"/>
          </g>
          <g id="グループ_22852" data-name="グループ 22852" transform="translate(369.189 3.518)">
            <path id="パス_82065" data-name="パス 82065" d="M1489.163,1121.725h1.341v1.811a4.045,4.045,0,0,1,3.447-2,4.392,4.392,0,0,1,4.3,4.667v.034a4.408,4.408,0,0,1-4.3,4.685A4.06,4.06,0,0,1,1490.5,1129v4.51h-1.341Zm7.714,4.527v-.035a3.242,3.242,0,0,0-3.169-3.483,3.357,3.357,0,0,0-3.256,3.466v.034a3.35,3.35,0,0,0,3.256,3.483A3.177,3.177,0,0,0,1496.877,1126.252Z" transform="translate(-1489.12 -1121.491)" fill="#fff"/>
            <path id="パス_82066" data-name="パス 82066" d="M1490.462,1133.472h-1.426V1121.6h1.426v1.718a4,4,0,0,1,3.406-1.91,4.432,4.432,0,0,1,4.343,4.709v.034a4.441,4.441,0,0,1-4.343,4.727,4.048,4.048,0,0,1-3.406-1.826Zm-1.342-.084h1.257v-4.6l.077.111a4,4,0,0,0,3.413,1.9,4.359,4.359,0,0,0,4.258-4.643v-.034a4.349,4.349,0,0,0-4.258-4.625,3.964,3.964,0,0,0-3.413,1.984l-.077.114v-1.906h-1.257Zm4.5-3.712a3.378,3.378,0,0,1-3.3-3.525v-.034a3.561,3.561,0,0,1,1.013-2.533,3.255,3.255,0,0,1,2.285-.975,3.3,3.3,0,0,1,3.211,3.525v.035A3.223,3.223,0,0,1,1493.624,1129.676Zm0-6.983a3.337,3.337,0,0,0-3.214,3.424v.034a3.3,3.3,0,0,0,3.214,3.441,3.143,3.143,0,0,0,3.127-3.423v-.035A3.187,3.187,0,0,0,1493.624,1122.693Z" transform="translate(-1489.036 -1121.408)" fill="#fff"/>
          </g>
          <g id="グループ_22853" data-name="グループ 22853" transform="translate(381.154 3.518)">
            <path id="パス_82067" data-name="パス 82067" d="M1524.925,1126.252v-.035a4.441,4.441,0,0,1,4.318-4.684c2.664,0,4.2,2.125,4.2,4.754a3.515,3.515,0,0,1-.017.436h-7.139a3.143,3.143,0,0,0,3.169,3.047,3.723,3.723,0,0,0,2.838-1.271l.836.749a4.647,4.647,0,0,1-3.708,1.689A4.476,4.476,0,0,1,1524.925,1126.252Zm7.157-.522c-.14-1.637-1.079-3.065-2.874-3.065a3.1,3.1,0,0,0-2.925,3.065Z" transform="translate(-1524.883 -1121.491)" fill="#fff"/>
            <path id="パス_82068" data-name="パス 82068" d="M1529.334,1130.9a4.532,4.532,0,0,1-4.535-4.727v-.035a4.943,4.943,0,0,1,1.236-3.344,4.171,4.171,0,0,1,3.124-1.383,3.934,3.934,0,0,1,3.13,1.406,5.284,5.284,0,0,1,1.109,3.39,3.453,3.453,0,0,1-.018.44l0,.037h-7.13a3.105,3.105,0,0,0,3.122,2.963,3.686,3.686,0,0,0,2.808-1.258l.028-.03.9.8-.028.031A4.674,4.674,0,0,1,1529.334,1130.9Zm-.175-9.4a4.086,4.086,0,0,0-3.061,1.355,4.857,4.857,0,0,0-1.215,3.287v.035a4.45,4.45,0,0,0,4.451,4.643,4.589,4.589,0,0,0,3.649-1.644l-.774-.694a3.752,3.752,0,0,1-2.84,1.255,3.192,3.192,0,0,1-3.211-3.085l0-.047h7.147a3.619,3.619,0,0,0,.013-.393C1533.314,1123.385,1531.645,1121.492,1529.16,1121.492Zm2.884,4.2h-5.89l0-.047a3.129,3.129,0,0,1,2.967-3.1,2.652,2.652,0,0,1,2.09.933,3.82,3.82,0,0,1,.826,2.17Zm-5.8-.084h5.705c-.205-2.2-1.592-2.981-2.828-2.981A3.038,3.038,0,0,0,1526.247,1125.6Z" transform="translate(-1524.799 -1121.408)" fill="#fff"/>
          </g>
          <g id="グループ_22854" data-name="グループ 22854" transform="translate(392.075 3.518)">
            <path id="パス_82069" data-name="パス 82069" d="M1557.566,1126.27v-.035a4.689,4.689,0,0,1,8.219-3.1l-.887.94a3.637,3.637,0,0,0-2.735-1.359,3.323,3.323,0,0,0-3.222,3.484v.034a3.364,3.364,0,0,0,3.309,3.5,3.717,3.717,0,0,0,2.751-1.341l.853.8a4.657,4.657,0,0,1-8.289-2.925Z" transform="translate(-1557.524 -1121.491)" fill="#fff"/>
            <path id="パス_82070" data-name="パス 82070" d="M1562.1,1130.9a4.688,4.688,0,0,1-4.657-4.709v-.035a4.731,4.731,0,0,1,8.292-3.128l.027.029-.027.029-.918.972-.03-.032a3.593,3.593,0,0,0-2.7-1.345,3.282,3.282,0,0,0-3.179,3.441v.034a3.33,3.33,0,0,0,3.266,3.458,3.642,3.642,0,0,0,2.72-1.327l.029-.031.914.858-.027.031A4.71,4.71,0,0,1,1562.1,1130.9Zm0-9.4a4.621,4.621,0,0,0-4.572,4.659v.035a4.613,4.613,0,0,0,8.188,2.928l-.792-.744a3.706,3.706,0,0,1-2.753,1.323,3.413,3.413,0,0,1-3.351-3.542v-.034a3.366,3.366,0,0,1,3.263-3.525,3.637,3.637,0,0,1,2.734,1.34l.83-.879A4.585,4.585,0,0,0,1562.1,1121.492Z" transform="translate(-1557.44 -1121.408)" fill="#fff"/>
          </g>
          <g id="グループ_22855" data-name="グループ 22855" transform="translate(403.919 0.261)">
            <path id="パス_82071" data-name="パス 82071" d="M1592.964,1111.8h1.532v1.48h-1.532Zm.087,3.448h1.341v9h-1.341Z" transform="translate(-1592.922 -1111.758)" fill="#fff"/>
            <path id="パス_82072" data-name="パス 82072" d="M1594.351,1124.209h-1.425v-9.086h1.425Zm-1.341-.084h1.256v-8.918h-1.256Zm1.446-10.886h-1.617v-1.565h1.617Zm-1.532-.084h1.448v-1.4h-1.448Z" transform="translate(-1592.839 -1111.674)" fill="#fff"/>
          </g>
          <g id="グループ_22856" data-name="グループ 22856" transform="translate(409.091 3.587)">
            <path id="パス_82073" data-name="パス 82073" d="M1608.425,1128.253v-.035c0-1.9,1.567-2.908,3.848-2.908a9.564,9.564,0,0,1,2.769.383v-.314c0-1.619-.992-2.455-2.682-2.455a6.271,6.271,0,0,0-2.734.661l-.4-1.1a7.434,7.434,0,0,1,3.274-.749,3.951,3.951,0,0,1,2.908.993,3.553,3.553,0,0,1,.923,2.629v5.5h-1.288v-1.358a3.947,3.947,0,0,1-3.256,1.55C1610.114,1131.057,1608.425,1130.1,1608.425,1128.253Zm6.634-.7v-.871a9.365,9.365,0,0,0-2.646-.383c-1.689,0-2.63.731-2.63,1.863v.035c0,1.132,1.045,1.794,2.264,1.794C1613.7,1129.994,1615.059,1128.984,1615.059,1127.557Z" transform="translate(-1608.383 -1121.698)" fill="#fff"/>
            <path id="パス_82074" data-name="パス 82074" d="M1611.7,1131.016c-1.691,0-3.4-.978-3.4-2.846v-.035c0-1.847,1.454-2.95,3.89-2.95a9.533,9.533,0,0,1,2.727.369v-.258c0-1.556-.938-2.413-2.64-2.413a6.226,6.226,0,0,0-2.716.657l-.042.019-.43-1.177.035-.016a7.538,7.538,0,0,1,3.292-.753,4,4,0,0,1,2.938,1.005,3.613,3.613,0,0,1,.935,2.659v5.545h-1.372v-1.279A3.976,3.976,0,0,1,1611.7,1131.016Zm.487-5.747c-2.383,0-3.806,1.072-3.806,2.866v.035c0,1.813,1.669,2.762,3.318,2.762a3.894,3.894,0,0,0,3.223-1.533l.075-.1v1.44h1.2v-5.461a3.533,3.533,0,0,0-.91-2.6,3.919,3.919,0,0,0-2.878-.98,7.3,7.3,0,0,0-3.221.729l.372,1.018a6.258,6.258,0,0,1,2.71-.646c1.756,0,2.724.886,2.724,2.5v.369l-.053-.015A9.473,9.473,0,0,0,1612.189,1125.269Zm-.226,4.684c-1.358,0-2.306-.755-2.306-1.836v-.035c0-1.193,1-1.905,2.673-1.905a9.4,9.4,0,0,1,2.658.385l.03.009v.9C1615.017,1128.887,1613.7,1129.953,1611.963,1129.953Zm.366-3.691c-1.621,0-2.588.681-2.588,1.821v.035c0,.844.7,1.751,2.222,1.751,1.693,0,2.97-1.03,2.97-2.4v-.839A9.3,9.3,0,0,0,1612.329,1126.262Z" transform="translate(-1608.299 -1121.615)" fill="#fff"/>
          </g>
          <g id="グループ_22857" data-name="グループ 22857" transform="translate(421.283)">
            <path id="パス_82075" data-name="パス 82075" d="M1644.863,1111.019h1.341v12.712h-1.341Z" transform="translate(-1644.821 -1110.977)" fill="#fff"/>
            <path id="パス_82076" data-name="パス 82076" d="M1646.163,1123.689h-1.426v-12.8h1.426Zm-1.341-.084h1.257v-12.627h-1.257Z" transform="translate(-1644.737 -1110.893)" fill="#fff"/>
          </g>
          <g id="グループ_22858" data-name="グループ 22858" transform="translate(427.083 0.261)">
            <path id="パス_82077" data-name="パス 82077" d="M1662.2,1111.8h1.532v1.48H1662.2Zm.087,3.448h1.341v9h-1.341Z" transform="translate(-1662.156 -1111.758)" fill="#fff"/>
            <path id="パス_82078" data-name="パス 82078" d="M1663.585,1124.209h-1.426v-9.086h1.426Zm-1.342-.084h1.257v-8.918h-1.257Zm1.446-10.886h-1.617v-1.565h1.617Zm-1.532-.084h1.448v-1.4h-1.448Z" transform="translate(-1662.072 -1111.674)" fill="#fff"/>
          </g>
          <g id="グループ_22859" data-name="グループ 22859" transform="translate(432.171 3.553)">
            <path id="パス_82079" data-name="パス 82079" d="M1677.451,1129.648l.679-.958a5.263,5.263,0,0,0,3.117,1.149c1.08,0,1.864-.557,1.864-1.428v-.035c0-.9-1.062-1.254-2.247-1.584-1.411-.4-2.978-.889-2.978-2.543v-.035c0-1.55,1.289-2.577,3.065-2.577a6.149,6.149,0,0,1,3.239.993l-.609,1.009a5.1,5.1,0,0,0-2.665-.87c-1.063,0-1.741.557-1.741,1.305v.035c0,.853,1.114,1.184,2.316,1.55,1.393.418,2.891.958,2.891,2.577v.035c0,1.707-1.411,2.7-3.2,2.7A6.191,6.191,0,0,1,1677.451,1129.648Z" transform="translate(-1677.394 -1121.596)" fill="#fff"/>
            <path id="パス_82080" data-name="パス 82080" d="M1681.064,1130.93a6.236,6.236,0,0,1-3.753-1.333l-.031-.025.727-1.025.035.026a5.208,5.208,0,0,0,3.091,1.141c1.089,0,1.821-.557,1.821-1.386v-.035c0-.856-1-1.206-2.216-1.544-1.341-.38-3.008-.854-3.008-2.583v-.036c0-1.542,1.277-2.619,3.106-2.619a6.168,6.168,0,0,1,3.262,1l.034.023-.652,1.081-.037-.024a5.009,5.009,0,0,0-2.641-.863c-1,0-1.7.52-1.7,1.263v.035c0,.813,1.092,1.146,2.248,1.5l.038.012c1.478.443,2.92,1.01,2.92,2.617v.035C1684.31,1129.828,1683.005,1130.93,1681.064,1130.93Zm-3.67-1.374a6.155,6.155,0,0,0,3.67,1.29c1.891,0,3.161-1.068,3.161-2.658v-.035c0-1.55-1.353-2.084-2.86-2.536l-.039-.012c-1.187-.362-2.308-.7-2.308-1.579v-.035c0-.794.733-1.348,1.784-1.348a5.073,5.073,0,0,1,2.65.854l.566-.937a6.078,6.078,0,0,0-3.182-.964c-1.779,0-3.022,1.042-3.022,2.534v.036c0,1.665,1.634,2.129,2.947,2.5,1.246.347,2.277.709,2.277,1.625v.035c0,.88-.766,1.47-1.906,1.47a5.269,5.269,0,0,1-3.107-1.133Z" transform="translate(-1677.28 -1121.512)" fill="#fff"/>
          </g>
          <g id="グループ_22860" data-name="グループ 22860" transform="translate(441.957 0.993)">
            <path id="パス_82081" data-name="パス 82081" d="M1707.911,1123.32v-5.433h-1.254V1116.7h1.254v-2.717h1.341v2.717h2.856v1.184h-2.856v5.259a1.332,1.332,0,0,0,1.515,1.5,2.825,2.825,0,0,0,1.307-.314v1.15a3.375,3.375,0,0,1-1.619.383A2.292,2.292,0,0,1,1707.911,1123.32Z" transform="translate(-1706.614 -1113.944)" fill="#fff"/>
            <path id="パス_82082" data-name="パス 82082" d="M1710.369,1125.821a2.331,2.331,0,0,1-2.585-2.585v-5.391h-1.254v-1.268h1.254v-2.717h1.425v2.717h2.856v1.268h-2.856v5.216a1.287,1.287,0,0,0,1.473,1.456,2.77,2.77,0,0,0,1.288-.309l.061-.029v1.242l-.023.012A3.437,3.437,0,0,1,1710.369,1125.821Zm-3.754-8.06h1.254v5.475a2.256,2.256,0,0,0,2.5,2.5,3.352,3.352,0,0,0,1.577-.366v-1.057a2.821,2.821,0,0,1-1.264.289,1.373,1.373,0,0,1-1.557-1.54v-5.3h2.856v-1.1h-2.856v-2.717h-1.256v2.717h-1.254Z" transform="translate(-1706.53 -1113.861)" fill="#fff"/>
          </g>
        </g>
        <g id="グループ_22864" data-name="グループ 22864" transform="translate(56.603 0.331)">
          <g id="グループ_22862" data-name="グループ 22862">
            <path id="パス_82083" data-name="パス 82083" d="M373.664,1111.8H375.2v1.481h-1.532" transform="translate(-373.664 -1111.758)" fill="#fff"/>
            <path id="パス_82084" data-name="パス 82084" d="M375.239,1113.239h-1.575v-.084h1.49v-1.4h-1.49v-.084h1.575Z" transform="translate(-373.664 -1111.674)" fill="#fff"/>
          </g>
          <g id="グループ_22863" data-name="グループ 22863" transform="translate(0.062 3.448)">
            <path id="パス_82085" data-name="パス 82085" d="M373.976,1131.109v-9H375.3v9" transform="translate(-373.934 -1122.065)" fill="#fff"/>
            <path id="パス_82086" data-name="パス 82086" d="M375.258,1131.025h-.084v-8.96h-1.239v8.96h-.084v-9.044h1.408Z" transform="translate(-373.85 -1121.981)" fill="#fff"/>
          </g>
        </g>
      </g>
    </g>
  </g>
</svg>
