<svg xmlns="http://www.w3.org/2000/svg" width="586.232" height="368.126" viewBox="0 0 586.232 368.126">
  <g id="グループ_22871" data-name="グループ 22871" transform="translate(-113.386 -89.798)">
    <g id="グループ_22806" data-name="グループ 22806" transform="translate(113.386 365.122)">
      <rect id="長方形_10311" data-name="長方形 10311" width="10.544" height="3.252" transform="translate(324.954 8.883)" fill="none"/>
      <rect id="長方形_10312" data-name="長方形 10312" width="11.147" height="3.944" transform="translate(446.985 36.232)" fill="none"/>
      <rect id="長方形_10313" data-name="長方形 10313" width="10.484" height="4.582" transform="translate(432.739 15.156)" fill="none"/>
      <path id="パス_81883" data-name="パス 81883" d="M124.568,980.627c0,3.444,1.63,6.921,5.272,6.921,2.48,0,3.635-1.425,3.635-4.486v-13.7C129.118,970.861,124.568,975.266,124.568,980.627Z" transform="translate(-120.714 -941.513)" fill="none"/>
      <rect id="長方形_10314" data-name="長方形 10314" width="24.679" height="3.136" transform="translate(311.244 38.865)" fill="none"/>
      <path id="パス_81884" data-name="パス 81884" d="M882.64,933.647c-.149.351-.308.715-.467,1.076s-.326.744-.478,1.1c.864,4.607,3.063,12.72,5.672,16.674a48.957,48.957,0,0,0,4.8-18.854Z" transform="translate(-616.872 -918.111)" fill="none"/>
      <rect id="長方形_10315" data-name="長方形 10315" width="24.679" height="3.138" transform="translate(311.244 44.873)" fill="none"/>
      <rect id="長方形_10316" data-name="長方形 10316" width="10.544" height="2.933" transform="translate(324.954 15.07)" fill="none"/>
      <rect id="長方形_10317" data-name="長方形 10317" width="10.687" height="4.582" transform="translate(446.985 15.156)" fill="none"/>
      <rect id="長方形_10318" data-name="長方形 10318" width="11.147" height="3.944" transform="translate(446.985 28.995)" fill="none"/>
      <rect id="長方形_10319" data-name="長方形 10319" width="8.646" height="11.124" transform="translate(549.163 17.704)" fill="none"/>
      <path id="パス_81885" data-name="パス 81885" d="M1593.943,918.937l-.037.111a23.167,23.167,0,0,0,5.555,7.876,21.266,21.266,0,0,0,3.622-7.987Z" transform="translate(-1083.596 -908.471)" fill="none"/>
      <path id="パス_81886" data-name="パス 81886" d="M146.974,922.16a16.341,16.341,0,0,0-9.687-3.622,37.516,37.516,0,0,0-7.444.335v-7.528q1.1-.057,2.21-.111c2.414-.117,4.912-.239,7.348-.461l.146-.013v-3.691l-.177.02c-.661.071-1.322.148-1.982.224a68.368,68.368,0,0,1-7.491.592v-8.185h-4.119v.448c0,2.576,0,5.237.051,7.859-2.283.11-4.622.165-6.957.165-1.6,0-3.108,0-4.688-.056l-.165-.005V912l.165,0c1.988-.058,4.022-.147,5.989-.233,1.894-.082,3.85-.168,5.765-.226l.05,8.11a22.576,22.576,0,0,0-8.393,5.689,14.631,14.631,0,0,0-4.209,9.713c0,6.172,3.73,10.32,9.282,10.32,4.729,0,7.228-2.685,7.228-7.765V922.572a18.723,18.723,0,0,1,6.313-.484c5.491.321,11.032,3.608,11.032,10.221,0,7.691-6.086,9.649-11.791,10.881l-.295.063.218.209a23.552,23.552,0,0,1,2.2,2.479l.059.074.094-.015c9.081-1.545,13.685-6.133,13.685-13.635A12.938,12.938,0,0,0,146.974,922.16Zm-20.827,15.265c0,3.06-1.155,4.486-3.635,4.486-3.642,0-5.272-3.476-5.272-6.921,0-5.361,4.55-9.766,8.907-11.268Z" transform="translate(-113.386 -895.877)"/>
      <path id="パス_81887" data-name="パス 81887" d="M209.757,909.25l-.11-.092-2.909,2.818.131.114a60.353,60.353,0,0,1,8.063,8.129l.108.139,3.059-2.882-.1-.116A69.808,69.808,0,0,0,209.757,909.25Z" transform="translate(-174.561 -902.063)"/>
      <path id="パス_81888" data-name="パス 81888" d="M322.6,906.848l.157.034.914-4.2-.158-.033a118.243,118.243,0,0,0-18.589-2.267l-.138-.007-.8,4.211.192,0A89.188,89.188,0,0,1,322.6,906.848Z" transform="translate(-238.291 -896.304)"/>
      <path id="パス_81889" data-name="パス 81889" d="M306.5,936.686c-6.59-.442-12.553,1.074-19.477,3.488l-.138.048,1.007,4.086.164-.055c4.733-1.577,11.589-3.458,17.382-3.458a7.732,7.732,0,0,1,5.714,2.134,7.6,7.6,0,0,1,1.989,5.594c-.316,11.39-10.66,15.624-20.738,18.263l-.14.036.574,3.686.156-.021a34.733,34.733,0,0,0,15.614-5.968,20.656,20.656,0,0,0,8.69-15.464,11.389,11.389,0,0,0-2.45-8.593A11.7,11.7,0,0,0,306.5,936.686Z" transform="translate(-227.084 -920.052)"/>
      <path id="パス_81890" data-name="パス 81890" d="M544.065,894.151l-.076-.124-2.562,1.243.093.151a42.467,42.467,0,0,1,3.153,6.07l.069.164,2.5-1.375-.058-.134A48.476,48.476,0,0,0,544.065,894.151Z" transform="translate(-393.889 -892.147)"/>
      <path id="パス_81891" data-name="パス 81891" d="M475.576,912.273l-.055-.16-.156.065a61.794,61.794,0,0,1-10.889,3.117,70.8,70.8,0,0,1-2.309-7.06c1-.269,2.093-.534,3.242-.815,1.478-.362,3.006-.736,4.336-1.115l.156-.044-.047-.156c-.147-.49-.265-.924-.385-1.362-.15-.548-.305-1.115-.517-1.8l-.047-.152-.151.045c-1.534.457-5.439,1.389-7.48,1.787-.493-2.117-.9-3.937-1.214-6.191h0c-.031-.219-.116-.777-.116-.777l-.024-.152-.152.017c-1.411.155-2.729.365-3.942.571l-.165.028.036.164c.521,2.4,1.03,4.344,1.62,6.593l.162.62-.542.1c-3.761.69-8.025,1.472-12.128,2.015l-.187.025.055.18c.114.377.227.789.342,1.207.2.739.412,1.5.65,2.139l.046.122.128-.02c3.705-.569,8.307-1.277,12.644-2.149.749,2.416,1.475,4.587,2.338,6.992-5.278.867-11.03,1.627-16.647,2.2l-.936.089.773,3.8.146-.017c4.39-.509,11.055-1.391,17.939-2.713.683,1.546,3.221,6.945,4.037,8.565-.322-.092-.53-.163-.8-.251l-.279-.092a29.369,29.369,0,0,0-5.2-1,30.515,30.515,0,0,0-4.292-.132c-4.94.251-10.71,2.676-10.71,8.684,0,3.8,2.224,6.512,6.61,8.061a32.882,32.882,0,0,0,10.711,1.474,37.578,37.578,0,0,0,6.249-.406l.139-.024-.005-.141c0-.02-.083-2.033-.1-3.327l0-.2-.2.048a22.479,22.479,0,0,1-6.023.543l-.85,0c-8.21,0-12.55-2.212-12.55-6.4,0-2.74,2.939-4.22,4.67-4.661a14.582,14.582,0,0,1,3.131-.345,31.558,31.558,0,0,1,13.015,3.005l.112.048.077-.1c.88-1.1,1.7-2.044,2.519-2.891l.1-.105-.1-.111a44.165,44.165,0,0,1-6.641-10.868,109.573,109.573,0,0,0,11.109-2.976l.168-.056-.071-.161C476.4,914.433,476,913.484,475.576,912.273Z" transform="translate(-329.545 -894.429)"/>
      <path id="パス_81892" data-name="パス 81892" d="M529.168,899.687l-.081-.134-2.5,1.441.1.143a29.274,29.274,0,0,1,2.936,5.889l.064.166,2.559-1.314-.059-.138A49.1,49.1,0,0,0,529.168,899.687Z" transform="translate(-384.162 -895.768)"/>
      <path id="パス_81893" data-name="パス 81893" d="M662.436,951.994h14.87V969.13c0,4.439-1.021,4.957-4.562,6.068l-.112.035-.017,4.43.2-.046c7.175-1.669,8.451-4.2,8.451-10.487V951.994h8.965v-3.455H662.436Z" transform="translate(-473.188 -927.87)"/>
      <rect id="長方形_10320" data-name="長方形 10320" width="23.417" height="3.687" transform="translate(190.987 5.696)"/>
      <path id="パス_81894" data-name="パス 81894" d="M615.019,908.837c3.789-2.39,8.545-7.933,11.577-12.367l.1-.139-.145-.088c-.445-.27-1.57-.99-2.474-1.568-.581-.371-1.073-.685-1.248-.793l-.15-.093-.078.159c-2.632,5.4-7.178,9.488-10.527,11.962l-.153.112,3,2.883Z" transform="translate(-440.081 -891.991)"/>
      <path id="パス_81895" data-name="パス 81895" d="M620.922,927.806c-2.676,6.49-9.125,13.894-13.833,17.565l-.132.1,2.6,3.042.121-.1a38.8,38.8,0,0,0,5.963-6.11v23.617h3.8v-27.9a61.967,61.967,0,0,0,4.885-7.293c.177-.338.443-.816.443-.816l.078-.14-3.855-2.133Z" transform="translate(-436.831 -914.174)"/>
      <path id="パス_81896" data-name="パス 81896" d="M815.022,943.407l-1.327-2.979-.141.052c-2.385.874-3.983,1.421-6.224,2.122V929.577h5.486v-3.515h-5.435v-12.8h7.433v-3.284h-20.94v3.284h9.812v30.247c-1.529.488-3.081.929-4.583,1.357V922.009h-.159s-2.112-.011-3.166-.011h-.16V945.76c-.889.3-1.831.578-2.666.824-.339.1-.664.2-.964.286l-.148.045,1.074,4.053.155-.041c.639-.167,1.125-.332,1.516-.465l.188-.064c1.85-.624,3.786-1.254,5.658-1.863,4.827-1.57,9.817-3.193,14.437-5.067Z" transform="translate(-557.989 -902.603)"/>
      <path id="パス_81897" data-name="パス 81897" d="M867.531,928.645c3.359-4.828,5.613-12.311,6.7-22.243h4.6v-3.455H861.874a87.081,87.081,0,0,0,2.714-8.678c.034-.127.073-.26.113-.4a7.758,7.758,0,0,0,.2-.767l.026-.143-.139-.041c-1-.293-1.5-.418-2.255-.607l-.86-.215-.155-.03-.042.151c-2.239,8.136-3.472,12.619-8.359,21.752l-.063.118,2.558,2.042.1-.135a27.974,27.974,0,0,0,1.64-2.629,53.721,53.721,0,0,0,5.679,15.21,30.084,30.084,0,0,1-14.685,11.228l-.222.083,2.713,2.924.1-.038a33.741,33.741,0,0,0,14.443-11.131A34.137,34.137,0,0,0,877.227,942.6l.113.061.084-.1c.381-.442.75-.909,1.107-1.362.534-.677,1.087-1.376,1.683-2l.162-.169-.216-.09A30.173,30.173,0,0,1,867.531,928.645Zm-2.162-3.388c-2.609-3.954-4.809-12.067-5.672-16.674.152-.36.315-.732.478-1.1s.318-.725.467-1.076h9.533A48.956,48.956,0,0,1,865.368,925.257Z" transform="translate(-594.873 -890.866)"/>
      <path id="パス_81898" data-name="パス 81898" d="M1023.873,897.01H1009.48v-3.086l.036-1.435-.155-.009c-.812-.043-1.559-.031-2.349-.016-.4.008-.8.016-1.227.016h-.16v4.53H991.49v3.1h14.187v3.136h-20.83V906.3h20.83v2.817H991.6v2.87h14.08v3.222H990.859v2.931h14.818V921.3h-20.83v2.931h46.57V921.3h-21.994v-3.162h15.613v-2.931h-15.613v-3.222h14.449v-5.919h7.544v-3.052h-7.544Zm-3.906,12.107h-10.544v-2.933h10.544Zm0-5.868h-10.544V900h10.544Z" transform="translate(-684.469 -891.115)"/>
      <path id="パス_81899" data-name="パス 81899" d="M1005.813,1008.065h32.066V993h-32.066Zm3.64-12.193h24.679v3.136h-24.679Zm0,6.007h24.679v3.138h-24.679Z" transform="translate(-698.209 -957.007)"/>
      <path id="パス_81900" data-name="パス 81900" d="M1191.539,896.354h-4.275v17.121h-19.722v3.8h19.774V938.95h-16.927v3.687h38.554V938.95h-17.455V917.277h19.984v-3.8h-19.933Z" transform="translate(-804.192 -893.672)"/>
      <path id="パス_81901" data-name="パス 81901" d="M1379.209,914.506H1364.3v-3.365h14.551V900.783H1364.3V897.3h18.841v-3.234h-18.79V889.6l-3.865-1.026v5.495h-18.891V897.3h18.943v3.481h-14.245v10.358h14.245v3.365h-14.347v3.12h14.347v3.886h-20.372v3.293h20.372v3.829h-14.5v3.293h14.5c0,2.218-.1,3.729-1.071,4.45a18.227,18.227,0,0,1-3.971,1.849l-.157.053,1.06,3.359.163-.052c5.847-1.892,7.738-3.009,7.738-9.017v-.641h14.909v-7.122h6.127V921.4h-6.127ZM1364.3,903.729h10.687v4.582H1364.3Zm-3.763,4.582h-10.484v-4.582h10.484Zm14.91,20.438H1364.3v-3.945h11.147Zm0-7.237H1364.3v-3.944h11.147Z" transform="translate(-917.315 -888.573)"/>
      <path id="パス_81902" data-name="パス 81902" d="M1582.486,970.5l0-.13-3.313-1.03.012.244a23.3,23.3,0,0,1-.4,5.263h-8.558v2.888h8.195c-.964,3.579-3.139,8.675-10.507,12.524l-.209.109,2.207,2.136.108-.056c6.716-3.44,10.31-8.053,11.638-14.944H1588a34.511,34.511,0,0,1-.559,7.2c-.918,3.829-3.338,4.444-6.407,4.851l-.254.034,1.645,2.8.107-.009c3.651-.311,6.056-1.262,7.543-5.2,1.1-2.766,1.288-9.111,1.378-12.161l.005-.174h-9.345A30.513,30.513,0,0,0,1582.486,970.5Z" transform="translate(-1066.433 -941.498)"/>
      <path id="パス_81903" data-name="パス 81903" d="M1588.069,911.161a33.356,33.356,0,0,0,4.88-9.929h4.146v-3h-15.181a45.733,45.733,0,0,0,2.3-4.391l.063-.137-3.135-1.958-.069.2a39.887,39.887,0,0,1-7.8,13.235l-.111.12,2.18,2.2.121-.122a25.466,25.466,0,0,0,2.684-3.154,40.246,40.246,0,0,0,5.262,7.492,23.139,23.139,0,0,1-9.072,5.863l-.226.088.16.182a20.785,20.785,0,0,1,1.823,2.355l.073.113.126-.044a29.054,29.054,0,0,0,9.609-6.469,29.184,29.184,0,0,0,10.636,6.123l.132.043,2.063-3.548-.207-.062A33.145,33.145,0,0,1,1588.069,911.161Zm-2.2-2.057a23.168,23.168,0,0,1-5.555-7.876l.037-.111h9.139A21.265,21.265,0,0,1,1585.868,909.1Z" transform="translate(-1070.003 -890.651)"/>
      <path id="パス_81904" data-name="パス 81904" d="M1532.062,914.787h-7.233l1.3-1.321-.091-.119a18.655,18.655,0,0,0-2.284-2.508c2.3-2.25,6.385-6.336,7.473-12.005l.039-.2h-17.124v3.293h12.219a27.282,27.282,0,0,1-4.749,6.715c-1.2-1.134-2.453-2.267-3.662-3.365l-.132-.12-.114.138c-.7.844-1.375,1.676-2.046,2.554l-.1.136.135.1a70.069,70.069,0,0,1,7.412,6.759h-10.338v3h7.966c-1.5,5.643-5.709,13.075-9.456,16.672l-.132.127,2.336,2.113.114-.11a36.319,36.319,0,0,0,7.749-12.119v12.719c0,3.865-1.2,5.817-4.28,6.962l-.242.09,2.4,2.529.107-.042c4.5-1.8,5.264-4.414,5.264-9.6V917.675h3.972a24.115,24.115,0,0,1-2.116,7.439l-.075.152,2.764,1.38.079-.141c1.628-2.891,2.6-8.61,2.83-11.534Z" transform="translate(-1029.36 -895.165)"/>
      <path id="パス_81905" data-name="パス 81905" d="M1701.46,931.559h-15.766l0,.174c.068,2.737.046,5.522.023,8.216-.011,1.37-.023,2.742-.023,4.113,0,7.391-.656,15.675-5.521,21.077l-.136.152,3,1.86.1-.1c3.978-4.168,5.882-12.248,6.018-18.477h12.309Zm-3.609,14.012h-8.646V934.447h8.646Z" transform="translate(-1140.042 -916.742)"/>
      <path id="パス_81906" data-name="パス 81906" d="M1743.667,914.4c0-3.538,0-6.619-.05-10.092,2.924-.4,12.079-2.788,14.232-3.368l.222-.059-.122-.2a30.079,30.079,0,0,1-1.731-3.195l-.055-.159-.16.052a116.063,116.063,0,0,1-16.005,3.7l-.146.023v.148q.026,2.407.063,4.8c.044,3.126.091,6.359.091,9.559,0,10.626,0,20.663-8.916,27.132l-.2.145.206.136c.95.624,1.932,1.27,2.85,1.964l.1.079.1-.08c8.225-6.413,9.4-16.924,9.41-27.352h6.4v28.023h3.762V917.632h5.871V914.4Z" transform="translate(-1173.365 -894.31)"/>
      <rect id="長方形_10321" data-name="長方形 10321" width="15.64" height="3.524" transform="translate(545.778 4.915)"/>
    </g>
    <g id="グループ_22807" data-name="グループ 22807" transform="translate(279.504 89.798)">
      <path id="パス_81907" data-name="パス 81907" d="M815.864,153.309c-20.077-16.776-45.329-25.282-75.055-25.282h-.237c-29.725,0-54.978,8.506-75.055,25.282-18.108,15.13-31.209,36.661-37.887,62.263-3.174,12.168-7.152,38.293-1.928,59.027,10.648,42.264,47.224,61.949,115.106,61.949,63.283,0,105.15-22.574,114.867-61.933,5.173-20.951,1.224-46.972-1.924-59.043C847.073,189.97,833.972,168.439,815.864,153.309ZM667.484,241.456c-12.127-6.978-15.408-21.711-6.408-37.757,10.331-18.42,36.205-35.485,51.787-23.981,10.855,8.015,6.761,26.431-6.07,44.349C694.5,241.238,677.883,247.44,667.484,241.456Zm128.154,36.985A19.8,19.8,0,0,1,784.445,291.7a34.709,34.709,0,0,1-13.642,2.664,41.378,41.378,0,0,1-8.927-.99c-9.606-2.125-16.775-6.695-21.066-13.121-4.291,6.426-11.46,11-21.066,13.121a41.374,41.374,0,0,1-8.927.99,34.71,34.71,0,0,1-13.642-2.664,19.8,19.8,0,0,1-11.194-13.263c-.913-3.552-.7-6.849.492-7.155,2.063-.528,3.551,2.3,5.23,4.655a20.506,20.506,0,0,0,9.1,7.3,28.1,28.1,0,0,0,16.953,1.147c8.416-1.862,18.448-6.867,18.448-20.128v-4.5c-6.838-2.4-11.86-9.966-11.86-15.834,0-7.063,7.267-10.056,16.232-10.056s16.232,2.993,16.232,10.056c0,5.736-4.792,13.112-11.395,15.682v4.606c0,.016,0,.031,0,.048,0,13.261,10.032,18.265,18.448,20.128a28.1,28.1,0,0,0,16.953-1.147,20.509,20.509,0,0,0,9.1-7.3c1.679-2.351,3.167-5.182,5.23-4.655C796.342,271.593,796.552,274.889,795.638,278.441Zm17.954-36.919c-10.419,5.949-27.012-.309-39.25-17.52-12.771-17.96-16.8-36.39-5.922-44.369,15.621-11.452,41.438,5.7,51.707,24.154C829.073,219.864,825.743,234.585,813.593,241.522Z" transform="translate(-613.574 -114.85)" fill="#fff"/>
      <path id="パス_81908" data-name="パス 81908" d="M769.108,315.241c12.831-17.917,16.926-36.334,6.07-44.349-15.582-11.5-41.457,5.561-51.787,23.981-9,16.046-5.718,30.778,6.408,37.757C740.2,338.614,756.813,332.411,769.108,315.241Z" transform="translate(-675.89 -206.024)"/>
      <path id="パス_81909" data-name="パス 81909" d="M1032.606,270.721c-10.882,7.979-6.849,26.409,5.922,44.369,12.239,17.211,28.832,23.469,39.251,17.52,12.15-6.937,15.48-21.658,6.535-37.734C1074.044,276.421,1048.226,259.269,1032.606,270.721Z" transform="translate(-877.76 -205.937)"/>
      <path id="パス_81910" data-name="パス 81910" d="M913.487,472.511c-2.063-.528-3.551,2.3-5.23,4.655a20.51,20.51,0,0,1-9.1,7.3,28.1,28.1,0,0,1-16.953,1.147c-8.417-1.862-18.448-6.867-18.448-20.128,0-.017,0-.031,0-.048v-4.606c6.6-2.57,11.395-9.946,11.395-15.682,0-7.063-7.267-10.056-16.232-10.056s-16.232,2.993-16.232,10.056c0,5.868,5.022,13.435,11.86,15.834v4.5c0,13.261-10.032,18.265-18.448,20.128a28.1,28.1,0,0,1-16.953-1.147,20.506,20.506,0,0,1-9.1-7.3c-1.68-2.351-3.167-5.182-5.231-4.655-1.2.306-1.405,3.6-.492,7.155a19.8,19.8,0,0,0,11.194,13.263,34.71,34.71,0,0,0,13.642,2.664,41.373,41.373,0,0,0,8.927-.99c9.606-2.125,16.775-6.695,21.066-13.121,4.291,6.426,11.461,11,21.066,13.121a41.378,41.378,0,0,0,8.927.99,34.709,34.709,0,0,0,13.641-2.664,19.8,19.8,0,0,0,11.193-13.263C914.893,476.113,914.683,472.817,913.487,472.511Z" transform="translate(-731.915 -316.074)"/>
      <path id="パス_81911" data-name="パス 81911" d="M849.327,128.988a39.188,39.188,0,0,0-71.22-22.578c-16.642-7.712-35.322-11.621-55.542-11.621h-.236c-20.289,0-39.028,3.938-55.719,11.708a39.189,39.189,0,1,0-54.9,54.363,143.811,143.811,0,0,0-10.247,27.6c-.929,3.561-8.876,35.586-1.946,63.093,11.712,46.485,50.81,68.135,123.045,68.135,67.358,0,112.122-24.842,122.816-68.157,5.565-22.543,1.392-50.252-1.952-63.071a143.723,143.723,0,0,0-10.312-27.725A39.2,39.2,0,0,0,849.327,128.988ZM835.507,190.52c3.148,12.071,7.1,38.092,1.924,59.043-9.717,39.359-51.585,61.933-114.867,61.933-67.882,0-104.458-19.685-115.105-61.949-5.224-20.734-1.245-46.859,1.929-59.027,6.677-25.6,19.778-47.133,37.886-62.263,20.077-16.776,45.33-25.282,75.055-25.282h.237c29.725,0,54.977,8.506,75.055,25.282C815.729,143.387,828.83,164.918,835.507,190.52Z" transform="translate(-595.331 -89.798)"/>
    </g>
    <g id="グループ_22810" data-name="グループ 22810" transform="translate(144.83 441.724)">
      <path id="パス_81912" data-name="パス 81912" d="M204.612,1118.486v-.035a6.326,6.326,0,0,1,6.35-6.494,6.534,6.534,0,0,1,4.9,1.991l-.969,1.041a5.458,5.458,0,0,0-3.947-1.722,4.924,4.924,0,0,0-4.861,5.149v.036a4.956,4.956,0,0,0,4.861,5.185,5.452,5.452,0,0,0,4.055-1.813l.933.916a6.538,6.538,0,0,1-5.023,2.207A6.264,6.264,0,0,1,204.612,1118.486Z" transform="translate(-204.612 -1111.562)" fill="#1a1311" stroke="#1a1311" stroke-miterlimit="10" stroke-width="0.252"/>
      <path id="パス_81913" data-name="パス 81913" d="M245.682,1126.394v-.036a4.575,4.575,0,0,1,4.449-4.826c2.745,0,4.323,2.189,4.323,4.9a3.606,3.606,0,0,1-.018.449h-7.355a3.239,3.239,0,0,0,3.266,3.139,3.834,3.834,0,0,0,2.924-1.309l.861.772a4.789,4.789,0,0,1-3.821,1.74A4.611,4.611,0,0,1,245.682,1126.394Zm7.373-.538c-.143-1.686-1.112-3.157-2.96-3.157a3.2,3.2,0,0,0-3.015,3.157Z" transform="translate(-231.526 -1117.838)" fill="#1a1311" stroke="#1a1311" stroke-miterlimit="10" stroke-width="0.252"/>
      <path id="パス_81914" data-name="パス 81914" d="M282.07,1121.793h1.382v2.422a3.971,3.971,0,0,1,3.785-2.583v1.488h-.108c-2.027,0-3.677,1.453-3.677,4.252v3.7H282.07Z" transform="translate(-255.372 -1117.9)" fill="#1a1311" stroke="#1a1311" stroke-miterlimit="10" stroke-width="0.252"/>
      <path id="パス_81915" data-name="パス 81915" d="M306.008,1123.6V1118h-1.292v-1.22h1.292v-2.8h1.381v2.8h2.943V1118h-2.943v5.417a1.373,1.373,0,0,0,1.561,1.543,2.908,2.908,0,0,0,1.346-.323v1.184a3.476,3.476,0,0,1-1.668.394A2.361,2.361,0,0,1,306.008,1123.6Z" transform="translate(-270.212 -1112.892)" fill="#1a1311" stroke="#1a1311" stroke-miterlimit="10" stroke-width="0.252"/>
      <path id="パス_81916" data-name="パス 81916" d="M332.1,1111.8h1.579v1.525H332.1Zm.09,3.553h1.382v9.274h-1.382Z" transform="translate(-288.155 -1111.46)" fill="#1a1311" stroke="#1a1311" stroke-miterlimit="10" stroke-width="0.252"/>
      <path id="パス_81917" data-name="パス 81917" d="M348.674,1115.925H347.4v-1.2h1.274v-.808a3.273,3.273,0,0,1,.807-2.386,2.73,2.73,0,0,1,1.991-.718,4.192,4.192,0,0,1,1.526.233v1.2a4.628,4.628,0,0,0-1.346-.234c-1.077,0-1.615.646-1.615,1.974v.753h2.943v1.184h-2.924v8.055h-1.381Z" transform="translate(-298.183 -1110.812)" fill="#1a1311" stroke="#1a1311" stroke-miterlimit="10" stroke-width="0.252"/>
      <g id="グループ_22808" data-name="グループ 22808" transform="translate(62.422 0.071)">
        <path id="パス_81918" data-name="パス 81918" d="M385.713,1126.394v-.036a4.575,4.575,0,0,1,4.449-4.826c2.745,0,4.324,2.189,4.324,4.9a3.54,3.54,0,0,1-.018.449h-7.355a3.238,3.238,0,0,0,3.265,3.139,3.835,3.835,0,0,0,2.924-1.309l.861.772a4.788,4.788,0,0,1-3.821,1.74A4.61,4.61,0,0,1,385.713,1126.394Zm7.373-.538c-.144-1.686-1.112-3.157-2.96-3.157a3.2,3.2,0,0,0-3.013,3.157Z" transform="translate(-385.713 -1117.909)" fill="#1a1311" stroke="#1a1311" stroke-miterlimit="10" stroke-width="0.252"/>
        <path id="パス_81919" data-name="パス 81919" d="M420.54,1119.5v-.036a4.551,4.551,0,0,1,4.431-4.826,4.183,4.183,0,0,1,3.552,1.973v-5.6H429.9v13.1h-1.382v-1.866a4.17,4.17,0,0,1-3.552,2.063A4.524,4.524,0,0,1,420.54,1119.5Zm8.037-.018v-.035a3.447,3.447,0,0,0-3.355-3.571,3.273,3.273,0,0,0-3.264,3.571v.035a3.35,3.35,0,0,0,3.264,3.588A3.464,3.464,0,0,0,428.577,1119.486Z" transform="translate(-408.536 -1111.019)" fill="#1a1311" stroke="#1a1311" stroke-miterlimit="10" stroke-width="0.252"/>
        <path id="パス_81920" data-name="パス 81920" d="M483.369,1112.321H484.7l5.723,12.648H488.9l-1.471-3.319H480.59l-1.489,3.319h-1.453Zm3.5,8.037-2.852-6.386-2.87,6.386Z" transform="translate(-445.959 -1111.872)" fill="#1a1311" stroke="#1a1311" stroke-miterlimit="10" stroke-width="0.252"/>
        <path id="パス_81921" data-name="パス 81921" d="M521.22,1119.5v-.036a4.551,4.551,0,0,1,4.431-4.826,4.183,4.183,0,0,1,3.552,1.973v-5.6h1.382v13.1H529.2v-1.866a4.169,4.169,0,0,1-3.552,2.063A4.524,4.524,0,0,1,521.22,1119.5Zm8.037-.018v-.035a3.447,3.447,0,0,0-3.355-3.571,3.273,3.273,0,0,0-3.265,3.571v.035a3.35,3.35,0,0,0,3.265,3.588A3.463,3.463,0,0,0,529.257,1119.486Z" transform="translate(-474.513 -1111.019)" fill="#1a1311" stroke="#1a1311" stroke-miterlimit="10" stroke-width="0.252"/>
        <path id="パス_81922" data-name="パス 81922" d="M561.251,1121.731h1.382v1.56a3.388,3.388,0,0,1,3-1.758,3.151,3.151,0,0,1,2.978,1.848,3.7,3.7,0,0,1,3.265-1.848c2.135,0,3.444,1.435,3.444,3.732v5.741h-1.381v-5.418c0-1.794-.9-2.8-2.4-2.8a2.584,2.584,0,0,0-2.548,2.87v5.346H567.6v-5.454c0-1.74-.915-2.763-2.386-2.763a2.688,2.688,0,0,0-2.583,2.924v5.292h-1.382Z" transform="translate(-500.746 -1117.909)" fill="#1a1311" stroke="#1a1311" stroke-miterlimit="10" stroke-width="0.252"/>
        <path id="パス_81923" data-name="パス 81923" d="M614.765,1111.8h1.579v1.525h-1.579Zm.09,3.553h1.382v9.274h-1.382Z" transform="translate(-535.815 -1111.531)" fill="#1a1311" stroke="#1a1311" stroke-miterlimit="10" stroke-width="0.252"/>
        <path id="パス_81924" data-name="パス 81924" d="M632.255,1121.731h1.382v1.614a3.511,3.511,0,0,1,3.176-1.812,3.388,3.388,0,0,1,3.552,3.713v5.759h-1.382v-5.418c0-1.722-.932-2.8-2.565-2.8a2.728,2.728,0,0,0-2.78,2.906v5.31h-1.382Z" transform="translate(-547.276 -1117.909)" fill="#1a1311" stroke="#1a1311" stroke-miterlimit="10" stroke-width="0.252"/>
        <path id="パス_81925" data-name="パス 81925" d="M668.332,1111.8h1.579v1.525h-1.579Zm.089,3.553H669.8v9.274h-1.382Z" transform="translate(-570.918 -1111.531)" fill="#1a1311" stroke="#1a1311" stroke-miterlimit="10" stroke-width="0.252"/>
        <path id="パス_81926" data-name="パス 81926" d="M683.585,1129.89l.7-.987a5.418,5.418,0,0,0,3.21,1.184c1.113,0,1.92-.574,1.92-1.471v-.036c0-.932-1.094-1.292-2.314-1.632-1.453-.413-3.067-.916-3.067-2.62v-.036c0-1.6,1.327-2.655,3.157-2.655a6.332,6.332,0,0,1,3.336,1.023l-.627,1.04a5.245,5.245,0,0,0-2.745-.9c-1.095,0-1.794.574-1.794,1.345v.036c0,.879,1.148,1.22,2.387,1.6,1.435.431,2.978.987,2.978,2.655v.036c0,1.758-1.453,2.781-3.3,2.781A6.378,6.378,0,0,1,683.585,1129.89Z" transform="translate(-580.914 -1117.978)" fill="#1a1311" stroke="#1a1311" stroke-miterlimit="10" stroke-width="0.252"/>
        <path id="パス_81927" data-name="パス 81927" d="M714.082,1123.6V1118H712.79v-1.22h1.292v-2.8h1.381v2.8h2.943V1118h-2.943v5.417a1.373,1.373,0,0,0,1.561,1.543,2.908,2.908,0,0,0,1.346-.323v1.184a3.476,3.476,0,0,1-1.668.394A2.361,2.361,0,0,1,714.082,1123.6Z" transform="translate(-600.052 -1112.963)" fill="#1a1311" stroke="#1a1311" stroke-miterlimit="10" stroke-width="0.252"/>
        <path id="パス_81928" data-name="パス 81928" d="M740.066,1121.793h1.382v2.422a3.97,3.97,0,0,1,3.785-2.583v1.488h-.107c-2.027,0-3.677,1.453-3.677,4.252v3.7h-1.382Z" transform="translate(-617.927 -1117.971)" fill="#1a1311" stroke="#1a1311" stroke-miterlimit="10" stroke-width="0.252"/>
        <path id="パス_81929" data-name="パス 81929" d="M761.722,1128.45v-.036c0-1.955,1.615-3,3.964-3a9.867,9.867,0,0,1,2.853.395v-.323c0-1.668-1.023-2.529-2.763-2.529a6.456,6.456,0,0,0-2.816.682l-.414-1.13a7.656,7.656,0,0,1,3.373-.772,4.071,4.071,0,0,1,3,1.023,3.662,3.662,0,0,1,.95,2.709v5.669h-1.327v-1.4a4.066,4.066,0,0,1-3.355,1.6C763.462,1131.339,761.722,1130.351,761.722,1128.45Zm6.835-.718v-.9a9.65,9.65,0,0,0-2.726-.395c-1.74,0-2.71.753-2.71,1.919v.036c0,1.166,1.077,1.848,2.333,1.848C767.158,1130.244,768.557,1129.2,768.557,1127.732Z" transform="translate(-632.118 -1118.045)" fill="#1a1311" stroke="#1a1311" stroke-miterlimit="10" stroke-width="0.252"/>
        <path id="パス_81930" data-name="パス 81930" d="M796.488,1123.6V1118H795.2v-1.22h1.292v-2.8h1.381v2.8h2.942V1118h-2.942v5.417a1.372,1.372,0,0,0,1.56,1.543,2.911,2.911,0,0,0,1.346-.323v1.184a3.479,3.479,0,0,1-1.668.394A2.361,2.361,0,0,1,796.488,1123.6Z" transform="translate(-654.054 -1112.963)" fill="#1a1311" stroke="#1a1311" stroke-miterlimit="10" stroke-width="0.252"/>
        <path id="パス_81931" data-name="パス 81931" d="M822.574,1111.8h1.579v1.525h-1.579Zm.089,3.553h1.382v9.274h-1.382Z" transform="translate(-671.996 -1111.531)" fill="#1a1311" stroke="#1a1311" stroke-miterlimit="10" stroke-width="0.252"/>
        <path id="パス_81932" data-name="パス 81932" d="M837.411,1122.107h1.525l3.121,7.7,3.139-7.7h1.489l-4.036,9.346h-1.219Z" transform="translate(-681.719 -1118.285)" fill="#1a1311" stroke="#1a1311" stroke-miterlimit="10" stroke-width="0.252"/>
        <path id="パス_81933" data-name="パス 81933" d="M871.3,1126.394v-.036a4.575,4.575,0,0,1,4.449-4.826c2.745,0,4.324,2.189,4.324,4.9a3.534,3.534,0,0,1-.018.449H872.7a3.239,3.239,0,0,0,3.266,3.139,3.834,3.834,0,0,0,2.924-1.309l.861.772a4.788,4.788,0,0,1-3.821,1.74A4.61,4.61,0,0,1,871.3,1126.394Zm7.373-.538c-.144-1.686-1.112-3.157-2.96-3.157a3.2,3.2,0,0,0-3.015,3.157Z" transform="translate(-703.924 -1117.909)" fill="#1a1311" stroke="#1a1311" stroke-miterlimit="10" stroke-width="0.252"/>
        <path id="パス_81934" data-name="パス 81934" d="M927.884,1112.58h4.7c2.834,0,4.7,1.507,4.7,3.983v.035c0,2.709-2.26,4.109-4.934,4.109H929.3v4.431h-1.417Zm4.52,6.835c2.082,0,3.444-1.112,3.444-2.763v-.036c0-1.794-1.345-2.727-3.372-2.727H929.3v5.526Z" transform="translate(-741.007 -1112.042)" fill="#1a1311" stroke="#1a1311" stroke-miterlimit="10" stroke-width="0.252"/>
        <path id="パス_81935" data-name="パス 81935" d="M964.845,1121.793h1.382v2.422a3.971,3.971,0,0,1,3.785-2.583v1.488H969.9c-2.027,0-3.677,1.453-3.677,4.252v3.7h-1.382Z" transform="translate(-765.228 -1117.971)" fill="#1a1311" stroke="#1a1311" stroke-miterlimit="10" stroke-width="0.252"/>
        <path id="パス_81936" data-name="パス 81936" d="M987.022,1126.413v-.036a4.835,4.835,0,0,1,9.67-.035v.035a4.816,4.816,0,0,1-4.861,4.844A4.752,4.752,0,0,1,987.022,1126.413Zm8.253,0v-.036a3.51,3.51,0,0,0-3.444-3.624,3.424,3.424,0,0,0-3.391,3.589v.035a3.48,3.48,0,0,0,3.426,3.606A3.423,3.423,0,0,0,995.275,1126.413Z" transform="translate(-779.761 -1117.909)" fill="#1a1311" stroke="#1a1311" stroke-miterlimit="10" stroke-width="0.252"/>
        <path id="パス_81937" data-name="パス 81937" d="M1024.555,1126.413v-.036a4.83,4.83,0,0,1,8.467-3.193l-.914.969a3.745,3.745,0,0,0-2.817-1.4,3.423,3.423,0,0,0-3.319,3.589v.035a3.466,3.466,0,0,0,3.409,3.606,3.83,3.83,0,0,0,2.834-1.381l.879.825a4.8,4.8,0,0,1-8.539-3.014Z" transform="translate(-804.357 -1117.909)" fill="#1a1311" stroke="#1a1311" stroke-miterlimit="10" stroke-width="0.252"/>
        <path id="パス_81938" data-name="パス 81938" d="M1057.4,1126.394v-.036a4.575,4.575,0,0,1,4.449-4.826c2.745,0,4.324,2.189,4.324,4.9a3.511,3.511,0,0,1-.018.449H1058.8a3.238,3.238,0,0,0,3.265,3.139,3.835,3.835,0,0,0,2.924-1.309l.861.772a4.788,4.788,0,0,1-3.821,1.74A4.61,4.61,0,0,1,1057.4,1126.394Zm7.374-.538c-.144-1.686-1.112-3.157-2.96-3.157a3.2,3.2,0,0,0-3.013,3.157Z" transform="translate(-825.883 -1117.909)" fill="#1a1311" stroke="#1a1311" stroke-miterlimit="10" stroke-width="0.252"/>
        <path id="パス_81939" data-name="パス 81939" d="M1092.23,1119.5v-.036a4.551,4.551,0,0,1,4.431-4.826,4.183,4.183,0,0,1,3.552,1.973v-5.6h1.382v13.1h-1.382v-1.866a4.17,4.17,0,0,1-3.552,2.063A4.524,4.524,0,0,1,1092.23,1119.5Zm8.037-.018v-.035a3.447,3.447,0,0,0-3.355-3.571,3.273,3.273,0,0,0-3.264,3.571v.035a3.35,3.35,0,0,0,3.264,3.588A3.463,3.463,0,0,0,1100.267,1119.486Z" transform="translate(-848.706 -1111.019)" fill="#1a1311" stroke="#1a1311" stroke-miterlimit="10" stroke-width="0.252"/>
        <path id="パス_81940" data-name="パス 81940" d="M1131.845,1127.866v-5.759h1.382v5.417c0,1.722.932,2.8,2.565,2.8a2.739,2.739,0,0,0,2.78-2.906v-5.31h1.364v9.274h-1.364v-1.615a3.533,3.533,0,0,1-3.176,1.812A3.388,3.388,0,0,1,1131.845,1127.866Z" transform="translate(-874.666 -1118.285)" fill="#1a1311" stroke="#1a1311" stroke-miterlimit="10" stroke-width="0.252"/>
        <path id="パス_81941" data-name="パス 81941" d="M1168.233,1121.793h1.382v2.422a3.972,3.972,0,0,1,3.785-2.583v1.488h-.107c-2.027,0-3.677,1.453-3.677,4.252v3.7h-1.382Z" transform="translate(-898.512 -1117.971)" fill="#1a1311" stroke="#1a1311" stroke-miterlimit="10" stroke-width="0.252"/>
        <path id="パス_81942" data-name="パス 81942" d="M1190.41,1126.394v-.036a4.575,4.575,0,0,1,4.449-4.826c2.745,0,4.324,2.189,4.324,4.9a3.534,3.534,0,0,1-.018.449h-7.355a3.239,3.239,0,0,0,3.266,3.139,3.835,3.835,0,0,0,2.924-1.309l.861.772a4.789,4.789,0,0,1-3.821,1.74A4.61,4.61,0,0,1,1190.41,1126.394Zm7.374-.538c-.144-1.686-1.112-3.157-2.96-3.157a3.2,3.2,0,0,0-3.015,3.157Z" transform="translate(-913.045 -1117.909)" fill="#1a1311" stroke="#1a1311" stroke-miterlimit="10" stroke-width="0.252"/>
        <path id="パス_81943" data-name="パス 81943" d="M1224.562,1129.89l.7-.987a5.421,5.421,0,0,0,3.211,1.184c1.113,0,1.92-.574,1.92-1.471v-.036c0-.932-1.094-1.292-2.314-1.632-1.453-.413-3.068-.916-3.068-2.62v-.036c0-1.6,1.328-2.655,3.157-2.655a6.333,6.333,0,0,1,3.337,1.023l-.627,1.04a5.248,5.248,0,0,0-2.745-.9c-1.095,0-1.794.574-1.794,1.345v.036c0,.879,1.148,1.22,2.386,1.6,1.435.431,2.978.987,2.978,2.655v.036c0,1.758-1.453,2.781-3.3,2.781A6.378,6.378,0,0,1,1224.562,1129.89Z" transform="translate(-935.425 -1117.978)" fill="#1a1311" stroke="#1a1311" stroke-miterlimit="10" stroke-width="0.252"/>
        <path id="パス_81944" data-name="パス 81944" d="M1276.827,1112.58h1.417v11.248h7.068v1.31h-8.485Z" transform="translate(-969.675 -1112.042)" fill="#1a1311" stroke="#1a1311" stroke-miterlimit="10" stroke-width="0.252"/>
        <path id="パス_81945" data-name="パス 81945" d="M1309.046,1126.394v-.036a4.575,4.575,0,0,1,4.449-4.826c2.745,0,4.323,2.189,4.323,4.9a3.606,3.606,0,0,1-.018.449h-7.355a3.238,3.238,0,0,0,3.265,3.139,3.835,3.835,0,0,0,2.924-1.309l.861.772a4.788,4.788,0,0,1-3.821,1.74A4.611,4.611,0,0,1,1309.046,1126.394Zm7.374-.538c-.144-1.686-1.112-3.157-2.96-3.157a3.2,3.2,0,0,0-3.013,3.157Z" transform="translate(-990.789 -1117.909)" fill="#1a1311" stroke="#1a1311" stroke-miterlimit="10" stroke-width="0.252"/>
        <path id="パス_81946" data-name="パス 81946" d="M1343.263,1132.62l.628-1.077a5.922,5.922,0,0,0,3.57,1.184,3.049,3.049,0,0,0,3.372-3.3v-1.094a4.4,4.4,0,0,1-3.641,1.955,4.288,4.288,0,0,1-4.359-4.342v-.036a4.39,4.39,0,0,1,7.982-2.511v-1.668h1.382v7.659a4.466,4.466,0,0,1-1.184,3.283,4.874,4.874,0,0,1-3.534,1.238A7.27,7.27,0,0,1,1343.263,1132.62Zm7.606-6.692v-.035a3.25,3.25,0,0,0-3.408-3.14,3.068,3.068,0,0,0-3.211,3.122v.035a3.139,3.139,0,0,0,3.211,3.157A3.273,3.273,0,0,0,1350.869,1125.928Z" transform="translate(-1012.93 -1117.909)" fill="#1a1311" stroke="#1a1311" stroke-miterlimit="10" stroke-width="0.252"/>
        <path id="パス_81947" data-name="パス 81947" d="M1380.833,1128.45v-.036c0-1.955,1.615-3,3.965-3a9.867,9.867,0,0,1,2.852.395v-.323c0-1.668-1.023-2.529-2.763-2.529a6.46,6.46,0,0,0-2.817.682l-.412-1.13a7.655,7.655,0,0,1,3.373-.772,4.071,4.071,0,0,1,3,1.023,3.662,3.662,0,0,1,.95,2.709v5.669h-1.327v-1.4a4.067,4.067,0,0,1-3.355,1.6C1382.573,1131.339,1380.833,1130.351,1380.833,1128.45Zm6.835-.718v-.9a9.659,9.659,0,0,0-2.728-.395c-1.74,0-2.709.753-2.709,1.919v.036c0,1.166,1.077,1.848,2.332,1.848C1386.269,1130.244,1387.669,1129.2,1387.669,1127.732Z" transform="translate(-1037.832 -1118.045)" fill="#1a1311" stroke="#1a1311" stroke-miterlimit="10" stroke-width="0.252"/>
        <path id="パス_81948" data-name="パス 81948" d="M1417.271,1111.019h1.382v13.1h-1.382Z" transform="translate(-1061.711 -1111.019)" fill="#1a1311" stroke="#1a1311" stroke-miterlimit="10" stroke-width="0.252"/>
        <path id="パス_81949" data-name="パス 81949" d="M1452.306,1122.968l.879-1.041a5.979,5.979,0,0,0,4.305,1.776c1.687,0,2.8-.9,2.8-2.135v-.036c0-1.166-.628-1.831-3.266-2.386-2.888-.627-4.215-1.561-4.215-3.623v-.036c0-1.973,1.74-3.427,4.126-3.427a6.55,6.55,0,0,1,4.413,1.543l-.825,1.094a5.517,5.517,0,0,0-3.624-1.363c-1.632,0-2.673.9-2.673,2.027v.035c0,1.184.646,1.848,3.409,2.441,2.8.609,4.09,1.632,4.09,3.552v.036c0,2.154-1.794,3.553-4.287,3.553A7.352,7.352,0,0,1,1452.306,1122.968Z" transform="translate(-1084.67 -1111.702)" fill="#1a1311" stroke="#1a1311" stroke-miterlimit="10" stroke-width="0.252"/>
        <path id="パス_81950" data-name="パス 81950" d="M1489.163,1121.731h1.382v1.865a4.167,4.167,0,0,1,3.552-2.063,4.524,4.524,0,0,1,4.431,4.808v.035a4.541,4.541,0,0,1-4.431,4.826,4.183,4.183,0,0,1-3.552-1.974v4.647h-1.382Zm7.947,4.664v-.036a3.34,3.34,0,0,0-3.265-3.588,3.459,3.459,0,0,0-3.355,3.571v.035a3.452,3.452,0,0,0,3.355,3.588A3.272,3.272,0,0,0,1497.11,1126.394Z" transform="translate(-1108.823 -1117.909)" fill="#1a1311" stroke="#1a1311" stroke-miterlimit="10" stroke-width="0.252"/>
        <path id="パス_81951" data-name="パス 81951" d="M1524.925,1126.394v-.036a4.575,4.575,0,0,1,4.449-4.826c2.745,0,4.324,2.189,4.324,4.9a3.606,3.606,0,0,1-.018.449h-7.355a3.238,3.238,0,0,0,3.265,3.139,3.834,3.834,0,0,0,2.924-1.309l.861.772a4.787,4.787,0,0,1-3.82,1.74A4.611,4.611,0,0,1,1524.925,1126.394Zm7.373-.538c-.144-1.686-1.112-3.157-2.96-3.157a3.2,3.2,0,0,0-3.013,3.157Z" transform="translate(-1132.258 -1117.909)" fill="#1a1311" stroke="#1a1311" stroke-miterlimit="10" stroke-width="0.252"/>
        <path id="パス_81952" data-name="パス 81952" d="M1557.566,1126.413v-.036a4.83,4.83,0,0,1,8.468-3.193l-.914.969a3.746,3.746,0,0,0-2.817-1.4,3.423,3.423,0,0,0-3.319,3.589v.035a3.466,3.466,0,0,0,3.409,3.606,3.828,3.828,0,0,0,2.834-1.381l.879.825a4.8,4.8,0,0,1-8.54-3.014Z" transform="translate(-1153.648 -1117.909)" fill="#1a1311" stroke="#1a1311" stroke-miterlimit="10" stroke-width="0.252"/>
        <path id="パス_81953" data-name="パス 81953" d="M1592.964,1111.8h1.578v1.525h-1.578Zm.089,3.553h1.382v9.274h-1.382Z" transform="translate(-1176.845 -1111.531)" fill="#1a1311" stroke="#1a1311" stroke-miterlimit="10" stroke-width="0.252"/>
        <path id="パス_81954" data-name="パス 81954" d="M1608.425,1128.45v-.036c0-1.955,1.615-3,3.964-3a9.863,9.863,0,0,1,2.853.395v-.323c0-1.668-1.022-2.529-2.763-2.529a6.459,6.459,0,0,0-2.817.682l-.413-1.13a7.655,7.655,0,0,1,3.373-.772,4.07,4.07,0,0,1,3,1.023,3.661,3.661,0,0,1,.951,2.709v5.669h-1.327v-1.4a4.065,4.065,0,0,1-3.355,1.6C1610.165,1131.339,1608.425,1130.351,1608.425,1128.45Zm6.834-.718v-.9a9.647,9.647,0,0,0-2.726-.395c-1.74,0-2.709.753-2.709,1.919v.036c0,1.166,1.077,1.848,2.332,1.848C1613.86,1130.244,1615.26,1129.2,1615.26,1127.732Z" transform="translate(-1186.977 -1118.045)" fill="#1a1311" stroke="#1a1311" stroke-miterlimit="10" stroke-width="0.252"/>
        <path id="パス_81955" data-name="パス 81955" d="M1644.863,1111.019h1.382v13.1h-1.382Z" transform="translate(-1210.856 -1111.019)" fill="#1a1311" stroke="#1a1311" stroke-miterlimit="10" stroke-width="0.252"/>
        <path id="パス_81956" data-name="パス 81956" d="M1662.2,1111.8h1.579v1.525H1662.2Zm.089,3.553h1.382v9.274h-1.382Z" transform="translate(-1222.215 -1111.531)" fill="#1a1311" stroke="#1a1311" stroke-miterlimit="10" stroke-width="0.252"/>
        <path id="パス_81957" data-name="パス 81957" d="M1677.451,1129.89l.7-.987a5.421,5.421,0,0,0,3.211,1.184c1.113,0,1.92-.574,1.92-1.471v-.036c0-.932-1.094-1.292-2.314-1.632-1.453-.413-3.068-.916-3.068-2.62v-.036c0-1.6,1.328-2.655,3.157-2.655a6.334,6.334,0,0,1,3.337,1.023l-.627,1.04a5.248,5.248,0,0,0-2.745-.9c-1.095,0-1.794.574-1.794,1.345v.036c0,.879,1.148,1.22,2.386,1.6,1.435.431,2.978.987,2.978,2.655v.036c0,1.758-1.453,2.781-3.3,2.781A6.378,6.378,0,0,1,1677.451,1129.89Z" transform="translate(-1232.211 -1117.978)" fill="#1a1311" stroke="#1a1311" stroke-miterlimit="10" stroke-width="0.252"/>
        <path id="パス_81958" data-name="パス 81958" d="M1707.949,1123.6V1118h-1.292v-1.22h1.292v-2.8h1.381v2.8h2.942V1118h-2.942v5.417a1.372,1.372,0,0,0,1.56,1.543,2.91,2.91,0,0,0,1.346-.323v1.184a3.477,3.477,0,0,1-1.668.394A2.361,2.361,0,0,1,1707.949,1123.6Z" transform="translate(-1251.35 -1112.963)" fill="#1a1311" stroke="#1a1311" stroke-miterlimit="10" stroke-width="0.252"/>
      </g>
      <g id="グループ_22809" data-name="グループ 22809" transform="translate(58.269 0.34)">
        <path id="パス_81959" data-name="パス 81959" d="M373.664,1111.8h1.579v1.525h-1.579" transform="translate(-373.664 -1111.8)" fill="#1a1311" stroke="#1a1311" stroke-miterlimit="10" stroke-width="0.252"/>
        <path id="パス_81960" data-name="パス 81960" d="M373.976,1131.381v-9.274h1.364v9.274" transform="translate(-373.869 -1118.554)" fill="#1a1311" stroke="#1a1311" stroke-miterlimit="10" stroke-width="0.252"/>
      </g>
    </g>
  </g>
</svg>
