<svg id="グループ_6140" data-name="グループ 6140" xmlns="http://www.w3.org/2000/svg" width="264.233" height="37.048" viewBox="0 0 264.233 37.048">
  <g id="グループ_6068" data-name="グループ 6068" transform="translate(54.045 9.011)">
    <g id="グループ_6067" data-name="グループ 6067" transform="translate(0)">
      <rect id="長方形_318" data-name="長方形 318" width="3.78" height="1.166" transform="translate(116.509 3.185)" fill="none"/>
      <rect id="長方形_319" data-name="長方形 319" width="3.997" height="1.414" transform="translate(160.262 12.991)" fill="none"/>
      <rect id="長方形_320" data-name="長方形 320" width="3.78" height="1.052" transform="translate(116.509 5.403)" fill="none"/>
      <rect id="長方形_321" data-name="長方形 321" width="3.759" height="1.643" transform="translate(155.155 5.434)" fill="none"/>
      <rect id="長方形_322" data-name="長方形 322" width="3.832" height="1.643" transform="translate(160.262 5.434)" fill="none"/>
      <path id="パス_11383" data-name="パス 11383" d="M369.684,450.916V446a4.633,4.633,0,0,0-3.193,4.04c0,1.235.585,2.481,1.89,2.481C369.271,452.524,369.684,452.013,369.684,450.916Z" transform="translate(-365.109 -436.019)" fill="none"/>
      <rect id="長方形_323" data-name="長方形 323" width="8.848" height="1.124" transform="translate(111.594 13.935)" fill="none"/>
      <path id="パス_11384" data-name="パス 11384" d="M649.385,432.837h-3.418c-.054.126-.11.256-.167.386s-.117.267-.172.4a20.028,20.028,0,0,0,2.034,5.978A17.557,17.557,0,0,0,649.385,432.837Z" transform="translate(-550.678 -427.266)" fill="none"/>
      <rect id="長方形_324" data-name="長方形 324" width="8.848" height="1.125" transform="translate(111.594 16.089)" fill="none"/>
      <rect id="長方形_325" data-name="長方形 325" width="3.997" height="1.414" transform="translate(160.262 10.396)" fill="none"/>
      <rect id="長方形_326" data-name="長方形 326" width="3.1" height="3.989" transform="translate(196.898 6.348)" fill="none"/>
      <path id="パス_11385" data-name="パス 11385" d="M908.219,427.414l-.013.039a8.305,8.305,0,0,0,1.991,2.824,7.621,7.621,0,0,0,1.3-2.863Z" transform="translate(-725.239 -423.661)" fill="none"/>
      <path id="パス_11386" data-name="パス 11386" d="M374.412,428.374a5.858,5.858,0,0,0-3.473-1.3,13.441,13.441,0,0,0-2.669.12v-2.7l.793-.04c.865-.042,1.761-.085,2.634-.165l.052-.005v-1.323l-.063.007c-.237.026-.474.053-.711.08a24.445,24.445,0,0,1-2.686.212v-2.934h-1.477v.161c0,.924,0,1.878.018,2.818-.818.039-1.657.059-2.494.059-.573,0-1.114,0-1.681-.02l-.059,0v1.387h.059c.713-.021,1.442-.053,2.147-.083.679-.03,1.381-.06,2.067-.081l.018,2.908a8.094,8.094,0,0,0-3.009,2.04,5.247,5.247,0,0,0-1.509,3.483c0,2.213,1.337,3.7,3.328,3.7,1.7,0,2.592-.963,2.592-2.784v-5.388a6.715,6.715,0,0,1,2.263-.174c1.969.115,3.955,1.294,3.955,3.665,0,2.757-2.182,3.46-4.228,3.9l-.106.023.078.075a8.425,8.425,0,0,1,.789.889l.021.027.034-.005c3.256-.554,4.907-2.2,4.907-4.889A4.639,4.639,0,0,0,374.412,428.374Zm-10.661,4.6a4.633,4.633,0,0,1,3.194-4.04v4.913c0,1.1-.414,1.608-1.3,1.608C364.335,435.456,363.751,434.209,363.751,432.974Z" transform="translate(-362.369 -418.951)"/>
      <path id="パス_11387" data-name="パス 11387" d="M397.868,423.841l-.039-.033-1.043,1.01.047.041a21.633,21.633,0,0,1,2.891,2.915l.039.049,1.1-1.033-.036-.042A25.052,25.052,0,0,0,397.868,423.841Z" transform="translate(-385.249 -421.264)"/>
      <path id="パス_11388" data-name="パス 11388" d="M439.314,422.891l.056.012.328-1.507-.057-.012a42.38,42.38,0,0,0-6.665-.813l-.05,0-.287,1.51h.069A31.949,31.949,0,0,1,439.314,422.891Z" transform="translate(-409.085 -419.111)"/>
      <path id="パス_11389" data-name="パス 11389" d="M433.367,433.957a17.168,17.168,0,0,0-6.983,1.251l-.049.017.361,1.465.059-.02a21.512,21.512,0,0,1,6.232-1.24,2.773,2.773,0,0,1,2.049.765,2.724,2.724,0,0,1,.713,2.006c-.113,4.084-3.822,5.6-7.435,6.548l-.05.013.206,1.322.056-.008a12.454,12.454,0,0,0,5.6-2.14,7.407,7.407,0,0,0,3.116-5.545,4.082,4.082,0,0,0-.878-3.081A4.2,4.2,0,0,0,433.367,433.957Z" transform="translate(-404.893 -427.993)"/>
      <path id="パス_11390" data-name="パス 11390" d="M521.125,418.274l-.027-.044-.918.445.033.054a15.237,15.237,0,0,1,1.131,2.176l.025.059.9-.493-.021-.048A17.4,17.4,0,0,0,521.125,418.274Z" transform="translate(-467.28 -417.556)"/>
      <path id="パス_11391" data-name="パス 11391" d="M495.573,424.807l-.02-.057-.056.023a22.132,22.132,0,0,1-3.9,1.117,25.4,25.4,0,0,1-.828-2.531c.36-.1.751-.191,1.162-.292.53-.13,1.078-.264,1.555-.4l.056-.016-.017-.056c-.053-.175-.1-.331-.138-.488-.054-.2-.109-.4-.185-.644l-.017-.054-.054.016c-.55.164-1.95.5-2.682.641-.177-.759-.321-1.411-.435-2.219h0c-.011-.078-.042-.279-.042-.279l-.009-.054-.055.006c-.506.056-.978.131-1.414.2l-.059.01.013.059c.187.861.369,1.557.581,2.364l.058.223-.194.035c-1.349.247-2.877.528-4.348.722l-.067.009.019.064c.041.135.081.283.123.433.072.265.148.539.233.767l.016.044.046-.007c1.328-.2,2.978-.458,4.533-.771.268.867.529,1.645.838,2.507-1.892.311-3.954.583-5.969.789l-.336.032.277,1.364.053-.006c1.574-.182,3.964-.5,6.432-.973.245.554,1.155,2.49,1.447,3.071-.115-.033-.19-.058-.286-.09l-.1-.033a10.511,10.511,0,0,0-1.863-.358,10.942,10.942,0,0,0-1.539-.047c-1.771.09-3.84.96-3.84,3.114,0,1.363.8,2.335,2.37,2.89a11.789,11.789,0,0,0,3.84.529,13.454,13.454,0,0,0,2.241-.146l.05-.008,0-.051c0-.007-.029-.729-.036-1.193v-.072l-.07.017a8.051,8.051,0,0,1-2.16.195h-.3c-2.944,0-4.5-.793-4.5-2.293,0-.982,1.054-1.513,1.674-1.671a5.244,5.244,0,0,1,1.123-.124,11.313,11.313,0,0,1,4.666,1.078l.04.017.027-.034c.315-.394.611-.733.9-1.037l.036-.038-.034-.04a15.837,15.837,0,0,1-2.381-3.9,39.316,39.316,0,0,0,3.983-1.067l.06-.02-.026-.058C495.867,425.582,495.725,425.242,495.573,424.807Z" transform="translate(-443.215 -418.409)"/>
      <path id="パス_11392" data-name="パス 11392" d="M515.633,420.315l-.029-.048-.9.517.036.051a10.471,10.471,0,0,1,1.053,2.112l.023.059.918-.471-.021-.05A17.642,17.642,0,0,0,515.633,420.315Z" transform="translate(-463.643 -418.91)"/>
      <path id="パス_11393" data-name="パス 11393" d="M564.792,439.566h5.331v6.144c0,1.592-.366,1.777-1.635,2.176l-.04.013-.006,1.588.071-.016c2.572-.6,3.03-1.506,3.03-3.76v-6.144h3.214v-1.239h-9.965Z" transform="translate(-496.939 -430.916)"/>
      <rect id="長方形_327" data-name="長方形 327" width="8.396" height="1.322" transform="translate(68.477 2.042)"/>
      <path id="パス_11394" data-name="パス 11394" d="M547.278,423.537a17.68,17.68,0,0,0,4.151-4.434l.034-.05-.052-.032c-.159-.1-.563-.355-.887-.562-.208-.133-.385-.246-.448-.285l-.054-.033L550,418.2a12.351,12.351,0,0,1-3.774,4.289l-.055.04,1.075,1.033Z" transform="translate(-484.556 -417.497)"/>
      <path id="パス_11395" data-name="パス 11395" d="M549.345,430.681a18.083,18.083,0,0,1-4.96,6.3l-.047.037.931,1.09.043-.035a13.906,13.906,0,0,0,2.138-2.191v8.468h1.363v-10a22.16,22.16,0,0,0,1.751-2.615c.064-.121.159-.292.159-.292l.028-.05-1.382-.765Z" transform="translate(-483.341 -425.794)"/>
      <path id="パス_11396" data-name="パス 11396" d="M620.813,436.1l-.476-1.068-.051.019c-.855.313-1.428.51-2.231.761v-4.67h1.967v-1.26h-1.949V425.29h2.665v-1.178H613.23v1.178h3.518v10.845c-.548.175-1.1.333-1.643.487v-8.2h-.057s-.757,0-1.135,0h-.057v8.52c-.319.108-.657.207-.956.3l-.345.1-.053.016.385,1.453.055-.015c.229-.06.4-.119.544-.167l.067-.023c.663-.224,1.358-.45,2.029-.668,1.73-.563,3.52-1.145,5.176-1.817Z" transform="translate(-528.656 -421.466)"/>
      <path id="パス_11397" data-name="パス 11397" d="M640.209,430.622c1.2-1.731,2.013-4.414,2.4-7.975h1.65v-1.239h-6.08a31.2,31.2,0,0,0,.973-3.111c.012-.046.026-.093.041-.142.027-.09.055-.184.072-.275l.009-.051-.05-.014c-.358-.105-.537-.15-.808-.218l-.308-.077-.055-.011-.015.054a30.748,30.748,0,0,1-3,7.8l-.023.042.917.732.035-.048a10,10,0,0,0,.588-.943A19.252,19.252,0,0,0,638.6,430.6a10.787,10.787,0,0,1-5.265,4.026l-.079.03.973,1.049.036-.014a12.093,12.093,0,0,0,5.178-3.991,12.241,12.241,0,0,0,4.247,3.926l.041.022.03-.035c.136-.158.269-.326.4-.488.191-.243.39-.493.6-.716l.058-.061-.077-.032A10.82,10.82,0,0,1,640.209,430.622Zm-2.637-7.589c.057-.13.114-.26.167-.386h3.418a17.56,17.56,0,0,1-1.723,6.76,20.026,20.026,0,0,1-2.034-5.978C637.455,423.3,637.513,423.166,637.572,423.033Z" transform="translate(-542.451 -417.077)"/>
      <path id="パス_11398" data-name="パス 11398" d="M697.651,419.283h-5.16v-1.106l.013-.515-.056,0c-.292-.015-.559-.011-.842-.005-.143,0-.288.005-.44.005h-.058v1.624h-5.068V420.4h5.087v1.125h-7.468v1.094h7.468v1.01h-5.048v1.029h5.048v1.155h-5.313v1.051h5.313v1.134h-7.468v1.051h16.7v-1.051H692.47V426.86h5.6v-1.051h-5.6v-1.155h5.181v-2.122h2.705v-1.094h-2.705Zm-1.4,3.289v1.052h-3.78v-1.052Zm-3.78-1.052v-1.166h3.78v1.166Z" transform="translate(-575.961 -417.17)"/>
      <path id="パス_11399" data-name="パス 11399" d="M691.388,460.121h11.5v-5.4h-11.5Zm10.153-2.218v1.125h-8.848V457.9Zm0-2.154v1.124h-8.848v-1.124Z" transform="translate(-581.099 -441.814)"/>
      <path id="パス_11400" data-name="パス 11400" d="M759.618,419.088h-1.533v6.138h-7.071v1.363h7.09v7.771h-6.069v1.322h13.823V434.36H759.6v-7.771h7.165v-1.363h-7.147Z" transform="translate(-620.738 -418.126)"/>
      <path id="パス_11401" data-name="パス 11401" d="M828.656,425.517H823.31v-1.206h5.217V420.6H823.31v-1.248h6.755v-1.16h-6.737v-1.6l-1.385-.368v1.97h-6.773v1.16h6.792V420.6h-5.108v3.714h5.108v1.206h-5.144v1.119h5.144v1.393h-7.3v1.181h7.3v1.373h-5.2v1.181h5.2c0,.8-.036,1.337-.384,1.6a6.523,6.523,0,0,1-1.423.663l-.056.019.38,1.2.059-.019c2.1-.678,2.774-1.079,2.774-3.233v-.23h5.346V429.21h2.2v-1.222h-2.2Zm-5.346-3.864h3.832V423.3H823.31Zm-1.349,1.643H818.2v-1.643h3.759Zm5.345,7.328h-4V429.21h4Zm0-2.595h-4v-1.414h4Z" transform="translate(-663.048 -416.219)"/>
      <path id="パス_11402" data-name="パス 11402" d="M885.193,425.72H882.6l.466-.474-.033-.043a6.71,6.71,0,0,0-.819-.9,8.512,8.512,0,0,0,2.679-4.3l.014-.072h-6.14v1.181h4.381a9.79,9.79,0,0,1-1.7,2.408c-.432-.407-.88-.813-1.313-1.206l-.047-.043-.041.05c-.249.3-.493.6-.733.915l-.037.049.049.037a25.164,25.164,0,0,1,2.657,2.423h-3.707v1.077h2.856a15.011,15.011,0,0,1-3.39,5.977l-.047.046.838.757.041-.039a13.02,13.02,0,0,0,2.778-4.346v4.56a2.238,2.238,0,0,1-1.534,2.5l-.087.033.861.906.038-.015c1.615-.645,1.887-1.583,1.887-3.441v-7h1.424a8.643,8.643,0,0,1-.758,2.667l-.027.054.991.5.028-.051a12.43,12.43,0,0,0,1.015-4.136Z" transform="translate(-704.954 -418.685)"/>
      <path id="パス_11403" data-name="パス 11403" d="M905.9,424.35a11.959,11.959,0,0,0,1.749-3.56h1.487v-1.077H903.7a16.462,16.462,0,0,0,.825-1.574l.023-.049-1.124-.7-.025.073a14.3,14.3,0,0,1-2.8,4.745l-.04.043.782.788.044-.044a9.144,9.144,0,0,0,.962-1.131,14.454,14.454,0,0,0,1.886,2.686,8.3,8.3,0,0,1-3.252,2.1l-.081.031.057.065a7.4,7.4,0,0,1,.654.844l.026.041.045-.016a10.414,10.414,0,0,0,3.445-2.32,10.469,10.469,0,0,0,3.814,2.2l.047.015.74-1.272-.074-.022A11.887,11.887,0,0,1,905.9,424.35Zm-.789-.738a8.3,8.3,0,0,1-1.991-2.824l.013-.039h3.277A7.618,7.618,0,0,1,905.113,423.612Z" transform="translate(-720.154 -416.996)"/>
      <path id="パス_11404" data-name="パス 11404" d="M903.846,446.41v-.047l-1.188-.369,0,.087a8.345,8.345,0,0,1-.142,1.887h-3.068V449h2.938a6.827,6.827,0,0,1-3.767,4.49l-.075.039.791.766.039-.02a7.154,7.154,0,0,0,4.172-5.358h2.27a12.374,12.374,0,0,1-.2,2.582c-.329,1.373-1.2,1.594-2.3,1.739l-.091.012.59,1,.038,0a2.661,2.661,0,0,0,2.7-1.865,17.362,17.362,0,0,0,.494-4.36l0-.063h-3.35A10.952,10.952,0,0,0,903.846,446.41Z" transform="translate(-718.82 -436.013)"/>
      <path id="パス_11405" data-name="パス 11405" d="M963.29,425.566c0-1.269,0-2.373-.018-3.619,1.048-.144,4.331-1,5.1-1.207l.079-.021-.044-.07a10.8,10.8,0,0,1-.621-1.145l-.02-.057-.057.019a41.575,41.575,0,0,1-5.738,1.326l-.052.008v.053q.01.863.022,1.721c.016,1.121.033,2.28.033,3.427,0,3.81,0,7.408-3.2,9.728l-.071.052.074.049c.341.224.693.456,1.022.7l.037.028.037-.029c2.949-2.3,3.369-6.068,3.374-9.807h2.294v10.047H966.9V426.727H969v-1.16Z" transform="translate(-758.814 -418.365)"/>
      <rect id="長方形_328" data-name="長方形 328" width="5.608" height="1.264" transform="translate(195.684 1.762)"/>
      <path id="パス_11406" data-name="パス 11406" d="M947.641,432.067h-5.653v.063c.024.981.016,1.98.008,2.946,0,.491-.008.983-.008,1.475,0,2.65-.235,5.62-1.979,7.557l-.049.054,1.074.667.034-.036c1.426-1.494,2.109-4.392,2.158-6.625h4.413Zm-1.294,5.024h-3.1V433.1h3.1Z" transform="translate(-746.35 -426.755)"/>
    </g>
  </g>
  <g id="グループ_6069" data-name="グループ 6069">
    <path id="パス_11407" data-name="パス 11407" d="M236.8,399.746a18.307,18.307,0,0,0-12.1-4.074h-.038a18.308,18.308,0,0,0-12.1,4.074,19.207,19.207,0,0,0-6.106,10.034,21.634,21.634,0,0,0-.311,9.512c1.716,6.811,7.611,9.984,18.55,9.984,10.2,0,16.946-3.638,18.512-9.981a21.8,21.8,0,0,0-.31-9.515A19.207,19.207,0,0,0,236.8,399.746Zm-23.913,14.206c-1.954-1.125-2.483-3.5-1.033-6.085,1.665-2.969,5.835-5.719,8.346-3.865,1.749,1.292,1.09,4.259-.978,7.147C217.246,413.917,214.568,414.916,212.892,413.952Zm20.653,5.961a3.19,3.19,0,0,1-1.8,2.137,5.589,5.589,0,0,1-2.2.429,6.67,6.67,0,0,1-1.439-.16,5.3,5.3,0,0,1-3.4-2.114,5.3,5.3,0,0,1-3.395,2.114,6.672,6.672,0,0,1-1.439.16,5.588,5.588,0,0,1-2.2-.429,3.19,3.19,0,0,1-1.8-2.137c-.147-.573-.113-1.1.079-1.153.333-.085.573.371.843.75a3.306,3.306,0,0,0,1.466,1.176,4.529,4.529,0,0,0,2.732.185c1.356-.3,2.973-1.106,2.973-3.244V416.9a3.007,3.007,0,0,1-1.911-2.552c0-1.138,1.171-1.621,2.616-1.621s2.616.482,2.616,1.621a3.014,3.014,0,0,1-1.836,2.527v.75c0,2.137,1.617,2.944,2.973,3.244a4.529,4.529,0,0,0,2.732-.185,3.308,3.308,0,0,0,1.466-1.176c.271-.379.51-.835.843-.75C233.659,418.809,233.693,419.34,233.546,419.913Zm2.894-5.95c-1.679.959-4.353-.05-6.326-2.823-2.058-2.894-2.708-5.864-.954-7.15,2.517-1.846,6.678.918,8.333,3.892C238.934,410.472,238.4,412.845,236.439,413.963Z" transform="translate(-204.205 -393.548)" fill="#fff"/>
    <path id="パス_11408" data-name="パス 11408" d="M229.7,426.477c2.068-2.888,2.728-5.855.978-7.147-2.511-1.854-6.681.9-8.346,3.865-1.45,2.586-.921,4.96,1.033,6.085C225.044,430.244,227.722,429.244,229.7,426.477Z" transform="translate(-214.681 -408.876)"/>
    <path id="パス_11409" data-name="パス 11409" d="M273.572,419.3c-1.754,1.286-1.1,4.256.954,7.15,1.972,2.774,4.647,3.782,6.326,2.823,1.958-1.118,2.495-3.491,1.053-6.081C280.25,420.221,276.089,417.457,273.572,419.3Z" transform="translate(-248.617 -408.862)"/>
    <path id="パス_11410" data-name="パス 11410" d="M253.361,452.588c-.333-.085-.572.371-.843.75a3.308,3.308,0,0,1-1.466,1.176,4.53,4.53,0,0,1-2.732.185c-1.357-.3-2.973-1.106-2.973-3.244v-.75a3.014,3.014,0,0,0,1.836-2.527c0-1.138-1.171-1.621-2.616-1.621s-2.616.482-2.616,1.621a3.007,3.007,0,0,0,1.911,2.552v.725c0,2.137-1.617,2.944-2.973,3.244a4.53,4.53,0,0,1-2.732-.185,3.306,3.306,0,0,1-1.466-1.176c-.271-.379-.51-.835-.843-.75-.192.049-.226.581-.079,1.153a3.19,3.19,0,0,0,1.8,2.137,5.588,5.588,0,0,0,2.2.429,6.678,6.678,0,0,0,1.439-.16,5.3,5.3,0,0,0,3.395-2.114,5.3,5.3,0,0,0,3.4,2.114,6.676,6.676,0,0,0,1.439.16,5.589,5.589,0,0,0,2.2-.429,3.19,3.19,0,0,0,1.8-2.137C253.587,453.168,253.554,452.637,253.361,452.588Z" transform="translate(-224.099 -427.377)"/>
    <path id="パス_11411" data-name="パス 11411" d="M242.072,395.653a6.316,6.316,0,0,0-11.478-3.639,21.127,21.127,0,0,0-8.951-1.873H221.6a21.112,21.112,0,0,0-8.979,1.887,6.316,6.316,0,1,0-8.847,8.761,23.148,23.148,0,0,0-1.652,4.447c-.15.574-1.43,5.735-.314,10.168,1.888,7.491,8.188,10.981,19.83,10.981,10.855,0,18.07-4,19.793-10.984a23.117,23.117,0,0,0-1.976-14.633A6.317,6.317,0,0,0,242.072,395.653Zm-2.227,9.916a21.8,21.8,0,0,1,.31,9.515c-1.566,6.343-8.313,9.981-18.512,9.981-10.94,0-16.834-3.172-18.55-9.984a21.633,21.633,0,0,1,.311-9.512,19.207,19.207,0,0,1,6.106-10.034,18.309,18.309,0,0,1,12.1-4.074h.038a18.307,18.307,0,0,1,12.1,4.074A19.208,19.208,0,0,1,239.844,405.569Z" transform="translate(-201.138 -389.337)"/>
  </g>
</svg>
