<svg xmlns="http://www.w3.org/2000/svg" width="208.038" height="116.537"><g data-name="グループ 2919"><path data-name="長方形 139" fill="none" d="M115.318 100.857h3.742v1.154h-3.742z"/><path data-name="長方形 140" fill="none" d="M158.623 110.563h3.956v1.4h-3.956z"/><path data-name="長方形 141" fill="none" d="M153.567 103.084h3.72v1.626h-3.72z"/><path data-name="パス 4174" d="M1.368 111.585c0 1.222.579 2.456 1.871 2.456.88 0 1.29-.506 1.29-1.592v-4.863a4.585 4.585 0 00-3.161 3.999z" fill="none"/><path data-name="長方形 142" fill="none" d="M110.452 111.497h8.758v1.113h-8.758z"/><path data-name="パス 4175" d="M94.31 103.219l-.166.382c-.057.129-.116.264-.17.392a19.823 19.823 0 002.013 5.917 17.374 17.374 0 001.705-6.691z" fill="none"/><path data-name="長方形 143" fill="none" d="M110.452 113.629h8.758v1.114h-8.758z"/><path data-name="長方形 144" fill="none" d="M115.318 103.053h3.742v1.041h-3.742z"/><path data-name="長方形 145" fill="none" d="M158.623 103.084h3.793v1.626h-3.793z"/><path data-name="長方形 146" fill="none" d="M158.623 107.995h3.956v1.4h-3.956z"/><path data-name="長方形 147" fill="none" d="M194.883 103.988h3.068v3.948h-3.068z"/><path data-name="パス 4176" d="M181.108 101.419l-.013.039a8.218 8.218 0 001.971 2.795 7.542 7.542 0 001.285-2.834z" fill="none"/><path data-name="パス 4177" d="M11.923 107.032a5.8 5.8 0 00-3.437-1.286 13.333 13.333 0 00-2.642.119v-2.672l.785-.04a62.332 62.332 0 002.607-.163h.052v-1.31l-.063.007c-.234.025-.469.053-.7.079a24.17 24.17 0 01-2.658.21v-2.9H4.406v.159c0 .914 0 1.859.018 2.789-.81.039-1.64.058-2.469.058-.567 0-1.1 0-1.663-.019H.233v1.372h.059c.705-.021 1.428-.052 2.125-.083.672-.029 1.367-.059 2.046-.08l.018 2.878a8.011 8.011 0 00-2.979 2.019 5.194 5.194 0 00-1.493 3.447c0 2.19 1.324 3.662 3.294 3.662 1.678 0 2.565-.953 2.565-2.756v-5.333a6.652 6.652 0 012.241-.171c1.949.114 3.915 1.28 3.915 3.627 0 2.729-2.16 3.424-4.184 3.861l-.1.023.077.074a8.373 8.373 0 01.781.88l.021.026.033-.005c3.223-.548 4.857-2.176 4.857-4.839a4.591 4.591 0 00-1.586-3.633zm-7.391 5.417c0 1.086-.41 1.592-1.29 1.592-1.292 0-1.871-1.234-1.871-2.456a4.585 4.585 0 013.161-4z"/><path data-name="パス 4178" d="M12.49 100.256l-.039-.033-1.032 1 .047.04a21.442 21.442 0 012.861 2.885l.038.049 1.085-1.023-.035-.041a24.759 24.759 0 00-2.925-2.877z"/><path data-name="パス 4179" d="M29.919 101.446l.056.012.325-1.492-.056-.012a41.992 41.992 0 00-6.6-.8h-.049l-.284 1.495h.068a31.645 31.645 0 016.54.797z"/><path data-name="パス 4180" d="M28.183 103.608a16.991 16.991 0 00-6.912 1.238l-.049.017.357 1.45.059-.019a21.274 21.274 0 016.168-1.227 2.744 2.744 0 012.028.758 2.7 2.7 0 01.706 1.985c-.112 4.042-3.783 5.545-7.359 6.481l-.05.013.2 1.308.055-.008a12.328 12.328 0 005.541-2.118 7.331 7.331 0 003.084-5.488 4.042 4.042 0 00-.869-3.049 4.152 4.152 0 00-2.959-1.341z"/><path data-name="パス 4181" d="M53.293 98.416l-.027-.044-.909.441.033.054a15.078 15.078 0 011.119 2.154l.024.058.887-.488-.02-.047a17.149 17.149 0 00-1.107-2.128z"/><path data-name="パス 4182" d="M51.822 104.037l-.02-.057-.055.023a21.944 21.944 0 01-3.865 1.107 25.18 25.18 0 01-.819-2.505c.357-.1.742-.19 1.15-.289a35.51 35.51 0 001.539-.4l.055-.016-.017-.055c-.052-.173-.094-.328-.136-.483-.053-.194-.108-.4-.184-.637l-.017-.053-.054.016c-.544.162-1.93.493-2.654.634-.175-.751-.319-1.4-.431-2.2a42.697 42.697 0 00-.041-.276l-.008-.053-.054.006c-.5.055-.968.13-1.4.2l-.059.01.012.058c.185.852.366 1.542.575 2.34l.058.22-.192.035c-1.335.245-2.848.522-4.3.715l-.067.009.019.064c.041.134.081.28.121.429.072.262.146.533.23.759l.016.043.045-.007c1.315-.2 2.948-.453 4.487-.763.266.857.524 1.628.83 2.481a98.696 98.696 0 01-5.908.781l-.332.031.274 1.35.052-.006a89.666 89.666 0 006.366-.963c.242.549 1.143 2.465 1.433 3.04-.114-.033-.188-.058-.283-.089l-.1-.033a10.4 10.4 0 00-1.844-.354 10.767 10.767 0 00-1.523-.047c-1.753.089-3.8.95-3.8 3.082a2.976 2.976 0 002.346 2.86 11.668 11.668 0 003.8.523 13.3 13.3 0 002.218-.144l.049-.008v-.05c0-.007-.029-.722-.035-1.181v-.072l-.069.017a7.981 7.981 0 01-2.138.193h-.3c-2.914 0-4.453-.785-4.453-2.27 0-.972 1.043-1.5 1.657-1.654a5.184 5.184 0 011.111-.122 11.2 11.2 0 014.619 1.067l.04.017.027-.034c.312-.39.6-.725.894-1.026l.036-.037-.034-.04a15.687 15.687 0 01-2.357-3.856 38.911 38.911 0 003.943-1.056l.059-.02-.025-.057c-.196-.43-.336-.767-.487-1.197z"/><path data-name="パス 4183" d="M51.459 99.096l-.029-.048-.888.511.035.051a10.388 10.388 0 011.042 2.09l.023.059.908-.466-.021-.049a17.417 17.417 0 00-1.07-2.148z"/><path data-name="パス 4184" d="M67.159 106.266h5.277v6.081c0 1.575-.362 1.759-1.619 2.153l-.04.013-.006 1.572.07-.016c2.546-.592 3-1.49 3-3.721v-6.081h3.181v-1.226h-9.863z"/><path data-name="長方形 148" d="M67.776 99.726h8.31v1.308h-8.31z"/><path data-name="パス 4185" d="M62.081 103.684a17.509 17.509 0 004.108-4.389l.034-.05-.051-.031c-.158-.1-.557-.351-.878-.557-.206-.131-.381-.243-.443-.281l-.053-.033-.028.057a12.226 12.226 0 01-3.736 4.245l-.054.04 1.063 1.023z"/><path data-name="パス 4186" d="M65.329 102.543a17.9 17.9 0 01-4.909 6.233l-.047.037.922 1.079.043-.034a13.773 13.773 0 002.116-2.168v8.38h1.349v-9.9a21.96 21.96 0 001.734-2.588c.063-.12.158-.289.158-.289l.027-.05-1.368-.757z"/><path data-name="パス 4187" d="M91.215 112.186l-.471-1.057-.05.018c-.846.311-1.413.5-2.209.753v-4.622h1.947v-1.251h-1.929v-4.54h2.638v-1.16H83.71v1.166h3.482v10.734c-.543.173-1.093.33-1.627.482v-8.113h-1.237v8.433c-.315.107-.65.2-.946.292l-.343.1-.055.006.381 1.438.055-.014c.226-.059.4-.118.538-.165l.067-.022c.657-.222 1.344-.445 2.008-.661 1.713-.557 3.484-1.133 5.123-1.8z"/><path data-name="パス 4188" d="M96.759 111.111c1.192-1.713 1.992-4.369 2.377-7.893h1.634v-1.226h-6.018a30.882 30.882 0 00.963-3.079l.04-.14a2.713 2.713 0 00.071-.272l.009-.051-.049-.014c-.354-.1-.532-.149-.8-.216l-.306-.076-.055-.01-.015.053a30.431 30.431 0 01-2.966 7.719l-.022.042.908.725.035-.048a9.919 9.919 0 00.582-.933 19.059 19.059 0 002.015 5.4 10.677 10.677 0 01-5.211 3.984l-.079.029.963 1.038.036-.014a11.971 11.971 0 005.126-3.95 12.11 12.11 0 004.2 3.886l.04.022.03-.035c.135-.157.266-.323.392-.483.19-.24.386-.488.6-.709l.057-.06-.077-.032a10.708 10.708 0 01-4.48-3.657zm-.767-1.2a19.822 19.822 0 01-2.013-5.917c.054-.128.112-.26.17-.392l.165-.382h3.383a17.374 17.374 0 01-1.706 6.689z"/><path data-name="パス 4189" d="M120.445 99.797h-5.108v-1.095l.013-.509h-.055a11.043 11.043 0 00-.833-.005c-.142 0-.285.005-.435.005h-.057V99.8h-5.016v1.1h5.03v1.113h-7.392v1.083h7.392v1h-5v1.019h5v1.145h-5.259v1.04h5.259v1.122h-7.392v1.04h16.526v-1.04h-7.8V107.3h5.541v-1.04h-5.541v-1.144h5.128v-2.1h2.677v-1.083h-2.677zm-1.386 4.3h-3.742v-1.041h3.742zm0-2.083h-3.742v-1.154h3.742z"/><path data-name="パス 4190" d="M109.16 115.825h11.38v-5.345h-11.38zm1.292-4.327h8.758v1.116h-8.758zm0 2.132h8.758v1.114h-8.758z"/><path data-name="パス 4191" d="M137.459 98.657h-1.517v6.076h-7v1.349h7.017v7.691h-6.007v1.308h13.682v-1.308h-6.194v-7.691h7.092v-1.349h-7.073z"/><path data-name="パス 4192" d="M163.914 106.908h-5.291v-1.194h5.164v-3.675h-5.164v-1.236h6.686v-1.148h-6.668v-1.586l-1.371-.364v1.95h-6.7v1.148h6.722v1.236h-5.056v3.675h5.056v1.194h-5.091v1.108h5.091v1.379h-7.23v1.169h7.23v1.359h-5.146v1.168h5.146c0 .787-.036 1.323-.38 1.579a6.462 6.462 0 01-1.409.656l-.055.019.376 1.192.058-.019c2.075-.671 2.746-1.067 2.746-3.2v-.228h5.291v-2.527h2.174v-1.209h-2.174zm-5.291-3.824h3.793v1.626h-3.793zm-1.335 1.626h-3.721v-1.626h3.721zm5.291 7.253h-3.956v-1.4h3.956zm0-2.568h-3.956v-1.4h3.956z"/><path data-name="パス 4193" d="M183.134 107.996v-.046l-1.175-.366v.087a8.251 8.251 0 01-.14 1.868h-3.037v1.025h2.908a6.76 6.76 0 01-3.728 4.445l-.074.038.783.758.039-.02a7.08 7.08 0 004.13-5.3h2.247a12.235 12.235 0 01-.2 2.555c-.325 1.359-1.184 1.577-2.274 1.722l-.09.012.584.994h.037a2.635 2.635 0 002.677-1.846 17.176 17.176 0 00.489-4.316v-.062h-3.316a10.813 10.813 0 00.14-1.548z"/><path data-name="パス 4194" d="M183.848 104.984a11.831 11.831 0 001.731-3.524h1.471v-1.069h-5.387a16.229 16.229 0 00.816-1.558l.023-.049-1.112-.695-.025.073a14.15 14.15 0 01-2.768 4.7l-.039.043.774.78.043-.043a9.046 9.046 0 00.953-1.119 14.258 14.258 0 001.867 2.658 8.209 8.209 0 01-3.219 2.081l-.08.031.057.065a7.339 7.339 0 01.647.835l.026.04.045-.016a10.309 10.309 0 003.41-2.3 10.36 10.36 0 003.774 2.173l.047.015.733-1.259-.074-.022a11.76 11.76 0 01-3.713-1.84zm-.781-.73a8.223 8.223 0 01-1.971-2.8l.013-.039h3.243a7.543 7.543 0 01-1.281 2.838z"/><path data-name="パス 4195" d="M178.396 104.669h-2.567l.461-.469-.032-.042a6.639 6.639 0 00-.811-.89 8.421 8.421 0 002.652-4.26l.014-.072h-6.077v1.169h4.336a9.69 9.69 0 01-1.685 2.383c-.427-.4-.87-.8-1.3-1.194l-.047-.043-.041.049c-.247.3-.488.595-.726.906l-.037.048.048.036a24.916 24.916 0 012.63 2.4h-3.669v1.065h2.827a14.852 14.852 0 01-3.355 5.916l-.047.045.829.75.04-.039a12.891 12.891 0 002.75-4.3v4.513a2.215 2.215 0 01-1.519 2.471l-.086.032.852.9.038-.015c1.6-.638 1.868-1.566 1.868-3.406v-6.926h1.41a8.569 8.569 0 01-.751 2.64l-.026.054.981.49.028-.05a12.3 12.3 0 001-4.093z"/><path data-name="パス 4196" d="M199.232 102.963h-5.595v.062c.024.971.016 1.96.008 2.916 0 .486-.008.973-.008 1.459 0 2.623-.233 5.562-1.959 7.48l-.048.054 1.064.66.034-.036c1.411-1.479 2.087-4.347 2.136-6.557h4.368zm-1.281 4.973h-3.068v-3.948h3.068z"/><path data-name="パス 4197" d="M202.385 104.833c0-1.256 0-2.349-.018-3.581 1.037-.142 4.286-.989 5.05-1.195l.079-.021-.043-.069a10.789 10.789 0 01-.615-1.134l-.019-.056-.057.019a41.258 41.258 0 01-5.68 1.313l-.052.008v.053q.009.854.022 1.7c.016 1.109.032 2.257.032 3.392 0 3.771 0 7.333-3.164 9.628l-.071.051.073.048c.337.221.686.451 1.012.7l.037.028.037-.028c2.919-2.276 3.335-6.006 3.339-9.707h2.271v9.945h1.335v-9.946h2.084v-1.148z"/><path data-name="長方形 149" d="M193.682 99.449h5.55v1.251h-5.55z"/></g><g data-name="グループ 2920"><path data-name="パス 4198" d="M130.738 13.648c-7.125-5.953-16.086-8.972-26.635-8.972h-.084c-10.549 0-19.51 3.019-26.635 8.972-6.426 5.369-11.075 13.01-13.445 22.1-1.126 4.318-2.538 13.589-.684 20.947 3.778 15 16.759 21.984 40.848 21.984 22.458 0 37.315-8.011 40.764-21.978 1.835-7.435.434-16.669-.683-20.953-2.37-9.091-7.02-16.731-13.446-22.1zM78.082 44.929c-4.3-2.476-5.468-7.7-2.274-13.4 3.666-6.537 12.848-12.593 18.378-8.51 3.852 2.844 2.4 9.38-2.154 15.738-4.364 6.095-10.259 8.3-13.949 6.172zm45.479 13.128a7.028 7.028 0 01-3.973 4.707 12.317 12.317 0 01-4.841.945 14.694 14.694 0 01-3.168-.351 11.661 11.661 0 01-7.476-4.656 11.659 11.659 0 01-7.475 4.656 14.694 14.694 0 01-3.168.351 12.317 12.317 0 01-4.841-.945 7.026 7.026 0 01-3.973-4.707c-.324-1.26-.25-2.43.175-2.539.732-.187 1.26.817 1.856 1.652a7.276 7.276 0 003.229 2.59 9.975 9.975 0 006.016.407c2.987-.661 6.547-2.437 6.547-7.143v-1.6a6.619 6.619 0 01-4.209-5.619c0-2.506 2.579-3.569 5.76-3.569s5.76 1.062 5.76 3.569a6.638 6.638 0 01-4.044 5.565v1.651c0 4.706 3.56 6.482 6.547 7.143a9.975 9.975 0 006.016-.407 7.276 7.276 0 003.229-2.59c.6-.834 1.124-1.839 1.856-1.652.427.109.501 1.279.177 2.542zm6.371-13.1c-3.7 2.111-9.586-.11-13.929-6.217-4.532-6.373-5.963-12.914-2.1-15.745 5.543-4.064 14.705 2.023 18.349 8.572 3.174 5.7 1.992 10.924-2.319 13.39z" fill="#fff"/><path data-name="パス 4199" d="M92.033 38.759c4.553-6.358 6.006-12.894 2.154-15.738-5.53-4.083-14.712 1.973-18.378 8.51-3.194 5.694-2.03 10.922 2.274 13.4 3.69 2.122 9.586-.079 13.95-6.172z"/><path data-name="パス 4200" d="M113.902 22.99c-3.862 2.831-2.431 9.372 2.1 15.745 4.343 6.108 10.231 8.329 13.929 6.218 4.312-2.462 5.493-7.686 2.319-13.391-3.642-6.549-12.804-12.636-18.348-8.572z"/><path data-name="パス 4201" d="M123.386 55.52c-.732-.187-1.26.817-1.856 1.652a7.277 7.277 0 01-3.229 2.59 9.975 9.975 0 01-6.016.407c-2.987-.661-6.547-2.437-6.547-7.143V51.37a6.637 6.637 0 004.044-5.565c0-2.506-2.579-3.569-5.761-3.569s-5.76 1.062-5.76 3.569a6.619 6.619 0 004.209 5.619v1.596c0 4.706-3.56 6.482-6.547 7.143a9.974 9.974 0 01-6.016-.407 7.275 7.275 0 01-3.229-2.59c-.6-.834-1.124-1.839-1.856-1.652-.424.108-.5 1.278-.175 2.539a7.026 7.026 0 003.973 4.707 12.317 12.317 0 004.841.945 14.692 14.692 0 003.168-.351 11.66 11.66 0 007.475-4.656 11.661 11.661 0 007.476 4.656 14.691 14.691 0 003.168.351 12.318 12.318 0 004.841-.945 7.028 7.028 0 003.973-4.707c.324-1.259.248-2.433-.176-2.533z"/><path data-name="パス 4202" d="M149.088 13.908a13.907 13.907 0 00-25.274-8.013 46.513 46.513 0 00-19.71-4.124h-.084a46.486 46.486 0 00-19.773 4.155 13.907 13.907 0 10-19.481 19.292 51.021 51.021 0 00-3.636 9.79c-.33 1.264-3.15 12.628-.691 22.39 4.156 16.5 18.031 24.179 43.665 24.179 23.9 0 39.789-8.816 43.585-24.187 1.975-8 .493-17.834-.693-22.382a51.043 51.043 0 00-3.659-9.839 13.913 13.913 0 005.751-11.261zm-4.9 21.836c1.117 4.284 2.518 13.518.683 20.953-3.449 13.968-18.306 21.978-40.763 21.978-24.089 0-37.069-6.985-40.848-21.984-1.854-7.358-.442-16.629.684-20.947 2.37-9.086 7.019-16.726 13.445-22.1 7.125-5.953 16.086-8.972 26.635-8.972h.084c10.549 0 19.51 3.019 26.635 8.972 6.421 5.373 11.071 13.014 13.44 22.099z"/></g></svg>