<svg xmlns="http://www.w3.org/2000/svg" width="20.412" height="14.634" viewBox="0 0 20.412 14.634">
  <path id="パス_81562" data-name="パス 81562" d="M1967.139,439.577h-15.323a2.046,2.046,0,0,0-2.3,2.144q-.007,4.918,0,9.841a2.045,2.045,0,0,0,2.295,2.146h7.637q3.842,0,7.686,0a2.046,2.046,0,0,0,2.3-2.145q.008-4.919,0-9.841A2.045,2.045,0,0,0,1967.139,439.577Zm-15.952,1.1h16.551l.2.346-8.456,6.86-8.387-6.825Zm-.518,1.455,5.464,4.443-5.464,5.141Zm.866,10.489,5.556-5.256.677.546q.564.454,1.128.912c.494.4.665.4,1.143.014.362-.294.725-.586,1.08-.873l.711-.574,5.554,5.23Zm16.731-.912-5.411-5.154,5.411-4.385Z" transform="translate(-1949.271 -439.326)" fill="#fff" stroke="#fff" stroke-width="0.5"/>
</svg>
