<svg xmlns="http://www.w3.org/2000/svg" width="292.602" height="61.329" viewBox="0 0 292.602 61.329">
  <g id="グループ_22699" data-name="グループ 22699" transform="translate(-724.509 -549)">
    <path id="パス_81863" data-name="パス 81863" d="M7.462-6.594a20.861,20.861,0,0,0-2.436-1.47.234.234,0,0,0-.308.014c-.182.2-.518.63-.924,1.148a15.359,15.359,0,0,1,2.73,1.666A17.1,17.1,0,0,1,1.246-.644a4.077,4.077,0,0,1,1.26.77A.447.447,0,0,0,3.094.112,18.376,18.376,0,0,0,7.882-4.256,14.314,14.314,0,0,1,9.716-2.408c.112.14.238.2.364.028.294-.322.574-.63.854-.994a.266.266,0,0,0-.014-.378,16.27,16.27,0,0,0-2.058-1.9,27.5,27.5,0,0,0,1.6-2.772,3.059,3.059,0,0,1,.63-.938c.182-.154.238-.406.014-.546a6.841,6.841,0,0,0-1.764-.882,6.513,6.513,0,0,1-.532,1.722A16.579,16.579,0,0,1,7.462-6.594ZM23.8-4.326c1.036,0,2.072.014,3.122.028.2.014.252-.042.252-.21a10.319,10.319,0,0,0,0-1.316c0-.168-.042-.21-.252-.2-1.078.014-2.156.042-3.22.042H19.194a17.986,17.986,0,0,1-3.024-.168,15.2,15.2,0,0,0,.21,1.694c.042.21.154.294.322.294a11.2,11.2,0,0,1,2.058-.168Zm14.028-3.3a3.874,3.874,0,0,1,.126-1.554c.154-.322.2-.5-.14-.588a13.36,13.36,0,0,0-1.75-.294A11.179,11.179,0,0,1,36.2-7.63v4.382c0,.714.014.882-.084,1.064s-.084.294.07.5a4.043,4.043,0,0,0,.84.854.414.414,0,0,0,.574,0,4.648,4.648,0,0,1,.406-.294A23.25,23.25,0,0,0,40.5-2.8a17.7,17.7,0,0,0,2.072-1.834c.266-.266.238-.364.126-.588a4.036,4.036,0,0,1-.434-1.414,13.435,13.435,0,0,1-2.45,2.38,14.233,14.233,0,0,1-1.988,1.3ZM32.942-9.184a3.766,3.766,0,0,1,.14,1.176,9.121,9.121,0,0,1-.588,3.962A6.95,6.95,0,0,1,30.17-1.26a4.961,4.961,0,0,1,1.19.588c.224.168.392.14.63-.07a7.212,7.212,0,0,0,1.988-2.632,10.478,10.478,0,0,0,.756-4.116,2.02,2.02,0,0,1,.168-.952c.084-.2.056-.364-.182-.434A11.319,11.319,0,0,0,32.942-9.184Zm19.012.812a5.065,5.065,0,0,0-2.688,4.438c0,2.912,2.7,4.326,5.166,4.326.168,0,.224-.084.266-.294a4.98,4.98,0,0,0,.154-1.2c0-.154-.084-.21-.308-.21C52.108-1.47,50.82-2.45,50.82-4.256c0-1.68,1.19-3.318,3.57-4.13A6.247,6.247,0,0,1,56.1-8.694c.182,0,.266-.042.266-.21a8,8,0,0,0-.154-1.232c-.014-.1-.084-.182-.294-.154-3.612.476-6.692.938-8.414,1.19a19.313,19.313,0,0,1-2.226.238,9.756,9.756,0,0,0,.518,1.512.327.327,0,0,0,.266.21.817.817,0,0,0,.308-.112c.21-.07.35-.1.882-.224,1.5-.308,3-.6,4.7-.924Zm2.03,2A6.947,6.947,0,0,1,55.4-4.746a.146.146,0,0,0,.238.042l.588-.434a.141.141,0,0,0,.042-.224,6.443,6.443,0,0,0-1.33-1.5c-.084-.07-.14-.084-.21-.028Zm1.288-.924a6.623,6.623,0,0,1,1.4,1.61.144.144,0,0,0,.238.042l.56-.434a.162.162,0,0,0,.042-.252,5.847,5.847,0,0,0-1.33-1.442c-.084-.07-.126-.084-.21-.028Zm11.48-1.288a3.18,3.18,0,0,1,3.136,3.248c0,2.646-1.862,3.626-4.228,4.186a2.969,2.969,0,0,1,.98.882c.182.28.308.336.6.252,2.842-.854,4.312-2.492,4.312-5.1,0-2.786-1.974-4.858-5.334-4.858a6.127,6.127,0,0,0-4.55,1.792,5.158,5.158,0,0,0-1.582,3.64c0,2.282,1.246,3.6,2.478,3.6a2.659,2.659,0,0,0,2.38-1.61A17.53,17.53,0,0,0,66.7-8.582Zm-1.68.084a16,16,0,0,1-1.484,5.012c-.378.672-.686.854-1.05.854-.434,0-.952-.714-.952-2a4.031,4.031,0,0,1,1.092-2.59A4.216,4.216,0,0,1,65.072-8.5ZM77.994-4.4c-1.022.588-1.68.966-2.282,1.3a5.169,5.169,0,0,1-1.288.49c.21.462.49,1.05.644,1.3a.393.393,0,0,0,.308.224.351.351,0,0,0,.238-.1,2.537,2.537,0,0,1,.448-.308A8.608,8.608,0,0,1,78.05.308c.126.182.182.294.336.28A5.69,5.69,0,0,0,79.422.42c.238-.056.21-.266.21-.462,0-.322-.07-1.2-.112-1.82s-.042-1.092-.056-1.68a6.923,6.923,0,0,1,3.206-.952c.98,0,1.54.5,1.54,1.414A1.389,1.389,0,0,1,82.7-1.638a5.222,5.222,0,0,1-1.75-.252,2.446,2.446,0,0,1,.42,1.19.375.375,0,0,0,.308.42,5.426,5.426,0,0,0,1.148.126A2.705,2.705,0,0,0,85.862-3,2.771,2.771,0,0,0,82.88-5.8a8.836,8.836,0,0,0-3.444.77c.014-.672.014-1.358.028-2.03a14.27,14.27,0,0,0,2-.532c.14-.042.182-.084.182-.224A7.035,7.035,0,0,0,81.564-8.9c-.014-.14-.112-.168-.238-.126a13.728,13.728,0,0,1-1.792.518c.014-.448.028-.8.07-1.162a1.713,1.713,0,0,1,.2-.546.5.5,0,0,0,.084-.224c0-.126-.112-.224-.28-.266a7.934,7.934,0,0,0-1.666-.252,5.176,5.176,0,0,1,.1,1.134c0,.6-.014,1.134-.014,1.6a11.585,11.585,0,0,1-2.87.042c.056.49.112.952.154,1.218.028.21.1.294.336.294.938,0,1.652-.056,2.352-.112Zm.07,1.47c.028.462.056,1.106.084,1.47.014.126-.028.14-.14.112a14.357,14.357,0,0,1-1.316-.63C77.2-2.338,77.672-2.66,78.064-2.926ZM82.74-8.232A6.463,6.463,0,0,1,85.582-6.51c.042.07.238.056.28,0,.21-.28.574-.714.756-.994a.188.188,0,0,0-.028-.28,6.655,6.655,0,0,0-2.968-1.708c-.1-.028-.14.014-.238.168A8.588,8.588,0,0,0,82.74-8.232Zm18.27-1.036c0-1.19.028-1.778.028-1.862,0-.14-.014-.154-.154-.154-.084,0-.462.028-1.54.028H97.328c-1.092,0-1.456-.028-1.54-.028-.154,0-.168.014-.168.154,0,.1.028.434.028,1.274v2.044c0,.84-.028,1.162-.028,1.26,0,.14.014.154.168.154.084,0,.448-.028,1.54-.028h2.24v5.4c0,.42-.112.546-.574.546a8.2,8.2,0,0,1-1.134-.07A3.925,3.925,0,0,1,98.182.49c.084.448.084.434.532.434,1.246,0,1.638-.1,1.946-.378s.406-.616.406-1.288-.056-1.806-.056-2.786Zm-3.99,1.82V-8.4h2.548v.952Zm2.548-2.744v.826H97.02v-.826ZM91.21-11.256c-1.022,0-1.54-.028-1.638-.028-.14,0-.154.014-.154.154,0,.1.028,1.078.028,3.01v6.062c0,1.932-.028,2.884-.028,2.982,0,.14.014.154.154.154h1.19c.14,0,.154-.014.154-.154,0-.1-.028-1.05-.028-2.982V-6.426h2.24c.91,0,1.316.028,1.4.028.126,0,.14-.014.14-.154,0-.084-.028-.5-.028-1.372v-1.82c0-.882.028-1.3.028-1.386,0-.14-.014-.154-.14-.154-.084,0-.49.028-1.4.028Zm2.058,3.808h-2.38V-8.4h2.38Zm0-2.744v.826h-2.38v-.826Zm.518,9.94c.154,0,.168,0,.168-.14v-.756h2.422v.462c0,.154.014.168.168.168h1.022c.14,0,.154-.014.154-.168,0-.084-.028-.42-.028-2.184V-3.948c0-.77.028-1.134.028-1.218,0-.14-.014-.154-.154-.154-.1,0-.434.028-1.484.028H94.248c-1.05,0-1.386-.028-1.484-.028-.14,0-.154.014-.154.154,0,.1.028.462.028,1.484v1.008c0,1.848-.028,2.2-.028,2.282,0,.14.014.14.154.14Zm.168-3.85h2.422v1.764H93.954ZM104.538-9.73a7.5,7.5,0,0,1,.168,1.834,25.381,25.381,0,0,0,.336,4.074c.378,2.366,1.526,3.654,2.618,3.654.98,0,1.848-.756,2.38-2.184a.429.429,0,0,0-.1-.518,5.352,5.352,0,0,1-.9-1.078C108.5-2.492,108.15-2,107.7-2c-.588,0-.952-.952-1.148-2.058a17.632,17.632,0,0,1-.252-3.192,6.29,6.29,0,0,1,.126-1.372,1.219,1.219,0,0,0,.112-.392c0-.1-.1-.2-.224-.252A6.06,6.06,0,0,0,104.538-9.73Zm7.168,1.988a9.433,9.433,0,0,1,2.618,4.886c.028.168.126.21.294.154a4.751,4.751,0,0,0,1.092-.56c.112-.07.2-.126.154-.308a9.257,9.257,0,0,0-2.744-4.788c-.112-.112-.2-.084-.308-.028C112.588-8.274,112.238-8.078,111.706-7.742ZM121.66,1.05c.154,0,.168-.014.168-.154V.364h5.614V.826c0,.14.014.154.154.154h1.19c.154,0,.168-.014.168-.154,0-.07-.028-.448-.028-2.464V-3.01c0-.994.028-1.4.028-1.484,0-.14-.014-.154-.168-.154-.084,0-.574.028-1.918.028h-4.48c-1.344,0-1.834-.028-1.918-.028-.14,0-.154.014-.154.154,0,.084.028.49.028,1.694v1.2c0,2.03-.028,2.408-.028,2.492,0,.14.014.154.154.154Zm.168-4.4h5.614V-.91h-5.614ZM121.8-6.1c0,.14.014.154.154.154.1,0,.462-.028,1.582-.028h2.17c1.12,0,1.5.028,1.582.028.14,0,.154-.014.154-.154v-.98a15.247,15.247,0,0,0,2.73,1.568.839.839,0,0,0,.336.126c.112,0,.168-.1.252-.364a3.722,3.722,0,0,1,.588-1.064,12.633,12.633,0,0,1-5.978-4.27.377.377,0,0,1,.112-.1.239.239,0,0,0,.14-.21c0-.126-.084-.168-.252-.224-.406-.1-.924-.182-1.47-.266a4.381,4.381,0,0,1-.546.994,12.465,12.465,0,0,1-5.39,4.284,3.394,3.394,0,0,1,.658.938c.112.252.168.35.266.35a1.016,1.016,0,0,0,.322-.14,17.268,17.268,0,0,0,2.59-1.652Zm1.736-1.176c-.952,0-1.344-.014-1.512-.028a13.84,13.84,0,0,0,2.548-2.646,12.52,12.52,0,0,0,2.576,2.66c-.2,0-.616.014-1.442.014Zm14.168.546c.336-.49.546-.756.742-1.008s.238-.294.238-.392-.056-.21-.224-.434c-.126-.182-.28-.322-.378-.322a.26.26,0,0,0-.1.028c-.042.014-.07.028-.112.042.028-.6.056-.924.07-1.26a2.379,2.379,0,0,1,.14-.6c.1-.252.042-.406-.252-.49a10.644,10.644,0,0,0-1.624-.238,5.077,5.077,0,0,1,.14,1.218c0,.6,0,1.218-.028,1.82-1.078.294-1.624.42-1.988.5a6.809,6.809,0,0,1-.952.14,11.9,11.9,0,0,0,.56,1.232c.084.168.182.252.28.252s.224-.14.462-.238c.532-.2,1.19-.392,1.6-.518-.014.266-.014.644-.014.994-1.05,1.442-1.848,2.436-3.08,3.934-.112.112-.126.224,0,.322a9.717,9.717,0,0,0,.854.84c.14.14.238.1.35-.056.518-.742,1.218-1.764,1.89-2.772-.028,1.428-.056,2.9-.07,4.326-.014.14.028.2.154.2.462,0,1.092-.042,1.246-.056.112,0,.182-.056.182-.168-.028-1.89-.07-3.584-.084-5.376,1.372-1.176,2.464-1.792,3.752-1.792a1.958,1.958,0,0,1,2.086,2.17,2.7,2.7,0,0,1-.952,2.114,6.449,6.449,0,0,1-2.814,1.386,4.123,4.123,0,0,1,1.106.924.455.455,0,0,0,.6.14c2.408-.868,3.724-2.352,3.724-4.508a3.325,3.325,0,0,0-3.486-3.556A6.231,6.231,0,0,0,137.7-6.3ZM150.7-7.168c-.518.084-1.19.21-1.582.266a13.4,13.4,0,0,1-1.5.14,5.5,5.5,0,0,0,.392,1.4c.084.182.182.238.364.154a4.088,4.088,0,0,1,.63-.21c.532-.112.98-.2,1.694-.294,0,1.484.028,2.66.1,3.416.168,1.834.994,2.422,3.822,2.422a32.191,32.191,0,0,0,3.514-.21c.126-.014.182-.084.182-.252a8.609,8.609,0,0,0-.084-1.176c-.028-.168-.07-.2-.28-.182a25.967,25.967,0,0,1-3.626.28c-1.708,0-2.016-.224-2.1-1.372-.056-.8-.042-1.638-.028-3.164,1.078-.168,2.3-.308,3.416-.392-.014.546-.042,1.05-.1,1.484-.07.49-.28.6-.658.6a4.4,4.4,0,0,1-1.19-.168,3.4,3.4,0,0,1,.308,1.26c0,.252.056.35.28.364a6.3,6.3,0,0,0,.868.042,1.629,1.629,0,0,0,1.834-1.554,21.526,21.526,0,0,0,.168-2.156c.924-.07,1.862-.112,2.786-.112.154,0,.182-.014.182-.2a10.466,10.466,0,0,0,0-1.148c0-.126-.056-.14-.168-.14-.756.028-1.6.07-2.73.154.014-.658.028-1.2.056-1.96a2.416,2.416,0,0,1,.14-.63.663.663,0,0,0,.084-.28c0-.14-.07-.21-.266-.266a9.777,9.777,0,0,0-1.694-.28,6.209,6.209,0,0,1,.182,1.6c0,.518,0,1.274-.014,1.974-1.008.112-2.492.266-3.458.392.014-.476.014-1.008.028-1.344a1.878,1.878,0,0,1,.14-.616.779.779,0,0,0,.084-.294.355.355,0,0,0-.294-.294,12.221,12.221,0,0,0-1.68-.238,5.607,5.607,0,0,1,.2,1.484Zm17.99-2.282a1.18,1.18,0,0,0-1.19,1.19,1.167,1.167,0,0,0,1.19,1.2,1.186,1.186,0,0,0,1.2-1.2A1.2,1.2,0,0,0,168.686-9.45Zm0,5.922a1.18,1.18,0,0,0-1.19,1.19,1.167,1.167,0,0,0,1.19,1.2,1.186,1.186,0,0,0,1.2-1.2A1.2,1.2,0,0,0,168.686-3.528Zm10.206-3.99c.084-1.274.63-1.932,1.512-1.932a1.333,1.333,0,0,1,1.4,1.484c0,.882-.308,1.442-1.708,2.786a13.52,13.52,0,0,0-3.052,3.962V.028h6.622v-1.4h-4.8a10.446,10.446,0,0,1,2.6-2.968c1.638-1.526,2.156-2.422,2.156-3.612,0-1.848-1.274-2.884-3.192-2.884a3.129,3.129,0,0,0-3.29,2.954Zm12.4-3.206h-2.212l-3.472,7.1v1.232h4.074V.028h1.61V-2.394h1.33V-3.71H191.3Zm-1.61,7.014h-2.618l1.316-2.828c.434-.938.84-1.876,1.19-2.8h.2c-.042,1.078-.084,2.142-.084,3.276ZM198.9-7.98c0-2.058.028-2.744.028-2.828,0-.14-.014-.154-.154-.154-.1,0-.364.028-1.2.028h-1.2c-.84,0-1.106-.028-1.2-.028-.14,0-.154.014-.154.154,0,.084.028.826.028,3.36V-4.4c0,3.514-.028,4.228-.028,4.312,0,.14.014.154.154.154H196.2c.126,0,.14-.014.14-.154V-1.19h1.288v.616c0,.14.014.154.14.154h1.008c.14,0,.154-.014.154-.154,0-.084-.028-.714-.028-4.2Zm-2.562,5.516V-5.488h1.288v3.024Zm1.288-7.2v2.9h-1.288v-2.9Zm7.63,3.472c1.33,0,1.792.028,1.876.028.154,0,.168-.014.168-.168v-.966c0-.14-.014-.154-.168-.154-.084,0-.546.028-1.876.028H203.77V-8.862h.938c1.274,0,1.694.028,1.778.028.14,0,.154-.014.154-.154v-.98c0-.154-.014-.168-.154-.168-.084,0-.5.028-1.778.028h-.938a3.251,3.251,0,0,1,.07-1.05.779.779,0,0,0,.084-.294c0-.07-.084-.126-.224-.14-.518-.056-.9-.084-1.442-.1a11.729,11.729,0,0,1,.1,1.582H201.7c-1.246,0-1.68-.028-1.764-.028-.154,0-.168.014-.168.168v.98c0,.14.014.154.168.154.084,0,.518-.028,1.764-.028h.658V-7.42h-1.008c-1.33,0-1.792-.028-1.876-.028-.154,0-.168.014-.168.154v.966c0,.154.014.168.168.168.084,0,.546-.028,1.876-.028Zm-1.092,2.632V-.77c0,.322-.126.434-.462.434-.462,0-.882-.014-1.372-.056a3.119,3.119,0,0,1,.42,1.022c.1.42.112.42.532.42A3.23,3.23,0,0,0,205.1.742a1.3,1.3,0,0,0,.49-1.19c0-.476-.014-1.078-.014-1.722V-3.556c.952.014,1.33.028,1.4.028.154,0,.168-.014.168-.154v-.98c0-.14-.014-.154-.168-.154-.07,0-.448.028-1.4.028a1.775,1.775,0,0,1,.07-.714.472.472,0,0,0,.07-.238c0-.07-.084-.126-.238-.154-.378-.056-.882-.1-1.414-.126a10.4,10.4,0,0,1,.1,1.232H201.4c-1.33,0-1.778-.028-1.862-.028-.154,0-.168.014-.168.154v.98c0,.14.014.154.168.154.084,0,.532-.028,1.862-.028Zm-3.78.882c-.168.1-.168.14-.07.252A11.722,11.722,0,0,1,201.544-.7c.042.07.07.1.112.1s.084-.028.168-.084l.854-.588c.14-.1.154-.14.07-.266a11.2,11.2,0,0,0-1.288-1.61c-.112-.1-.154-.1-.294-.014Zm21-6.622c0-1.19.028-1.764.028-1.848,0-.154-.014-.168-.154-.168-.084,0-.462.028-1.554.028h-2.058c-1.092,0-1.456-.028-1.54-.028-.14,0-.154.014-.154.168,0,.084.028.42.028,1.232V-7.98c0,.826-.028,1.148-.028,1.232,0,.154.014.168.154.168.084,0,.448-.028,1.54-.028h2.3v5.586c0,.42-.112.546-.574.546a9.651,9.651,0,0,1-1.176-.07,4.375,4.375,0,0,1,.336,1.022c.084.448.084.434.5.434,1.316,0,1.708-.112,2-.378a1.522,1.522,0,0,0,.406-1.288c0-.686-.056-1.806-.056-2.786Zm-4.032,1.68v-.84h2.59v.84Zm2.59-2.618v.826h-2.59v-.826Zm-8.442-1.05c-1.022,0-1.554-.028-1.652-.028-.14,0-.154.014-.154.168,0,.084.028,1.064.028,3.01v6.062c0,1.932-.028,2.884-.028,2.982,0,.14.014.154.154.154h1.19c.14,0,.154-.014.154-.154,0-.1-.028-1.05-.028-2.982V-6.608h2.268c.91,0,1.33.028,1.414.028.126,0,.14-.014.14-.168,0-.084-.028-.476-.028-1.33V-9.814c0-.84.028-1.246.028-1.33,0-.154-.014-.168-.14-.168-.084,0-.5.028-1.414.028Zm2.086,3.668h-2.422v-.84h2.422Zm0-2.618v.826h-2.422v-.826ZM214.046.1c.154,0,.168-.014.168-.168V-.644h2.562V-.21c0,.14.014.154.154.154h1.008c.14,0,.154-.014.154-.154,0-.07-.028-.448-.028-2.478V-4.074c0-1.008.028-1.428.028-1.512,0-.14-.014-.154-.154-.154-.1,0-.434.028-1.5.028h-1.89c-1.064,0-1.4-.028-1.5-.028-.14,0-.154.014-.154.154,0,.1.028.518.028,1.75V-2.6c0,2.072-.028,2.45-.028,2.534,0,.154.014.168.154.168Zm.168-1.806v-.98h2.562v.98Zm0-2.926h2.562V-3.7h-2.562Zm11.438-3.374a1.48,1.48,0,0,1,1.484-1.47,1.356,1.356,0,0,1,1.47,1.5c0,1.078-.56,1.68-1.96,1.68H225.9v1.428h.812c1.5,0,2.072.714,2.072,1.932a1.594,1.594,0,0,1-1.638,1.806c-.924,0-1.428-.434-1.666-1.512l-1.722.5a3.128,3.128,0,0,0,3.4,2.366,3.132,3.132,0,0,0,3.416-3.178,2.6,2.6,0,0,0-2.254-2.688v-.1a2.322,2.322,0,0,0,2.044-2.408c0-1.554-1.26-2.688-3.206-2.688a3.079,3.079,0,0,0-3.234,2.31Zm13.51-1.078a2.742,2.742,0,0,0-2.786-1.75c-2.268,0-3.7,1.708-3.7,5.936,0,3.612,1.372,5.124,3.43,5.124,1.918,0,3.262-1.442,3.262-3.752,0-2.156-1.134-3.458-2.786-3.458a2.451,2.451,0,0,0-2.184,1.26c.056-2.45.658-3.78,1.932-3.78.5,0,.952.266,1.12,1.05Zm-4.746,4.8a2.043,2.043,0,0,1,1.75-1.358c.938,0,1.442.742,1.442,2.17,0,1.554-.532,2.352-1.512,2.352C235.088-1.12,234.416-2.03,234.416-4.284Zm13.132-6.37h-5.656l-.21,5.992,1.456.21a1.552,1.552,0,0,1,1.512-1.2c.98,0,1.554.784,1.554,2.17,0,1.484-.63,2.352-1.638,2.352-.784,0-1.33-.448-1.526-1.484l-1.708.518A3,3,0,0,0,244.58.224C246.6.224,248-1.26,248-3.514c0-2.114-1.246-3.5-3.01-3.5a2.166,2.166,0,0,0-1.834.924c.042-.308.07-.686.084-1.008l.084-2.156h4.228ZM253.33.882c.14,0,.154-.014.154-.154V-.028h5.866V.658c0,.14.014.154.154.154h1.246c.14,0,.154-.014.154-.154,0-.084-.028-.91-.028-4.928V-7.378c0-2.3.028-3.15.028-3.234,0-.154-.014-.168-.154-.168-.084,0-.574.028-1.932.028h-4.8c-1.358,0-1.834-.028-1.932-.028-.14,0-.154.014-.154.168,0,.084.028.938.028,3.654v2.7c0,4.06-.028,4.886-.028,4.984,0,.14.014.154.154.154Zm.154-2.3V-4.8h5.866v3.388Zm0-7.952h5.866v3.192h-5.866Zm15.54,4.018c-1.358,0-1.82-.028-1.9-.028-.14,0-.154.014-.154.154V-4.2c0,.14.014.154.154.154.056,0,.378-.014.9-.014a9.172,9.172,0,0,0,1.876,2.436A17.1,17.1,0,0,1,264.88-.35a4.653,4.653,0,0,1,.56.994c.168.406.168.406.6.336a17.126,17.126,0,0,0,5.11-1.652,14.223,14.223,0,0,0,5.222,1.694c.434.07.434.056.588-.364a5.28,5.28,0,0,1,.532-1.05,16.159,16.159,0,0,1-5.012-1.148,10.268,10.268,0,0,0,2.058-2.128A1.83,1.83,0,0,1,275-4.144c.112-.07.168-.126.168-.224s-.056-.252-.406-.588c-.406-.406-.532-.49-.658-.49a.534.534,0,0,0-.182.056,1.334,1.334,0,0,1-.378.042Zm4.06,1.274a7.281,7.281,0,0,1-1.918,1.764,6.377,6.377,0,0,1-1.638-1.764ZM267.218-9c-.2.07-.2.1-.112.224a7.536,7.536,0,0,1,.532,1.064h-.5c-1.288,0-1.75-.028-1.834-.028-.14,0-.154.014-.154.154,0,.1.028.322.028.8v.7c0,.91-.028,1.232-.028,1.316,0,.14.014.154.154.154h1.12c.14,0,.154-.014.154-.154V-6.4h9.072v1.624c0,.14.014.154.154.154h1.134c.14,0,.154-.014.154-.154,0-.084-.028-.406-.028-1.3v-.812c0-.378.028-.616.028-.7,0-.14-.014-.154-.154-.154-.084,0-.546.028-1.834.028h-.6c.168-.28.308-.546.448-.812a1.654,1.654,0,0,1,.308-.434c.084-.084.154-.154.154-.238s-.07-.154-.21-.21c-.35-.14-.742-.28-1.218-.42a3.039,3.039,0,0,1-.21.686,11.737,11.737,0,0,1-.812,1.428h-.938a8.917,8.917,0,0,0-.588-1.722c-.07-.14-.126-.126-.28-.084l-.854.266c-.168.056-.2.112-.14.238a8.926,8.926,0,0,1,.476,1.3H269.08a11.06,11.06,0,0,0-.756-1.526c-.07-.126-.126-.154-.294-.084Zm7.854-2.73a9.307,9.307,0,0,1-1.176.308c-.784.14-1.736.266-3.136.392-1.638.14-3.472.238-5.25.252a4.314,4.314,0,0,1,.434.882c.14.434.14.434.448.42,1.624-.056,3.318-.168,4.8-.308,1.694-.154,2.772-.308,4.144-.5a4.311,4.311,0,0,1,.672-.056c.154,0,.224-.056.224-.14a.465.465,0,0,0-.154-.294A5.98,5.98,0,0,0,275.072-11.732Zm13.692,4.48V-.994c0,.336-.14.462-.532.462-.42.014-1.064-.014-1.61-.056A3.63,3.63,0,0,1,287.042.5c.1.434.1.434.532.434,1.358,0,1.946-.084,2.24-.322.364-.294.462-.588.462-1.3,0-.77-.042-1.708-.042-2.688V-7.252c1.2,0,1.638.028,1.722.028.14,0,.154-.014.154-.154V-8.484c0-.14-.014-.154-.154-.154-.084,0-.518.028-1.722.028V-9.7a4.337,4.337,0,0,1,.1-1.386.726.726,0,0,0,.1-.308c0-.07-.084-.14-.224-.154-.5-.056-1.022-.084-1.54-.1a12.854,12.854,0,0,1,.1,1.988v1.05H285.81c-1.344,0-1.82-.028-1.9-.028-.14,0-.154.014-.154.154v1.106c0,.14.014.154.154.154.084,0,.56-.028,1.9-.028ZM281.3-1.176c0,1.358-.028,2.03-.028,2.114,0,.14.014.154.154.154h1.218c.14,0,.154-.014.154-.154,0-.07-.028-.756-.028-2.114V-8.4c.308-.616.574-1.232.826-1.862a1.146,1.146,0,0,1,.28-.56c.112-.1.154-.154.154-.252s-.07-.154-.224-.21a11.415,11.415,0,0,0-1.414-.434,5.027,5.027,0,0,1-.238,1.008,13.05,13.05,0,0,1-2.814,4.76A4.463,4.463,0,0,1,279.9-4.7c.056.154.1.224.168.224s.126-.056.238-.182c.364-.434.7-.868,1.008-1.316-.014.574-.014,1.12-.014,1.624Zm5.824-1.9c.154-.1.2-.126.126-.252a14.658,14.658,0,0,0-1.694-2.66c-.1-.1-.126-.126-.266-.042l-.882.5c-.182.112-.2.126-.1.252a15.065,15.065,0,0,1,1.624,2.758c.042.084.07.126.112.126a.433.433,0,0,0,.168-.084Z" transform="translate(725 609.237)" fill="#1d9612"/>
    <g id="グループ_22052" data-name="グループ 22052">
      <path id="パス_81562" data-name="パス 81562" d="M1993.083,439.58q-9.473,0-18.949,0t-18.933,0c-3.548,0-5.67,2.1-5.675,5.618q-.018,12.888,0,25.789c.006,3.521,2.126,5.623,5.673,5.623h18.88q9.5.009,19,0c3.547,0,5.668-2.1,5.674-5.62q.019-12.889,0-25.788C1998.749,441.681,1996.629,439.58,1993.083,439.58Zm-39.439,2.881h40.918l.486.907-20.906,17.977-20.735-17.885Zm-1.28,3.814,13.509,11.644-13.509,13.471Zm2.14,27.486,13.737-13.774,1.675,1.431q1.393,1.189,2.788,2.389c1.221,1.052,1.644,1.058,2.825.038.895-.771,1.791-1.536,2.671-2.287l1.759-1.5,13.732,13.706Zm41.364-2.391-13.376-13.506,13.376-11.491Z" transform="translate(-1224.518 109.924)" fill="#1d9612" stroke="#1d9612" stroke-width="1"/>
      <path id="パス_81864" data-name="パス 81864" d="M14.924-13.188a41.721,41.721,0,0,0-4.872-2.94.468.468,0,0,0-.616.028c-.364.392-1.036,1.26-1.848,2.3a30.717,30.717,0,0,1,5.46,3.332A34.2,34.2,0,0,1,2.492-1.288,8.155,8.155,0,0,1,5.012.252.9.9,0,0,0,6.188.224a36.751,36.751,0,0,0,9.576-8.736,28.627,28.627,0,0,1,3.668,3.7c.224.28.476.392.728.056.588-.644,1.148-1.26,1.708-1.988A.532.532,0,0,0,21.84-7.5a32.54,32.54,0,0,0-4.116-3.808,54.992,54.992,0,0,0,3.192-5.544,6.118,6.118,0,0,1,1.26-1.876c.364-.308.476-.812.028-1.092a13.682,13.682,0,0,0-3.528-1.764,13.026,13.026,0,0,1-1.064,3.444A33.158,33.158,0,0,1,14.924-13.188ZM49-8.652c2.072,0,4.144.028,6.244.056.392.028.5-.084.5-.42a20.638,20.638,0,0,0,0-2.632c0-.336-.084-.42-.5-.392-2.156.028-4.312.084-6.44.084H39.788a35.972,35.972,0,0,1-6.048-.336A30.389,30.389,0,0,0,34.16-8.9c.084.42.308.588.644.588a22.39,22.39,0,0,1,4.116-.336ZM78.456-15.26c0-2.016,0-2.576.252-3.108.308-.644.392-1.008-.28-1.176a26.72,26.72,0,0,0-3.5-.588,22.358,22.358,0,0,1,.28,4.872V-6.5c0,1.428.028,1.764-.168,2.128-.2.392-.168.588.14,1.008a8.085,8.085,0,0,0,1.68,1.708.828.828,0,0,0,1.148,0,9.3,9.3,0,0,1,.812-.588A46.5,46.5,0,0,0,83.8-5.6a35.394,35.394,0,0,0,4.144-3.668c.532-.532.476-.728.252-1.176a8.072,8.072,0,0,1-.868-2.828,26.87,26.87,0,0,1-4.9,4.76,28.465,28.465,0,0,1-3.976,2.6Zm-9.772-3.108a7.531,7.531,0,0,1,.28,2.352c-.028,4.48-.392,6.02-1.176,7.924A13.9,13.9,0,0,1,63.14-2.52a9.922,9.922,0,0,1,2.38,1.176c.448.336.784.28,1.26-.14a14.424,14.424,0,0,0,3.976-5.264,20.956,20.956,0,0,0,1.512-8.232,4.039,4.039,0,0,1,.336-1.9c.168-.392.112-.728-.364-.868A22.637,22.637,0,0,0,68.684-18.368ZM112-16.3a23.568,23.568,0,0,1-4.732,7.98,27.061,27.061,0,0,1-9.156,7,8.325,8.325,0,0,1,2.6,1.54,1.048,1.048,0,0,0,1.456.056,31.4,31.4,0,0,0,7.952-6.664,32.973,32.973,0,0,0,5.432-9.1,3.37,3.37,0,0,1,.644-1.092c.392-.364.56-.756.2-1.176a8.617,8.617,0,0,0-2.044-1.848.9.9,0,0,0-.952-.028,2.678,2.678,0,0,1-1.54.28h-10a49,49,0,0,1-5.376-.2c.056.812.168,2.268.252,2.828.056.392.168.588.532.56,1.2-.056,2.8-.14,4.62-.14Zm25.564,14.14a.605.605,0,0,1-.56.672,20.132,20.132,0,0,1-3.36.224A4.661,4.661,0,0,1,135.436.868c.14.336.336.476.812.476a6.38,6.38,0,0,0,3.08-.84c.784-.448,1.176-1.12,1.12-2.576l-.364-7.812h1.848c1.652,0,3.108.056,4.172.056a.384.384,0,0,0,.476-.392c.028-.644.028-1.316,0-1.96,0-.28-.14-.392-.476-.364-1.176,0-2.856.084-4.256.084h-1.96l-.084-1.988a3.633,3.633,0,0,1,.14-1.624c.14-.336.056-.644-.364-.7a27.315,27.315,0,0,0-3.052-.252,14.731,14.731,0,0,1,.392,2.744L137-12.432h-4.76c-1.372,0-2.352,0-4.06-.112.056.98.112,1.708.2,2.324.028.308.2.476.42.448,1.2-.028,2.352-.112,3.528-.112h3.22A22.447,22.447,0,0,1,132.5-6.8a26.041,26.041,0,0,1-5.208,3.528A4.477,4.477,0,0,1,129.3-1.9c.308.392.532.336.924.112A33.881,33.881,0,0,0,134.512-4.9a21.777,21.777,0,0,0,2.8-3.08Zm34.636-6.5c2.072,0,4.144.028,6.244.056.392.028.5-.084.5-.42a20.638,20.638,0,0,0,0-2.632c0-.336-.084-.42-.5-.392-2.156.028-4.312.084-6.44.084h-9.016a35.972,35.972,0,0,1-6.048-.336,30.39,30.39,0,0,0,.42,3.388c.084.42.308.588.644.588a22.391,22.391,0,0,1,4.116-.336Zm24.388-13.356a14.931,14.931,0,0,1-.812,3.836c-1.456,4.7-2.912,8.848-4.9,13.86-1.12.028-2.3.056-3.416-.028a26.087,26.087,0,0,0,.98,3.612c.14.392.448.448.812.28a9.428,9.428,0,0,1,3.276-.672c4.564-.476,8.82-.952,13.3-1.624.336.728.644,1.456.98,2.24.14.392.392.5.728.308a14.1,14.1,0,0,0,2.128-1.148c.392-.224.476-.476.252-.84a39.375,39.375,0,0,0-5.656-9.156c-.2-.224-.364-.336-.672-.168-.784.42-1.6.9-2.436,1.344a27.912,27.912,0,0,1,3.108,4.48c-3.136.476-5.488.7-9.8,1.064,1.764-4.2,3.248-8.316,4.816-12.6a9,9,0,0,1,1.148-2.324c.392-.5.336-.756-.056-1.008A15.2,15.2,0,0,0,196.588-22.008Z" transform="translate(794 577.5)" fill="#1d9612" stroke="#1d9612" stroke-width="0.5"/>
    </g>
  </g>
</svg>
