<svg xmlns="http://www.w3.org/2000/svg" width="290.774" height="182.656" viewBox="0 0 290.774 182.656">
  <g id="グループ_10791" data-name="グループ 10791" transform="translate(0 0)">
    <g id="グループ_10786" data-name="グループ 10786" transform="translate(0 136.562)">
      <rect id="長方形_446" data-name="長方形 446" width="5.23" height="1.613" transform="translate(161.179 4.406)" fill="none"/>
      <rect id="長方形_447" data-name="長方形 447" width="5.529" height="1.956" transform="translate(221.707 17.972)" fill="none"/>
      <rect id="長方形_448" data-name="長方形 448" width="5.2" height="2.273" transform="translate(214.64 7.518)" fill="none"/>
      <path id="パス_16959" data-name="パス 16959" d="M338.007,581.7c0,1.708.809,3.432,2.615,3.432,1.23,0,1.8-.707,1.8-2.225v-6.8C340.264,576.857,338.007,579.041,338.007,581.7Z" transform="translate(-336.095 -562.3)" fill="none"/>
      <rect id="長方形_449" data-name="長方形 449" width="12.241" height="1.555" transform="translate(154.379 19.278)" fill="none"/>
      <path id="パス_16960" data-name="パス 16960" d="M570.737,565.157c-.074.174-.153.354-.231.534s-.162.369-.237.547c.429,2.286,1.52,6.309,2.814,8.271a24.276,24.276,0,0,0,2.383-9.352Z" transform="translate(-438.915 -557.451)" fill="none"/>
      <rect id="長方形_450" data-name="長方形 450" width="12.241" height="1.557" transform="translate(154.379 22.257)" fill="none"/>
      <rect id="長方形_451" data-name="長方形 451" width="5.23" height="1.455" transform="translate(161.179 7.475)" fill="none"/>
      <rect id="長方形_452" data-name="長方形 452" width="5.301" height="2.273" transform="translate(221.707 7.518)" fill="none"/>
      <rect id="長方形_453" data-name="長方形 453" width="5.529" height="1.956" transform="translate(221.707 14.382)" fill="none"/>
      <rect id="長方形_454" data-name="長方形 454" width="4.288" height="5.518" transform="translate(272.388 8.782)" fill="none"/>
      <path id="パス_16961" data-name="パス 16961" d="M788.769,560.644l-.019.055a11.492,11.492,0,0,0,2.755,3.907,10.542,10.542,0,0,0,1.8-3.961Z" transform="translate(-535.634 -555.453)" fill="none"/>
      <path id="パス_16962" data-name="パス 16962" d="M351.237,565.879a8.106,8.106,0,0,0-4.8-1.8,18.637,18.637,0,0,0-3.693.166v-3.734l1.1-.055c1.2-.058,2.436-.118,3.644-.229l.072-.006v-1.831l-.088.01c-.328.035-.655.074-.983.111a33.936,33.936,0,0,1-3.716.294v-4.06h-2.043v.222c0,1.278,0,2.6.025,3.9-1.132.055-2.292.081-3.45.081-.793,0-1.541,0-2.325-.027l-.082,0v1.918l.082,0c.986-.029,2-.073,2.97-.115.94-.041,1.91-.083,2.86-.112l.025,4.023a11.193,11.193,0,0,0-4.163,2.822,7.258,7.258,0,0,0-2.088,4.818c0,3.061,1.85,5.118,4.6,5.118,2.346,0,3.585-1.331,3.585-3.852v-7.455a9.3,9.3,0,0,1,3.132-.24c2.724.159,5.472,1.789,5.472,5.069,0,3.815-3.019,4.786-5.848,5.4l-.147.031.108.1a11.705,11.705,0,0,1,1.092,1.229l.029.037.047-.007c4.5-.766,6.788-3.042,6.788-6.763A6.418,6.418,0,0,0,351.237,565.879Zm-10.33,7.572c0,1.518-.573,2.225-1.8,2.225-1.806,0-2.615-1.724-2.615-3.432,0-2.659,2.257-4.844,4.418-5.589Z" transform="translate(-334.577 -552.842)"/>
      <path id="パス_16963" data-name="パス 16963" d="M364.711,557.69l-.055-.046-1.443,1.4.065.056a29.976,29.976,0,0,1,4,4.033l.054.069,1.517-1.43-.049-.057A34.587,34.587,0,0,0,364.711,557.69Z" transform="translate(-347.254 -554.125)"/>
      <path id="パス_16964" data-name="パス 16964" d="M402.28,558.161l.078.017.454-2.085-.079-.016a58.658,58.658,0,0,0-9.22-1.125l-.069,0-.4,2.089h.095A44.223,44.223,0,0,1,402.28,558.161Z" transform="translate(-360.461 -552.931)"/>
      <path id="パス_16965" data-name="パス 16965" d="M397.53,566.1a23.75,23.75,0,0,0-9.66,1.73l-.069.024.5,2.026.081-.027A29.758,29.758,0,0,1,397,568.141a3.837,3.837,0,0,1,2.835,1.059,3.77,3.77,0,0,1,.986,2.774c-.157,5.65-5.288,7.75-10.286,9.059l-.07.018.285,1.829.077-.011a17.231,17.231,0,0,0,7.744-2.96,10.247,10.247,0,0,0,4.31-7.67,5.65,5.65,0,0,0-1.215-4.262A5.8,5.8,0,0,0,397.53,566.1Z" transform="translate(-358.139 -557.852)"/>
      <path id="パス_16966" data-name="パス 16966" d="M467.194,553.064l-.037-.062-1.271.617.047.075A21.156,21.156,0,0,1,467.5,556.7l.034.081,1.24-.682-.028-.066A23.96,23.96,0,0,0,467.194,553.064Z" transform="translate(-392.706 -552.07)"/>
      <path id="パス_16967" data-name="パス 16967" d="M451.8,561.393l-.027-.079-.077.032a30.675,30.675,0,0,1-5.4,1.547,35.15,35.15,0,0,1-1.145-3.5c.5-.134,1.038-.265,1.608-.4.733-.179,1.491-.365,2.151-.553l.077-.022-.023-.078c-.072-.243-.132-.458-.191-.675-.075-.271-.152-.553-.257-.891l-.023-.075-.075.022c-.761.227-2.7.689-3.709.887-.245-1.05-.445-1.953-.6-3.071h0c-.016-.109-.058-.386-.058-.386l-.012-.075-.076.008c-.7.077-1.353.181-1.955.283l-.082.014.017.081c.259,1.192.511,2.155.8,3.27l.08.308-.269.049c-1.865.342-3.98.73-6.015,1l-.093.012.027.089c.057.187.113.392.169.6.1.367.2.745.323,1.061l.022.06.064-.009c1.838-.283,4.12-.634,6.271-1.066.372,1.2.732,2.275,1.16,3.468-2.618.43-5.471.808-8.257,1.092l-.464.044.383,1.887.073-.008c2.177-.252,5.483-.69,8.9-1.346.339.767,1.6,3.445,2,4.248-.159-.046-.263-.08-.4-.124l-.138-.046a14.547,14.547,0,0,0-2.578-.495,15.068,15.068,0,0,0-2.129-.065c-2.451.125-5.312,1.328-5.312,4.307,0,1.885,1.1,3.23,3.279,4a16.314,16.314,0,0,0,5.312.731,18.589,18.589,0,0,0,3.1-.2l.068-.012,0-.07c0-.01-.041-1.009-.049-1.65l0-.1-.1.024a11.154,11.154,0,0,1-2.988.27h-.422c-4.072,0-6.225-1.1-6.225-3.173,0-1.359,1.457-2.093,2.316-2.312a7.237,7.237,0,0,1,1.553-.171,15.656,15.656,0,0,1,6.455,1.491l.056.024.038-.047c.436-.544.845-1.014,1.249-1.434l.051-.052-.048-.055a21.925,21.925,0,0,1-3.294-5.39,54.509,54.509,0,0,0,5.51-1.476l.083-.028-.035-.08C452.211,562.465,452.014,561.994,451.8,561.393Z" transform="translate(-379.372 -552.543)"/>
      <path id="パス_16968" data-name="パス 16968" d="M462.614,554.764l-.04-.066-1.242.714.05.071a14.51,14.51,0,0,1,1.456,2.921l.032.082,1.269-.652-.03-.069A24.359,24.359,0,0,0,462.614,554.764Z" transform="translate(-390.69 -552.82)"/>
      <path id="パス_16969" data-name="パス 16969" d="M503.007,571.439h7.375v8.5c0,2.2-.507,2.458-2.263,3.009l-.056.018-.008,2.2.1-.023c3.558-.828,4.191-2.083,4.191-5.2v-8.5h4.447v-1.714H503.007Z" transform="translate(-409.139 -559.473)"/>
      <rect id="長方形_455" data-name="長方形 455" width="11.615" height="1.829" transform="translate(94.731 2.825)"/>
      <path id="パス_16970" data-name="パス 16970" d="M489.048,560.394a24.47,24.47,0,0,0,5.742-6.134l.047-.069-.072-.044c-.22-.134-.779-.491-1.227-.778-.288-.184-.532-.34-.619-.394l-.075-.046-.039.079a17.083,17.083,0,0,1-5.221,5.933l-.076.056,1.486,1.43Z" transform="translate(-402.278 -552.037)"/>
      <path id="パス_16971" data-name="パス 16971" d="M492.915,563.4a25.025,25.025,0,0,1-6.862,8.713l-.065.051,1.288,1.509.06-.048a19.219,19.219,0,0,0,2.958-3.031V582.3h1.886v-13.84a30.686,30.686,0,0,0,2.423-3.618c.088-.168.22-.4.22-.4l.038-.07-1.912-1.058Z" transform="translate(-401.605 -556.635)"/>
      <path id="パス_16972" data-name="パス 16972" d="M554.2,574.476,553.544,573l-.07.026c-1.183.434-1.976.705-3.087,1.053v-6.46h2.721v-1.744h-2.7v-6.346H554.1V557.9H543.713v1.629h4.867v15c-.759.242-1.528.461-2.273.673v-11.34h-.078s-1.048-.006-1.571-.006h-.079v11.787c-.441.149-.908.286-1.322.408l-.479.142-.073.022.533,2.01.077-.02c.317-.082.558-.165.752-.231l.093-.032c.918-.309,1.878-.622,2.807-.924,2.394-.779,4.869-1.584,7.161-2.513Z" transform="translate(-426.712 -554.236)"/>
      <path id="パス_16973" data-name="パス 16973" d="M569.6,570.543c1.666-2.394,2.784-6.106,3.323-11.032H575.2V557.8H566.79a43.131,43.131,0,0,0,1.346-4.3c.017-.064.037-.129.056-.2a3.794,3.794,0,0,0,.1-.38l.013-.071-.069-.021c-.5-.145-.743-.207-1.118-.3l-.426-.106-.077-.014-.021.075a42.545,42.545,0,0,1-4.146,10.79l-.031.058,1.268,1.013.049-.067a13.864,13.864,0,0,0,.814-1.3,26.632,26.632,0,0,0,2.817,7.544,14.926,14.926,0,0,1-7.284,5.569l-.11.041,1.346,1.451.049-.019a16.733,16.733,0,0,0,7.164-5.521,16.927,16.927,0,0,0,5.875,5.432l.056.031.042-.048c.189-.219.372-.451.549-.675.265-.336.539-.682.835-.991l.08-.084-.108-.045A14.962,14.962,0,0,1,569.6,570.543Zm-1.072-1.68c-1.294-1.961-2.385-5.985-2.814-8.271.076-.178.157-.363.237-.547s.157-.36.231-.534h4.728A24.274,24.274,0,0,1,568.523,568.863Z" transform="translate(-434.356 -551.804)"/>
      <path id="パス_16974" data-name="パス 16974" d="M621.269,554.78H614.13v-1.53l.018-.712-.077,0c-.4-.021-.773-.015-1.165-.007-.2,0-.4.007-.609.007h-.079v2.247h-7.011v1.539h7.037v1.555H601.912v1.514h10.331v1.4H605.26v1.424h6.984v1.6h-7.35v1.454h7.35v1.569H601.912v1.454h23.1V566.83H614.1v-1.569h7.744v-1.454H614.1v-1.6h7.167v-2.936h3.742V557.76h-3.742Zm-1.937,6.006H614.1v-1.455h5.23Zm0-2.911H614.1v-1.613h5.23Z" transform="translate(-452.923 -551.856)"/>
      <path id="パス_16975" data-name="パス 16975" d="M608.344,590.836h15.9v-7.471h-15.9Zm1.805-6.048H622.39v1.555H610.149Zm0,2.98H622.39v1.557H610.149Z" transform="translate(-455.77 -565.511)"/>
      <path id="パス_16976" data-name="パス 16976" d="M669.859,553.716h-2.12v8.492h-9.782v1.886h9.808v10.75h-8.4v1.829h19.123v-1.829h-8.658v-10.75h9.912v-1.886h-9.887Z" transform="translate(-477.733 -552.386)"/>
      <path id="パス_16977" data-name="パス 16977" d="M730.277,564.192h-7.395v-1.669H730.1v-5.137h-7.218v-1.727h9.345v-1.6h-9.32v-2.217l-1.917-.509v2.726h-9.37v1.6h9.4v1.727H713.95v5.137h7.066v1.669H713.9v1.548h7.116v1.927H710.911V569.3h10.105v1.9h-7.193v1.633h7.193c0,1.1-.05,1.85-.531,2.208a9.045,9.045,0,0,1-1.97.917l-.078.026.526,1.666.081-.026c2.9-.938,3.838-1.493,3.838-4.472v-.318h7.395V569.3h3.039v-1.69h-3.039Zm-7.395-5.345h5.3v2.273h-5.3Zm-1.866,2.273h-5.2v-2.273h5.2Zm7.395,10.137h-5.529V569.3h5.529Zm0-3.59h-5.529v-1.956h5.529Z" transform="translate(-501.176 -551.329)"/>
      <path id="パス_16978" data-name="パス 16978" d="M788.042,576.68l0-.065L786.4,576.1l.006.121a11.54,11.54,0,0,1-.2,2.611h-4.245v1.432h4.065a9.447,9.447,0,0,1-5.211,6.212l-.1.053,1.095,1.059.054-.028a9.9,9.9,0,0,0,5.772-7.412h3.141a17.155,17.155,0,0,1-.278,3.572c-.455,1.9-1.656,2.2-3.178,2.406l-.126.017.816,1.389.052,0c1.811-.154,3-.626,3.742-2.58.546-1.372.639-4.519.683-6.032l0-.086h-4.635A15.126,15.126,0,0,0,788.042,576.68Z" transform="translate(-532.078 -562.297)"/>
      <path id="パス_16979" data-name="パス 16979" d="M789.781,561.933a16.534,16.534,0,0,0,2.42-4.925h2.056v-1.489h-7.529a22.765,22.765,0,0,0,1.141-2.178l.032-.068-1.555-.971-.035.1a19.779,19.779,0,0,1-3.869,6.565l-.055.06,1.082,1.09.06-.06a12.632,12.632,0,0,0,1.332-1.564,19.929,19.929,0,0,0,2.61,3.716,11.472,11.472,0,0,1-4.5,2.908l-.112.044.079.091a10.258,10.258,0,0,1,.9,1.167l.036.056.063-.022a14.413,14.413,0,0,0,4.766-3.208,14.485,14.485,0,0,0,5.276,3.037l.065.021,1.024-1.76-.1-.031A16.429,16.429,0,0,1,789.781,561.933Zm-1.092-1.02a11.492,11.492,0,0,1-2.755-3.907l.018-.055h4.533A10.546,10.546,0,0,1,788.689,560.913Z" transform="translate(-532.817 -551.76)"/>
      <path id="パス_16980" data-name="パス 16980" d="M773.738,562.428h-3.588l.645-.655-.045-.059a9.289,9.289,0,0,0-1.133-1.244,11.768,11.768,0,0,0,3.707-5.954l.02-.1H764.85v1.633h6.06a13.544,13.544,0,0,1-2.355,3.331c-.6-.563-1.217-1.125-1.816-1.669l-.066-.06-.056.068c-.345.419-.682.832-1.015,1.267l-.051.067.067.051a34.755,34.755,0,0,1,3.676,3.353h-5.128v1.489h3.951a20.772,20.772,0,0,1-4.69,8.269l-.065.063,1.159,1.048.056-.055a18.013,18.013,0,0,0,3.844-6.011v6.308c0,1.917-.6,2.885-2.123,3.454l-.12.044,1.191,1.254.054-.021c2.234-.892,2.61-2.189,2.61-4.76v-9.68H772a11.956,11.956,0,0,1-1.05,3.69l-.037.075,1.371.685.04-.07a17.206,17.206,0,0,0,1.4-5.721Z" transform="translate(-524.395 -552.695)"/>
      <path id="パス_16981" data-name="パス 16981" d="M825.8,564.516h-7.82l0,.086c.034,1.358.023,2.739.011,4.075-.005.68-.011,1.36-.011,2.04,0,3.666-.325,7.775-2.739,10.455l-.067.075,1.486.922.047-.049c1.973-2.068,2.918-6.075,2.985-9.165h6.1Zm-1.79,6.95h-4.289v-5.518h4.289Z" transform="translate(-547.332 -557.167)"/>
      <path id="パス_16982" data-name="パス 16982" d="M837.11,562.481c0-1.755,0-3.283-.025-5.006,1.45-.2,5.991-1.382,7.059-1.67l.11-.03-.061-.1a15.092,15.092,0,0,1-.859-1.584l-.027-.079-.08.026a57.644,57.644,0,0,1-7.938,1.835l-.073.011v.074q.013,1.194.031,2.38c.022,1.55.045,3.154.045,4.742,0,5.271,0,10.248-4.422,13.457l-.1.072.1.068c.471.309.959.63,1.414.974l.052.039.051-.039c4.08-3.181,4.661-8.395,4.667-13.567h3.174v13.9H842.1v-13.9h2.912v-1.605Z" transform="translate(-554.237 -552.518)"/>
      <rect id="長方形_456" data-name="長方形 456" width="7.758" height="1.748" transform="translate(270.708 2.438)"/>
    </g>
    <g id="グループ_10787" data-name="グループ 10787" transform="translate(82.395)">
      <path id="パス_16983" data-name="パス 16983" d="M586.538,330.559c-9.958-8.321-22.484-12.54-37.227-12.54h-.118c-14.744,0-27.269,4.219-37.228,12.54-8.982,7.5-15.48,18.184-18.792,30.883-1.574,6.035-3.547,18.993-.956,29.278,5.282,20.963,23.423,30.727,57.093,30.727,31.389,0,52.155-11.2,56.975-30.719,2.565-10.392.607-23.3-.955-29.286C602.018,348.743,595.52,338.064,586.538,330.559Zm-73.6,43.722c-6.015-3.461-7.642-10.768-3.178-18.727,5.124-9.137,17.958-17.6,25.687-11.895,5.384,3.975,3.353,13.11-3.011,22C526.34,374.173,518.1,377.249,512.942,374.281Zm63.565,18.344a9.822,9.822,0,0,1-5.552,6.579,17.215,17.215,0,0,1-6.766,1.321,20.539,20.539,0,0,1-4.428-.491c-4.764-1.054-8.32-3.32-10.449-6.508-2.129,3.188-5.685,5.454-10.449,6.508a20.54,20.54,0,0,1-4.428.491,17.214,17.214,0,0,1-6.766-1.321,9.822,9.822,0,0,1-5.553-6.579c-.453-1.762-.349-3.4.244-3.548,1.023-.262,1.761,1.143,2.594,2.308a10.17,10.17,0,0,0,4.513,3.62,13.937,13.937,0,0,0,8.409.569c4.175-.924,9.15-3.406,9.15-9.983v-2.233c-3.391-1.19-5.882-4.943-5.882-7.854,0-3.5,3.6-4.988,8.051-4.988s8.052,1.485,8.052,4.988c0,2.845-2.378,6.5-5.652,7.778v2.284c0,.008,0,.016,0,.024,0,6.577,4.976,9.06,9.151,9.983a13.937,13.937,0,0,0,8.409-.569,10.169,10.169,0,0,0,4.513-3.62c.833-1.166,1.571-2.57,2.594-2.308C576.856,389.228,576.96,390.864,576.507,392.625Zm8.905-18.312c-5.168,2.951-13.4-.153-19.468-8.69-6.334-8.908-8.335-18.05-2.937-22.007,7.748-5.68,20.554,2.827,25.647,11.98C593.09,363.571,591.438,370.873,585.412,374.314Z" transform="translate(-486.202 -311.483)" fill="#fff"/>
      <path id="パス_16984" data-name="パス 16984" d="M545.353,384.55c6.364-8.887,8.395-18.022,3.011-22-7.729-5.706-20.563,2.758-25.686,11.895-4.464,7.959-2.836,15.266,3.178,18.727C531.013,396.143,539.254,393.067,545.353,384.55Z" transform="translate(-499.115 -330.378)"/>
      <path id="パス_16985" data-name="パス 16985" d="M617.754,362.492c-5.4,3.957-3.4,13.1,2.937,22.007,6.07,8.537,14.3,11.641,19.469,8.69,6.026-3.441,7.678-10.743,3.241-18.717C638.307,365.32,625.5,356.812,617.754,362.492Z" transform="translate(-540.949 -330.36)"/>
      <path id="パス_16986" data-name="パス 16986" d="M600.786,430.777c-1.023-.262-1.761,1.142-2.594,2.308a10.169,10.169,0,0,1-4.513,3.62,13.937,13.937,0,0,1-8.409.568c-4.175-.923-9.15-3.406-9.15-9.983,0-.008,0-.016,0-.024v-2.284c3.274-1.275,5.652-4.933,5.652-7.778,0-3.5-3.6-4.988-8.052-4.988s-8.051,1.485-8.051,4.988c0,2.911,2.491,6.664,5.883,7.854v2.233c0,6.577-4.976,9.06-9.151,9.983a13.937,13.937,0,0,1-8.409-.568,10.17,10.17,0,0,1-4.513-3.62c-.833-1.166-1.571-2.57-2.594-2.308-.593.152-.7,1.787-.244,3.548a9.822,9.822,0,0,0,5.552,6.579,17.214,17.214,0,0,0,6.766,1.321,20.537,20.537,0,0,0,4.428-.491c4.764-1.054,8.32-3.32,10.449-6.508,2.128,3.188,5.684,5.454,10.448,6.508a20.536,20.536,0,0,0,4.428.491,17.215,17.215,0,0,0,6.766-1.321,9.822,9.822,0,0,0,5.552-6.579C601.484,432.563,601.379,430.928,600.786,430.777Z" transform="translate(-510.725 -353.183)"/>
      <path id="パス_16987" data-name="パス 16987" d="M608.4,325.73a19.438,19.438,0,0,0-35.326-11.2,65.01,65.01,0,0,0-27.548-5.764h-.118a64.975,64.975,0,0,0-27.637,5.807,19.438,19.438,0,1,0-27.229,26.964,71.314,71.314,0,0,0-5.083,13.688c-.461,1.766-4.4,17.651-.965,31.294,5.809,23.057,25.2,33.8,61.031,33.8,33.41,0,55.613-12.322,60.917-33.806,2.76-11.182.69-24.926-.968-31.284a71.329,71.329,0,0,0-5.114-13.752A19.444,19.444,0,0,0,608.4,325.73Zm-6.855,30.52c1.562,5.988,3.52,18.894.955,29.286-4.82,19.523-25.586,30.719-56.975,30.719-33.669,0-51.811-9.764-57.093-30.727-2.591-10.285-.618-23.243.956-29.278,3.312-12.7,9.81-23.378,18.792-30.883,9.959-8.321,22.484-12.54,37.228-12.54h.118c14.744,0,27.269,4.219,37.227,12.54C591.739,332.872,598.238,343.552,601.55,356.251Z" transform="translate(-482.421 -306.292)"/>
    </g>
    <g id="グループ_10790" data-name="グループ 10790" transform="translate(15.596 174.557)">
      <path id="パス_16988" data-name="パス 16988" d="M362.562,623.094v-.017a3.138,3.138,0,0,1,3.149-3.221,3.241,3.241,0,0,1,2.429.988l-.48.516a2.707,2.707,0,0,0-1.958-.854,2.442,2.442,0,0,0-2.411,2.554v.018a2.458,2.458,0,0,0,2.411,2.572,2.7,2.7,0,0,0,2.011-.9l.463.454a3.242,3.242,0,0,1-2.491,1.1A3.107,3.107,0,0,1,362.562,623.094Z" transform="translate(-362.562 -619.66)" fill="#1a1311" stroke="#1a1311" stroke-miterlimit="10" stroke-width="0.252"/>
      <path id="パス_16989" data-name="パス 16989" d="M375.161,625.2v-.018a2.269,2.269,0,0,1,2.207-2.393,2.19,2.19,0,0,1,2.144,2.429,1.787,1.787,0,0,1-.009.223h-3.648a1.607,1.607,0,0,0,1.62,1.557,1.9,1.9,0,0,0,1.45-.65l.427.383a2.376,2.376,0,0,1-1.9.863A2.287,2.287,0,0,1,375.161,625.2Zm3.657-.267a1.515,1.515,0,0,0-1.468-1.566,1.587,1.587,0,0,0-1.5,1.566Z" transform="translate(-368.139 -620.961)" fill="#1a1311" stroke="#1a1311" stroke-miterlimit="10" stroke-width="0.252"/>
      <path id="パス_16990" data-name="パス 16990" d="M386.324,622.9h.685v1.2a1.969,1.969,0,0,1,1.878-1.281v.738h-.054a1.855,1.855,0,0,0-1.824,2.109V627.5h-.685Z" transform="translate(-373.081 -620.974)" fill="#1a1311" stroke="#1a1311" stroke-miterlimit="10" stroke-width="0.252"/>
      <path id="パス_16991" data-name="パス 16991" d="M393.911,625.248v-2.776h-.64v-.605h.64v-1.388h.685v1.388h1.46v.605H394.6v2.687a.681.681,0,0,0,.774.766,1.439,1.439,0,0,0,.668-.161v.588a1.722,1.722,0,0,1-.828.2A1.171,1.171,0,0,1,393.911,625.248Z" transform="translate(-376.156 -619.936)" fill="#1a1311" stroke="#1a1311" stroke-miterlimit="10" stroke-width="0.252"/>
      <path id="パス_16992" data-name="パス 16992" d="M401.67,619.808h.783v.756h-.783Zm.044,1.762h.685v4.6h-.685Z" transform="translate(-379.875 -619.639)" fill="#1a1311" stroke="#1a1311" stroke-miterlimit="10" stroke-width="0.252"/>
      <path id="パス_16993" data-name="パス 16993" d="M407,622.041h-.633v-.6H407v-.4a1.623,1.623,0,0,1,.4-1.184,1.355,1.355,0,0,1,.988-.356,2.081,2.081,0,0,1,.757.115v.6a2.289,2.289,0,0,0-.668-.116c-.534,0-.8.32-.8.979v.373h1.46v.587h-1.451v4H407Z" transform="translate(-381.953 -619.505)" fill="#1a1311" stroke="#1a1311" stroke-miterlimit="10" stroke-width="0.252"/>
      <g id="グループ_10788" data-name="グループ 10788" transform="translate(30.962 0.035)">
        <path id="パス_16994" data-name="パス 16994" d="M418.118,625.2v-.018a2.269,2.269,0,0,1,2.206-2.393,2.19,2.19,0,0,1,2.145,2.429,1.793,1.793,0,0,1-.009.223h-3.648A1.606,1.606,0,0,0,420.431,627a1.9,1.9,0,0,0,1.45-.65l.427.383a2.376,2.376,0,0,1-1.9.863A2.287,2.287,0,0,1,418.118,625.2Zm3.657-.267a1.515,1.515,0,0,0-1.468-1.566,1.586,1.586,0,0,0-1.494,1.566Z" transform="translate(-418.118 -620.996)" fill="#1a1311" stroke="#1a1311" stroke-miterlimit="10" stroke-width="0.252"/>
        <path id="パス_16995" data-name="パス 16995" d="M428.8,623.777v-.018a2.257,2.257,0,0,1,2.2-2.393,2.074,2.074,0,0,1,1.762.979v-2.777h.685v6.5h-.685v-.926A2.067,2.067,0,0,1,431,626.161,2.244,2.244,0,0,1,428.8,623.777Zm3.986-.009v-.017a1.71,1.71,0,0,0-1.664-1.771,1.624,1.624,0,0,0-1.619,1.771v.017a1.661,1.661,0,0,0,1.619,1.779A1.718,1.718,0,0,0,432.788,623.768Z" transform="translate(-422.848 -619.568)" fill="#1a1311" stroke="#1a1311" stroke-miterlimit="10" stroke-width="0.252"/>
        <path id="パス_16996" data-name="パス 16996" d="M449.158,619.967h.659l2.838,6.274H451.9l-.73-1.646h-3.39l-.739,1.646h-.721Zm1.736,3.987-1.415-3.167-1.423,3.167Z" transform="translate(-430.603 -619.745)" fill="#1a1311" stroke="#1a1311" stroke-miterlimit="10" stroke-width="0.252"/>
        <path id="パス_16997" data-name="パス 16997" d="M459.687,623.777v-.018a2.257,2.257,0,0,1,2.2-2.393,2.073,2.073,0,0,1,1.762.979v-2.777h.685v6.5h-.685v-.926a2.067,2.067,0,0,1-1.762,1.023A2.244,2.244,0,0,1,459.687,623.777Zm3.987-.009v-.017a1.71,1.71,0,0,0-1.664-1.771,1.624,1.624,0,0,0-1.62,1.771v.017a1.662,1.662,0,0,0,1.62,1.779A1.718,1.718,0,0,0,463.673,623.768Z" transform="translate(-436.52 -619.568)" fill="#1a1311" stroke="#1a1311" stroke-miterlimit="10" stroke-width="0.252"/>
        <path id="パス_16998" data-name="パス 16998" d="M471.967,622.891h.685v.774a1.68,1.68,0,0,1,1.486-.872,1.562,1.562,0,0,1,1.477.916,1.834,1.834,0,0,1,1.62-.916,1.653,1.653,0,0,1,1.708,1.85v2.848h-.685V624.8c0-.89-.445-1.388-1.192-1.388a1.282,1.282,0,0,0-1.264,1.424v2.652h-.685v-2.705c0-.863-.454-1.37-1.183-1.37a1.333,1.333,0,0,0-1.281,1.451v2.625h-.685Z" transform="translate(-441.956 -620.996)" fill="#1a1311" stroke="#1a1311" stroke-miterlimit="10" stroke-width="0.252"/>
        <path id="パス_16999" data-name="パス 16999" d="M488.383,619.808h.783v.756h-.783Zm.045,1.762h.685v4.6h-.685Z" transform="translate(-449.224 -619.674)" fill="#1a1311" stroke="#1a1311" stroke-miterlimit="10" stroke-width="0.252"/>
        <path id="パス_17000" data-name="パス 17000" d="M493.749,622.891h.685v.8a1.742,1.742,0,0,1,1.575-.9,1.68,1.68,0,0,1,1.762,1.841v2.857h-.685V624.8a1.226,1.226,0,0,0-1.272-1.388,1.354,1.354,0,0,0-1.379,1.442v2.634h-.685Z" transform="translate(-451.599 -620.996)" fill="#1a1311" stroke="#1a1311" stroke-miterlimit="10" stroke-width="0.252"/>
        <path id="パス_17001" data-name="パス 17001" d="M504.816,619.808h.783v.756h-.783Zm.044,1.762h.685v4.6h-.685Z" transform="translate(-456.498 -619.674)" fill="#1a1311" stroke="#1a1311" stroke-miterlimit="10" stroke-width="0.252"/>
        <path id="パス_17002" data-name="パス 17002" d="M509.495,626.919l.347-.489a2.692,2.692,0,0,0,1.593.587c.552,0,.952-.285.952-.73v-.018c0-.463-.542-.641-1.147-.809-.721-.205-1.521-.454-1.521-1.3v-.018a1.392,1.392,0,0,1,1.566-1.316,3.142,3.142,0,0,1,1.655.507l-.311.516a2.6,2.6,0,0,0-1.361-.444c-.543,0-.89.284-.89.667v.018c0,.436.57.6,1.184.792.712.214,1.477.489,1.477,1.316v.018a1.449,1.449,0,0,1-1.637,1.379A3.163,3.163,0,0,1,509.495,626.919Z" transform="translate(-458.569 -621.01)" fill="#1a1311" stroke="#1a1311" stroke-miterlimit="10" stroke-width="0.252"/>
        <path id="パス_17003" data-name="パス 17003" d="M519.095,625.248v-2.776h-.641v-.605h.641v-1.388h.685v1.388h1.459v.605H519.78v2.687a.681.681,0,0,0,.774.766,1.437,1.437,0,0,0,.667-.161v.588a1.721,1.721,0,0,1-.827.2A1.171,1.171,0,0,1,519.095,625.248Z" transform="translate(-462.536 -619.971)" fill="#1a1311" stroke="#1a1311" stroke-miterlimit="10" stroke-width="0.252"/>
        <path id="パス_17004" data-name="パス 17004" d="M526.821,622.9h.685v1.2a1.969,1.969,0,0,1,1.877-1.281v.738h-.053a1.855,1.855,0,0,0-1.824,2.109V627.5h-.685Z" transform="translate(-466.24 -621.009)" fill="#1a1311" stroke="#1a1311" stroke-miterlimit="10" stroke-width="0.252"/>
        <path id="パス_17005" data-name="パス 17005" d="M533.465,626.185v-.018c0-.97.8-1.486,1.966-1.486a4.878,4.878,0,0,1,1.415.2v-.161c0-.828-.507-1.255-1.37-1.255a3.2,3.2,0,0,0-1.4.338l-.205-.561a3.8,3.8,0,0,1,1.673-.383,2.02,2.02,0,0,1,1.486.507,1.816,1.816,0,0,1,.471,1.344v2.812h-.658v-.694a2.016,2.016,0,0,1-1.664.792A1.549,1.549,0,0,1,533.465,626.185Zm3.39-.356v-.445a4.786,4.786,0,0,0-1.352-.2c-.863,0-1.344.373-1.344.952v.018c0,.578.534.916,1.156.916A1.391,1.391,0,0,0,536.855,625.829Z" transform="translate(-469.181 -621.024)" fill="#1a1311" stroke="#1a1311" stroke-miterlimit="10" stroke-width="0.252"/>
        <path id="パス_17006" data-name="パス 17006" d="M544.374,625.248v-2.776h-.641v-.605h.641v-1.388h.685v1.388h1.46v.605h-1.46v2.687a.681.681,0,0,0,.774.766,1.437,1.437,0,0,0,.667-.161v.588a1.721,1.721,0,0,1-.827.2A1.171,1.171,0,0,1,544.374,625.248Z" transform="translate(-473.726 -619.971)" fill="#1a1311" stroke="#1a1311" stroke-miterlimit="10" stroke-width="0.252"/>
        <path id="パス_17007" data-name="パス 17007" d="M552.132,619.808h.783v.756h-.783Zm.044,1.762h.685v4.6h-.685Z" transform="translate(-477.444 -619.674)" fill="#1a1311" stroke="#1a1311" stroke-miterlimit="10" stroke-width="0.252"/>
        <path id="パス_17008" data-name="パス 17008" d="M556.683,622.969h.756l1.548,3.818,1.557-3.818h.738l-2,4.636h-.6Z" transform="translate(-479.459 -621.073)" fill="#1a1311" stroke="#1a1311" stroke-miterlimit="10" stroke-width="0.252"/>
        <path id="パス_17009" data-name="パス 17009" d="M567.078,625.2v-.018a2.269,2.269,0,0,1,2.207-2.393,2.19,2.19,0,0,1,2.144,2.429,1.7,1.7,0,0,1-.009.223h-3.648a1.607,1.607,0,0,0,1.62,1.557,1.9,1.9,0,0,0,1.45-.65l.427.383a2.376,2.376,0,0,1-1.9.863A2.287,2.287,0,0,1,567.078,625.2Zm3.657-.267a1.515,1.515,0,0,0-1.468-1.566,1.586,1.586,0,0,0-1.5,1.566Z" transform="translate(-484.061 -620.996)" fill="#1a1311" stroke="#1a1311" stroke-miterlimit="10" stroke-width="0.252"/>
        <path id="パス_17010" data-name="パス 17010" d="M584.437,620.047h2.331c1.406,0,2.331.748,2.331,1.976v.017c0,1.344-1.121,2.038-2.447,2.038H585.14v2.2h-.7Zm2.242,3.391c1.033,0,1.709-.552,1.709-1.37v-.018c0-.889-.667-1.352-1.672-1.352H585.14v2.741Z" transform="translate(-491.746 -619.78)" fill="#1a1311" stroke="#1a1311" stroke-miterlimit="10" stroke-width="0.252"/>
        <path id="パス_17011" data-name="パス 17011" d="M595.776,622.9h.686v1.2a1.968,1.968,0,0,1,1.877-1.281v.738h-.053a1.855,1.855,0,0,0-1.824,2.109V627.5h-.686Z" transform="translate(-496.765 -621.009)" fill="#1a1311" stroke="#1a1311" stroke-miterlimit="10" stroke-width="0.252"/>
        <path id="パス_17012" data-name="パス 17012" d="M602.579,625.214V625.2a2.4,2.4,0,0,1,4.8-.017v.017a2.389,2.389,0,0,1-2.412,2.4A2.357,2.357,0,0,1,602.579,625.214Zm4.094,0V625.2a1.741,1.741,0,0,0-1.709-1.8,1.7,1.7,0,0,0-1.682,1.78v.017a1.726,1.726,0,0,0,1.7,1.788A1.7,1.7,0,0,0,606.672,625.214Z" transform="translate(-499.777 -620.996)" fill="#1a1311" stroke="#1a1311" stroke-miterlimit="10" stroke-width="0.252"/>
        <path id="パス_17013" data-name="パス 17013" d="M614.093,625.214V625.2a2.4,2.4,0,0,1,4.2-1.583l-.454.48a1.858,1.858,0,0,0-1.4-.694,1.7,1.7,0,0,0-1.646,1.78v.017a1.719,1.719,0,0,0,1.691,1.788,1.9,1.9,0,0,0,1.406-.685l.436.41a2.38,2.38,0,0,1-4.236-1.5Z" transform="translate(-504.874 -620.996)" fill="#1a1311" stroke="#1a1311" stroke-miterlimit="10" stroke-width="0.252"/>
        <path id="パス_17014" data-name="パス 17014" d="M624.169,625.2v-.018a2.269,2.269,0,0,1,2.207-2.393,2.19,2.19,0,0,1,2.144,2.429,1.8,1.8,0,0,1-.009.223h-3.648a1.607,1.607,0,0,0,1.62,1.557,1.9,1.9,0,0,0,1.45-.65l.427.383a2.375,2.375,0,0,1-1.895.863A2.287,2.287,0,0,1,624.169,625.2Zm3.658-.267a1.515,1.515,0,0,0-1.469-1.566,1.586,1.586,0,0,0-1.495,1.566Z" transform="translate(-509.334 -620.996)" fill="#1a1311" stroke="#1a1311" stroke-miterlimit="10" stroke-width="0.252"/>
        <path id="パス_17015" data-name="パス 17015" d="M634.853,623.777v-.018a2.257,2.257,0,0,1,2.2-2.393,2.074,2.074,0,0,1,1.762.979v-2.777h.686v6.5h-.686v-.926a2.067,2.067,0,0,1-1.762,1.023A2.244,2.244,0,0,1,634.853,623.777Zm3.986-.009v-.017a1.71,1.71,0,0,0-1.664-1.771,1.624,1.624,0,0,0-1.619,1.771v.017a1.661,1.661,0,0,0,1.619,1.779A1.718,1.718,0,0,0,638.839,623.768Z" transform="translate(-514.064 -619.568)" fill="#1a1311" stroke="#1a1311" stroke-miterlimit="10" stroke-width="0.252"/>
        <path id="パス_17016" data-name="パス 17016" d="M647.006,625.826v-2.857h.686v2.687a1.225,1.225,0,0,0,1.272,1.388,1.358,1.358,0,0,0,1.379-1.441v-2.634h.677v4.6h-.677v-.8a1.751,1.751,0,0,1-1.575.9A1.68,1.68,0,0,1,647.006,625.826Z" transform="translate(-519.444 -621.073)" fill="#1a1311" stroke="#1a1311" stroke-miterlimit="10" stroke-width="0.252"/>
        <path id="パス_17017" data-name="パス 17017" d="M658.168,622.9h.685v1.2a1.969,1.969,0,0,1,1.878-1.281v.738h-.054a1.855,1.855,0,0,0-1.824,2.109V627.5h-.685Z" transform="translate(-524.385 -621.009)" fill="#1a1311" stroke="#1a1311" stroke-miterlimit="10" stroke-width="0.252"/>
        <path id="パス_17018" data-name="パス 17018" d="M664.972,625.2v-.018a2.269,2.269,0,0,1,2.206-2.393,2.19,2.19,0,0,1,2.145,2.429,1.769,1.769,0,0,1-.009.223h-3.648a1.607,1.607,0,0,0,1.62,1.557,1.9,1.9,0,0,0,1.45-.65l.427.383a2.374,2.374,0,0,1-1.895.863A2.287,2.287,0,0,1,664.972,625.2Zm3.657-.267a1.515,1.515,0,0,0-1.468-1.566,1.587,1.587,0,0,0-1.5,1.566Z" transform="translate(-527.397 -620.996)" fill="#1a1311" stroke="#1a1311" stroke-miterlimit="10" stroke-width="0.252"/>
        <path id="パス_17019" data-name="パス 17019" d="M675.448,626.919l.347-.489a2.692,2.692,0,0,0,1.592.587c.552,0,.952-.285.952-.73v-.018c0-.463-.543-.641-1.148-.809-.721-.205-1.522-.454-1.522-1.3v-.018a1.392,1.392,0,0,1,1.566-1.316,3.145,3.145,0,0,1,1.655.507l-.312.516a2.6,2.6,0,0,0-1.362-.444c-.543,0-.89.284-.89.667v.018c0,.436.57.6,1.184.792.712.214,1.477.489,1.477,1.316v.018a1.448,1.448,0,0,1-1.637,1.379A3.165,3.165,0,0,1,675.448,626.919Z" transform="translate(-532.035 -621.01)" fill="#1a1311" stroke="#1a1311" stroke-miterlimit="10" stroke-width="0.252"/>
        <path id="パス_17020" data-name="パス 17020" d="M691.481,620.047h.7v5.579h3.506v.65h-4.209Z" transform="translate(-539.133 -619.78)" fill="#1a1311" stroke="#1a1311" stroke-miterlimit="10" stroke-width="0.252"/>
        <path id="パス_17021" data-name="パス 17021" d="M701.365,625.2v-.018a2.269,2.269,0,0,1,2.207-2.393,2.19,2.19,0,0,1,2.144,2.429,1.8,1.8,0,0,1-.009.223h-3.648a1.606,1.606,0,0,0,1.62,1.557,1.9,1.9,0,0,0,1.45-.65l.427.383a2.376,2.376,0,0,1-1.895.863A2.287,2.287,0,0,1,701.365,625.2Zm3.657-.267a1.515,1.515,0,0,0-1.468-1.566,1.586,1.586,0,0,0-1.495,1.566Z" transform="translate(-543.508 -620.996)" fill="#1a1311" stroke="#1a1311" stroke-miterlimit="10" stroke-width="0.252"/>
        <path id="パス_17022" data-name="パス 17022" d="M711.943,628.293l.312-.535a2.935,2.935,0,0,0,1.771.587,1.512,1.512,0,0,0,1.672-1.637v-.543a2.18,2.18,0,0,1-1.806.97,2.127,2.127,0,0,1-2.162-2.153v-.018a2.178,2.178,0,0,1,3.96-1.246v-.828h.686v3.8a2.214,2.214,0,0,1-.587,1.628,2.417,2.417,0,0,1-1.753.614A3.606,3.606,0,0,1,711.943,628.293Zm3.773-3.319v-.017a1.612,1.612,0,0,0-1.69-1.558,1.521,1.521,0,0,0-1.593,1.549v.017a1.557,1.557,0,0,0,1.593,1.566A1.624,1.624,0,0,0,715.716,624.974Z" transform="translate(-548.096 -620.996)" fill="#1a1311" stroke="#1a1311" stroke-miterlimit="10" stroke-width="0.252"/>
        <path id="パス_17023" data-name="パス 17023" d="M723.387,626.185v-.018c0-.97.8-1.486,1.967-1.486a4.875,4.875,0,0,1,1.414.2v-.161c0-.828-.507-1.255-1.37-1.255a3.207,3.207,0,0,0-1.4.338l-.2-.561a3.8,3.8,0,0,1,1.673-.383,2.019,2.019,0,0,1,1.486.507,1.816,1.816,0,0,1,.471,1.344v2.812h-.658v-.694a2.015,2.015,0,0,1-1.664.792A1.549,1.549,0,0,1,723.387,626.185Zm3.39-.356v-.445a4.793,4.793,0,0,0-1.352-.2c-.863,0-1.344.373-1.344.952v.018c0,.578.534.916,1.157.916A1.391,1.391,0,0,0,726.777,625.829Z" transform="translate(-553.257 -621.024)" fill="#1a1311" stroke="#1a1311" stroke-miterlimit="10" stroke-width="0.252"/>
        <path id="パス_17024" data-name="パス 17024" d="M734.565,619.568h.685v6.5h-.685Z" transform="translate(-558.205 -619.568)" fill="#1a1311" stroke="#1a1311" stroke-miterlimit="10" stroke-width="0.252"/>
        <path id="パス_17025" data-name="パス 17025" d="M745.312,625.3l.436-.516a2.965,2.965,0,0,0,2.136.881c.836,0,1.388-.445,1.388-1.059v-.018c0-.579-.312-.908-1.62-1.184-1.432-.311-2.091-.774-2.091-1.8v-.018a1.839,1.839,0,0,1,2.046-1.7,3.249,3.249,0,0,1,2.189.765l-.409.542a2.739,2.739,0,0,0-1.8-.676c-.81,0-1.326.445-1.326,1.006v.017c0,.587.32.917,1.69,1.211,1.388.3,2.029.81,2.029,1.762v.018c0,1.068-.89,1.762-2.127,1.762A3.648,3.648,0,0,1,745.312,625.3Z" transform="translate(-562.963 -619.71)" fill="#1a1311" stroke="#1a1311" stroke-miterlimit="10" stroke-width="0.252"/>
        <path id="パス_17026" data-name="パス 17026" d="M756.619,622.891h.685v.926a2.066,2.066,0,0,1,1.762-1.023,2.244,2.244,0,0,1,2.2,2.385v.017a2.252,2.252,0,0,1-2.2,2.394,2.074,2.074,0,0,1-1.762-.979v2.3h-.685Zm3.942,2.313v-.018a1.657,1.657,0,0,0-1.62-1.78,1.716,1.716,0,0,0-1.664,1.771v.017a1.712,1.712,0,0,0,1.664,1.779A1.623,1.623,0,0,0,760.561,625.2Z" transform="translate(-567.968 -620.996)" fill="#1a1311" stroke="#1a1311" stroke-miterlimit="10" stroke-width="0.252"/>
        <path id="パス_17027" data-name="パス 17027" d="M767.589,625.2v-.018a2.269,2.269,0,0,1,2.207-2.393,2.19,2.19,0,0,1,2.145,2.429,1.769,1.769,0,0,1-.009.223h-3.648A1.607,1.607,0,0,0,769.9,627a1.9,1.9,0,0,0,1.45-.65l.427.383a2.375,2.375,0,0,1-1.895.863A2.287,2.287,0,0,1,767.589,625.2Zm3.658-.267a1.515,1.515,0,0,0-1.469-1.566,1.586,1.586,0,0,0-1.495,1.566Z" transform="translate(-572.825 -620.996)" fill="#1a1311" stroke="#1a1311" stroke-miterlimit="10" stroke-width="0.252"/>
        <path id="パス_17028" data-name="パス 17028" d="M777.6,625.214V625.2a2.4,2.4,0,0,1,4.2-1.583l-.454.48a1.858,1.858,0,0,0-1.4-.694,1.7,1.7,0,0,0-1.646,1.78v.017A1.719,1.719,0,0,0,780,626.984a1.9,1.9,0,0,0,1.406-.685l.436.41a2.38,2.38,0,0,1-4.236-1.5Z" transform="translate(-577.258 -620.996)" fill="#1a1311" stroke="#1a1311" stroke-miterlimit="10" stroke-width="0.252"/>
        <path id="パス_17029" data-name="パス 17029" d="M788.462,619.808h.783v.756h-.783Zm.044,1.762h.685v4.6h-.685Z" transform="translate(-582.065 -619.674)" fill="#1a1311" stroke="#1a1311" stroke-miterlimit="10" stroke-width="0.252"/>
        <path id="パス_17030" data-name="パス 17030" d="M793.2,626.185v-.018c0-.97.8-1.486,1.967-1.486a4.881,4.881,0,0,1,1.415.2v-.161c0-.828-.507-1.255-1.37-1.255a3.207,3.207,0,0,0-1.4.338l-.2-.561a3.8,3.8,0,0,1,1.673-.383,2.02,2.02,0,0,1,1.486.507,1.816,1.816,0,0,1,.471,1.344v2.812h-.658v-.694a2.016,2.016,0,0,1-1.664.792A1.549,1.549,0,0,1,793.2,626.185Zm3.39-.356v-.445a4.787,4.787,0,0,0-1.352-.2c-.863,0-1.344.373-1.344.952v.018c0,.578.534.916,1.156.916A1.391,1.391,0,0,0,796.594,625.829Z" transform="translate(-584.164 -621.024)" fill="#1a1311" stroke="#1a1311" stroke-miterlimit="10" stroke-width="0.252"/>
        <path id="パス_17031" data-name="パス 17031" d="M804.382,619.568h.685v6.5h-.685Z" transform="translate(-589.112 -619.568)" fill="#1a1311" stroke="#1a1311" stroke-miterlimit="10" stroke-width="0.252"/>
        <path id="パス_17032" data-name="パス 17032" d="M809.7,619.808h.783v.756H809.7Zm.045,1.762h.685v4.6h-.685Z" transform="translate(-591.467 -619.674)" fill="#1a1311" stroke="#1a1311" stroke-miterlimit="10" stroke-width="0.252"/>
        <path id="パス_17033" data-name="パス 17033" d="M814.379,626.919l.347-.489a2.692,2.692,0,0,0,1.592.587c.552,0,.952-.285.952-.73v-.018c0-.463-.543-.641-1.148-.809-.721-.205-1.521-.454-1.521-1.3v-.018a1.392,1.392,0,0,1,1.566-1.316,3.145,3.145,0,0,1,1.655.507l-.311.516a2.6,2.6,0,0,0-1.361-.444c-.543,0-.89.284-.89.667v.018c0,.436.569.6,1.184.792.712.214,1.477.489,1.477,1.316v.018a1.449,1.449,0,0,1-1.637,1.379A3.165,3.165,0,0,1,814.379,626.919Z" transform="translate(-593.538 -621.01)" fill="#1a1311" stroke="#1a1311" stroke-miterlimit="10" stroke-width="0.252"/>
        <path id="パス_17034" data-name="パス 17034" d="M823.979,625.248v-2.776h-.64v-.605h.64v-1.388h.685v1.388h1.46v.605h-1.46v2.687a.681.681,0,0,0,.774.766,1.438,1.438,0,0,0,.668-.161v.588a1.722,1.722,0,0,1-.828.2A1.171,1.171,0,0,1,823.979,625.248Z" transform="translate(-597.505 -619.971)" fill="#1a1311" stroke="#1a1311" stroke-miterlimit="10" stroke-width="0.252"/>
      </g>
      <g id="グループ_10789" data-name="グループ 10789" transform="translate(28.902 0.169)">
        <path id="パス_17035" data-name="パス 17035" d="M414.422,619.808h.783v.757h-.783" transform="translate(-414.422 -619.808)" fill="#1a1311" stroke="#1a1311" stroke-miterlimit="10" stroke-width="0.252"/>
        <path id="パス_17036" data-name="パス 17036" d="M414.517,627.569v-4.6h.676v4.6" transform="translate(-414.464 -621.207)" fill="#1a1311" stroke="#1a1311" stroke-miterlimit="10" stroke-width="0.252"/>
      </g>
    </g>
  </g>
</svg>
