<svg xmlns="http://www.w3.org/2000/svg" width="275.103" height="172.819" viewBox="0 0 275.103 172.819">
  <g id="グループ_22869" data-name="グループ 22869" transform="translate(-113.386 -89.798)">
    <g id="グループ_22806" data-name="グループ 22806" transform="translate(113.386 219)">
      <rect id="長方形_10311" data-name="長方形 10311" width="4.948" height="1.526" transform="translate(152.493 4.168)" fill="none"/>
      <rect id="長方形_10312" data-name="長方形 10312" width="5.231" height="1.851" transform="translate(209.758 17.003)" fill="none"/>
      <rect id="長方形_10313" data-name="長方形 10313" width="4.92" height="2.15" transform="translate(203.073 7.113)" fill="none"/>
      <path id="パス_81883" data-name="パス 81883" d="M124.568,974.647c0,1.616.765,3.248,2.474,3.248,1.164,0,1.706-.669,1.706-2.1v-6.43C126.7,970.064,124.568,972.131,124.568,974.647Z" transform="translate(-122.759 -956.292)" fill="none"/>
      <rect id="長方形_10314" data-name="長方形 10314" width="11.581" height="1.472" transform="translate(146.059 18.239)" fill="none"/>
      <path id="パス_81884" data-name="パス 81884" d="M882.138,933.647c-.07.165-.144.335-.219.505s-.153.349-.224.518c.405,2.162,1.438,5.969,2.662,7.825a22.977,22.977,0,0,0,2.255-8.848Z" transform="translate(-757.421 -926.356)" fill="none"/>
      <rect id="長方形_10315" data-name="長方形 10315" width="11.581" height="1.473" transform="translate(146.059 21.058)" fill="none"/>
      <rect id="長方形_10316" data-name="長方形 10316" width="4.948" height="1.376" transform="translate(152.493 7.072)" fill="none"/>
      <rect id="長方形_10317" data-name="長方形 10317" width="5.015" height="2.15" transform="translate(209.758 7.113)" fill="none"/>
      <rect id="長方形_10318" data-name="長方形 10318" width="5.231" height="1.851" transform="translate(209.758 13.607)" fill="none"/>
      <rect id="長方形_10319" data-name="長方形 10319" width="4.057" height="5.22" transform="translate(257.708 8.308)" fill="none"/>
      <path id="パス_81885" data-name="パス 81885" d="M1593.923,918.937l-.017.052a10.875,10.875,0,0,0,2.607,3.7,9.983,9.983,0,0,0,1.7-3.748Z" transform="translate(-1354.431 -914.026)" fill="none"/>
      <path id="パス_81886" data-name="パス 81886" d="M129.148,910.25a7.668,7.668,0,0,0-4.546-1.7,17.608,17.608,0,0,0-3.493.157v-3.533l1.037-.052c1.133-.055,2.3-.112,3.448-.216l.069-.006v-1.732l-.083.009c-.31.033-.62.069-.93.1a32.09,32.09,0,0,1-3.515.278v-3.841H119.2v.21c0,1.209,0,2.458.024,3.688-1.071.052-2.169.077-3.265.077-.75,0-1.459,0-2.2-.026l-.078,0v1.815l.077,0c.933-.027,1.887-.069,2.81-.109.889-.039,1.807-.079,2.705-.106l.023,3.806a10.593,10.593,0,0,0-3.939,2.67,6.866,6.866,0,0,0-1.975,4.558c0,2.9,1.75,4.843,4.356,4.843,2.219,0,3.392-1.26,3.392-3.644v-7.053a8.789,8.789,0,0,1,2.962-.227c2.577.151,5.177,1.693,5.177,4.8,0,3.609-2.856,4.528-5.533,5.106l-.138.03.1.1a11.066,11.066,0,0,1,1.033,1.163l.028.035.044-.007c4.261-.725,6.422-2.878,6.422-6.4A6.072,6.072,0,0,0,129.148,910.25Zm-9.774,7.163c0,1.436-.542,2.1-1.706,2.1-1.709,0-2.474-1.631-2.474-3.248,0-2.516,2.135-4.583,4.18-5.288Z" transform="translate(-113.386 -897.916)"/>
      <path id="パス_81887" data-name="パス 81887" d="M208.155,909.2l-.052-.043-1.365,1.322.061.053a28.322,28.322,0,0,1,3.784,3.815l.051.065,1.436-1.352-.047-.054A32.75,32.75,0,0,0,208.155,909.2Z" transform="translate(-191.638 -905.828)"/>
      <path id="パス_81888" data-name="パス 81888" d="M312.724,903.411l.074.016.429-1.973-.074-.016a55.481,55.481,0,0,0-8.723-1.064l-.065,0-.376,1.976h.09A41.853,41.853,0,0,1,312.724,903.411Z" transform="translate(-273.159 -898.463)"/>
      <path id="パス_81889" data-name="パス 81889" d="M296.091,936.645a22.468,22.468,0,0,0-9.14,1.637l-.065.023.473,1.918.077-.026a28.152,28.152,0,0,1,8.157-1.622,3.628,3.628,0,0,1,2.681,1,3.566,3.566,0,0,1,.933,2.625c-.148,5.345-5,7.332-9.732,8.57l-.066.017.269,1.73.073-.01a16.3,16.3,0,0,0,7.327-2.8,9.693,9.693,0,0,0,4.078-7.257,5.345,5.345,0,0,0-1.15-4.032A5.49,5.49,0,0,0,296.091,936.645Z" transform="translate(-258.822 -928.839)"/>
      <path id="パス_81890" data-name="パス 81890" d="M542.665,894.085l-.036-.058-1.2.583.044.071a19.918,19.918,0,0,1,1.479,2.849l.032.077,1.173-.645-.027-.063A22.737,22.737,0,0,0,542.665,894.085Z" transform="translate(-472.191 -893.145)"/>
      <path id="パス_81891" data-name="パス 81891" d="M458.415,904.437l-.026-.075-.073.03a28.993,28.993,0,0,1-5.11,1.463,33.228,33.228,0,0,1-1.083-3.313c.471-.126.982-.251,1.521-.383.694-.17,1.411-.345,2.035-.523l.073-.021-.022-.073c-.069-.23-.125-.433-.181-.639-.071-.257-.143-.523-.243-.842l-.022-.071-.071.021c-.72.215-2.552.652-3.51.839-.231-.993-.421-1.848-.57-2.905h0c-.015-.1-.055-.365-.055-.365l-.011-.071-.072.008c-.662.073-1.28.171-1.85.268l-.077.013.017.077c.244,1.127.483,2.039.76,3.094l.076.291-.254.046c-1.765.324-3.766.69-5.691.945l-.088.012.026.084c.054.177.107.37.16.566.1.347.193.705.3,1l.021.057.06-.009c1.739-.267,3.9-.6,5.934-1.009.352,1.134.692,2.152,1.1,3.281-2.477.407-5.176.764-7.812,1.033l-.439.042.363,1.785.069-.008c2.06-.239,5.188-.653,8.418-1.273.32.726,1.512,3.259,1.895,4.02-.151-.043-.249-.076-.374-.118l-.131-.043a13.778,13.778,0,0,0-2.439-.468,14.344,14.344,0,0,0-2.014-.062c-2.318.118-5.026,1.256-5.026,4.075,0,1.784,1.044,3.056,3.1,3.783a15.429,15.429,0,0,0,5.026.692,17.632,17.632,0,0,0,2.932-.19l.065-.011,0-.066c0-.009-.039-.954-.047-1.561v-.095l-.092.023a10.55,10.55,0,0,1-2.827.255h-.4c-3.853,0-5.89-1.038-5.89-3,0-1.286,1.379-1.981,2.192-2.187a6.845,6.845,0,0,1,1.469-.162,14.81,14.81,0,0,1,6.108,1.41l.052.023.036-.045c.413-.515.8-.959,1.182-1.357l.048-.05-.045-.052a20.725,20.725,0,0,1-3.116-5.1,51.4,51.4,0,0,0,5.213-1.4l.079-.026-.033-.076C458.8,905.451,458.614,905.006,458.415,904.437Z" transform="translate(-389.886 -896.064)"/>
      <path id="パス_81892" data-name="パス 81892" d="M527.8,899.616l-.038-.063-1.175.676.047.067a13.751,13.751,0,0,1,1.378,2.764l.03.078,1.2-.616-.028-.065A23.055,23.055,0,0,0,527.8,899.616Z" transform="translate(-459.749 -897.777)"/>
      <path id="パス_81893" data-name="パス 81893" d="M662.436,950.161h6.978V958.2c0,2.083-.479,2.326-2.141,2.848l-.052.016-.008,2.079.092-.022c3.367-.783,3.966-1.971,3.966-4.921v-8.041h4.207v-1.622H662.436Z" transform="translate(-573.627 -938.839)"/>
      <rect id="長方形_10320" data-name="長方形 10320" width="10.989" height="1.73" transform="translate(89.625 2.673)"/>
      <path id="パス_81894" data-name="パス 81894" d="M613.372,900.85a23.145,23.145,0,0,0,5.433-5.8l.045-.065-.068-.041c-.209-.127-.737-.464-1.161-.736-.272-.174-.5-.322-.586-.372l-.071-.044-.036.075a16.165,16.165,0,0,1-4.94,5.614l-.072.053,1.406,1.353Z" transform="translate(-531.278 -892.944)"/>
      <path id="パス_81895" data-name="パス 81895" d="M613.51,927.718a23.674,23.674,0,0,1-6.492,8.243l-.062.048,1.219,1.427.057-.045a18.208,18.208,0,0,0,2.8-2.867v11.083h1.784V932.512a29.081,29.081,0,0,0,2.292-3.423c.083-.159.208-.383.208-.383l.037-.066-1.809-1Z" transform="translate(-527.121 -921.321)"/>
      <path id="パス_81896" data-name="パス 81896" d="M802.719,925.667l-.623-1.4-.066.024c-1.119.41-1.869.667-2.921,1v-6.112h2.575v-1.65h-2.551v-6h3.488v-1.541H792.8v1.541h4.6v14.194c-.718.229-1.446.436-2.151.637V915.626h-.075s-.991-.005-1.486-.005h-.075v11.151c-.417.142-.859.271-1.251.387l-.453.134-.069.021.5,1.9.073-.019c.3-.078.528-.156.712-.218l.088-.03c.868-.293,1.777-.589,2.655-.874,2.265-.737,4.607-1.5,6.775-2.378Z" transform="translate(-682.1 -906.519)"/>
      <path id="パス_81897" data-name="パス 81897" d="M857.232,909.235c1.576-2.266,2.634-5.777,3.144-10.438h2.16v-1.621h-7.958a40.869,40.869,0,0,0,1.274-4.073c.016-.06.034-.122.053-.185a3.669,3.669,0,0,0,.094-.36l.012-.067-.065-.019c-.469-.137-.7-.2-1.058-.285l-.4-.1-.073-.014-.02.071a40.234,40.234,0,0,1-3.922,10.208l-.03.055,1.2.958.046-.063a13.084,13.084,0,0,0,.769-1.234,25.212,25.212,0,0,0,2.665,7.137,14.118,14.118,0,0,1-6.891,5.269l-.1.039,1.273,1.372.047-.018a15.834,15.834,0,0,0,6.778-5.223,16.019,16.019,0,0,0,5.558,5.139l.053.029.039-.046c.179-.208.352-.427.519-.639.251-.318.51-.646.79-.938l.076-.079-.1-.042A14.16,14.16,0,0,1,857.232,909.235Zm-1.015-1.59c-1.224-1.855-2.257-5.663-2.662-7.825.071-.169.148-.343.224-.518s.149-.34.219-.505h4.474A22.979,22.979,0,0,1,856.217,907.645Z" transform="translate(-729.28 -891.506)"/>
      <path id="パス_81898" data-name="パス 81898" d="M1003.161,894.591h-6.754v-1.448l.017-.673-.073,0c-.381-.02-.731-.015-1.1-.007-.187,0-.377.007-.576.007H994.6v2.126h-6.633v1.456h6.658v1.472h-9.775v1.432h9.775v1.322h-6.607v1.347h6.607v1.512h-6.954v1.375h6.954v1.484h-9.775v1.375H1006.7v-1.375H996.38v-1.484h7.327v-1.375H996.38V901.62h6.781v-2.778h3.54V897.41h-3.54Zm-1.833,5.682H996.38V898.9h4.948Zm0-2.754H996.38v-1.526h4.948Z" transform="translate(-843.888 -891.824)"/>
      <path id="パス_81899" data-name="パス 81899" d="M1005.813,1000.071h15.048V993h-15.048Zm1.708-5.722H1019.1v1.472h-11.581Zm0,2.819H1019.1v1.473h-11.581Z" transform="translate(-861.462 -976.11)"/>
      <path id="パス_81900" data-name="パス 81900" d="M1178.8,896.354H1176.8v8.034h-9.255v1.784h9.279v10.171h-7.943v1.73h18.092v-1.73h-8.191V906.172h9.378v-1.784H1178.8Z" transform="translate(-997.031 -895.095)"/>
      <path id="パス_81901" data-name="パス 81901" d="M1358.487,900.743h-7v-1.579h6.828V894.3h-6.828V892.67h8.841v-1.518h-8.818v-2.1l-1.813-.481v2.579h-8.865v1.518h8.889V894.3h-6.685v4.861h6.685v1.579h-6.733v1.464h6.733v1.824h-9.56v1.545h9.56v1.8h-6.8v1.545h6.8c0,1.041-.047,1.75-.5,2.088a8.558,8.558,0,0,1-1.864.867l-.073.025.5,1.576.077-.025c2.744-.888,3.631-1.412,3.631-4.231v-.3h7v-3.342h2.875v-1.6h-2.875Zm-7-5.057h5.015v2.15h-5.015Zm-1.766,2.15h-4.92v-2.15h4.92Zm7,9.591h-5.231v-1.851h5.231Zm0-3.4h-5.231V902.18h5.231Z" transform="translate(-1141.733 -888.573)"/>
      <path id="パス_81902" data-name="パス 81902" d="M1574.647,969.88l0-.061-1.554-.484.006.115a10.933,10.933,0,0,1-.186,2.47H1568.9v1.355h3.846a8.936,8.936,0,0,1-4.931,5.877l-.1.051,1.036,1,.051-.026a9.363,9.363,0,0,0,5.461-7.013h2.971a16.193,16.193,0,0,1-.262,3.38c-.431,1.8-1.566,2.085-3.007,2.277l-.119.016.772,1.315.05,0c1.713-.146,2.842-.592,3.54-2.441a22.706,22.706,0,0,0,.647-5.707l0-.082h-4.385A14.311,14.311,0,0,0,1574.647,969.88Z" transform="translate(-1332.477 -956.272)"/>
      <path id="パス_81903" data-name="パス 81903" d="M1580.158,900.856a15.647,15.647,0,0,0,2.29-4.659h1.946v-1.409h-7.124a21.484,21.484,0,0,0,1.08-2.06l.03-.064-1.471-.919-.032.1a18.715,18.715,0,0,1-3.66,6.211l-.052.056,1.023,1.031.057-.057a11.94,11.94,0,0,0,1.26-1.48,18.885,18.885,0,0,0,2.469,3.516,10.857,10.857,0,0,1-4.257,2.751l-.106.041.075.086a9.791,9.791,0,0,1,.856,1.105l.034.053.059-.021a13.633,13.633,0,0,0,4.509-3.036,13.7,13.7,0,0,0,4.991,2.873l.062.02.968-1.665-.1-.029A15.553,15.553,0,0,1,1580.158,900.856Zm-1.033-.966a10.871,10.871,0,0,1-2.607-3.7l.018-.052h4.289A9.975,9.975,0,0,1,1579.125,899.89Z" transform="translate(-1337.043 -891.231)"/>
      <path id="パス_81904" data-name="パス 81904" d="M1520.959,906.213h-3.394l.61-.62-.043-.056a8.745,8.745,0,0,0-1.072-1.177,11.139,11.139,0,0,0,3.507-5.634l.019-.095h-8.036v1.545h5.734a12.8,12.8,0,0,1-2.228,3.152c-.565-.532-1.151-1.064-1.719-1.579l-.062-.056-.054.065c-.326.4-.645.787-.96,1.2l-.048.064.063.048a32.9,32.9,0,0,1,3.479,3.172H1511.9v1.409h3.739a19.647,19.647,0,0,1-4.437,7.824l-.062.06,1.1.992.054-.051a17.048,17.048,0,0,0,3.636-5.687v5.969c0,1.813-.563,2.73-2.008,3.267l-.114.042,1.127,1.187.05-.02c2.114-.844,2.47-2.072,2.47-4.5v-9.159h1.864a11.32,11.32,0,0,1-.993,3.491l-.035.071,1.3.648.037-.066a16.268,16.268,0,0,0,1.328-5.413Z" transform="translate(-1285.055 -897.005)"/>
      <path id="パス_81905" data-name="パス 81905" d="M1690.092,931.559h-7.4l0,.082c.032,1.284.021,2.592.011,3.856-.005.643-.011,1.287-.011,1.93,0,3.469-.308,7.356-2.591,9.891l-.064.071,1.406.873.045-.047c1.867-1.956,2.76-5.748,2.824-8.671h5.776Zm-1.694,6.576h-4.057v-5.22h4.057Z" transform="translate(-1426.633 -924.606)"/>
      <path id="パス_81906" data-name="パス 81906" d="M1736.887,905.337c0-1.66,0-3.106-.023-4.736,1.372-.189,5.668-1.308,6.679-1.581l.1-.028-.057-.092a14.127,14.127,0,0,1-.812-1.5l-.026-.074-.075.025a54.5,54.5,0,0,1-7.511,1.736l-.068.011v.07q.012,1.129.03,2.252c.021,1.467.042,2.984.042,4.486,0,4.986,0,9.7-4.184,12.732l-.094.068.1.064c.446.293.906.6,1.337.922l.049.037.049-.038c3.86-3.01,4.41-7.942,4.416-12.836h3v13.151h1.765V906.856h2.755v-1.519Z" transform="translate(-1469.259 -895.912)"/>
      <rect id="長方形_10321" data-name="長方形 10321" width="7.34" height="1.654" transform="translate(256.119 2.307)"/>
    </g>
    <g id="グループ_22807" data-name="グループ 22807" transform="translate(191.341 89.798)">
      <path id="パス_81907" data-name="パス 81907" d="M713.6,139.891c-9.422-7.873-21.272-11.864-35.221-11.864h-.111c-13.949,0-25.8,3.992-35.221,11.864-8.5,7.1-14.646,17.2-17.779,29.218-1.489,5.71-3.356,17.97-.9,27.7,5,19.834,22.161,29.071,54.016,29.071,29.7,0,49.344-10.593,53.9-29.064,2.427-9.832.574-22.043-.9-27.707C728.242,157.1,722.094,146.991,713.6,139.891Zm-69.631,41.365c-5.691-3.275-7.231-10.188-3.007-17.718,4.848-8.644,16.99-16.652,24.3-11.253,5.094,3.761,3.173,12.4-2.849,20.812C656.642,181.154,648.845,184.065,643.965,181.256ZM704.1,198.612a9.291,9.291,0,0,1-5.253,6.224,16.288,16.288,0,0,1-6.4,1.25,19.417,19.417,0,0,1-4.189-.465c-4.508-1-7.872-3.142-9.886-6.157-2.014,3.016-5.378,5.16-9.886,6.157a19.415,19.415,0,0,1-4.189.465,16.289,16.289,0,0,1-6.4-1.25,9.291,9.291,0,0,1-5.253-6.224c-.429-1.667-.33-3.214.231-3.357.968-.248,1.666,1.081,2.455,2.184a9.622,9.622,0,0,0,4.269,3.425,13.187,13.187,0,0,0,7.956.538c3.95-.874,8.657-3.222,8.657-9.445v-2.112a8.753,8.753,0,0,1-5.566-7.43c0-3.314,3.41-4.719,7.617-4.719s7.617,1.4,7.617,4.719a8.777,8.777,0,0,1-5.347,7.359v2.161c0,.008,0,.015,0,.022,0,6.223,4.708,8.571,8.657,9.445a13.187,13.187,0,0,0,7.956-.538,9.624,9.624,0,0,0,4.269-3.425c.788-1.1,1.486-2.432,2.454-2.184C704.435,195.4,704.533,196.945,704.1,198.612Zm8.426-17.325c-4.889,2.792-12.676-.145-18.419-8.222-5.993-8.428-7.886-17.077-2.779-20.821,7.33-5.374,19.446,2.675,24.265,11.335C719.795,171.124,718.232,178.032,712.53,181.287Z" transform="translate(-618.667 -121.843)" fill="#fff"/>
      <path id="パス_81908" data-name="パス 81908" d="M742.123,289.721c6.021-8.408,7.943-17.05,2.849-20.812-7.312-5.4-19.454,2.609-24.3,11.253-4.223,7.53-2.683,14.444,3.007,17.718C728.556,300.689,736.353,297.779,742.123,289.721Z" transform="translate(-698.378 -238.468)"/>
      <path id="パス_81909" data-name="パス 81909" d="M1029.265,268.759c-5.107,3.744-3.214,12.393,2.779,20.821,5.743,8.077,13.53,11.013,18.419,8.222,5.7-3.256,7.264-10.164,3.067-17.708C1048.711,271.434,1036.6,263.384,1029.265,268.759Z" transform="translate(-956.6 -238.357)"/>
      <path id="パス_81910" data-name="パス 81910" d="M855.249,452.651c-.968-.248-1.666,1.081-2.454,2.184a9.623,9.623,0,0,1-4.269,3.425,13.187,13.187,0,0,1-7.956.538c-3.95-.874-8.657-3.222-8.657-9.445,0-.008,0-.015,0-.022v-2.161a8.777,8.777,0,0,0,5.347-7.359c0-3.314-3.41-4.719-7.617-4.719s-7.617,1.4-7.617,4.719a8.754,8.754,0,0,0,5.566,7.431v2.112c0,6.223-4.708,8.571-8.657,9.445a13.188,13.188,0,0,1-7.956-.538,9.622,9.622,0,0,1-4.269-3.425c-.788-1.1-1.486-2.432-2.455-2.184-.561.144-.659,1.69-.231,3.357a9.291,9.291,0,0,0,5.253,6.224,16.289,16.289,0,0,0,6.4,1.25,19.415,19.415,0,0,0,4.189-.465c4.508-1,7.872-3.142,9.886-6.157,2.014,3.016,5.378,5.16,9.886,6.157a19.418,19.418,0,0,0,4.189.465,16.289,16.289,0,0,0,6.4-1.25,9.291,9.291,0,0,0,5.253-6.224C855.909,454.342,855.81,452.795,855.249,452.651Z" transform="translate(-770.042 -379.24)"/>
      <path id="パス_81911" data-name="パス 81911" d="M714.525,108.189a18.39,18.39,0,0,0-33.422-10.6,61.512,61.512,0,0,0-26.064-5.453h-.111a61.472,61.472,0,0,0-26.148,5.494,18.39,18.39,0,1,0-25.762,25.511,67.486,67.486,0,0,0-4.809,12.95c-.436,1.671-4.165,16.7-.913,29.608,5.5,21.814,23.844,31.974,57.742,31.974,31.609,0,52.616-11.658,57.634-31.984,2.612-10.579.653-23.582-.916-29.6a67.452,67.452,0,0,0-4.839-13.011A18.4,18.4,0,0,0,714.525,108.189Zm-6.485,28.876c1.477,5.665,3.33,17.875.9,27.707-4.56,18.47-24.207,29.064-53.9,29.064-31.855,0-49.019-9.238-54.016-29.071-2.451-9.73-.584-21.99.9-27.7,3.133-12.015,9.281-22.118,17.779-29.218,9.422-7.873,21.272-11.864,35.221-11.864h.111c13.949,0,25.8,3.992,35.221,11.864C698.758,114.946,704.906,125.05,708.039,137.064Z" transform="translate(-595.331 -89.798)"/>
    </g>
    <g id="グループ_22810" data-name="グループ 22810" transform="translate(128.142 254.948)">
      <path id="パス_81912" data-name="パス 81912" d="M204.612,1115.021V1115a2.969,2.969,0,0,1,2.98-3.048,3.066,3.066,0,0,1,2.3.935l-.455.488a2.561,2.561,0,0,0-1.852-.808,2.311,2.311,0,0,0-2.281,2.416V1115a2.326,2.326,0,0,0,2.281,2.433,2.558,2.558,0,0,0,1.9-.851l.438.43a3.068,3.068,0,0,1-2.357,1.036A2.939,2.939,0,0,1,204.612,1115.021Z" transform="translate(-204.612 -1111.772)" fill="#1a1311" stroke="#1a1311" stroke-miterlimit="10" stroke-width="0.252"/>
      <path id="パス_81913" data-name="パス 81913" d="M245.682,1123.814v-.017a2.147,2.147,0,0,1,2.088-2.264,2.072,2.072,0,0,1,2.029,2.3,1.7,1.7,0,0,1-.008.211h-3.452a1.52,1.52,0,0,0,1.532,1.473,1.8,1.8,0,0,0,1.372-.615l.4.362a2.247,2.247,0,0,1-1.793.817A2.164,2.164,0,0,1,245.682,1123.814Zm3.46-.252a1.433,1.433,0,0,0-1.389-1.482,1.5,1.5,0,0,0-1.415,1.482Z" transform="translate(-239.039 -1119.799)" fill="#1a1311" stroke="#1a1311" stroke-miterlimit="10" stroke-width="0.252"/>
      <path id="パス_81914" data-name="パス 81914" d="M282.07,1121.706h.648v1.137a1.863,1.863,0,0,1,1.776-1.213v.7h-.05a1.755,1.755,0,0,0-1.726,2v1.734h-.648Z" transform="translate(-269.541 -1119.879)" fill="#1a1311" stroke="#1a1311" stroke-miterlimit="10" stroke-width="0.252"/>
      <path id="パス_81915" data-name="パス 81915" d="M305.322,1118.5v-2.627h-.606v-.572h.606v-1.313h.648v1.313h1.381v.572H305.97v2.542a.644.644,0,0,0,.732.724,1.366,1.366,0,0,0,.631-.151v.556a1.634,1.634,0,0,1-.783.185A1.108,1.108,0,0,1,305.322,1118.5Z" transform="translate(-288.524 -1113.473)" fill="#1a1311" stroke="#1a1311" stroke-miterlimit="10" stroke-width="0.252"/>
      <path id="パス_81916" data-name="パス 81916" d="M332.1,1111.8h.741v.716H332.1Zm.042,1.667h.648v4.352h-.648Z" transform="translate(-311.475 -1111.64)" fill="#1a1311" stroke="#1a1311" stroke-miterlimit="10" stroke-width="0.252"/>
      <path id="パス_81917" data-name="パス 81917" d="M348,1113.211h-.6v-.564h.6v-.379a1.536,1.536,0,0,1,.379-1.119,1.282,1.282,0,0,1,.934-.337,1.964,1.964,0,0,1,.716.109v.564a2.171,2.171,0,0,0-.632-.11c-.505,0-.758.3-.758.926v.353h1.381v.556h-1.372v3.78H348Z" transform="translate(-324.304 -1110.812)" fill="#1a1311" stroke="#1a1311" stroke-miterlimit="10" stroke-width="0.252"/>
      <g id="グループ_22808" data-name="グループ 22808" transform="translate(29.293 0.033)">
        <path id="パス_81918" data-name="パス 81918" d="M385.713,1123.814v-.017a2.147,2.147,0,0,1,2.088-2.264,2.072,2.072,0,0,1,2.029,2.3,1.657,1.657,0,0,1-.009.211H386.37a1.52,1.52,0,0,0,1.532,1.473,1.8,1.8,0,0,0,1.372-.615l.4.362a2.247,2.247,0,0,1-1.793.817A2.164,2.164,0,0,1,385.713,1123.814Zm3.46-.252a1.433,1.433,0,0,0-1.389-1.482,1.5,1.5,0,0,0-1.414,1.482Z" transform="translate(-385.713 -1119.832)" fill="#1a1311" stroke="#1a1311" stroke-miterlimit="10" stroke-width="0.252"/>
        <path id="パス_81919" data-name="パス 81919" d="M420.54,1115v-.017a2.136,2.136,0,0,1,2.079-2.265,1.963,1.963,0,0,1,1.667.926v-2.627h.648v6.146h-.648v-.875a1.957,1.957,0,0,1-1.667.968A2.123,2.123,0,0,1,420.54,1115Zm3.772-.008v-.016a1.618,1.618,0,0,0-1.574-1.676,1.536,1.536,0,0,0-1.532,1.676v.016a1.572,1.572,0,0,0,1.532,1.684A1.625,1.625,0,0,0,424.311,1114.993Z" transform="translate(-414.907 -1111.019)" fill="#1a1311" stroke="#1a1311" stroke-miterlimit="10" stroke-width="0.252"/>
        <path id="パス_81920" data-name="パス 81920" d="M480.332,1112.321h.623l2.685,5.935h-.715l-.69-1.557h-3.207l-.7,1.557h-.682Zm1.642,3.771-1.338-3-1.347,3Z" transform="translate(-462.777 -1112.11)" fill="#1a1311" stroke="#1a1311" stroke-miterlimit="10" stroke-width="0.252"/>
        <path id="パス_81921" data-name="パス 81921" d="M521.22,1115v-.017a2.136,2.136,0,0,1,2.079-2.265,1.963,1.963,0,0,1,1.667.926v-2.627h.648v6.146h-.648v-.875a1.957,1.957,0,0,1-1.667.968A2.123,2.123,0,0,1,521.22,1115Zm3.772-.008v-.016a1.618,1.618,0,0,0-1.574-1.676,1.536,1.536,0,0,0-1.532,1.676v.016a1.572,1.572,0,0,0,1.532,1.684A1.625,1.625,0,0,0,524.992,1114.993Z" transform="translate(-499.302 -1111.019)" fill="#1a1311" stroke="#1a1311" stroke-miterlimit="10" stroke-width="0.252"/>
        <path id="パス_81922" data-name="パス 81922" d="M561.251,1121.626h.648v.732a1.59,1.59,0,0,1,1.406-.825,1.479,1.479,0,0,1,1.4.867,1.734,1.734,0,0,1,1.532-.867,1.564,1.564,0,0,1,1.616,1.751v2.694H567.2v-2.542c0-.842-.421-1.313-1.128-1.313a1.213,1.213,0,0,0-1.2,1.347v2.509h-.648v-2.559c0-.817-.429-1.3-1.12-1.3a1.262,1.262,0,0,0-1.212,1.372v2.483h-.648Z" transform="translate(-532.858 -1119.832)" fill="#1a1311" stroke="#1a1311" stroke-miterlimit="10" stroke-width="0.252"/>
        <path id="パス_81923" data-name="パス 81923" d="M614.765,1111.8h.741v.716h-.741Zm.042,1.667h.648v4.352h-.648Z" transform="translate(-577.716 -1111.674)" fill="#1a1311" stroke="#1a1311" stroke-miterlimit="10" stroke-width="0.252"/>
        <path id="パス_81924" data-name="パス 81924" d="M632.255,1121.626h.648v.757a1.648,1.648,0,0,1,1.49-.85,1.59,1.59,0,0,1,1.667,1.742v2.7h-.648v-2.542a1.16,1.16,0,0,0-1.2-1.313,1.28,1.28,0,0,0-1.3,1.364v2.492h-.648Z" transform="translate(-592.377 -1119.832)" fill="#1a1311" stroke="#1a1311" stroke-miterlimit="10" stroke-width="0.252"/>
        <path id="パス_81925" data-name="パス 81925" d="M668.332,1111.8h.741v.716h-.741Zm.042,1.667h.648v4.352h-.648Z" transform="translate(-622.618 -1111.674)" fill="#1a1311" stroke="#1a1311" stroke-miterlimit="10" stroke-width="0.252"/>
        <path id="パス_81926" data-name="パス 81926" d="M683.585,1125.51l.328-.463a2.543,2.543,0,0,0,1.507.556c.522,0,.9-.269.9-.69v-.017c0-.437-.513-.606-1.086-.766-.682-.194-1.439-.43-1.439-1.229v-.017a1.317,1.317,0,0,1,1.482-1.246,2.971,2.971,0,0,1,1.565.48l-.294.488a2.461,2.461,0,0,0-1.288-.421c-.514,0-.842.27-.842.631v.017c0,.412.539.572,1.12.749.673.2,1.4.463,1.4,1.246v.017a1.371,1.371,0,0,1-1.549,1.3A2.992,2.992,0,0,1,683.585,1125.51Z" transform="translate(-635.404 -1119.92)" fill="#1a1311" stroke="#1a1311" stroke-miterlimit="10" stroke-width="0.252"/>
        <path id="パス_81927" data-name="パス 81927" d="M713.4,1118.5v-2.627h-.606v-.572h.606v-1.313h.648v1.313h1.381v.572h-1.381v2.542a.644.644,0,0,0,.732.724,1.366,1.366,0,0,0,.631-.151v.556a1.634,1.634,0,0,1-.783.185A1.108,1.108,0,0,1,713.4,1118.5Z" transform="translate(-659.885 -1113.506)" fill="#1a1311" stroke="#1a1311" stroke-miterlimit="10" stroke-width="0.252"/>
        <path id="パス_81928" data-name="パス 81928" d="M740.066,1121.706h.649v1.137a1.863,1.863,0,0,1,1.776-1.213v.7h-.05a1.755,1.755,0,0,0-1.726,2v1.734h-.649Z" transform="translate(-682.749 -1119.912)" fill="#1a1311" stroke="#1a1311" stroke-miterlimit="10" stroke-width="0.252"/>
        <path id="パス_81929" data-name="パス 81929" d="M761.722,1124.889v-.017c0-.917.758-1.406,1.86-1.406a4.627,4.627,0,0,1,1.339.185v-.152c0-.783-.48-1.187-1.3-1.187a3.029,3.029,0,0,0-1.322.32l-.194-.531a3.594,3.594,0,0,1,1.583-.362,1.91,1.91,0,0,1,1.406.48,1.718,1.718,0,0,1,.446,1.271v2.66h-.623v-.656a1.908,1.908,0,0,1-1.574.749A1.466,1.466,0,0,1,761.722,1124.889Zm3.207-.337v-.421a4.532,4.532,0,0,0-1.279-.185c-.817,0-1.272.353-1.272.9v.017c0,.547.505.867,1.095.867A1.316,1.316,0,0,0,764.929,1124.552Z" transform="translate(-700.902 -1120.006)" fill="#1a1311" stroke="#1a1311" stroke-miterlimit="10" stroke-width="0.252"/>
        <path id="パス_81930" data-name="パス 81930" d="M795.8,1118.5v-2.627H795.2v-.572h.606v-1.313h.648v1.313h1.381v.572H796.45v2.542a.644.644,0,0,0,.732.724,1.367,1.367,0,0,0,.632-.151v.556a1.635,1.635,0,0,1-.783.185A1.108,1.108,0,0,1,795.8,1118.5Z" transform="translate(-728.962 -1113.506)" fill="#1a1311" stroke="#1a1311" stroke-miterlimit="10" stroke-width="0.252"/>
        <path id="パス_81931" data-name="パス 81931" d="M822.574,1111.8h.741v.716h-.741Zm.042,1.667h.648v4.352h-.648Z" transform="translate(-751.911 -1111.674)" fill="#1a1311" stroke="#1a1311" stroke-miterlimit="10" stroke-width="0.252"/>
        <path id="パス_81932" data-name="パス 81932" d="M837.411,1122.107h.715l1.465,3.611,1.473-3.611h.7l-1.894,4.386H839.3Z" transform="translate(-764.349 -1120.314)" fill="#1a1311" stroke="#1a1311" stroke-miterlimit="10" stroke-width="0.252"/>
        <path id="パス_81933" data-name="パス 81933" d="M871.3,1123.814v-.017a2.147,2.147,0,0,1,2.088-2.264,2.072,2.072,0,0,1,2.029,2.3,1.657,1.657,0,0,1-.009.211h-3.452a1.52,1.52,0,0,0,1.532,1.473,1.8,1.8,0,0,0,1.372-.615l.4.362a2.247,2.247,0,0,1-1.793.817A2.163,2.163,0,0,1,871.3,1123.814Zm3.46-.252a1.433,1.433,0,0,0-1.389-1.482,1.5,1.5,0,0,0-1.415,1.482Z" transform="translate(-792.753 -1119.832)" fill="#1a1311" stroke="#1a1311" stroke-miterlimit="10" stroke-width="0.252"/>
        <path id="パス_81934" data-name="パス 81934" d="M927.884,1112.58h2.205c1.33,0,2.206.707,2.206,1.869v.017c0,1.271-1.061,1.928-2.315,1.928h-1.431v2.08h-.665Zm2.121,3.208c.977,0,1.616-.522,1.616-1.3v-.017c0-.842-.631-1.28-1.583-1.28h-1.49v2.593Z" transform="translate(-840.187 -1112.328)" fill="#1a1311" stroke="#1a1311" stroke-miterlimit="10" stroke-width="0.252"/>
        <path id="パス_81935" data-name="パス 81935" d="M964.845,1121.706h.648v1.137a1.863,1.863,0,0,1,1.776-1.213v.7h-.051a1.755,1.755,0,0,0-1.726,2v1.734h-.648Z" transform="translate(-871.17 -1119.912)" fill="#1a1311" stroke="#1a1311" stroke-miterlimit="10" stroke-width="0.252"/>
        <path id="パス_81936" data-name="パス 81936" d="M987.022,1123.823v-.017a2.269,2.269,0,0,1,4.538-.017v.017a2.26,2.26,0,0,1-2.281,2.273A2.23,2.23,0,0,1,987.022,1123.823Zm3.873,0v-.017a1.647,1.647,0,0,0-1.616-1.7,1.607,1.607,0,0,0-1.591,1.684v.017a1.633,1.633,0,0,0,1.608,1.692A1.606,1.606,0,0,0,990.895,1123.823Z" transform="translate(-889.76 -1119.832)" fill="#1a1311" stroke="#1a1311" stroke-miterlimit="10" stroke-width="0.252"/>
        <path id="パス_81937" data-name="パス 81937" d="M1024.555,1123.823v-.017a2.267,2.267,0,0,1,3.974-1.5l-.429.455a1.757,1.757,0,0,0-1.322-.657,1.606,1.606,0,0,0-1.558,1.684v.017a1.627,1.627,0,0,0,1.6,1.692,1.8,1.8,0,0,0,1.33-.648l.412.387a2.252,2.252,0,0,1-4.007-1.414Z" transform="translate(-921.222 -1119.832)" fill="#1a1311" stroke="#1a1311" stroke-miterlimit="10" stroke-width="0.252"/>
        <path id="パス_81938" data-name="パス 81938" d="M1057.4,1123.814v-.017a2.147,2.147,0,0,1,2.088-2.264,2.072,2.072,0,0,1,2.029,2.3,1.645,1.645,0,0,1-.009.211h-3.451a1.519,1.519,0,0,0,1.532,1.473,1.8,1.8,0,0,0,1.372-.615l.4.362a2.247,2.247,0,0,1-1.793.817A2.164,2.164,0,0,1,1057.4,1123.814Zm3.46-.252a1.433,1.433,0,0,0-1.389-1.482,1.5,1.5,0,0,0-1.414,1.482Z" transform="translate(-948.756 -1119.832)" fill="#1a1311" stroke="#1a1311" stroke-miterlimit="10" stroke-width="0.252"/>
        <path id="パス_81939" data-name="パス 81939" d="M1092.23,1115v-.017a2.136,2.136,0,0,1,2.079-2.265,1.963,1.963,0,0,1,1.667.926v-2.627h.649v6.146h-.649v-.875a1.957,1.957,0,0,1-1.667.968A2.123,2.123,0,0,1,1092.23,1115Zm3.771-.008v-.016a1.618,1.618,0,0,0-1.574-1.676,1.536,1.536,0,0,0-1.532,1.676v.016a1.572,1.572,0,0,0,1.532,1.684A1.625,1.625,0,0,0,1096,1114.993Z" transform="translate(-977.95 -1111.019)" fill="#1a1311" stroke="#1a1311" stroke-miterlimit="10" stroke-width="0.252"/>
        <path id="パス_81940" data-name="パス 81940" d="M1131.845,1124.809v-2.7h.649v2.542a1.16,1.16,0,0,0,1.2,1.313,1.285,1.285,0,0,0,1.3-1.364v-2.492h.64v4.352H1135v-.758a1.658,1.658,0,0,1-1.49.85A1.59,1.59,0,0,1,1131.845,1124.809Z" transform="translate(-1011.158 -1120.314)" fill="#1a1311" stroke="#1a1311" stroke-miterlimit="10" stroke-width="0.252"/>
        <path id="パス_81941" data-name="パス 81941" d="M1168.233,1121.706h.648v1.137a1.864,1.864,0,0,1,1.776-1.213v.7h-.05a1.755,1.755,0,0,0-1.726,2v1.734h-.648Z" transform="translate(-1041.66 -1119.912)" fill="#1a1311" stroke="#1a1311" stroke-miterlimit="10" stroke-width="0.252"/>
        <path id="パス_81942" data-name="パス 81942" d="M1190.41,1123.814v-.017a2.147,2.147,0,0,1,2.088-2.264,2.072,2.072,0,0,1,2.029,2.3,1.645,1.645,0,0,1-.009.211h-3.451a1.52,1.52,0,0,0,1.532,1.473,1.8,1.8,0,0,0,1.372-.615l.4.362a2.246,2.246,0,0,1-1.793.817A2.164,2.164,0,0,1,1190.41,1123.814Zm3.46-.252a1.433,1.433,0,0,0-1.389-1.482,1.5,1.5,0,0,0-1.415,1.482Z" transform="translate(-1060.25 -1119.832)" fill="#1a1311" stroke="#1a1311" stroke-miterlimit="10" stroke-width="0.252"/>
        <path id="パス_81943" data-name="パス 81943" d="M1224.562,1125.51l.328-.463a2.545,2.545,0,0,0,1.507.556c.522,0,.9-.269.9-.69v-.017c0-.437-.514-.606-1.086-.766-.682-.194-1.44-.43-1.44-1.229v-.017a1.317,1.317,0,0,1,1.482-1.246,2.973,2.973,0,0,1,1.566.48l-.294.488a2.463,2.463,0,0,0-1.288-.421c-.514,0-.842.27-.842.631v.017c0,.412.539.572,1.12.749.674.2,1.4.463,1.4,1.246v.017a1.371,1.371,0,0,1-1.549,1.3A2.992,2.992,0,0,1,1224.562,1125.51Z" transform="translate(-1088.878 -1119.92)" fill="#1a1311" stroke="#1a1311" stroke-miterlimit="10" stroke-width="0.252"/>
        <path id="パス_81944" data-name="パス 81944" d="M1276.827,1112.58h.665v5.279h3.317v.615h-3.982Z" transform="translate(-1132.689 -1112.328)" fill="#1a1311" stroke="#1a1311" stroke-miterlimit="10" stroke-width="0.252"/>
        <path id="パス_81945" data-name="パス 81945" d="M1309.046,1123.814v-.017a2.147,2.147,0,0,1,2.088-2.264,2.072,2.072,0,0,1,2.029,2.3,1.669,1.669,0,0,1-.009.211H1309.7a1.52,1.52,0,0,0,1.532,1.473,1.8,1.8,0,0,0,1.372-.615l.4.362a2.247,2.247,0,0,1-1.793.817A2.164,2.164,0,0,1,1309.046,1123.814Zm3.46-.252a1.433,1.433,0,0,0-1.389-1.482,1.5,1.5,0,0,0-1.414,1.482Z" transform="translate(-1159.697 -1119.832)" fill="#1a1311" stroke="#1a1311" stroke-miterlimit="10" stroke-width="0.252"/>
        <path id="パス_81946" data-name="パス 81946" d="M1343.034,1126.736l.295-.505a2.779,2.779,0,0,0,1.675.556,1.431,1.431,0,0,0,1.583-1.549v-.513a2.064,2.064,0,0,1-1.709.918,2.013,2.013,0,0,1-2.046-2.038v-.017a2.06,2.06,0,0,1,3.746-1.178v-.783h.649v3.594a2.1,2.1,0,0,1-.556,1.541,2.288,2.288,0,0,1-1.658.581A3.413,3.413,0,0,1,1343.034,1126.736Zm3.569-3.14v-.017a1.525,1.525,0,0,0-1.6-1.474,1.44,1.44,0,0,0-1.507,1.465v.016a1.473,1.473,0,0,0,1.507,1.482A1.536,1.536,0,0,0,1346.6,1123.6Z" transform="translate(-1188.017 -1119.832)" fill="#1a1311" stroke="#1a1311" stroke-miterlimit="10" stroke-width="0.252"/>
        <path id="パス_81947" data-name="パス 81947" d="M1380.833,1124.889v-.017c0-.917.758-1.406,1.861-1.406a4.626,4.626,0,0,1,1.338.185v-.152c0-.783-.48-1.187-1.3-1.187a3.032,3.032,0,0,0-1.322.32l-.193-.531a3.593,3.593,0,0,1,1.583-.362,1.91,1.91,0,0,1,1.406.48,1.718,1.718,0,0,1,.446,1.271v2.66h-.623v-.656a1.908,1.908,0,0,1-1.574.749A1.466,1.466,0,0,1,1380.833,1124.889Zm3.208-.337v-.421a4.535,4.535,0,0,0-1.28-.185c-.816,0-1.271.353-1.271.9v.017c0,.547.505.867,1.095.867A1.316,1.316,0,0,0,1384.041,1124.552Z" transform="translate(-1219.872 -1120.006)" fill="#1a1311" stroke="#1a1311" stroke-miterlimit="10" stroke-width="0.252"/>
        <path id="パス_81948" data-name="パス 81948" d="M1417.271,1111.019h.648v6.146h-.648Z" transform="translate(-1250.416 -1111.019)" fill="#1a1311" stroke="#1a1311" stroke-miterlimit="10" stroke-width="0.252"/>
        <path id="パス_81949" data-name="パス 81949" d="M1452.306,1117.179l.412-.488a2.806,2.806,0,0,0,2.02.834c.792,0,1.314-.421,1.314-1v-.017c0-.547-.295-.859-1.533-1.12-1.355-.294-1.978-.732-1.978-1.7v-.017a1.74,1.74,0,0,1,1.936-1.608,3.074,3.074,0,0,1,2.071.724l-.387.513a2.589,2.589,0,0,0-1.7-.64c-.766,0-1.254.421-1.254.951v.016c0,.556.3.868,1.6,1.145,1.314.286,1.92.766,1.92,1.667v.017c0,1.01-.842,1.667-2.012,1.667A3.451,3.451,0,0,1,1452.306,1117.179Z" transform="translate(-1279.784 -1111.893)" fill="#1a1311" stroke="#1a1311" stroke-miterlimit="10" stroke-width="0.252"/>
        <path id="パス_81950" data-name="パス 81950" d="M1489.163,1121.626h.648v.875a1.956,1.956,0,0,1,1.667-.968,2.123,2.123,0,0,1,2.079,2.256v.017a2.131,2.131,0,0,1-2.079,2.265,1.963,1.963,0,0,1-1.667-.926v2.181h-.648Zm3.729,2.188v-.017a1.567,1.567,0,0,0-1.532-1.684,1.623,1.623,0,0,0-1.574,1.675v.017a1.62,1.62,0,0,0,1.574,1.684A1.536,1.536,0,0,0,1492.892,1123.814Z" transform="translate(-1310.679 -1119.832)" fill="#1a1311" stroke="#1a1311" stroke-miterlimit="10" stroke-width="0.252"/>
        <path id="パス_81951" data-name="パス 81951" d="M1524.925,1123.814v-.017a2.147,2.147,0,0,1,2.088-2.264,2.072,2.072,0,0,1,2.029,2.3,1.693,1.693,0,0,1-.008.211h-3.452a1.52,1.52,0,0,0,1.532,1.473,1.8,1.8,0,0,0,1.372-.615l.4.362a2.247,2.247,0,0,1-1.793.817A2.164,2.164,0,0,1,1524.925,1123.814Zm3.46-.252a1.433,1.433,0,0,0-1.389-1.482,1.5,1.5,0,0,0-1.414,1.482Z" transform="translate(-1340.656 -1119.832)" fill="#1a1311" stroke="#1a1311" stroke-miterlimit="10" stroke-width="0.252"/>
        <path id="パス_81952" data-name="パス 81952" d="M1557.566,1123.823v-.017a2.267,2.267,0,0,1,3.974-1.5l-.429.455a1.758,1.758,0,0,0-1.322-.657,1.606,1.606,0,0,0-1.558,1.684v.017a1.627,1.627,0,0,0,1.6,1.692,1.8,1.8,0,0,0,1.33-.648l.412.387a2.251,2.251,0,0,1-4.007-1.414Z" transform="translate(-1368.018 -1119.832)" fill="#1a1311" stroke="#1a1311" stroke-miterlimit="10" stroke-width="0.252"/>
        <path id="パス_81953" data-name="パス 81953" d="M1592.964,1111.8h.741v.716h-.741Zm.042,1.667h.648v4.352h-.648Z" transform="translate(-1397.69 -1111.674)" fill="#1a1311" stroke="#1a1311" stroke-miterlimit="10" stroke-width="0.252"/>
        <path id="パス_81954" data-name="パス 81954" d="M1608.425,1124.889v-.017c0-.917.758-1.406,1.86-1.406a4.627,4.627,0,0,1,1.339.185v-.152c0-.783-.48-1.187-1.3-1.187a3.03,3.03,0,0,0-1.322.32l-.194-.531a3.594,3.594,0,0,1,1.583-.362,1.909,1.909,0,0,1,1.406.48,1.717,1.717,0,0,1,.446,1.271v2.66h-.623v-.656a1.908,1.908,0,0,1-1.574.749A1.466,1.466,0,0,1,1608.425,1124.889Zm3.207-.337v-.421a4.531,4.531,0,0,0-1.279-.185c-.817,0-1.272.353-1.272.9v.017c0,.547.505.867,1.094.867A1.316,1.316,0,0,0,1611.632,1124.552Z" transform="translate(-1410.651 -1120.006)" fill="#1a1311" stroke="#1a1311" stroke-miterlimit="10" stroke-width="0.252"/>
        <path id="パス_81955" data-name="パス 81955" d="M1644.863,1111.019h.648v6.146h-.648Z" transform="translate(-1441.195 -1111.019)" fill="#1a1311" stroke="#1a1311" stroke-miterlimit="10" stroke-width="0.252"/>
        <path id="パス_81956" data-name="パス 81956" d="M1662.2,1111.8h.741v.716h-.741Zm.042,1.667h.648v4.352h-.648Z" transform="translate(-1455.726 -1111.674)" fill="#1a1311" stroke="#1a1311" stroke-miterlimit="10" stroke-width="0.252"/>
        <path id="パス_81957" data-name="パス 81957" d="M1677.451,1125.51l.328-.463a2.544,2.544,0,0,0,1.507.556c.522,0,.9-.269.9-.69v-.017c0-.437-.513-.606-1.086-.766-.682-.194-1.44-.43-1.44-1.229v-.017a1.317,1.317,0,0,1,1.482-1.246,2.972,2.972,0,0,1,1.566.48l-.294.488a2.463,2.463,0,0,0-1.288-.421c-.514,0-.842.27-.842.631v.017c0,.412.539.572,1.12.749.673.2,1.4.463,1.4,1.246v.017a1.371,1.371,0,0,1-1.549,1.3A2.992,2.992,0,0,1,1677.451,1125.51Z" transform="translate(-1468.512 -1119.92)" fill="#1a1311" stroke="#1a1311" stroke-miterlimit="10" stroke-width="0.252"/>
        <path id="パス_81958" data-name="パス 81958" d="M1707.263,1118.5v-2.627h-.606v-.572h.606v-1.313h.648v1.313h1.38v.572h-1.38v2.542a.644.644,0,0,0,.732.724,1.366,1.366,0,0,0,.632-.151v.556a1.635,1.635,0,0,1-.783.185A1.108,1.108,0,0,1,1707.263,1118.5Z" transform="translate(-1492.993 -1113.506)" fill="#1a1311" stroke="#1a1311" stroke-miterlimit="10" stroke-width="0.252"/>
      </g>
      <g id="グループ_22809" data-name="グループ 22809" transform="translate(27.344 0.16)">
        <path id="パス_81959" data-name="パス 81959" d="M373.664,1111.8h.741v.716h-.741" transform="translate(-373.664 -1111.8)" fill="#1a1311" stroke="#1a1311" stroke-miterlimit="10" stroke-width="0.252"/>
        <path id="パス_81960" data-name="パス 81960" d="M373.976,1126.459v-4.352h.64v4.352" transform="translate(-373.926 -1120.439)" fill="#1a1311" stroke="#1a1311" stroke-miterlimit="10" stroke-width="0.252"/>
      </g>
    </g>
  </g>
</svg>
