<svg id="コンポーネント_28_19" data-name="コンポーネント 28 – 19" xmlns="http://www.w3.org/2000/svg" width="346" height="91.209" viewBox="0 0 346 91.209">
  <path id="パス_11415" data-name="パス 11415" d="M9.414,0H84V91.209H9.414C4.215,91.209,0,86.2,0,80.023V11.186C0,5.008,4.215,0,9.414,0Z" transform="translate(224.274)" fill="#7fc11b"/>
  <g id="r1zto7" transform="translate(251.042 22.738)">
    <g id="グループ_6109" data-name="グループ 6109">
      <path id="パス_11412" data-name="パス 11412" d="M110.466-533.134a34.771,34.771,0,0,1,2.749-2.817c2.232-1.819,4.516-1.729,6.541.3a12.825,12.825,0,0,1,3.886,7.063,4.056,4.056,0,0,1-2.037,4.306,10.423,10.423,0,0,1-7.237,1.36,21.375,21.375,0,0,1-12.507-6.553,38.146,38.146,0,0,1-10.157-17.6,21.1,21.1,0,0,1,.363-11.906,10.693,10.693,0,0,1,3.779-5.41,4.417,4.417,0,0,1,6.268.332,13.15,13.15,0,0,1,3.975,6.939,4.092,4.092,0,0,1-1.749,4.366,8.747,8.747,0,0,1-4.144,1.545c-.473.061-.677.227-.626.688a28.183,28.183,0,0,0,.514,4.194,21.092,21.092,0,0,0,7.538,11.421A30.065,30.065,0,0,0,110.466-533.134Z" transform="translate(-91.018 565.537)" fill="#fafafa"/>
    </g>
  </g>
  <g id="グループ_6122" data-name="グループ 6122" transform="translate(0)">
    <path id="パス_11415-2" data-name="パス 11415" d="M13.6,0H121.4C128.909,0,135,5.008,135,11.186V80.023c0,6.178-6.091,11.186-13.6,11.186H13.6C6.091,91.209,0,86.2,0,80.023V11.186C0,5.008,6.091,0,13.6,0Z" fill="#7fc11b"/>
    <rect id="長方形_349" data-name="長方形 349" width="312.137" height="91" transform="translate(33.863)" fill="#7fc11b"/>
  </g>
  <g id="r1zto7-2" data-name="r1zto7" transform="translate(35.042 24.23)">
    <g id="グループ_6109-2" data-name="グループ 6109" transform="translate(0)">
      <path id="パス_11412-2" data-name="パス 11412" d="M110.466-533.134a34.771,34.771,0,0,1,2.749-2.817c2.232-1.819,4.516-1.729,6.541.3a12.825,12.825,0,0,1,3.886,7.063,4.056,4.056,0,0,1-2.037,4.306,10.423,10.423,0,0,1-7.237,1.36,21.375,21.375,0,0,1-12.507-6.553,38.146,38.146,0,0,1-10.157-17.6,21.1,21.1,0,0,1,.363-11.906,10.693,10.693,0,0,1,3.779-5.41,4.417,4.417,0,0,1,6.268.332,13.15,13.15,0,0,1,3.975,6.939,4.092,4.092,0,0,1-1.749,4.366,8.747,8.747,0,0,1-4.144,1.545c-.473.061-.677.227-.626.688a28.183,28.183,0,0,0,.514,4.194,21.092,21.092,0,0,0,7.538,11.421A30.065,30.065,0,0,0,110.466-533.134Z" transform="translate(-91.018 565.537)" fill="#fafafa"/>
    </g>
  </g>
  <g id="_076-256-3844" data-name=" 076-256-3844" transform="translate(108.274 24.23)" style="isolation: isolate">
    <g id="グループ_13321" data-name="グループ 13321" style="isolation: isolate">
      <path id="パス_22232" data-name="パス 22232" d="M2025.608-9320.38c-3.99,0-7.463-2.613-7.463-7.29v-10.318c0-4.678,3.473-7.292,7.463-7.292s7.428,2.614,7.428,7.292v10.318C2033.036-9322.993,2029.6-9320.38,2025.608-9320.38Zm2.957-17.539c0-2.064-1.2-3.336-2.957-3.336s-2.992,1.271-2.992,3.336v10.214c0,2.063,1.238,3.3,2.992,3.3s2.957-1.239,2.957-3.3Z" transform="translate(-2018.145 9345.28)" fill="#fff"/>
      <path id="パス_22233" data-name="パス 22233" d="M2054.8-9320.455h-4.849l7.944-20.463h-6.466v3.852h-4.264v-7.877h15.58v4.025Z" transform="translate(-2029.354 9345.149)" fill="#fff"/>
      <path id="パス_22234" data-name="パス 22234" d="M2084-9320.249c-4.333,0-7.635-2.716-7.635-7.565,0-2.236.963-4.3,2.064-6.535l5.159-10.594h4.884l-5.09,10.111a4.856,4.856,0,0,1,1.823-.309c3.3,0,6.431,2.717,6.431,7.256C2091.633-9323.068,2088.331-9320.249,2084-9320.249Zm0-11.178c-1.823,0-3.164,1.308-3.164,3.577s1.341,3.577,3.164,3.577,3.165-1.308,3.165-3.577C2087.163-9330.017,2085.89-9331.427,2084-9331.427Z" transform="translate(-2042.129 9345.047)" fill="#fff"/>
      <path id="パス_22235" data-name="パス 22235" d="M2106.285-9324.274v-4.161h10.594v4.161Z" transform="translate(-2053.409 9338.774)" fill="#fff"/>
      <path id="パス_22236" data-name="パス 22236" d="M2129.035-9320.585v-4.025l9.148-10.627a4.214,4.214,0,0,0,1.273-2.958,2.791,2.791,0,0,0-2.959-3.06,2.793,2.793,0,0,0-2.992,3.129h-4.471c0-4.472,3.268-7.154,7.463-7.154,4.334,0,7.43,2.718,7.43,7.12,0,2.373-.929,3.646-2.615,5.605l-6.844,7.944h9.459v4.025Z" transform="translate(-2062.195 9345.28)" fill="#fff"/>
      <path id="パス_22237" data-name="パス 22237" d="M2171.092-9322.244a7.383,7.383,0,0,1-5.4,2,7.643,7.643,0,0,1-5.469-1.96,7.465,7.465,0,0,1-1.995-5.09h4.471c.241,1.926,1.135,3.026,2.992,3.026a2.88,2.88,0,0,0,2.132-.791c.791-.791.963-2.1.963-3.646,0-2.82-.825-4.4-2.992-4.4a2.842,2.842,0,0,0-2.958,1.994h-4.093v-13.826h13.963v4.025h-9.9v5.261a5.618,5.618,0,0,1,3.68-1.238,6.3,6.3,0,0,1,4.574,1.652c1.926,1.925,2.2,4.229,2.2,6.534C2173.259-9325.958,2172.88-9324.031,2171.092-9322.244Z" transform="translate(-2073.469 9345.149)" fill="#fff"/>
      <path id="パス_22238" data-name="パス 22238" d="M2194.665-9320.249c-4.333,0-7.635-2.716-7.635-7.565,0-2.236.964-4.3,2.064-6.535l5.159-10.594h4.884l-5.09,10.111a4.852,4.852,0,0,1,1.823-.309c3.3,0,6.432,2.717,6.432,7.256C2202.3-9323.068,2199-9320.249,2194.665-9320.249Zm0-11.178c-1.823,0-3.164,1.308-3.164,3.577s1.341,3.577,3.164,3.577,3.164-1.308,3.164-3.577C2197.83-9330.017,2196.557-9331.427,2194.665-9331.427Z" transform="translate(-2084.591 9345.149)" fill="#fff"/>
      <path id="パス_22239" data-name="パス 22239" d="M2216.952-9324.274v-4.161h10.594v4.161Z" transform="translate(-2096.146 9338.774)" fill="#fff"/>
      <path id="パス_22240" data-name="パス 22240" d="M2246.556-9320.38c-3.99,0-7.739-2.1-7.807-7.222h4.471a3.1,3.1,0,0,0,3.336,3.2,3.118,3.118,0,0,0,3.3-3.406,3.145,3.145,0,0,0-3.44-3.369h-.653v-3.887h.653a2.811,2.811,0,0,0,3.1-3.062,2.888,2.888,0,0,0-2.992-3.129,2.908,2.908,0,0,0-3.027,2.957h-4.47c.1-4.368,3.37-6.982,7.5-6.982,4.333,0,7.463,2.89,7.463,7.017a5.23,5.23,0,0,1-2.82,5.022,5.838,5.838,0,0,1,3.164,5.571C2254.329-9322.786,2250.752-9320.38,2246.556-9320.38Z" transform="translate(-2104.564 9345.28)" fill="#fff"/>
      <path id="パス_22241" data-name="パス 22241" d="M2276.007-9320.38c-4.333,0-7.842-2.578-7.842-7.325a6.334,6.334,0,0,1,3.062-5.5,6.088,6.088,0,0,1-2.751-5.091c0-4.333,3.439-6.982,7.532-6.982s7.5,2.649,7.5,6.982a6.089,6.089,0,0,1-2.751,5.091,6.356,6.356,0,0,1,3.1,5.5C2283.85-9322.958,2280.341-9320.38,2276.007-9320.38Zm0-10.8a3.361,3.361,0,0,0-3.371,3.4,3.333,3.333,0,0,0,3.371,3.371,3.334,3.334,0,0,0,3.371-3.371A3.362,3.362,0,0,0,2276.007-9331.178Zm0-10.077a3.011,3.011,0,0,0-3.061,3.095,2.991,2.991,0,0,0,3.061,3.1,2.964,2.964,0,0,0,3.027-3.1A2.983,2.983,0,0,0,2276.007-9341.255Z" transform="translate(-2115.923 9345.28)" fill="#fff"/>
      <path id="パス_22242" data-name="パス 22242" d="M2311.052-9323.928v3.473h-4.3v-3.473h-10.009v-4.23l8.392-16.785h4.884l-8.392,16.785h5.125v-4.575h4.3v4.575h2.235v4.23Z" transform="translate(-2126.959 9345.149)" fill="#fff"/>
      <path id="パス_22243" data-name="パス 22243" d="M2340.357-9323.928v3.473h-4.3v-3.473H2326.05v-4.23l8.392-16.785h4.883l-8.391,16.785h5.124v-4.575h4.3v4.575h2.236v4.23Z" transform="translate(-2138.277 9345.149)" fill="#fff"/>
    </g>
  </g>
  <path id="パス_81867" data-name="パス 81867" d="M3.5-4.914c-.819,0-1.107-.018-1.161-.018-.081,0-.09.009-.09.108,0,.045.018.2.018.612v.792c0,.414-.018.558-.018.621,0,.09.009.1.09.1.054,0,.342-.018,1.161-.018H3.87a6.05,6.05,0,0,1-.252.6H2.745c-.882,0-1.2-.009-1.26-.009-.09,0-.1.009-.1.1,0,.054.018.27.018.8v.486C1.4.342,1.386.54,1.386.594c0,.09.009.1.1.1H2.25c.081,0,.09-.009.09-.1V.288H6.678v.27c0,.081.009.09.1.09h.756c.09,0,.09-.009.09-.09,0-.054-.009-.252-.009-1.314v-.576c0-.423.009-.639.009-.693,0-.09,0-.1-.09-.1-.063,0-.378.009-1.26.009H4.563c.081-.18.171-.378.252-.6H5.5c.81,0,1.1.018,1.161.018.081,0,.09-.009.09-.1,0-.054-.018-.207-.018-.621v-.792c0-.414.018-.567.018-.612,0-.1-.009-.108-.09-.108-.063,0-.351.018-1.161.018ZM2.34-1.323H6.678V-.5H2.34Zm.828-2.889H5.841v.783H3.168ZM1.746-7.272c-.108.036-.117.054-.063.135a4.339,4.339,0,0,1,.459.828.164.164,0,0,0,.045.072H1.98c-.828,0-1.125-.018-1.188-.018-.09,0-.1.009-.1.1,0,.063.018.225.018.54v.324c0,.792-.018.936-.018.99,0,.1.009.108.1.108h.72c.09,0,.1-.009.1-.108V-5.463H7.4v1.17c0,.09.009.1.1.1h.72c.09,0,.1-.009.1-.1,0-.054-.018-.2-.018-.99v-.4c0-.252.018-.423.018-.477,0-.09-.009-.1-.1-.1-.063,0-.36.018-1.188.018h-.18c.117-.18.216-.36.342-.567A.651.651,0,0,1,7.38-7.02a.177.177,0,0,0,.081-.153c0-.054-.036-.081-.117-.117a6.4,6.4,0,0,0-.855-.261,3.355,3.355,0,0,1-.144.45,7.344,7.344,0,0,1-.459.864H2.3l.63-.207c.126-.045.126-.054.081-.135a4.908,4.908,0,0,0-.522-.846c-.054-.063-.081-.081-.2-.036Zm2.1-.108c-.108.036-.135.045-.081.135a7.933,7.933,0,0,1,.423.882c.036.1.045.108.18.072l.6-.18c.126-.036.135-.054.1-.126a5.991,5.991,0,0,0-.45-.9c-.045-.081-.072-.1-.18-.063ZM13.2-1.5A7.475,7.475,0,0,1,10.332-.252a2.148,2.148,0,0,1,.36.54c.081.171.117.234.2.234A.691.691,0,0,0,11.1.468a7.29,7.29,0,0,0,2.889-1.611C13.977-.072,13.95.45,13.95.6c0,.09.009.1.09.1h.765c.09,0,.1-.009.1-.1,0-.153-.045-.711-.045-1.782A7.858,7.858,0,0,0,17.883.432a.963.963,0,0,0,.207.045c.09,0,.126-.063.2-.234a2.553,2.553,0,0,1,.351-.576,8.166,8.166,0,0,1-3-1.17h1.6c.81,0,1.08.018,1.134.018.09,0,.1-.009.1-.1v-.531c0-.1-.009-.108-.1-.108-.054,0-.324.018-1.134.018H14.877v-.486h1.431c.882,0,1.188.018,1.242.018.09,0,.1-.009.1-.1v-.513c0-.1-.009-.108-.1-.108-.054,0-.36.018-1.242.018H14.877v-.477h1.818c.864,0,1.152.018,1.206.018.09,0,.1-.009.1-.09v-.531c0-.09-.009-.1-.1-.1-.054,0-.342.018-1.206.018H16.11l.162-.288a.627.627,0,0,1,.126-.189.156.156,0,0,0,.1-.135c0-.054-.045-.09-.117-.108-.27-.072-.477-.117-.711-.162h1.575c.81,0,1.08.018,1.134.018.09,0,.1-.009.1-.1v-.558c0-.1-.009-.108-.1-.108-.054,0-.324.018-1.134.018h-.126c.126-.18.252-.36.369-.549a.907.907,0,0,1,.153-.171.186.186,0,0,0,.09-.153c0-.045-.036-.09-.117-.117a7.543,7.543,0,0,0-.873-.234,1.72,1.72,0,0,1-.153.486,6.674,6.674,0,0,1-.414.738h-.558v-.594a1.406,1.406,0,0,1,.054-.495A.424.424,0,0,0,15.7-7.38c0-.045-.036-.072-.117-.081a8.66,8.66,0,0,0-.864-.063,3.57,3.57,0,0,1,.054.792v.585h-.729v-.594a1.406,1.406,0,0,1,.054-.495.473.473,0,0,0,.036-.153q0-.068-.108-.081c-.243-.027-.594-.045-.873-.054a3.527,3.527,0,0,1,.054.783v.594h-.837l.216-.108c.117-.063.117-.072.072-.153a5.373,5.373,0,0,0-.6-.873c-.054-.072-.081-.081-.171-.036l-.522.243c-.108.054-.126.09-.072.153a4.275,4.275,0,0,1,.513.774h-.063c-.81,0-1.08-.018-1.134-.018-.1,0-.108.009-.108.108V-5.5c0,.09.009.1.108.1.054,0,.324-.018,1.134-.018h1.44l-.585.162c-.117.036-.108.072-.063.153.1.171.189.351.288.567h-.549c-.864,0-1.152-.018-1.206-.018-.1,0-.108.009-.108.1v.531c0,.081.009.09.108.09.054,0,.342-.018,1.206-.018h1.692v.477H12.7c-.873,0-1.188-.018-1.242-.018-.09,0-.09.009-.09.108v.513c0,.09,0,.1.09.1.054,0,.369-.018,1.242-.018h1.269V-2.2H11.745c-.81,0-1.08-.018-1.134-.018-.1,0-.108.009-.108.108v.531c0,.09.009.1.108.1.054,0,.324-.018,1.134-.018Zm.54-3.033a5.646,5.646,0,0,0-.405-.81c-.027-.036-.045-.063-.072-.072h2.3a1.648,1.648,0,0,1-.1.36c-.09.216-.162.369-.243.522Zm9.486-.594c0-1.323.018-1.764.018-1.818,0-.09-.009-.1-.1-.1-.063,0-.234.018-.774.018H21.6c-.54,0-.711-.018-.774-.018-.09,0-.1.009-.1.1,0,.054.018.531.018,2.16v1.962c0,2.259-.018,2.718-.018,2.772,0,.09.009.1.1.1h.666c.081,0,.09-.009.09-.1V-.765h.828v.4c0,.09.009.1.09.1h.648c.09,0,.1-.009.1-.1,0-.054-.018-.459-.018-2.7ZM21.582-1.584V-3.528h.828v1.944ZM22.41-6.21v1.863h-.828V-6.21Zm4.9,2.232c.855,0,1.152.018,1.206.018.1,0,.108-.009.108-.108v-.621c0-.09-.009-.1-.108-.1-.054,0-.351.018-1.206.018h-.954V-5.7h.6c.819,0,1.089.018,1.143.018.09,0,.1-.009.1-.1v-.63c0-.1-.009-.108-.1-.108-.054,0-.324.018-1.143.018h-.6a2.091,2.091,0,0,1,.045-.675.5.5,0,0,0,.054-.189c0-.045-.054-.081-.144-.09-.333-.036-.576-.054-.927-.063A7.54,7.54,0,0,1,25.452-6.5h-.423c-.8,0-1.08-.018-1.134-.018-.1,0-.108.009-.108.108v.63c0,.09.009.1.108.1.054,0,.333-.018,1.134-.018h.423v.927H24.8c-.855,0-1.152-.018-1.206-.018-.1,0-.108.009-.108.1v.621c0,.1.009.108.108.108.054,0,.351-.018,1.206-.018Zm-.7,1.692V-.5c0,.207-.081.279-.3.279-.3,0-.567-.009-.882-.036a2.006,2.006,0,0,1,.27.657c.063.27.072.27.342.27a2.077,2.077,0,0,0,1.17-.2.837.837,0,0,0,.315-.765c0-.306-.009-.693-.009-1.107v-.891c.612.009.855.018.9.018.1,0,.108-.009.108-.1V-3c0-.09-.009-.1-.108-.1-.045,0-.288.018-.9.018a1.141,1.141,0,0,1,.045-.459.3.3,0,0,0,.045-.153c0-.045-.054-.081-.153-.1-.243-.036-.567-.063-.909-.081a6.684,6.684,0,0,1,.063.792H24.84c-.855,0-1.143-.018-1.2-.018-.1,0-.108.009-.108.1v.63c0,.09.009.1.108.1.054,0,.342-.018,1.2-.018Zm-2.43.567c-.108.063-.108.09-.045.162A7.535,7.535,0,0,1,24.93-.45c.027.045.045.063.072.063s.054-.018.108-.054l.549-.378c.09-.063.1-.09.045-.171a7.2,7.2,0,0,0-.828-1.035c-.072-.063-.1-.063-.189-.009Zm14.04-4.257c0-.765.018-1.134.018-1.188,0-.1-.009-.108-.1-.108-.054,0-.3.018-1,.018H35.82c-.7,0-.936-.018-.99-.018-.09,0-.1.009-.1.108,0,.054.018.27.018.792V-5.13c0,.531-.018.738-.018.792,0,.1.009.108.1.108.054,0,.288-.018.99-.018H37.3V-.657c0,.27-.072.351-.369.351a6.2,6.2,0,0,1-.756-.045,2.813,2.813,0,0,1,.216.657c.054.288.054.279.324.279.846,0,1.1-.072,1.287-.243a.978.978,0,0,0,.261-.828c0-.441-.036-1.161-.036-1.791ZM35.631-4.9v-.54H37.3v.54ZM37.3-6.579v.531H35.631v-.531Zm-5.427-.675c-.657,0-1-.018-1.062-.018-.09,0-.1.009-.1.108,0,.054.018.684.018,1.935v3.9c0,1.242-.018,1.854-.018,1.917,0,.09.009.1.1.1h.765c.09,0,.1-.009.1-.1,0-.063-.018-.675-.018-1.917V-4.248h1.458c.585,0,.855.018.909.018.081,0,.09-.009.09-.108,0-.054-.018-.306-.018-.855V-6.309c0-.54.018-.8.018-.855,0-.1-.009-.108-.09-.108-.054,0-.324.018-.909.018ZM33.21-4.9H31.653v-.54H33.21Zm0-1.683v.531H31.653v-.531Zm.3,6.642c.1,0,.108-.009.108-.108V-.414h1.647v.279c0,.09.009.1.1.1h.648c.09,0,.1-.009.1-.1,0-.045-.018-.288-.018-1.593v-.891c0-.648.018-.918.018-.972,0-.09-.009-.1-.1-.1-.063,0-.279.018-.963.018H33.831c-.684,0-.9-.018-.963-.018-.09,0-.1.009-.1.1,0,.063.018.333.018,1.125v.792c0,1.332-.018,1.575-.018,1.629,0,.1.009.108.1.108ZM33.615-1.1v-.63h1.647v.63Zm0-1.881h1.647v.6H33.615Zm10.836-3.1a.759.759,0,0,0-.765.765.75.75,0,0,0,.765.774.763.763,0,0,0,.774-.774A.772.772,0,0,0,44.451-6.075Zm0,3.807a.759.759,0,0,0-.765.765.75.75,0,0,0,.765.774.763.763,0,0,0,.774-.774A.772.772,0,0,0,44.451-2.268ZM50.508-.963A1.72,1.72,0,0,0,52.317.144c1.476,0,2.34-1.071,2.34-3.816,0-2.313-.873-3.294-2.232-3.294-1.26,0-2.07.918-2.07,2.4,0,1.359.783,2.214,1.827,2.214a1.477,1.477,0,0,0,1.4-.819C53.541-1.368,53.1-.72,52.335-.72c-.378,0-.594-.2-.72-.657Zm3.024-3.114a1.19,1.19,0,0,1-1.089.864c-.576,0-.945-.5-.945-1.377,0-.936.306-1.512.972-1.512C53.208-6.1,53.523-5.418,53.532-4.077Zm4.581-.846H56.826v1.242h1.287Zm0,3.7H56.826V.018h1.287Zm4.3-5.742c-1.386,0-2.169,1-2.169,3.546S60.984.144,62.4.144s2.178-1.035,2.178-3.582S63.8-6.966,62.415-6.966Zm0,.891c.72,0,1,.621,1,2.646S63.126-.747,62.4-.747c-.711,0-.99-.657-.99-2.682S61.713-6.075,62.415-6.075Zm6.147-.891c-1.386,0-2.169,1-2.169,3.546S67.131.144,68.544.144s2.178-1.035,2.178-3.582S69.948-6.966,68.562-6.966Zm0,.891c.72,0,1,.621,1,2.646S69.273-.747,68.544-.747c-.711,0-.99-.657-.99-2.682S67.86-6.075,68.562-6.075Zm4.491,3.294A2.149,2.149,0,0,1,74.7-3.618a3.968,3.968,0,0,1,1.9.684,3.664,3.664,0,0,0,1.827.585,2.729,2.729,0,0,0,2.142-1.278l-.36-.378a2.1,2.1,0,0,1-1.674.864,4.158,4.158,0,0,1-1.9-.684,3.736,3.736,0,0,0-1.827-.567A2.857,2.857,0,0,0,72.684-3.15ZM85.347-6.894h-.918a5.073,5.073,0,0,1-1.6.81l.18.945a5.047,5.047,0,0,0,1.269-.612v4.9h-1.35V.018h3.708V-.855H85.347ZM91.7-3.663a1.627,1.627,0,0,0,1.206-1.566,1.846,1.846,0,0,0-2.07-1.737,1.861,1.861,0,0,0-2.052,1.773,1.824,1.824,0,0,0,1.17,1.755c-.918.45-1.332.918-1.332,1.71,0,1.161.864,1.872,2.223,1.872A1.957,1.957,0,0,0,93.06-1.764,1.919,1.919,0,0,0,91.7-3.663ZM90.783-4.1c-.711-.333-.936-.63-.936-1.1a.9.9,0,0,1,.99-.936.936.936,0,0,1,1.008.954,1.232,1.232,0,0,1-.81,1.2ZM90.9-2.97c.828.4,1.089.7,1.089,1.242A1.02,1.02,0,0,1,90.837-.684,1.061,1.061,0,0,1,89.694-1.8c0-.576.306-.945.945-1.3Zm5.526-1.953H95.139v1.242h1.287Zm0,3.7H95.139V.018h1.287Zm4.3-5.742c-1.386,0-2.169,1-2.169,3.546S99.3.144,100.71.144s2.178-1.035,2.178-3.582S102.114-6.966,100.728-6.966Zm0,.891c.72,0,1,.621,1,2.646s-.288,2.682-1.017,2.682c-.711,0-.99-.657-.99-2.682S100.026-6.075,100.728-6.075Zm6.147-.891c-1.386,0-2.169,1-2.169,3.546s.738,3.564,2.151,3.564,2.178-1.035,2.178-3.582S108.261-6.966,106.875-6.966Zm0,.891c.72,0,1,.621,1,2.646s-.288,2.682-1.017,2.682c-.711,0-.99-.657-.99-2.682S106.173-6.075,106.875-6.075Zm17.64,2.025V-.711A2.245,2.245,0,0,1,123.165-2c.063-.225.117-.459.162-.711a.754.754,0,0,1,.117-.279.279.279,0,0,0,.081-.171c0-.063-.045-.1-.171-.126-.261-.063-.558-.126-.855-.171a4.288,4.288,0,0,1-.054.576,4.261,4.261,0,0,1-1.62,2.844,1.957,1.957,0,0,1,.522.468c.09.117.135.171.18.171s.108-.054.2-.153a5.127,5.127,0,0,0,1.1-1.539c.711,1.071,1.341,1.557,4.563,1.566.36,0,.72-.009,1.062-.027.279-.027.288-.027.324-.306a2.468,2.468,0,0,1,.171-.648c-.594.045-1.233.081-1.746.081A15.181,15.181,0,0,1,125.46-.5V-2.043h1.1c.738,0,.981.018,1.035.018.1,0,.108-.009.108-.09v-.657c0-.09-.009-.1-.108-.1-.054,0-.3.018-1.035.018h-1.1v-1.2h.765c.864,0,1.161.018,1.215.018.09,0,.1-.009.1-.1v-.657c0-.09-.009-.1-.1-.1-.054,0-.351.018-1.215.018h-2.538c-.873,0-1.161-.018-1.215-.018-.1,0-.108.009-.108.1v.657c0,.09.009.1.108.1.054,0,.342-.018,1.215-.018Zm.819-2.556V-6.7a1.611,1.611,0,0,1,.036-.54.421.421,0,0,0,.054-.171c0-.054-.054-.081-.135-.09-.306-.027-.63-.045-.963-.045a3.623,3.623,0,0,1,.063.855v.081h-1.926c-.846,0-1.134-.018-1.2-.018-.09,0-.1.009-.1.09,0,.063.018.216.018.549v.306c0,.8-.018.927-.018.99,0,.09.009.1.1.1H122c.1,0,.108-.009.108-.1V-5.778h5.7v1.089c0,.09.009.1.1.1h.738c.09,0,.1-.009.1-.1,0-.054-.018-.189-.018-.99v-.387c0-.252.018-.4.018-.468,0-.081-.009-.09-.1-.09-.054,0-.351.018-1.188.018Zm9.819,1.989a8.03,8.03,0,0,1-2.385,3.249,2.092,2.092,0,0,1,.441.6c.063.126.1.189.144.189s.1-.054.18-.135a7.826,7.826,0,0,0,1.935-2.88c-.009,2.187-.045,4-.045,4.185,0,.1.009.108.1.108h.783c.09,0,.1-.009.1-.108,0-.18-.054-2.007-.063-4.284a8.754,8.754,0,0,0,2.052,2.934c.09.081.135.126.18.126s.09-.054.162-.189a2.6,2.6,0,0,1,.45-.63,8.351,8.351,0,0,1-2.538-3.168h.972c.873,0,1.179.018,1.242.018.081,0,.09-.009.09-.1v-.7c0-.09-.009-.1-.09-.1-.063,0-.369.018-1.242.018h-1.251V-6.2a2.761,2.761,0,0,1,.054-.909.422.422,0,0,0,.054-.189c0-.045-.054-.09-.144-.1-.3-.027-.621-.045-.954-.054a8.025,8.025,0,0,1,.072,1.269v.7h-.909c-.882,0-1.179-.018-1.233-.018-.09,0-.1.009-.1.1v.7c0,.09.009.1.1.1.054,0,.351-.018,1.233-.018Zm-3.4,3.861c0,.882-.018,1.314-.018,1.368,0,.09.009.1.09.1h.774c.09,0,.1-.009.1-.1,0-.045-.018-.486-.018-1.368V-5.274a13.558,13.558,0,0,0,.585-1.332c.081-.234.117-.315.18-.369s.1-.09.1-.153-.045-.09-.144-.135a7.8,7.8,0,0,0-.882-.279,3.266,3.266,0,0,1-.144.639,7.992,7.992,0,0,1-1.71,2.934,2.809,2.809,0,0,1,.342.756c.027.108.063.153.108.153s.09-.036.162-.117c.171-.2.333-.405.486-.612-.009.351-.009.711-.009,1ZM142.929.567c.09,0,.1-.009.1-.1V-.018H146.8V.423c0,.09.009.1.1.1h.8c.09,0,.1-.009.1-.1,0-.054-.018-.585-.018-3.168v-2c0-1.476.018-2.025.018-2.079,0-.1-.009-.108-.1-.108-.054,0-.369.018-1.242.018H143.37c-.873,0-1.179-.018-1.242-.018-.09,0-.1.009-.1.108,0,.054.018.6.018,2.349v1.737c0,2.61-.018,3.141-.018,3.2,0,.09.009.1.1.1Zm.1-1.476V-3.087H146.8V-.909Zm0-5.112H146.8v2.052h-3.771Zm11.862-.054a.759.759,0,0,0-.765.765.75.75,0,0,0,.765.774.763.763,0,0,0,.774-.774A.772.772,0,0,0,154.89-6.075Zm0,3.807a.759.759,0,0,0-.765.765.75.75,0,0,0,.765.774.763.763,0,0,0,.774-.774A.772.772,0,0,0,154.89-2.268ZM162.909.567c.09,0,.1-.009.1-.1V-.018h3.771V.423c0,.09.009.1.1.1h.8c.09,0,.1-.009.1-.1,0-.054-.018-.585-.018-3.168v-2c0-1.476.018-2.025.018-2.079,0-.1-.009-.108-.1-.108-.054,0-.369.018-1.242.018H163.35c-.873,0-1.179-.018-1.242-.018-.09,0-.1.009-.1.108,0,.054.018.6.018,2.349v1.737c0,2.61-.018,3.141-.018,3.2,0,.09.009.1.1.1Zm.1-1.476V-3.087h3.771V-.909Zm0-5.112h3.771v2.052h-3.771ZM174.1-2.3c-.018.387-.027.8-.027.99V-.171c0,.567-.018.738-.018.792,0,.09.009.1.108.1h.657c.09,0,.1-.009.1-.1V.315h2.817c.783,0,1.053.018,1.107.018.09,0,.1-.009.1-.1V-.252c0-.09-.009-.1-.1-.1-.054,0-.324.018-1.107.018h-.774v-.5h.144c.945,0,1.269.018,1.323.018.09,0,.1-.009.1-.1v-.459c0-.09-.009-.1-.1-.1-.054,0-.378.018-1.323.018h-.144v-.486h.162c.936,0,1.269.018,1.323.018.09,0,.1-.009.1-.1v-.468c0-.09-.009-.1-.1-.1-.054,0-.387.018-1.323.018h-.162V-3.06h.675c.756,0,1,.018,1.053.018.1,0,.108-.009.108-.108v-.468c0-.09-.009-.1-.108-.1-.054,0-.3.018-1.053.018h-.621a1.025,1.025,0,0,0,.09-.171.417.417,0,0,1,.117-.162.169.169,0,0,0,.072-.135c0-.045-.054-.081-.135-.108-.189-.054-.513-.135-.711-.18.1,0,.171-.018.531-.018h.828c.531,0,.765.018.819.018.1,0,.108-.009.108-.108,0-.045-.018-.279-.018-.8v-.954c0-.513.018-.756.018-.81,0-.09-.009-.1-.108-.1-.054,0-.288.018-.819.018h-.585c-.531,0-.675-.018-.729-.018-.1,0-.108.009-.108.1v.495c0,.09.009.1.108.1.054,0,.2-.018.729-.018h.7v.423h-.711c-.441,0-.549-.018-.6-.018-.09,0-.1.009-.1.108v.423c0,.1.009.108.1.108.054,0,.162-.018.6-.018h.711V-5.1h-.945c-.36,0-.432-.018-.486-.018-.1,0-.108.009-.108.1v.459c0,.072,0,.1.045.108a2.408,2.408,0,0,1-.117.486,1.75,1.75,0,0,1-.126.27h-1.179a.927.927,0,0,1,.243-.342c.045-.036.081-.063.081-.117s-.045-.081-.144-.117a5.872,5.872,0,0,0-.684-.2h.666c.531,0,.765.018.819.018.09,0,.1-.009.1-.108,0-.045-.018-.261-.018-.783v-.972c0-.513.018-.756.018-.81,0-.09-.009-.1-.1-.1-.054,0-.288.018-.819.018h-.612c-.513,0-.666-.018-.72-.018-.1,0-.108.009-.108.1v.495c0,.09.009.1.108.1.054,0,.207-.018.72-.018h.729v.423h-.729c-.441,0-.549-.018-.6-.018-.09,0-.1.009-.1.108v.423c0,.1.009.108.1.108.054,0,.162-.018.6-.018h.729V-5.1h-.963c-.36,0-.432-.018-.486-.018-.1,0-.108.009-.108.1v.459c0,.1.009.108.108.108.054,0,.126-.018.486-.018h.171a2.749,2.749,0,0,1-.216.6,3.908,3.908,0,0,1-.918,1.206V-5.13c0-1.395.018-1.863.018-1.917,0-.09-.009-.1-.1-.1-.063,0-.216.018-.72.018h-.675c-.513,0-.666-.018-.729-.018-.09,0-.1.009-.1.1,0,.063.018.567.018,2.241v1.665c0,2.421-.018,2.907-.018,2.97,0,.081.009.09.1.09h.6c.1,0,.108-.009.108-.09v-.72h.729v.4c0,.09.009.1.1.1h.585c.09,0,.1-.009.1-.1,0-.045-.018-.405-.018-1.863.081.063.162.144.252.225s.117.135.162.135.09-.045.171-.135Zm-2.232.6V-3.663h.729V-1.7Zm.729-4.608v1.845h-.729V-6.309Zm2.322,5.976v-.5h1.206v.5Zm0-2.727h1.206v.486h-1.206Zm0,1.6v-.486h1.206v.486ZM184.86-4.32a.9.9,0,0,0-.9.9.9.9,0,0,0,.9.9.9.9,0,0,0,.9-.9A.9.9,0,0,0,184.86-4.32Zm11.727.9V-.351c0,.45.1.612.252.72a1.659,1.659,0,0,0,.945.153,1.529,1.529,0,0,0,.954-.207c.2-.171.315-.441.351-1.305.009-.225.009-.234-.225-.3a2.042,2.042,0,0,1-.576-.261c-.009.792-.036.963-.108,1.08a.312.312,0,0,1-.3.126.565.565,0,0,1-.324-.063c-.063-.045-.072-.108-.072-.3V-3.42c.639.009.891.018.945.018.1,0,.108-.009.108-.1,0-.054-.018-.324-.018-.909V-6.057c0-.576.018-.846.018-.9,0-.09-.009-.1-.108-.1-.054,0-.333.018-1.107.018h-1.818c-.774,0-1.053-.018-1.107-.018-.09,0-.1.009-.1.1,0,.063.018.324.018.9V-4.41c0,.585-.018.846-.018.909,0,.09.009.1.1.1.045,0,.234-.009.711-.018.036,2.007-.486,2.8-1.935,3.393a2.336,2.336,0,0,1,.5.486c.1.135.135.18.2.18a.566.566,0,0,0,.207-.081c1.35-.72,1.908-1.836,1.926-3.978Zm1.008-.837h-2.376V-6.192H197.6Zm-4.68-1.809v-.4a1.562,1.562,0,0,1,.081-.7.422.422,0,0,0,.054-.189c0-.045-.054-.081-.144-.09a8.491,8.491,0,0,0-.972-.081,4.472,4.472,0,0,1,.09,1.1v.369H191.9c-.657,0-.873-.018-.927-.018-.09,0-.1.009-.1.1v.666c0,.09.009.1.1.1.054,0,.27-.018.927-.018h.981a6.375,6.375,0,0,1-2.268,2.718,2.324,2.324,0,0,1,.315.729c.027.09.054.144.1.144s.108-.045.2-.126c.27-.252.54-.513.8-.783V-.711c0,.666-.018,1.278-.018,1.332,0,.09.009.1.108.1h.711c.1,0,.108-.009.108-.1,0-.045-.018-.666-.018-1.332V-2.9a5.691,5.691,0,0,0,.684.819c.072.063.117.1.162.1s.072-.036.117-.108a2.373,2.373,0,0,1,.468-.657,4.383,4.383,0,0,1-1.251-1.125,7.347,7.347,0,0,0,.657-1.2.863.863,0,0,1,.216-.333c.081-.063.126-.108.126-.2,0-.063-.009-.117-.207-.306-.216-.2-.279-.234-.351-.234a.293.293,0,0,0-.117.036.492.492,0,0,1-.216.036ZM202.869.567c.09,0,.1-.009.1-.1V-.018h3.771V.423c0,.09.009.1.1.1h.8c.09,0,.1-.009.1-.1,0-.054-.018-.585-.018-3.168v-2c0-1.476.018-2.025.018-2.079,0-.1-.009-.108-.1-.108-.054,0-.369.018-1.242.018H203.31c-.873,0-1.179-.018-1.242-.018-.09,0-.1.009-.1.108,0,.054.018.6.018,2.349v1.737c0,2.61-.018,3.141-.018,3.2,0,.09.009.1.1.1Zm.1-1.476V-3.087h3.771V-.909Zm0-5.112h3.771v2.052h-3.771Z" transform="translate(105.932 67.479)" fill="#fff"/>
</svg>
