<svg xmlns="http://www.w3.org/2000/svg" width="23.01" height="30.094" viewBox="0 0 23.01 30.094">
  <g id="r1zto7" transform="translate(0 0)">
    <g id="グループ_6109" data-name="グループ 6109" transform="translate(0)">
      <path id="パス_11412" data-name="パス 11412" d="M104.709-542.726a24.466,24.466,0,0,1,1.935-1.983,3.12,3.12,0,0,1,4.6.21,9.028,9.028,0,0,1,2.736,4.972,2.856,2.856,0,0,1-1.434,3.031,7.338,7.338,0,0,1-5.095.958,15.047,15.047,0,0,1-8.8-4.613,26.853,26.853,0,0,1-7.15-12.39,14.856,14.856,0,0,1,.255-8.382,7.528,7.528,0,0,1,2.66-3.809,3.11,3.11,0,0,1,4.412.234,9.258,9.258,0,0,1,2.8,4.885,2.881,2.881,0,0,1-1.231,3.074,6.158,6.158,0,0,1-2.917,1.088c-.333.043-.477.16-.44.484a19.844,19.844,0,0,0,.362,2.952,14.848,14.848,0,0,0,5.307,8.04A21.167,21.167,0,0,0,104.709-542.726Z" transform="translate(-91.018 565.537)" fill="#fafafa"/>
    </g>
  </g>
</svg>
