<svg xmlns="http://www.w3.org/2000/svg" width="440.9" height="84.893" viewBox="0 0 440.9 84.893">
  <g id="グループ_22129" data-name="グループ 22129" transform="translate(7799.46 -16822.398)">
    <path id="パス_81577" data-name="パス 81577" d="M7.78-10.92c-1.82,0-2.46-.04-2.58-.04-.18,0-.2.02-.2.24,0,.1.04.44.04,1.36V-7.6C5.04-6.68,5-6.36,5-6.22c0,.2.02.22.2.22.12,0,.76-.04,2.58-.04H8.6A13.444,13.444,0,0,1,8.04-4.7H6.1c-1.96,0-2.66-.02-2.8-.02-.2,0-.22.02-.22.22,0,.12.04.6.04,1.78v1.08c0,2.4-.04,2.84-.04,2.96,0,.2.02.22.22.22H5c.18,0,.2-.02.2-.22V.64h9.64v.6c0,.18.02.2.22.2h1.68c.2,0,.2-.02.2-.2,0-.12-.02-.56-.02-2.92V-2.96c0-.94.02-1.42.02-1.54,0-.2,0-.22-.2-.22-.14,0-.84.02-2.8.02h-3.8c.18-.4.38-.84.56-1.34h1.52c1.8,0,2.44.04,2.58.04.18,0,.2-.02.2-.22,0-.12-.04-.46-.04-1.38V-9.36c0-.92.04-1.26.04-1.36,0-.22-.02-.24-.2-.24-.14,0-.78.04-2.58.04ZM5.2-2.94h9.64V-1.1H5.2ZM7.04-9.36h5.94v1.74H7.04Zm-3.16-6.8c-.24.08-.26.12-.14.3a9.643,9.643,0,0,1,1.02,1.84.364.364,0,0,0,.1.16H4.4c-1.84,0-2.5-.04-2.64-.04-.2,0-.22.02-.22.22,0,.14.04.5.04,1.2v.72c0,1.76-.04,2.08-.04,2.2,0,.22.02.24.22.24h1.6c.2,0,.22-.02.22-.24v-2.58H16.44v2.6c0,.2.02.22.22.22h1.6c.2,0,.22-.02.22-.22,0-.12-.04-.44-.04-2.2v-.88c0-.56.04-.94.04-1.06,0-.2-.02-.22-.22-.22-.14,0-.8.04-2.64.04h-.4c.26-.4.48-.8.76-1.26a1.448,1.448,0,0,1,.42-.48.393.393,0,0,0,.18-.34c0-.12-.08-.18-.26-.26a14.232,14.232,0,0,0-1.9-.58,7.456,7.456,0,0,1-.32,1,16.319,16.319,0,0,1-1.02,1.92H5.1l1.4-.46c.28-.1.28-.12.18-.3A10.906,10.906,0,0,0,5.52-16.5c-.12-.14-.18-.18-.44-.08Zm4.66-.24c-.24.08-.3.1-.18.3a17.629,17.629,0,0,1,.94,1.96c.08.22.1.24.4.16l1.34-.4c.28-.08.3-.12.22-.28a13.313,13.313,0,0,0-1-2c-.1-.18-.16-.22-.4-.14Zm20,13.06A16.61,16.61,0,0,1,22.16-.56a4.774,4.774,0,0,1,.8,1.2c.18.38.26.52.44.52a1.535,1.535,0,0,0,.46-.12,16.2,16.2,0,0,0,6.42-3.58C30.26-.16,30.2,1,30.2,1.34c0,.2.02.22.2.22h1.7c.2,0,.22-.02.22-.22,0-.34-.1-1.58-.1-3.96A17.462,17.462,0,0,0,38.94.96a2.14,2.14,0,0,0,.46.1c.2,0,.28-.14.44-.52a5.673,5.673,0,0,1,.78-1.28,18.147,18.147,0,0,1-6.66-2.6h3.56c1.8,0,2.4.04,2.52.04.2,0,.22-.02.22-.22V-4.7c0-.22-.02-.24-.22-.24-.12,0-.72.04-2.52.04H32.26V-5.98h3.18c1.96,0,2.64.04,2.76.04.2,0,.22-.02.22-.22V-7.3c0-.22-.02-.24-.22-.24-.12,0-.8.04-2.76.04H32.26V-8.56H36.3c1.92,0,2.56.04,2.68.04.2,0,.22-.02.22-.2V-9.9c0-.2-.02-.22-.22-.22-.12,0-.76.04-2.68.04H35l.36-.64a1.394,1.394,0,0,1,.28-.42.347.347,0,0,0,.22-.3c0-.12-.1-.2-.26-.24-.6-.16-1.06-.26-1.58-.36h3.5c1.8,0,2.4.04,2.52.04.2,0,.22-.02.22-.22v-1.24c0-.22-.02-.24-.22-.24-.12,0-.72.04-2.52.04h-.28c.28-.4.56-.8.82-1.22a2.016,2.016,0,0,1,.34-.38.412.412,0,0,0,.2-.34c0-.1-.08-.2-.26-.26a16.763,16.763,0,0,0-1.94-.52,3.822,3.822,0,0,1-.34,1.08,14.829,14.829,0,0,1-.92,1.64H33.9v-1.32a3.124,3.124,0,0,1,.12-1.1.941.941,0,0,0,.08-.32c0-.1-.08-.16-.26-.18a19.244,19.244,0,0,0-1.92-.14,7.934,7.934,0,0,1,.12,1.76v1.3H30.42v-1.32a3.124,3.124,0,0,1,.12-1.1,1.051,1.051,0,0,0,.08-.34q0-.15-.24-.18c-.54-.06-1.32-.1-1.94-.12a7.839,7.839,0,0,1,.12,1.74v1.32H26.7l.48-.24c.26-.14.26-.16.16-.34A11.941,11.941,0,0,0,26-16.18c-.12-.16-.18-.18-.38-.08l-1.16.54c-.24.12-.28.2-.16.34a9.5,9.5,0,0,1,1.14,1.72H25.3c-1.8,0-2.4-.04-2.52-.04-.22,0-.24.02-.24.24v1.24c0,.2.02.22.24.22.12,0,.72-.04,2.52-.04h3.2l-1.3.36c-.26.08-.24.16-.14.34.22.38.42.78.64,1.26H26.48c-1.92,0-2.56-.04-2.68-.04-.22,0-.24.02-.24.22v1.18c0,.18.02.2.24.2.12,0,.76-.04,2.68-.04h3.76V-7.5H27.42c-1.94,0-2.64-.04-2.76-.04-.2,0-.2.02-.2.24v1.14c0,.2,0,.22.2.22.12,0,.82-.04,2.76-.04h2.82V-4.9H25.3c-1.8,0-2.4-.04-2.52-.04-.22,0-.24.02-.24.24v1.18c0,.2.02.22.24.22.12,0,.72-.04,2.52-.04Zm1.2-6.74a12.548,12.548,0,0,0-.9-1.8c-.06-.08-.1-.14-.16-.16h5.1a3.663,3.663,0,0,1-.22.8c-.2.48-.36.82-.54,1.16ZM50.02-11.4c0-2.94.04-3.92.04-4.04,0-.2-.02-.22-.22-.22-.14,0-.52.04-1.72.04H46.4c-1.2,0-1.58-.04-1.72-.04-.2,0-.22.02-.22.22,0,.12.04,1.18.04,4.8v4.36c0,5.02-.04,6.04-.04,6.16,0,.2.02.22.22.22h1.48c.18,0,.2-.02.2-.22V-1.7H48.2v.88c0,.2.02.22.2.22h1.44c.2,0,.22-.02.22-.22,0-.12-.04-1.02-.04-6ZM46.36-3.52V-7.84H48.2v4.32ZM48.2-13.8v4.14H46.36V-13.8ZM59.1-8.84c1.9,0,2.56.04,2.68.04.22,0,.24-.02.24-.24v-1.38c0-.2-.02-.22-.24-.22-.12,0-.78.04-2.68.04H56.98v-2.06h1.34c1.82,0,2.42.04,2.54.04.2,0,.22-.02.22-.22v-1.4c0-.22-.02-.24-.22-.24-.12,0-.72.04-2.54.04H56.98a4.645,4.645,0,0,1,.1-1.5,1.112,1.112,0,0,0,.12-.42c0-.1-.12-.18-.32-.2-.74-.08-1.28-.12-2.06-.14a16.755,16.755,0,0,1,.14,2.26h-.94c-1.78,0-2.4-.04-2.52-.04-.22,0-.24.02-.24.24v1.4c0,.2.02.22.24.22.12,0,.74-.04,2.52-.04h.94v2.06H53.52c-1.9,0-2.56-.04-2.68-.04-.22,0-.24.02-.24.22v1.38c0,.22.02.24.24.24.12,0,.78-.04,2.68-.04ZM57.54-5.08V-1.1c0,.46-.18.62-.66.62-.66,0-1.26-.02-1.96-.08A4.457,4.457,0,0,1,55.52.9c.14.6.16.6.76.6a4.615,4.615,0,0,0,2.6-.44,1.859,1.859,0,0,0,.7-1.7c0-.68-.02-1.54-.02-2.46V-5.08c1.36.02,1.9.04,2,.04.22,0,.24-.02.24-.22v-1.4c0-.2-.02-.22-.24-.22-.1,0-.64.04-2,.04a2.536,2.536,0,0,1,.1-1.02.674.674,0,0,0,.1-.34c0-.1-.12-.18-.34-.22-.54-.08-1.26-.14-2.02-.18a14.854,14.854,0,0,1,.14,1.76H53.6c-1.9,0-2.54-.04-2.66-.04-.22,0-.24.02-.24.22v1.4c0,.2.02.22.24.22.12,0,.76-.04,2.66-.04Zm-5.4,1.26c-.24.14-.24.2-.1.36A16.746,16.746,0,0,1,53.8-1c.06.1.1.14.16.14s.12-.04.24-.12l1.22-.84c.2-.14.22-.2.1-.38a16,16,0,0,0-1.84-2.3c-.16-.14-.22-.14-.42-.02Zm30.4-9.46c0-1.7.04-2.52.04-2.64,0-.22-.02-.24-.22-.24-.12,0-.66.04-2.22.04H77.2c-1.56,0-2.08-.04-2.2-.04-.2,0-.22.02-.22.24,0,.12.04.6.04,1.76v2.76c0,1.18-.04,1.64-.04,1.76,0,.22.02.24.22.24.12,0,.64-.04,2.2-.04h3.28v7.98c0,.6-.16.78-.82.78a13.787,13.787,0,0,1-1.68-.1A6.25,6.25,0,0,1,78.46.68c.12.64.12.62.72.62,1.88,0,2.44-.16,2.86-.54a2.174,2.174,0,0,0,.58-1.84c0-.98-.08-2.58-.08-3.98Zm-5.76,2.4v-1.2h3.7v1.2Zm3.7-3.74v1.18h-3.7v-1.18Zm-12.06-1.5c-1.46,0-2.22-.04-2.36-.04-.2,0-.22.02-.22.24,0,.12.04,1.52.04,4.3v8.66c0,2.76-.04,4.12-.04,4.26,0,.2.02.22.22.22h1.7c.2,0,.22-.02.22-.22,0-.14-.04-1.5-.04-4.26V-9.44h3.24c1.3,0,1.9.04,2.02.04.18,0,.2-.02.2-.24,0-.12-.04-.68-.04-1.9v-2.48c0-1.2.04-1.78.04-1.9,0-.22-.02-.24-.2-.24-.12,0-.72.04-2.02.04Zm2.98,5.24H67.94v-1.2H71.4Zm0-3.74v1.18H67.94v-1.18ZM72.06.14c.22,0,.24-.02.24-.24V-.92h3.66V-.3c0,.2.02.22.22.22h1.44c.2,0,.22-.02.22-.22,0-.1-.04-.64-.04-3.54V-5.82c0-1.44.04-2.04.04-2.16,0-.2-.02-.22-.22-.22-.14,0-.62.04-2.14.04h-2.7c-1.52,0-2-.04-2.14-.04-.2,0-.22.02-.22.22,0,.14.04.74.04,2.5v1.76c0,2.96-.04,3.5-.04,3.62,0,.22.02.24.22.24Zm.24-2.58v-1.4h3.66v1.4Zm0-4.18h3.66v1.34H72.3ZM95.58-13.5a1.686,1.686,0,0,0-1.7,1.7,1.666,1.666,0,0,0,1.7,1.72A1.7,1.7,0,0,0,97.3-11.8,1.716,1.716,0,0,0,95.58-13.5Zm0,8.46a1.686,1.686,0,0,0-1.7,1.7,1.666,1.666,0,0,0,1.7,1.72A1.7,1.7,0,0,0,97.3-3.34,1.716,1.716,0,0,0,95.58-5.04Zm12.66,2.9c.62,1.64,1.94,2.46,4.02,2.46,3.28,0,5.2-2.38,5.2-8.48,0-5.14-1.94-7.32-4.96-7.32-2.8,0-4.6,2.04-4.6,5.34,0,3.02,1.74,4.92,4.06,4.92a3.283,3.283,0,0,0,3.12-1.82c-.1,4-1.08,5.44-2.78,5.44-.84,0-1.32-.44-1.6-1.46Zm6.72-6.92a2.645,2.645,0,0,1-2.42,1.92c-1.28,0-2.1-1.12-2.1-3.06,0-2.08.68-3.36,2.16-3.36C114.24-13.56,114.94-12.04,114.96-9.06Zm9.38-1.88h-2.86v2.76h2.86Zm0,8.22h-2.86V.04h2.86Zm8.76-12.76c-3.08,0-4.82,2.22-4.82,7.88S129.92.32,133.06.32c3.12,0,4.84-2.3,4.84-7.96C137.9-13.28,136.18-15.48,133.1-15.48Zm0,1.98c1.6,0,2.22,1.38,2.22,5.88,0,4.48-.64,5.96-2.26,5.96-1.58,0-2.2-1.46-2.2-5.96C130.86-12.14,131.54-13.5,133.1-13.5Zm12.86-1.98c-3.08,0-4.82,2.22-4.82,7.88S142.78.32,145.92.32c3.12,0,4.84-2.3,4.84-7.96C150.76-13.28,149.04-15.48,145.96-15.48Zm0,1.98c1.6,0,2.22,1.38,2.22,5.88,0,4.48-.64,5.96-2.26,5.96-1.58,0-2.2-1.46-2.2-5.96C143.72-12.14,144.4-13.5,145.96-13.5Zm9.18,7.32c1.52-1.5,2.44-1.86,3.66-1.86,1.16,0,2.2.42,4.22,1.52a8.143,8.143,0,0,0,4.06,1.3c1.68,0,3.2-.86,4.76-2.84l-.8-.84c-1.48,1.56-2.46,1.92-3.72,1.92-1.1,0-2.14-.42-4.22-1.52a8.3,8.3,0,0,0-4.06-1.26c-1.66,0-3.1.9-4.72,2.76Zm26.52-9.14h-2.04a11.272,11.272,0,0,1-3.56,1.8l.4,2.1a11.216,11.216,0,0,0,2.82-1.36V-1.9h-3V.04h8.24V-1.9h-2.86Zm13.32,7.18c1.8-.74,2.68-1.84,2.68-3.48,0-2.26-1.9-3.86-4.6-3.86-2.74,0-4.56,1.74-4.56,3.94a4.053,4.053,0,0,0,2.6,3.9c-2.04,1-2.96,2.04-2.96,3.8,0,2.58,1.92,4.16,4.94,4.16,2.98,0,4.92-1.7,4.92-4.24C198-5.9,197.18-7.1,194.98-8.14Zm-2.04-.98c-1.58-.74-2.08-1.4-2.08-2.44a2.007,2.007,0,0,1,2.2-2.08,2.08,2.08,0,0,1,2.24,2.12,2.739,2.739,0,0,1-1.8,2.66Zm.26,2.52c1.84.88,2.42,1.56,2.42,2.76a2.266,2.266,0,0,1-2.56,2.32A2.357,2.357,0,0,1,190.52-4c0-1.28.68-2.1,2.1-2.88Zm11.48-4.34h-2.86v2.76h2.86Zm0,8.22h-2.86V.04h2.86Zm8.76-12.76c-3.08,0-4.82,2.22-4.82,7.88S210.26.32,213.4.32c3.12,0,4.84-2.3,4.84-7.96C218.24-13.28,216.52-15.48,213.44-15.48Zm0,1.98c1.6,0,2.22,1.38,2.22,5.88,0,4.48-.64,5.96-2.26,5.96-1.58,0-2.2-1.46-2.2-5.96C211.2-12.14,211.88-13.5,213.44-13.5Zm12.86-1.98c-3.08,0-4.82,2.22-4.82,7.88S223.12.32,226.26.32c3.12,0,4.84-2.3,4.84-7.96C231.1-13.28,229.38-15.48,226.3-15.48Zm0,1.98c1.6,0,2.22,1.38,2.22,5.88,0,4.48-.64,5.96-2.26,5.96-1.58,0-2.2-1.46-2.2-5.96C224.06-12.14,224.74-13.5,226.3-13.5ZM263.9-9v7.42a4.989,4.989,0,0,1-3-2.86c.14-.5.26-1.02.36-1.58a1.675,1.675,0,0,1,.26-.62.619.619,0,0,0,.18-.38c0-.14-.1-.22-.38-.28-.58-.14-1.24-.28-1.9-.38a9.529,9.529,0,0,1-.12,1.28,9.469,9.469,0,0,1-3.6,6.32A4.348,4.348,0,0,1,256.86.96c.2.26.3.38.4.38.12,0,.24-.12.44-.34a11.394,11.394,0,0,0,2.44-3.42c1.58,2.38,2.98,3.46,10.14,3.48.8,0,1.6-.02,2.36-.06.62-.06.64-.06.72-.68a5.485,5.485,0,0,1,.38-1.44c-1.32.1-2.74.18-3.88.18A33.736,33.736,0,0,1,266-1.12V-4.54h2.44c1.64,0,2.18.04,2.3.04.22,0,.24-.02.24-.2V-6.16c0-.2-.02-.22-.24-.22-.12,0-.66.04-2.3.04H266V-9h1.7c1.92,0,2.58.04,2.7.04.2,0,.22-.02.22-.22v-1.46c0-.2-.02-.22-.22-.22-.12,0-.78.04-2.7.04h-5.64c-1.94,0-2.58-.04-2.7-.04-.22,0-.24.02-.24.22v1.46c0,.2.02.22.24.22.12,0,.76-.04,2.7-.04Zm1.82-5.68v-.2a3.581,3.581,0,0,1,.08-1.2.935.935,0,0,0,.12-.38c0-.12-.12-.18-.3-.2-.68-.06-1.4-.1-2.14-.1a8.05,8.05,0,0,1,.14,1.9v.18h-4.28c-1.88,0-2.52-.04-2.66-.04-.2,0-.22.02-.22.2,0,.14.04.48.04,1.22v.68c0,1.78-.04,2.06-.04,2.2,0,.2.02.22.22.22h1.62c.22,0,.24-.02.24-.22v-2.42H271.2v2.42c0,.2.02.22.22.22h1.64c.2,0,.22-.02.22-.22,0-.12-.04-.42-.04-2.2v-.86c0-.56.04-.9.04-1.04,0-.18-.02-.2-.22-.2-.12,0-.78.04-2.64.04Zm21.02,4.42a17.845,17.845,0,0,1-5.3,7.22,4.649,4.649,0,0,1,.98,1.34c.14.28.22.42.32.42s.22-.12.4-.3a17.392,17.392,0,0,0,4.3-6.4c-.02,4.86-.1,8.9-.1,9.3,0,.22.02.24.22.24h1.74c.2,0,.22-.02.22-.24,0-.4-.12-4.46-.14-9.52a19.454,19.454,0,0,0,4.56,6.52c.2.18.3.28.4.28.12,0,.2-.12.36-.42a5.767,5.767,0,0,1,1-1.4,18.558,18.558,0,0,1-5.64-7.04h2.16c1.94,0,2.62.04,2.76.04.18,0,.2-.02.2-.22V-12c0-.2-.02-.22-.2-.22-.14,0-.82.04-2.76.04h-2.78v-1.6a6.137,6.137,0,0,1,.12-2.02.938.938,0,0,0,.12-.42c0-.1-.12-.2-.32-.22-.66-.06-1.38-.1-2.12-.12a17.835,17.835,0,0,1,.16,2.82v1.56h-2.02c-1.96,0-2.62-.04-2.74-.04-.2,0-.22.02-.22.22v1.56c0,.2.02.22.22.22.12,0,.78-.04,2.74-.04Zm-7.56,8.58c0,1.96-.04,2.92-.04,3.04,0,.2.02.22.2.22h1.72c.2,0,.22-.02.22-.22,0-.1-.04-1.08-.04-3.04V-11.72a30.135,30.135,0,0,0,1.3-2.96c.18-.52.26-.7.4-.82.16-.12.22-.2.22-.34s-.1-.2-.32-.3a17.325,17.325,0,0,0-1.96-.62,7.257,7.257,0,0,1-.32,1.42,17.76,17.76,0,0,1-3.8,6.52,6.242,6.242,0,0,1,.76,1.68c.06.24.14.34.24.34.08,0,.2-.08.36-.26.38-.44.74-.9,1.08-1.36-.02.78-.02,1.58-.02,2.22Zm24.04,2.94c.2,0,.22-.02.22-.22V-.04h8.38V.94c0,.2.02.22.22.22h1.78c.2,0,.22-.02.22-.22,0-.12-.04-1.3-.04-7.04v-4.44c0-3.28.04-4.5.04-4.62,0-.22-.02-.24-.22-.24-.12,0-.82.04-2.76.04H304.2c-1.94,0-2.62-.04-2.76-.04-.2,0-.22.02-.22.24,0,.12.04,1.34.04,5.22v3.86c0,5.8-.04,6.98-.04,7.12,0,.2.02.22.22.22Zm.22-3.28V-6.86h8.38v4.84Zm0-11.36h8.38v4.56h-8.38ZM329-13.5a1.686,1.686,0,0,0-1.7,1.7,1.666,1.666,0,0,0,1.7,1.72,1.7,1.7,0,0,0,1.72-1.72A1.716,1.716,0,0,0,329-13.5Zm0,8.46a1.686,1.686,0,0,0-1.7,1.7A1.666,1.666,0,0,0,329-1.62a1.7,1.7,0,0,0,1.72-1.72A1.716,1.716,0,0,0,329-5.04Zm17.02,6.3c.2,0,.22-.02.22-.22V-.04h8.38V.94c0,.2.02.22.22.22h1.78c.2,0,.22-.02.22-.22,0-.12-.04-1.3-.04-7.04v-4.44c0-3.28.04-4.5.04-4.62,0-.22-.02-.24-.22-.24-.12,0-.82.04-2.76.04H347c-1.94,0-2.62-.04-2.76-.04-.2,0-.22.02-.22.24,0,.12.04,1.34.04,5.22v3.86c0,5.8-.04,6.98-.04,7.12,0,.2.02.22.22.22Zm.22-3.28V-6.86h8.38v4.84Zm0-11.36h8.38v4.56h-8.38Zm23.84,8.26c-.04.86-.06,1.78-.06,2.2V-.38c0,1.26-.04,1.64-.04,1.76,0,.2.02.22.24.22h1.46c.2,0,.22-.02.22-.22V.7h6.26c1.74,0,2.34.04,2.46.04.2,0,.22-.02.22-.22V-.56c0-.2-.02-.22-.22-.22-.12,0-.72.04-2.46.04h-1.72V-1.86h.32c2.1,0,2.82.04,2.94.04.2,0,.22-.02.22-.22V-3.06c0-.2-.02-.22-.22-.22-.12,0-.84.04-2.94.04h-.32V-4.32h.36c2.08,0,2.82.04,2.94.04.2,0,.22-.02.22-.22V-5.54c0-.2-.02-.22-.22-.22-.12,0-.86.04-2.94.04h-.36V-6.8h1.5c1.68,0,2.22.04,2.34.04.22,0,.24-.02.24-.24V-8.04c0-.2-.02-.22-.24-.22-.12,0-.66.04-2.34.04h-1.38a2.279,2.279,0,0,0,.2-.38.925.925,0,0,1,.26-.36.375.375,0,0,0,.16-.3c0-.1-.12-.18-.3-.24-.42-.12-1.14-.3-1.58-.4.22,0,.38-.04,1.18-.04h1.84c1.18,0,1.7.04,1.82.04.22,0,.24-.02.24-.24,0-.1-.04-.62-.04-1.78v-2.12c0-1.14.04-1.68.04-1.8,0-.2-.02-.22-.24-.22-.12,0-.64.04-1.82.04h-1.3c-1.18,0-1.5-.04-1.62-.04-.22,0-.24.02-.24.22v1.1c0,.2.02.22.24.22.12,0,.44-.04,1.62-.04h1.56v.94H377c-.98,0-1.22-.04-1.34-.04-.2,0-.22.02-.22.24v.94c0,.22.02.24.22.24.12,0,.36-.04,1.34-.04h1.58v.94h-2.1c-.8,0-.96-.04-1.08-.04-.22,0-.24.02-.24.22v1.02c0,.16,0,.22.1.24A5.35,5.35,0,0,1,375-8.82a3.89,3.89,0,0,1-.28.6H372.1a2.06,2.06,0,0,1,.54-.76c.1-.08.18-.14.18-.26s-.1-.18-.32-.26a13.05,13.05,0,0,0-1.52-.44h1.48c1.18,0,1.7.04,1.82.04.2,0,.22-.02.22-.24,0-.1-.04-.58-.04-1.74v-2.16c0-1.14.04-1.68.04-1.8,0-.2-.02-.22-.22-.22-.12,0-.64.04-1.82.04H371.1c-1.14,0-1.48-.04-1.6-.04-.22,0-.24.02-.24.22v1.1c0,.2.02.22.24.22.12,0,.46-.04,1.6-.04h1.62v.94H371.1c-.98,0-1.22-.04-1.34-.04-.2,0-.22.02-.22.24v.94c0,.22.02.24.22.24.12,0,.36-.04,1.34-.04h1.62v.94h-2.14c-.8,0-.96-.04-1.08-.04-.22,0-.24.02-.24.22v1.02c0,.22.02.24.24.24.12,0,.28-.04,1.08-.04h.38a6.107,6.107,0,0,1-.48,1.34,8.684,8.684,0,0,1-2.04,2.68V-11.4c0-3.1.04-4.14.04-4.26,0-.2-.02-.22-.22-.22-.14,0-.48.04-1.6.04h-1.5c-1.14,0-1.48-.04-1.62-.04-.2,0-.22.02-.22.22,0,.14.04,1.26.04,4.98v3.7c0,5.38-.04,6.46-.04,6.6,0,.18.02.2.22.2h1.34c.22,0,.24-.02.24-.2v-1.6h1.62v.88c0,.2.02.22.22.22h1.3c.2,0,.22-.02.22-.22,0-.1-.04-.9-.04-4.14.18.14.36.32.56.5.18.2.26.3.36.3s.2-.1.38-.3Zm-4.96,1.34V-8.14h1.62v4.36Zm1.62-10.24v4.1h-1.62v-4.1ZM371.9-.74V-1.86h2.68V-.74Zm0-6.06h2.68v1.08H371.9Zm0,3.56V-4.32h2.68v1.08ZM393.2-9.6a2.006,2.006,0,0,0-2,2,2.006,2.006,0,0,0,2,2,2.006,2.006,0,0,0,2-2A2.006,2.006,0,0,0,393.2-9.6Zm25.26,2V-.78c0,1,.22,1.36.56,1.6a3.687,3.687,0,0,0,2.1.34A3.4,3.4,0,0,0,423.24.7c.44-.38.7-.98.78-2.9.02-.5.02-.52-.5-.66a4.539,4.539,0,0,1-1.28-.58c-.02,1.76-.08,2.14-.24,2.4a.694.694,0,0,1-.66.28,1.256,1.256,0,0,1-.72-.14c-.14-.1-.16-.24-.16-.66V-7.6c1.42.02,1.98.04,2.1.04.22,0,.24-.02.24-.22,0-.12-.04-.72-.04-2.02v-3.66c0-1.28.04-1.88.04-2,0-.2-.02-.22-.24-.22-.12,0-.74.04-2.46.04h-4.04c-1.72,0-2.34-.04-2.46-.04-.2,0-.22.02-.22.22,0,.14.04.72.04,2V-9.8c0,1.3-.04,1.88-.04,2.02,0,.2.02.22.22.22.1,0,.52-.02,1.58-.04.08,4.46-1.08,6.22-4.3,7.54A5.19,5.19,0,0,1,412,1.02c.22.3.3.4.44.4a1.259,1.259,0,0,0,.46-.18c3-1.6,4.24-4.08,4.28-8.84Zm2.24-1.86h-5.28v-4.3h5.28Zm-10.4-4.02v-.9a3.471,3.471,0,0,1,.18-1.56.937.937,0,0,0,.12-.42c0-.1-.12-.18-.32-.2a18.87,18.87,0,0,0-2.16-.18,9.94,9.94,0,0,1,.2,2.44v.82h-.28c-1.46,0-1.94-.04-2.06-.04-.2,0-.22.02-.22.22v1.48c0,.2.02.22.22.22.12,0,.6-.04,2.06-.04h2.18a14.166,14.166,0,0,1-5.04,6.04,5.164,5.164,0,0,1,.7,1.62c.06.2.12.32.22.32s.24-.1.44-.28c.6-.56,1.2-1.14,1.78-1.74v4.1c0,1.48-.04,2.84-.04,2.96,0,.2.02.22.24.22h1.58c.22,0,.24-.02.24-.22,0-.1-.04-1.48-.04-2.96V-6.44a12.647,12.647,0,0,0,1.52,1.82c.16.14.26.22.36.22s.16-.08.26-.24a5.272,5.272,0,0,1,1.04-1.46,9.739,9.739,0,0,1-2.78-2.5,16.325,16.325,0,0,0,1.46-2.66,1.919,1.919,0,0,1,.48-.74c.18-.14.28-.24.28-.44,0-.14-.02-.26-.46-.68-.48-.44-.62-.52-.78-.52a.652.652,0,0,0-.26.08,1.093,1.093,0,0,1-.48.08ZM431.62,1.26c.2,0,.22-.02.22-.22V-.04h8.38V.94c0,.2.02.22.22.22h1.78c.2,0,.22-.02.22-.22,0-.12-.04-1.3-.04-7.04v-4.44c0-3.28.04-4.5.04-4.62,0-.22-.02-.24-.22-.24-.12,0-.82.04-2.76.04H432.6c-1.94,0-2.62-.04-2.76-.04-.2,0-.22.02-.22.24,0,.12.04,1.34.04,5.22v3.86c0,5.8-.04,6.98-.04,7.12,0,.2.02.22.22.22Zm.22-3.28V-6.86h8.38v4.84Zm0-11.36h8.38v4.56h-8.38Z" transform="translate(-7801 16905.691)" fill="#1d9612"/>
    <g id="グループ_22011" data-name="グループ 22011" transform="translate(6)">
      <g id="r1zto7" transform="translate(-7801 16822.398)">
        <g id="グループ_6109" data-name="グループ 6109" transform="translate(0)">
          <path id="パス_11412" data-name="パス 11412" d="M113.508-528.064a40.2,40.2,0,0,1,3.179-3.257c2.582-2.1,5.222-2,7.564.345a14.831,14.831,0,0,1,4.494,8.168,4.691,4.691,0,0,1-2.356,4.98,12.053,12.053,0,0,1-8.37,1.573,24.718,24.718,0,0,1-14.464-7.578A44.114,44.114,0,0,1,91.81-544.187a24.4,24.4,0,0,1,.42-13.769,12.366,12.366,0,0,1,4.37-6.257c2.5-1.865,5-1.78,7.248.384a15.207,15.207,0,0,1,4.6,8.025,4.733,4.733,0,0,1-2.023,5.049,10.115,10.115,0,0,1-4.792,1.787c-.547.071-.783.262-.723.8a32.59,32.59,0,0,0,.594,4.85,24.392,24.392,0,0,0,8.717,13.208A34.772,34.772,0,0,0,113.508-528.064Z" transform="translate(-91.018 565.537)" fill="#1d9612"/>
        </g>
      </g>
      <g id="グループ_17615" data-name="グループ 17615" transform="translate(-7745.464 16824.033)">
        <g id="_076-256-3844" data-name=" 076-256-3844" style="isolation: isolate">
          <g id="グループ_13321" data-name="グループ 13321" style="isolation: isolate">
            <path id="パス_22232" data-name="パス 22232" d="M2031.981-9299.113c-7.4,0-13.836-4.846-13.836-13.518v-19.13c0-8.674,6.439-13.52,13.836-13.52s13.773,4.846,13.773,13.52v19.13C2045.754-9303.959,2039.379-9299.113,2031.981-9299.113Zm5.483-32.52c0-3.827-2.232-6.186-5.483-6.186s-5.548,2.358-5.548,6.186v18.937c0,3.826,2.3,6.123,5.548,6.123s5.483-2.3,5.483-6.123Z" transform="translate(-2018.145 9345.28)" fill="#1d9612"/>
            <path id="パス_22233" data-name="パス 22233" d="M2061.325-9299.541h-8.99l14.73-37.94h-11.988v7.141h-7.906v-14.6h28.886v7.462Z" transform="translate(-2014.138 9345.325)" fill="#1d9612"/>
            <path id="パス_22234" data-name="パス 22234" d="M2090.519-9299.159c-8.035,0-14.156-5.036-14.156-14.028,0-4.145,1.786-7.972,3.826-12.114l9.565-19.642h9.054l-9.438,18.748a8.969,8.969,0,0,1,3.38-.573c6.122,0,11.923,5.036,11.923,13.453C2104.674-9304.387,2098.553-9299.159,2090.519-9299.159Zm0-20.724c-3.38,0-5.867,2.423-5.867,6.632s2.487,6.632,5.867,6.632,5.867-2.425,5.867-6.632C2096.386-9317.269,2094.027-9319.883,2090.519-9319.883Z" transform="translate(-2012.892 9345.135)" fill="#1d9612"/>
            <path id="パス_22235" data-name="パス 22235" d="M2106.285-9320.721v-7.715h19.641v7.715Z" transform="translate(-2008.252 9347.604)" fill="#1d9612"/>
            <path id="パス_22236" data-name="パス 22236" d="M2129.035-9299.5v-7.462l16.962-19.7c1.658-1.977,2.36-3.379,2.36-5.484,0-3.379-1.978-5.674-5.485-5.674-2.742,0-5.547,1.4-5.547,5.8h-8.29c0-8.29,6.058-13.264,13.837-13.264,8.036,0,13.775,5.038,13.775,13.2,0,4.4-1.723,6.76-4.847,10.394l-12.689,14.729h17.537v7.462Z" transform="translate(-2005.111 9345.28)" fill="#1d9612"/>
            <path id="パス_22237" data-name="パス 22237" d="M2182.078-9302.857c-2.04,2.04-5.294,3.7-10.011,3.7s-8.162-1.658-10.139-3.635c-2.805-2.806-3.444-6.122-3.7-9.437h8.29c.446,3.569,2.1,5.611,5.548,5.611a5.34,5.34,0,0,0,3.953-1.467c1.467-1.467,1.785-3.89,1.785-6.759,0-5.229-1.53-8.162-5.547-8.162-3.38,0-4.911,1.912-5.484,3.7h-7.589v-25.634h25.888v7.462H2166.71v9.755a10.409,10.409,0,0,1,6.823-2.3,11.69,11.69,0,0,1,8.481,3.063c3.572,3.57,4.081,7.842,4.081,12.115C2186.094-9309.744,2185.393-9306.173,2182.078-9302.857Z" transform="translate(-2001.081 9345.325)" fill="#1d9612"/>
            <path id="パス_22238" data-name="パス 22238" d="M2201.186-9299.159c-8.035,0-14.156-5.036-14.156-14.028,0-4.145,1.787-7.972,3.827-12.114l9.564-19.642h9.054l-9.437,18.748a8.96,8.96,0,0,1,3.379-.573c6.122,0,11.925,5.036,11.925,13.453C2215.343-9304.387,2209.221-9299.159,2201.186-9299.159Zm0-20.724c-3.38,0-5.867,2.423-5.867,6.632s2.487,6.632,5.867,6.632,5.867-2.425,5.867-6.632C2207.053-9317.269,2204.694-9319.883,2201.186-9319.883Z" transform="translate(-1997.104 9345.325)" fill="#1d9612"/>
            <path id="パス_22239" data-name="パス 22239" d="M2216.952-9320.721v-7.715h19.641v7.715Z" transform="translate(-1992.973 9347.604)" fill="#1d9612"/>
            <path id="パス_22240" data-name="パス 22240" d="M2253.224-9299.113c-7.4,0-14.348-3.89-14.475-13.391h8.29c.127,4.082,2.933,5.931,6.186,5.931,3.57,0,6.121-2.233,6.121-6.314,0-3.761-2.3-6.247-6.377-6.247h-1.211v-7.206h1.211c4.018,0,5.739-2.487,5.739-5.676,0-3.825-2.55-5.8-5.547-5.8a5.392,5.392,0,0,0-5.613,5.482h-8.289c.191-8.1,6.249-12.944,13.9-12.944,8.035,0,13.836,5.357,13.836,13.009,0,4.91-2.232,7.716-5.228,9.311,3.251,1.722,5.867,4.846,5.867,10.33C2267.635-9303.576,2261-9299.113,2253.224-9299.113Z" transform="translate(-1989.964 9345.28)" fill="#1d9612"/>
            <path id="パス_22241" data-name="パス 22241" d="M2282.7-9299.113c-8.033,0-14.539-4.782-14.539-13.583a11.748,11.748,0,0,1,5.676-10.2,11.284,11.284,0,0,1-5.1-9.438c0-8.033,6.375-12.944,13.964-12.944s13.9,4.911,13.9,12.944a11.287,11.287,0,0,1-5.1,9.438,11.788,11.788,0,0,1,5.739,10.2C2297.245-9303.9,2290.739-9299.113,2282.7-9299.113Zm0-20.021a6.232,6.232,0,0,0-6.249,6.313,6.179,6.179,0,0,0,6.249,6.249,6.18,6.18,0,0,0,6.25-6.249A6.234,6.234,0,0,0,2282.7-9319.135Zm0-18.684a5.583,5.583,0,0,0-5.674,5.738,5.546,5.546,0,0,0,5.674,5.739,5.5,5.5,0,0,0,5.612-5.739A5.531,5.531,0,0,0,2282.7-9337.818Z" transform="translate(-1985.902 9345.28)" fill="#1d9612"/>
            <path id="パス_22242" data-name="パス 22242" d="M2323.271-9305.981v6.44H2315.3v-6.44h-18.556v-7.843l15.559-31.119h9.055l-15.559,31.119h9.5v-8.481h7.971v8.481h4.144v7.843Z" transform="translate(-1981.957 9345.325)" fill="#1d9612"/>
            <path id="パス_22243" data-name="パス 22243" d="M2352.576-9305.981v6.44H2344.6v-6.44H2326.05v-7.843l15.559-31.119h9.054l-15.558,31.119h9.5v-8.481h7.971v8.481h4.145v7.843Z" transform="translate(-1977.911 9345.325)" fill="#1d9612"/>
          </g>
        </g>
      </g>
    </g>
  </g>
</svg>
